<?xml version="1.0" encoding="UTF-8"?>
<svg width="32px" height="32px" viewBox="0 0 32 32" version="1.1" xmlns="http://www.w3.org/2000/svg" xmlns:xlink="http://www.w3.org/1999/xlink">
    <defs>
        <linearGradient x1="95.2866895%" y1="53.5316347%" x2="5.83346014%" y2="43.6559614%" id="linearGradient-1">
            <stop stop-color="#61E1FF" offset="0%"></stop>
            <stop stop-color="#326CFF" offset="100%"></stop>
        </linearGradient>
        <path d="M13.7174014,12.9686397 C14.6624626,13.1129672 15.163889,13.3090265 15.2216807,13.5568178 C15.3083683,13.9285047 13.7832677,13.9073681 10.4994023,14.9104146 C9.01353869,15.364267 7.56849038,15.9371061 6.16425737,16.6289319 C4.9263674,17.2415732 3.9590838,18.2912489 3.45165596,19.5758561 L2.61626756,21.6865861 C2.28904522,22.5133609 2.69401244,23.4488604 3.52078718,23.7760827 C3.95255423,23.9469682 4.43707807,23.92311 4.84995685,23.7106112 C8.96370208,21.5936421 11.694183,20.2218137 13.0413996,19.5951262 C14.4138313,18.9567092 16.3804109,18.1514719 18.9411383,17.1794142 L18.9415717,17.1805518 C19.6767387,16.9004532 20.0456446,16.0774179 19.7655461,15.3422508 C19.6574696,15.0585854 19.4616017,14.8168626 19.206503,14.6523293 C18.8619603,14.4320117 18.4910676,14.2328236 18.0930929,14.0559001 C16.1056359,13.2461899 14.647072,12.8837698 13.7174014,12.9686397 Z" id="path-2"></path>
        <filter x="-527.2%" y="-632.6%" width="1154.3%" height="1758.1%" filterUnits="objectBoundingBox" id="filter-3">
            <feOffset dx="0" dy="25" in="SourceAlpha" result="shadowOffsetOuter1"></feOffset>
            <feGaussianBlur stdDeviation="31" in="shadowOffsetOuter1" result="shadowBlurOuter1"></feGaussianBlur>
            <feColorMatrix values="0 0 0 0 0.278431373   0 0 0 0 0.419607843   0 0 0 0 0.976470588  0 0 0 0.04 0" type="matrix" in="shadowBlurOuter1"></feColorMatrix>
        </filter>
        <linearGradient x1="95.2866895%" y1="52.8684709%" x2="5.83346014%" y2="44.8472332%" id="linearGradient-4">
            <stop stop-color="#61E1FF" offset="0%"></stop>
            <stop stop-color="#326CFF" offset="100%"></stop>
        </linearGradient>
        <path d="M0.249891404,11.60951 C0.136902159,11.2970315 0.412746801,10.8888913 1.07742533,10.3850896 C3.03134124,9.00248575 5.51873994,7.75185074 8.53962144,6.63318462 C11.0935146,5.68744949 14.1652314,4.81533211 17.754772,4.01683245 C18.3517372,3.88408905 18.9432617,4.26044866 19.0759713,4.85742139 C19.1237371,5.07228823 19.1063819,5.29651569 19.0261228,5.50147375 L16.9544673,10.7942045 C16.786639,11.2230698 16.3708735,11.5032696 15.9103709,11.4978752 C11.3270209,11.4439399 7.78368944,12.1336557 5.28037668,13.5670228 C4.85750647,13.8508837 5.20253577,14.2643759 6.31546457,14.8074996 C4.8967976,14.2306464 0.419375271,12.0782278 0.249891404,11.60951 Z" id="path-5"></path>
        <filter x="-558.9%" y="-744.2%" width="1217.8%" height="2050.6%" filterUnits="objectBoundingBox" id="filter-6">
            <feOffset dx="0" dy="25" in="SourceAlpha" result="shadowOffsetOuter1"></feOffset>
            <feGaussianBlur stdDeviation="31" in="shadowOffsetOuter1" result="shadowBlurOuter1"></feGaussianBlur>
            <feColorMatrix values="0 0 0 0 0.278431373   0 0 0 0 0.419607843   0 0 0 0 0.976470588  0 0 0 0.04 0" type="matrix" in="shadowBlurOuter1"></feColorMatrix>
        </filter>
        <path d="M12.8212214,0 C16.1763981,3.79797664 17.8081885,5.69696496 17.7165924,5.69696496 C17.6249963,5.69696496 12.3239424,7.92391174 1.81343066,12.3778053 L0,7.74650764 L5.87046429,1.64817206 L12.8212214,0 Z" id="path-7"></path>
        <linearGradient x1="95.2866895%" y1="53.3782024%" x2="5.83346014%" y2="43.9315789%" id="linearGradient-9">
            <stop stop-color="#61E1FF" offset="0%"></stop>
            <stop stop-color="#326CFF" offset="100%"></stop>
        </linearGradient>
        <path d="M13.7606364,-0.655373294 L13.830799,-0.644448612 C14.7320814,-0.501166421 15.2109423,-0.308692496 15.2673815,-0.0670268374 C15.3542112,0.304766484 13.8266107,0.283623876 10.5373623,1.28695754 C8.49610374,1.90961149 6.53174929,2.75615726 4.64429897,3.82659486 C4.37454819,3.97963928 4.16516497,4.22024022 4.05082094,4.50853437 L1.77371072,10.2542128 C1.625668,10.6278238 1.80859109,11.0506802 2.1822245,11.1986665 C2.37776868,11.2761164 2.59725978,11.2651677 2.78413455,11.1686595 L4.02027201,10.5312699 C8.62140358,8.1618556 11.6424884,6.64243579 13.0835265,5.97301048 L13.2351445,5.90300804 C14.8260364,5.17287178 17.1662678,4.23262571 20.2558389,3.08226983 L20.6586501,2.93266592 C20.8388778,2.86589128 20.9308497,2.66565631 20.8640751,2.48542859 C20.8502345,2.44807223 20.8300826,2.41336967 20.8044975,2.38283338 C20.1202051,1.56619853 19.233209,0.915984436 18.1435006,0.432198415 C16.1527857,-0.377743616 14.691831,-0.740267519 13.7606364,-0.655373294 Z" id="path-10"></path>
        <filter x="-550.5%" y="-675.5%" width="1201.1%" height="1870.5%" filterUnits="objectBoundingBox" id="filter-11">
            <feOffset dx="0" dy="25" in="SourceAlpha" result="shadowOffsetOuter1"></feOffset>
            <feGaussianBlur stdDeviation="31" in="shadowOffsetOuter1" result="shadowBlurOuter1"></feGaussianBlur>
            <feColorMatrix values="0 0 0 0 0.278431373   0 0 0 0 0.419607843   0 0 0 0 0.976470588  0 0 0 0.04 0" type="matrix" in="shadowBlurOuter1"></feColorMatrix>
        </filter>
    </defs>
    <g id="Artboard-Copy" stroke="none" stroke-width="1" fill="none" fill-rule="evenodd">
        <g id="logo/W-Copy">
            <rect id="Path" fill="#FFFFFF" x="0" y="0" width="32" height="32" rx="4"></rect>
            <g id="Group" transform="translate(5.000000, 3.000000)">
                <g id="Path">
                    <use fill="black" fill-opacity="1" filter="url(#filter-3)" xlink:href="#path-2"></use>
                    <use fill="url(#linearGradient-1)" fill-rule="evenodd" xlink:href="#path-2"></use>
                </g>
                <path d="M13.3117204,12.4801832 C12.1169173,13.4301614 10.6044271,13.9977145 8.95937778,13.9977145 C8.2947114,13.9977145 7.65168512,13.9050622 7.04250979,13.7319685 C8.69519084,13.0555164 10.7721773,12.6339777 13.2593393,12.4831232 L13.3117204,12.4801832 Z M15.5145722,4.54121889 C15.8013818,5.30586535 15.958235,6.13404378 15.958235,6.99885724 C15.958235,8.71796758 15.3384285,10.2923143 14.3100896,11.5106233 C10.8086036,11.6106254 7.98590671,12.196041 5.8418349,13.2666983 C4.28124717,12.4890607 3.05197073,11.1456244 2.42257953,9.50498929 C4.13433364,8.46670363 6.17330812,7.50945684 8.53962144,6.63318462 C10.4940505,5.90943773 12.7517404,5.22880469 15.3126911,4.59128551 L15.5145722,4.54121889 Z M8.95937778,0 C11.6255207,0 13.9434718,1.49078673 15.1251234,3.68425261 L14.8696259,3.74813952 C12.3669258,4.37779949 10.1501292,5.04990987 8.21823806,5.76531073 C5.8909137,6.62714491 3.86596681,7.56902517 2.1430532,8.59335147 C2.02362179,8.08116471 1.96052054,7.54738002 1.96052054,6.99885724 C1.96052054,3.13349512 5.09401566,0 8.95937778,0 Z" id="Path" fill="#41E0EF"></path>
                <g id="Path">
                    <use fill="black" fill-opacity="1" filter="url(#filter-6)" xlink:href="#path-5"></use>
                    <use fill="url(#linearGradient-4)" fill-rule="evenodd" xlink:href="#path-5"></use>
                </g>
                <g id="Path" transform="translate(0.000000, 13.622195)">
                    <mask id="mask-8" fill="white">
                        <use xlink:href="#path-7"></use>
                    </mask>
                    <g id="Mask"></g>
                    <g mask="url(#mask-8)">
                        <use fill="black" fill-opacity="1" filter="url(#filter-11)" xlink:href="#path-10"></use>
                        <use fill="url(#linearGradient-9)" fill-rule="evenodd" xlink:href="#path-10"></use>
                    </g>
                </g>
            </g>
        </g>
    </g>
</svg>