<?xml version="1.0" encoding="UTF-8"?>
<svg width="58px" height="16px" viewBox="0 0 58 16" version="1.1" xmlns="http://www.w3.org/2000/svg" xmlns:xlink="http://www.w3.org/1999/xlink">
    <defs>
        <linearGradient x1="96.7903494%" y1="50.0362593%" x2="-2.11920693%" y2="50.0362593%" id="linearGradient-1">
            <stop stop-color="#AD579D" offset="0%"></stop>
            <stop stop-color="#36B3C2" offset="100%"></stop>
        </linearGradient>
    </defs>
    <g id="Page-1" stroke="none" stroke-width="1" fill="none" fill-rule="evenodd">
        <g id="Vote" transform="translate(-943.000000, -432.000000)" fill="url(#linearGradient-1)">
            <g id="编组-11-copy" transform="translate(670.000000, 27.000000)">
                <g id="编组-4" transform="translate(1.000000, 0.000000)">
                    <g transform="translate(34.000000, 32.000000)" >
                        <g transform="translate(4.000000, 333.000000)">
                            <g id="aave-seeklogo.com" transform="translate(234.000000, 40.000000)">
                                <path d="M24.3967235,0.0112670095 C25.009742,0.0225340191 25.5432952,0.405612344 25.7589869,0.957695812 L25.7930435,1.04783189 L31.4123802,14.5682433 C31.457789,14.6696464 31.4804934,14.7710495 31.4804934,14.8724526 L31.4804934,14.9513217 C31.4918456,15.2217299 31.401028,15.4921381 31.2080407,15.7062113 C31.0150534,15.9090175 30.7426007,16.0104206 30.4587958,15.9991536 C30.2544563,15.9991536 30.0501168,15.9315515 29.8798338,15.8076144 C29.7322553,15.6949443 29.6187333,15.5597402 29.5279158,15.4020021 L29.482507,15.300599 L24.135623,2.07312976 L22.160341,6.92921087 L23.1139254,6.92921087 C23.6361264,6.92921087 24.0675098,7.33482322 24.1129186,7.85310566 L24.1129186,7.93197472 L24.1129186,7.95450874 C24.1129186,8.47279118 23.7042396,8.90093754 23.1933908,8.95727259 L23.1139254,8.95727259 L21.3429829,8.95727259 L18.7660346,15.300599 C18.6865692,15.5034051 18.5389907,15.6724103 18.3687078,15.8076144 C18.1984248,15.9315515 17.9940853,15.9991536 17.7897458,15.9991536 C17.5059409,16.0104206 17.2334882,15.9090175 17.0405009,15.7062113 C16.8588658,15.5034051 16.756696,15.2329969 16.7680482,14.9513217 C16.7680482,14.8499186 16.7794004,14.7597825 16.813457,14.6583794 L16.8475136,14.5682433 L19.1747136,8.94600558 L18.1757204,8.94600558 C17.6535195,8.94600558 17.222136,8.54039324 17.1767273,8.0221108 L17.1767273,7.93197472 C17.1767273,7.41369228 17.5854063,6.98554592 18.0962551,6.92921087 L18.1757204,6.92921087 L20.0488327,6.92921087 L22.4895547,1.03656488 C22.6711898,0.461947392 23.1933908,0.0563350477 23.7950571,0 L23.8972269,0 L24.3967235,0 L24.3967235,0.0112670095 Z M7.60682659,0.0112670095 C8.21984514,0.0225340191 8.76475052,0.394345334 8.98044223,0.957695812 L9.01449881,1.04783189 L14.6338355,14.5682433 C14.6678921,14.6583794 14.6905965,14.7597825 14.7019487,14.8499186 L14.7019487,15.0414577 C14.6905965,15.289332 14.5997789,15.5146721 14.429496,15.7062113 C14.2365087,15.9090175 13.964056,16.0104206 13.6802511,15.9991536 C13.4759116,15.9991536 13.2715721,15.9315515 13.1012891,15.8076144 C12.9537106,15.6949443 12.8401886,15.5597402 12.7493711,15.4020021 L12.7039623,15.300599 L7.3570783,2.07312976 L5.4045007,6.92921087 L6.35808511,6.92921087 C6.89163829,6.92921087 7.32302171,7.33482322 7.36843049,7.85310566 L7.36843049,7.93197472 L7.36843049,7.95450874 C7.36843049,8.48405819 6.95975146,8.91220455 6.43755047,8.95727259 L6.35808511,8.95727259 L4.57579044,8.95727259 L1.9988421,15.300599 C1.91937673,15.5034051 1.77179819,15.6724103 1.60151526,15.8076144 C1.43123233,15.9315515 1.22689282,15.9991536 1.0225533,15.9991536 C0.738748417,16.0104206 0.466295729,15.9090175 0.273308408,15.7062113 C0.091673283,15.5034051 -0.010496475,15.2329969 0.000855720346,14.9513217 C0.000855720346,14.8499186 0.0122079157,14.7597825 0.0462645017,14.6583794 L0.0803210877,14.5682433 L2.40752113,8.94600558 L1.40852794,8.94600558 C0.886326956,8.94600558 0.454943534,8.54039324 0.409534752,8.0221108 L0.409534752,7.93197472 C0.409534752,7.41369228 0.818213784,6.98554592 1.32906257,6.92921087 L1.40852794,6.92921087 L3.25893578,6.92921087 L5.69965778,1.03656488 C5.8812929,0.461947392 6.40349389,0.0563350477 7.00516024,0 L7.10733,0 L7.60682659,0 L7.60682659,0.0112670095 Z M31.0945187,0.0112670095 C31.2988582,0.0112670095 31.5031978,0.0788690668 31.6734807,0.202806172 C31.8437636,0.338010286 31.9913422,0.50701543 32.0708075,0.709821602 L37.4176915,13.9372908 L42.7645755,0.709821602 C42.8553931,0.50701543 42.9916194,0.338010286 43.1619024,0.202806172 C43.3321853,0.0788690668 43.5365248,0.0112670095 43.7408643,0.0112670095 C44.013317,-1.12389265e-13 44.2857697,0.101403086 44.478757,0.304209258 C44.6717443,0.50701543 44.7625619,0.777423659 44.7625619,1.0590989 C44.7625619,1.19430301 44.7398575,1.31824012 44.6944487,1.44217722 L39.0751121,14.9625887 C38.8821247,15.5710072 38.314515,15.9878866 37.6674398,15.9991536 L37.1679432,15.9991536 C36.5208681,15.9878866 35.9532583,15.5710072 35.760271,14.9625887 L30.1409343,1.44217722 C30.0955255,1.31824012 30.0728212,1.19430301 30.0728212,1.0590989 C30.061469,0.777423659 30.1636387,0.518282439 30.3452738,0.304209258 C30.5496134,0.101403086 30.822066,-0.0112670095 31.0945187,0.0112670095 Z M57.0115807,0.112670095 C57.2726812,0.101403086 57.5224295,0.214073181 57.7040646,0.405612344 C57.8970519,0.585884497 57.9992217,0.833758707 57.9992217,1.09289993 C58.0105739,1.35204115 57.8970519,1.58864835 57.7040646,1.7689205 C57.5224295,1.94919265 57.2726812,2.05059574 57.0115807,2.05059574 L48.9401698,2.05059574 L48.9401698,7.04188097 L56.1942226,7.04188097 C56.4553231,7.03061396 56.7050714,7.14328405 56.8867065,7.33482322 C57.0683417,7.51509537 57.1818636,7.76296958 57.1818636,8.0221108 C57.1932158,8.28125202 57.0796938,8.51785922 56.8867065,8.69813137 C56.7050714,8.87840353 56.4553231,8.97980661 56.1942226,8.97980661 L48.9401698,8.97980661 L48.9401698,13.9936259 L57.0115807,13.9936259 C57.2726812,13.9823589 57.5224295,14.0950289 57.7040646,14.2865681 C57.8970519,14.4668403 57.9992217,14.7147145 57.9992217,14.9738557 C58.0105739,15.2329969 57.8970519,15.4696041 57.7040646,15.6498763 C57.5224295,15.8301484 57.2726812,15.9315515 57.0115807,15.9202845 L47.8844156,15.9202845 C47.6119629,15.9428185 47.3395103,15.8301484 47.1578751,15.6273422 C46.9648878,15.4358031 46.862718,15.1766619 46.862718,14.9062536 L46.862718,1.16050198 C46.8513659,0.878826745 46.9648878,0.619685525 47.1578751,0.416879353 C47.3508624,0.214073181 47.6119629,0.112670095 47.8844156,0.123937105 L57.0115807,0.123937105 L57.0115807,0.112670095 Z" id="形状"></path>
                            </g>
                        </g>
                    </g>
                </g>
            </g>
        </g>
    </g>
</svg>