<?xml version="1.0" encoding="UTF-8"?>
<svg width="54px" height="54px" viewBox="0 0 54 54" version="1.1" xmlns="http://www.w3.org/2000/svg" xmlns:xlink="http://www.w3.org/1999/xlink">
    <title>agree</title>
    <g  stroke="none" stroke-width="1" fill="none" fill-rule="evenodd">
        <g  transform="translate(-1748.000000, -445.000000)">
            <g id="agree" transform="translate(1748.000000, 445.000000)">
                <path d="M17.9471964,-7.25088215e-16 L36.0528036,7.25088215e-16 C42.2934348,-4.21297134e-16 44.5564384,0.649779278 46.8379199,1.86992893 C49.1194014,3.09007857 50.9099214,4.88059859 52.1300711,7.16208008 C53.3502207,9.44356156 54,11.7065652 54,17.9471964 L54,36.0528036 C54,42.2934348 53.3502207,44.5564384 52.1300711,46.8379199 C50.9099214,49.1194014 49.1194014,50.9099214 46.8379199,52.1300711 C44.5564384,53.3502207 42.2934348,54 36.0528036,54 L17.9471964,54 C11.7065652,54 9.44356156,53.3502207 7.16208008,52.1300711 C4.88059859,50.9099214 3.09007857,49.1194014 1.86992893,46.8379199 C0.649779278,44.5564384 2.80864756e-16,42.2934348 -4.83392144e-16,36.0528036 L4.83392144e-16,17.9471964 C-2.80864756e-16,11.7065652 0.649779278,9.44356156 1.86992893,7.16208008 C3.09007857,4.88059859 4.88059859,3.09007857 7.16208008,1.86992893 C9.44356156,0.649779278 11.7065652,4.21297134e-16 17.9471964,-7.25088215e-16 Z" id="Rectangle" fill="#FFEBF5"></path>
                <g id="Group" transform="translate(14.000000, 15.000000)" fill="#D51172" fill-rule="nonzero" stroke="#D51172" stroke-width="0.8">
                    <g id="Shape">
                        <path d="M9.25955423,10.3354366 C8.80177048,9.87799305 8.0589809,9.87799305 7.60129641,10.3354366 C7.14351264,10.7929793 7.14351264,11.5342918 7.60129641,11.9917353 L12.4256714,16.809076 C12.6546957,17.0381945 12.9549632,17.1527537 13.2552307,17.1527537 C13.5546043,17.1527537 13.8551697,17.0381945 14.0839292,16.8094727 L25.1204976,5.78801269 C25.5777517,5.33043687 25.5777517,4.58885992 25.1204976,4.13194537 C24.6623166,3.6743696 23.9198911,3.6743696 23.4617101,4.13194537 L13.2552307,14.3260992 L9.25955423,10.3354366 L9.25955423,10.3354366 Z M24.9333916,11.1857443 C24.8828394,10.6960325 24.4435616,10.3395597 23.9535661,10.3904419 C23.4630409,10.4409604 23.1063946,10.8788975 23.1572117,11.3690061 C23.1953493,11.7361908 23.214385,12.111079 23.214385,12.4835536 C23.214385,18.3836694 18.4079864,23.1837188 12.5000662,23.1837188 C6.59188119,23.1837188 1.78564807,18.3836694 1.78564807,12.4835536 C1.78564807,6.5831733 6.59188119,1.78325617 12.5000662,1.78325617 C14.607699,1.78325617 16.6472006,2.39374294 18.3976575,3.54885733 C18.809259,3.82032803 19.3630157,3.70679371 19.6348456,3.29609959 C19.9062781,2.88517406 19.7932557,2.33201649 19.3817535,2.06054579 C17.3387759,0.712515609 14.9586842,0 12.5000662,0 C5.60752027,0 0,5.60024495 0,12.4835536 C0,19.3668622 5.60752027,24.9669749 12.5000662,24.9669749 C19.3924797,24.9669749 25,19.3668622 25,12.4835536 C25,12.0500137 24.977753,11.6134983 24.9333916,11.1857443 L24.9333916,11.1857443 Z"></path>
                    </g>
                </g>
            </g>
        </g>
    </g>
</svg>