<?xml version="1.0" encoding="UTF-8"?>
<svg width="72px" height="72px" viewBox="0 0 72 72" version="1.1" xmlns="http://www.w3.org/2000/svg" xmlns:xlink="http://www.w3.org/1999/xlink">
    <title>Apps </title>
    <g id="Page-2" stroke="none" stroke-width="1" fill="none" fill-rule="evenodd">
        <g id="Icon" transform="translate(-723.000000, -288.000000)">
            <g id="Apps-" transform="translate(723.000000, 288.000000)">
                <rect id="path" x="0" y="0" width="72" height="72"></rect>
                <g id="group" transform="translate(7.000000, 9.000000)" fill="#FFFFFF">
                    <path d="M51.9170558,38.1785747 L30.4717375,44.7422926 C29.5274023,45.0321105 28.508233,45.0321105 27.5638978,44.7422926 L6.08294421,38.1752813 C3.08601622,37.2597201 0,39.3213796 0,42.236026 L0,42.2393194 C0,44.080322 1.27930696,45.7171348 3.17154092,46.2967707 L27.5603342,53.7826365 C28.508233,54.0724545 29.5309658,54.0724545 30.4788646,53.7826365 L54.8320226,46.2967707 C56.7242566,45.7171348 58,44.080322 58,42.2393194 C58,39.3213796 54.9139838,37.2630134 51.9170558,38.1785747" id="path" opacity="0.5"></path>
                    <path d="M3.17154092,30.5412131 L27.5603342,38.0270789 C28.508233,38.3168969 29.5309658,38.3168969 30.4788646,38.0270789 L54.8320226,30.5412131 C56.7242566,29.9615772 58,28.3247644 58,26.4837618 C58,23.565822 54.9139838,21.5074559 51.9170558,22.4230171 L30.4717375,28.986735 C29.5274023,29.2765529 28.508233,29.2765529 27.5638978,28.986735 L6.08294421,22.4197237 C3.08601622,21.5041625 0,23.565822 0,26.4804684 L0,26.4804684 C0,28.3247644 1.27930696,29.9615772 3.17154092,30.5412131 M2.55861391,7.3656573 L24.3389039,0.696551093 C27.3679037,-0.232183698 30.6356599,-0.232183698 33.6646596,0.696551093 L55.4449496,7.3656573 C58.8338658,8.40307383 58.8338658,12.8326777 55.4449496,13.8700942 L33.6646596,20.5392004 C30.6356599,21.4679352 27.3679037,21.4679352 24.3389039,20.5392004 L2.55861391,13.8700942 C-0.830302286,12.8326777 -0.830302286,8.40307383 2.55861391,7.3656573" id="shap"></path>
                </g>
            </g>
        </g>
    </g>
</svg>