<?xml version="1.0" encoding="UTF-8"?>
<svg width="64px" height="18px" viewBox="0 0 64 18" version="1.1" xmlns="http://www.w3.org/2000/svg" xmlns:xlink="http://www.w3.org/1999/xlink">
    <defs>
        <linearGradient x1="72.7431907%" y1="53.9435988%" x2="1.39105058%" y2="53.1338448%" id="linearGradient-1">
            <stop stop-color="#6EDAFF" offset="0%"></stop>
            <stop stop-color="#6EDAFF" stop-opacity="0" offset="100%"></stop>
        </linearGradient>
    </defs>
    <g id="Page-1" stroke="none" stroke-width="1" fill="none" fill-rule="evenodd">
        <g id="Wallet-Connect-Copy" transform="translate(-803.000000, -682.000000)" fill="url(#linearGradient-1)" fill-rule="nonzero">
            <g id="Group" transform="translate(803.750000, 682.000000)">
                <path d="M45.7603121,0.585786438 C46.5413607,-0.195262146 47.8076906,-0.195262146 48.5887392,0.585786438 L62.2315964,14.2286436 C63.4915261,15.4885733 62.5991925,17.6428571 60.8173828,17.6428571 L2,17.6428571 C0.8954305,17.6428571 0,16.7474266 0,15.6428571 C0,14.5382876 0.8954305,13.6428571 2,13.6428571 L55.988,13.642 L45.7603121,3.41421356 C45.0203713,2.6742728 44.9814271,1.49878864 45.6434794,0.713001205 L45.7603121,0.585786438 Z" id="Path"></path>
                <path d="M45.7603121,0.585786438 C46.5413607,-0.195262146 47.8076906,-0.195262146 48.5887392,0.585786438 L62.2315964,14.2286436 C63.4915261,15.4885733 62.5991925,17.6428571 60.8173828,17.6428571 L2,17.6428571 C0.8954305,17.6428571 0,16.7474266 0,15.6428571 C0,14.5382876 0.8954305,13.6428571 2,13.6428571 L55.988,13.642 L45.7603121,3.41421356 C45.0203713,2.6742728 44.9814271,1.49878864 45.6434794,0.713001205 L45.7603121,0.585786438 Z" id="Path"></path>
            </g>
        </g>
    </g>
</svg>