<?xml version="1.0" encoding="UTF-8"?>
<svg width="16px" height="16px" viewBox="0 0 16 16" version="1.1" xmlns="http://www.w3.org/2000/svg" xmlns:xlink="http://www.w3.org/1999/xlink">
    <g id="Page-1" stroke="none" stroke-width="1" fill="none" fill-rule="evenodd" opacity="0.5">
        <g id="Create-DAO-Add-managers" transform="translate(-546.000000, -304.000000)" fill="#FFFFFF" fill-rule="nonzero">
            <g id="Group-3" transform="translate(420.000000, 200.000000)">
                <g id="Group" transform="translate(126.000000, 104.000000)">
                    <path d="M2.83088954,13.1378299 L2.11143695,13.1378299 C0.945329423,13.1378299 0,12.1925005 0,11.026393 L0,2.11143695 C0,0.945329423 0.945329423,0 2.11143695,0 L11.026393,0 C12.1925005,0 13.1378299,0.945329423 13.1378299,2.11143695 L13.1378299,2.86217009 L13.8572825,2.86217009 C15.02339,2.86217009 15.9687195,3.80749951 15.9687195,4.97360704 L15.9687195,13.888563 C15.9687195,15.0546706 15.02339,16 13.8572825,16 L4.94232649,16 C3.77621896,16 2.83088954,15.0546706 2.83088954,13.888563 L2.83088954,13.1378299 Z M11.7302053,2.86217009 L11.7302053,2.11143695 C11.7302053,1.72272923 11.4151007,1.40762463 11.026393,1.40762463 L2.11143695,1.40762463 C1.72272923,1.40762463 1.40762463,1.72272923 1.40762463,2.11143695 L1.40762463,11.026393 C1.40762463,11.4151007 1.72272923,11.7302053 2.11143695,11.7302053 L2.83088954,11.7302053 L2.83088954,4.97360704 C2.83088954,3.80749951 3.77621896,2.86217009 4.94232649,2.86217009 L11.7302053,2.86217009 Z M4.94232649,4.26979472 C4.55361877,4.26979472 4.23851417,4.58489932 4.23851417,4.97360704 L4.23851417,13.888563 C4.23851417,14.2772708 4.55361877,14.5923754 4.94232649,14.5923754 L13.8572825,14.5923754 C14.2459902,14.5923754 14.5610948,14.2772708 14.5610948,13.888563 L14.5610948,4.97360704 C14.5610948,4.58489932 14.2459902,4.26979472 13.8572825,4.26979472 L4.94232649,4.26979472 Z M8.6914565,8.62561095 L8.6914565,6.28410557 C8.6914565,5.89538221 9.00657674,5.58029326 9.39526882,5.58029326 C9.78399218,5.58029326 10.0990811,5.89538221 10.0990811,6.28410557 L10.0990811,8.62561095 L12.4406178,8.62561095 C12.8293099,8.62561095 13.1444301,8.94071554 13.1444301,9.32942326 C13.1444301,9.71813099 12.8293099,10.0332356 12.4406178,10.0332356 L10.0990811,10.0332356 L10.0990811,12.374741 C10.0990811,12.7634643 9.78397654,13.0785533 9.39526882,13.0785533 C9.00656109,13.0785533 8.6914565,12.7634643 8.6914565,12.374741 L8.6914565,10.0332356 L6.34995112,10.0332356 C5.9612434,10.0332356 5.64613881,9.71813099 5.64613881,9.32942326 C5.64613881,8.94071554 5.9612434,8.62561095 6.34995112,8.62561095 L8.6914565,8.62561095 Z" id="Shape"></path>
                </g>
            </g>
        </g>
    </g>
</svg>