<?xml version="1.0" encoding="UTF-8"?>
<svg width="72px" height="72px" viewBox="0 0 72 72" version="1.1" xmlns="http://www.w3.org/2000/svg" xmlns:xlink="http://www.w3.org/1999/xlink">
    <title>change-manager</title>
    <g id="Page-2" stroke="none" stroke-width="1" fill="none" fill-rule="evenodd">
        <g id="Icon" transform="translate(-1027.000000, -102.000000)">
            <g id="change-manager" transform="translate(1027.000000, 102.000000)">
                <rect id="ractangle" x="0" y="0" width="72" height="72"></rect>
                <path d="M61.0045,56.1925436 C61.0045,59.5405289 56.7485,59.999891 56.7485,59.999891 L43.2735,59.999891 L38.8635,59.999891 C38.8635,59.999891 36.6165,60.0523675 36.6165,57.8542662 L36.543,47.0670924 C36.6305,36.7111252 33.8795,32.9529678 27.5795,30.8986019 C25.756,29.5313618 25,29.1842932 25,26.5970543 C25,24.0098153 27.1245,24.0098153 27.1245,24.0098153 C27.1245,24.0098153 27.1245,24.0834359 27.8805,19.8239572 C28.6155,15.6906852 32.651,11.2804595 39.273,11.0245402 L39.273,11 C39.371,11 39.462,11.0105172 39.56,11.0105172 C39.6685,11.0105172 39.7735,11 39.8855,11 L39.8855,11.028046 C45.643,11.3190227 49.787,15.708214 50.5185,19.8239572 C51.278,24.0834359 51.278,24.0098153 51.278,24.0098153 C51.278,24.0098153 53.4025,24.0098153 53.4025,26.5970543 C53.4025,29.1842932 52.6465,30.0992923 50.823,31.4665324 C48.9995,32.8372783 49.542,35.7856088 46.7245,38.3868707 C45.2195,39.7751453 44.1415,40.8233627 44.1415,42.8041079 C44.1415,44.7778417 45.2055,45.2335884 46.266,45.8435878 C47.3265,46.4535873 54.47,48.4308268 57.8125,50.7165717 C61.155,53.0023167 61.0045,54.2153041 61.0045,56.1925436 Z M25.6800508,40 C26.9811118,40 28.1833294,40.6931155 28.8338599,41.8181818 L32.5120898,48.1818182 C33.1626367,49.306913 33.1626367,50.693087 32.5120898,51.8181818 L28.8338599,58.1818182 C28.1833294,59.3068845 26.9811118,60 25.6800508,60 L18.3199492,60 C17.0188882,60 15.8166707,59.3068844 15.1661402,58.1818182 L11.4879102,51.8181818 C10.8373633,50.693087 10.8373633,49.306913 11.4879102,48.1818182 L15.1661402,41.8181818 C15.8166707,40.6931156 17.0188882,40 18.3199492,40 L25.6800508,40 Z M24.6275673,45.4545455 L19.3706119,45.4545455 L16.7430447,50 L19.3706119,54.5454545 L24.6275673,54.5454545 L27.2551345,49.9981818 L24.6275673,45.4545455 Z" id="shap" fill="#45BEFF" fill-rule="nonzero"></path>
            </g>
        </g>
    </g>
</svg>