<?xml version="1.0" encoding="UTF-8"?>
<svg width="72px" height="72px" viewBox="0 0 72 72" version="1.1" xmlns="http://www.w3.org/2000/svg" xmlns:xlink="http://www.w3.org/1999/xlink">
    <title>Asset</title>
    <g id="Page-2" stroke="none" stroke-width="1" fill="none" fill-rule="evenodd">
        <g id="Icon" transform="translate(-267.000000, -288.000000)">
            <g id="Asset" transform="translate(267.000000, 288.000000)">
                <rect id="Rectanle" x="0" y="0" width="72" height="72"></rect>
                <g id="group" transform="translate(8.000000, 8.000000)" fill="#FFFFFF">
                    <path d="M50.7752498,32.1576464 L27.6368934,32.1576464 C25.7299999,32.1576464 24.1823762,30.6317835 24.1823762,28.7517023 L24.1823762,5.93868883 C24.1823762,3.70438951 22.0129394,2.00141747 19.8365935,2.62811118 C7.94614523,6.07152065 -0.621057499,17.1680865 0.0353007742,30.1481394 C0.729658737,43.8706881 12.2988369,55.2771949 26.2205414,55.9651956 C39.3857065,56.612325 50.6405237,48.1655836 54.1295861,36.4423241 C54.7686717,34.2965793 53.0414131,32.1576464 50.7752498,32.1576464" id="path"></path>
                    <path d="M52.5150119,27.0085256 L32.0608153,27.0085256 C30.1539218,27.0085256 28.6062981,25.4826626 28.6062981,23.6025815 L28.6062981,3.43598656 C28.6062981,1.37198444 30.4613739,-0.25605683 32.5340842,0.0334484172 C44.6525306,1.73301452 54.2422705,11.1879153 55.9660746,23.1359672 C56.2597085,25.1795336 54.6084493,27.0085256 52.5150119,27.0085256 Z" id="path" opacity="0.5"></path>
                </g>
            </g>
        </g>
    </g>
</svg>