<?xml version="1.0" encoding="UTF-8"?>
<svg width="24px" height="24px" viewBox="0 0 24 24" version="1.1" xmlns="http://www.w3.org/2000/svg" xmlns:xlink="http://www.w3.org/1999/xlink">
    <g id="Page-1" stroke="none" stroke-width="1" fill="none" fill-rule="evenodd">
        <g id="Create-DAO--Staged-Copy" transform="translate(-1397.000000, -831.000000)">
            <g transform="translate(1132.000000, 821.000000)">
                <g id="Close" transform="translate(265.000000, 10.000000)">
                    <rect id="Rectangle" x="0" y="0" width="24" height="24"></rect>
                    <g id="Group" transform="translate(12.198726, 12.198726) rotate(-45.000000) translate(-12.198726, -12.198726) translate(5.057659, 5.057659)" fill="#FFA4D1" fill-rule="nonzero">
                        <path d="M7.18729045,6.17054965e-13 C7.7395752,6.17054965e-13 8.18729045,0.44771525 8.18729045,1 L8.18729045,13.282133 C8.18729045,13.8344177 7.7395752,14.282133 7.18729045,14.282133 C6.6350057,14.282133 6.18729045,13.8344177 6.18729045,13.282133 L6.18729045,1 C6.18729045,0.44771525 6.6350057,6.17054965e-13 7.18729045,6.17054965e-13 Z" id="Path"></path>
                        <path d="M13.282133,5.86002604 C13.8344177,5.86002604 14.282133,6.30774129 14.282133,6.86002604 C14.282133,7.41231079 13.8344177,7.86002604 13.282133,7.86002604 L1,7.86002604 C0.44771525,7.86002604 -1.7637532e-12,7.41231079 -1.7637532e-12,6.86002604 C-1.7637532e-12,6.30774129 0.44771525,5.86002604 1,5.86002604 L13.282133,5.86002604 Z" id="Path"></path>
                    </g>
                </g>
            </g>
        </g>
    </g>
</svg>