<?xml version="1.0" encoding="UTF-8"?>
<svg width="96px" height="36px" viewBox="0 0 96 36" version="1.1" xmlns="http://www.w3.org/2000/svg" xmlns:xlink="http://www.w3.org/1999/xlink">
    <title>CMS</title>
    <g id="Page-2" stroke="none" stroke-width="1" fill="none" fill-rule="evenodd">
        <g id="Icon" transform="translate(-115.000000, -474.000000)" fill="#FFFFFF">
            <path d="M172.621939,484.435715 C172.380914,484.683165 172.152872,484.943246 171.921229,485.199777 C171.795367,485.339126 171.675843,485.326444 171.522902,485.226105 C171.255559,485.050688 170.983095,484.877249 170.695113,484.740183 C168.573105,483.730344 166.3477,483.546101 164.071128,484.009246 C162.095164,484.411264 160.418897,485.355258 159.204394,487.007158 C157.78553,488.937251 157.253025,491.103937 157.61337,493.468209 C157.95409,495.703327 159.03624,497.496454 160.96768,498.715951 C163.053126,500.032744 165.364028,500.321893 167.763014,500.083269 C169.109363,499.949348 170.383146,499.553214 171.523815,498.794884 C171.634058,498.721582 171.781624,498.739032 171.869961,498.837597 C172.077466,499.069068 172.297243,499.291154 172.485732,499.537184 C172.521787,499.584259 172.595975,499.701441 172.595975,499.701441 L172.924271,499.701441 L172.924271,494.833092 L172.680661,494.833092 C172.680661,494.833092 172.661036,494.936779 172.638977,495.025756 C172.379951,496.072727 171.863673,496.987451 171.124626,497.766276 C169.699931,499.267616 167.963166,500.006264 165.88487,499.737457 C163.640195,499.447041 162.088167,498.163322 161.110885,496.167994 C160.357284,494.62947 160.133704,492.984265 160.283704,491.28534 C160.43913,489.524222 160.96195,487.886728 162.062761,486.486437 C163.589891,484.543968 165.590296,483.782442 168.009718,484.353891 C169.753835,484.765851 171.023054,485.870906 171.911492,487.401314 C172.177415,487.859386 172.46418,488.540661 172.615498,488.892559 C172.655255,488.985036 172.701198,489.252067 172.701198,489.252067 L172.972395,489.252067 L172.972395,484.281502 L172.705407,484.281502 C172.705407,484.281502 172.662304,484.39427 172.621939,484.435715 M210.93933,494.875449 C210.710577,493.331802 209.754948,492.334797 208.390547,491.702171 C207.818843,491.437118 207.206926,491.259418 206.616054,491.034542 C205.687657,490.681222 204.733346,490.379899 203.841866,489.94922 C202.827109,489.458885 202.163265,488.656523 202.153428,487.44707 C202.144705,486.368444 202.478073,485.44814 203.399523,484.821652 C204.426298,484.123536 206.300689,483.848591 207.841206,485.1073 C208.804847,485.894596 209.419198,486.920617 209.87437,488.055398 C209.940445,488.219959 210.017068,488.291384 210.198508,488.222293 L210.198508,484.067431 C210.050486,484.159907 209.932788,484.204954 209.855709,484.287843 C209.718387,484.435512 209.602311,484.603674 209.483549,484.767728 C209.374776,484.918085 209.26935,484.949638 209.110476,484.8215 C208.974066,484.711471 208.816257,484.622393 208.656926,484.547265 C206.979036,483.755505 205.231369,483.661405 203.471024,484.155393 C201.704087,484.651257 200.523052,485.780509 200.213823,487.646228 C199.904391,489.513062 200.609919,490.989191 202.157484,492.02556 C202.707991,492.394149 203.367778,492.609336 203.993894,492.85283 C205.007028,493.246731 206.040293,493.588941 207.051602,493.987053 C207.607383,494.205842 208.085121,494.557589 208.425587,495.067759 C209.345973,496.446744 208.83365,498.488488 207.345719,499.368108 C205.7836,500.291659 203.498559,499.977806 202.142778,498.642041 C201.330355,497.841556 200.75145,496.886249 200.343336,495.825125 C200.291308,495.689834 200.245061,495.566514 200.084361,495.643925 L200.084361,500.089965 C200.233347,500.015243 200.33644,499.991097 200.398002,499.926977 C200.532028,499.787424 200.652363,499.632907 200.764482,499.474637 C200.903326,499.278624 201.050588,499.243977 201.252413,499.388095 C201.374624,499.475347 201.513975,499.544489 201.654442,499.599326 C203.651957,500.378961 205.694705,500.445973 207.739736,499.866864 C210.074066,499.205881 211.294299,497.270766 210.93933,494.875449 M133.745471,483.008639 C137.206982,490.823615 140.668492,498.638541 144.134314,506.463155 C142.871586,507.431752 141.569202,508.187596 140.172752,508.781264 C138.823614,509.354844 137.423969,509.755948 135.975592,509.980977 C135.953057,509.984467 135.922554,509.988209 135.894063,509.991442 L135.824606,509.998859 L135.813118,510 C135.813118,510 135.793815,509.988174 135.768085,509.972328 L135.684488,509.92053 L135.652367,509.900218 C134.667732,509.265664 134.172651,508.310814 133.918341,507.204694 C133.670623,506.127489 133.625694,505.027963 133.619609,503.931279 C133.60044,500.474127 133.597905,497.016772 133.607793,493.559519 C133.61758,490.102976 133.650085,486.646484 133.6726,483.189941 L133.672651,483.02401 C133.712763,483.015538 133.705308,483.017111 133.745471,483.008639 Z M130.636089,492.076593 C130.95044,491.893567 131.025745,491.873631 131.277672,492.138075 C132.097601,492.905992 132.684974,493.807781 132.684974,493.807781 L132.841008,493.807781 C132.841008,493.807781 132.755866,499.622001 132.694964,502.180712 C132.65972,503.659276 132.58117,505.135861 132.240045,506.582162 C131.98325,507.670984 131.578635,508.686606 130.762712,509.501548 C130.562357,509.701568 130.180816,509.943794 130.180816,509.943794 C130.180816,509.943794 129.781019,509.919292 129.558706,509.875362 C122.612763,508.503174 116.961699,503.005597 115.457186,496.108338 C115.303078,495.4017 115.196182,494.684814 115.057845,493.919991 C116.47818,494.304254 117.842936,494.519137 119.227317,494.615621 C122.686901,494.856629 126.035633,494.441625 129.188929,492.908072 C129.688016,492.665289 130.155207,492.356661 130.636089,492.076593 Z M141.731981,489.162127 C144.793594,490.207425 147.913117,490.345151 151.105307,490.113122 C151.552366,494.758065 150.446433,498.964315 147.722701,502.80228 C145.717681,498.237081 143.734719,493.722051 141.731981,489.162127 Z M144.302924,477.890811 C147.876758,480.698292 150.068441,484.380726 150.912305,488.855477 C150.940196,489.00345 150.963573,489.152235 150.995013,489.335109 C149.549628,489.588038 148.143188,489.64044 146.746484,489.260285 C145.086748,488.808554 143.516058,488.185414 142.233553,486.974845 C141.286748,486.081122 140.484618,485.075798 139.780612,483.986215 C139.027063,482.819983 138.377519,481.601551 137.919659,480.286534 C137.904801,480.243872 137.859872,480.025742 137.859872,480.025742 L137.352367,480.021024 L137.352367,480.117103 L135.882333,480.117977 L135.786369,480.118031 L134.124274,480.118929 C134.043202,480.118971 133.961431,480.119012 133.879062,480.119054 L131.840808,480.119987 L131.71309,480.120038 L128.548919,480.120755 L128.548919,480.525868 C128.980917,480.630113 129.41829,480.71701 129.844558,480.842054 C131.169304,481.230528 132.160582,482.007526 132.618138,483.34948 C132.850947,484.032124 132.887408,484.723341 132.653128,485.434089 C131.572398,488.71278 129.512002,491.155984 126.465907,492.771158 C124.852013,493.626936 123.126911,494.033976 121.304346,494.018149 C119.091922,493.998974 117.037814,493.431482 115.177875,492.208941 C115.063677,492.133915 114.996841,492.066041 115.000115,491.911829 C115.101202,487.308431 116.657946,483.270852 119.768798,479.874472 C122.666617,476.71073 126.26038,474.78637 130.516363,474.195188 C135.619355,473.486368 140.248614,474.705814 144.302924,477.890811 Z M196.411897,499.810303 C196.014533,499.71113 195.603783,499.625501 195.237302,499.452164 C194.633043,499.166262 194.269452,498.67892 194.252262,497.977253 C194.234158,497.242765 194.193489,496.50853 194.190345,495.774042 C194.18142,493.694404 194.172799,491.614564 194.192069,489.535078 C194.20216,488.446307 194.25287,487.356927 194.31859,486.26988 C194.381623,485.228134 194.936897,484.59637 195.898915,484.408879 C196.088316,484.372 196.282434,484.359572 196.482789,484.334817 L196.482789,484.111412 C194.981826,484.111412 193.511795,484.116231 192.041917,484.106064 C191.830254,484.104665 191.740447,484.174771 191.656167,484.365659 C189.963469,488.201647 188.262049,492.033829 186.561796,495.866468 C186.526806,495.94535 186.484565,496.020985 186.43213,496.125129 C186.382181,496.018296 186.34856,495.95027 186.318134,495.880976 C184.628175,492.034336 182.936796,488.188305 181.253784,484.338672 C181.176046,484.16082 181.087405,484.106064 180.900133,484.107049 C179.497293,484.114709 178.094403,484.111259 176.691512,484.111259 L176.454646,484.111259 L176.454646,484.359826 C176.454646,484.359826 176.555407,484.379812 176.591056,484.385849 C176.75703,484.414054 176.92209,484.452404 177.084312,484.497958 C178.019149,484.760575 178.564129,485.435661 178.615904,486.404664 C178.635782,486.775637 178.646228,487.147776 178.642273,487.519154 C178.614687,490.113172 178.600488,492.707545 178.5406,495.300853 C178.521786,496.114984 178.427973,496.936216 178.27493,497.736296 C178.075792,498.776875 177.432993,499.462716 176.380762,499.724573 C176.290752,499.746944 176.203176,499.787881 176.112253,499.796149 C175.940803,499.811723 175.928379,499.908004 175.966918,500.051868 L181.707486,500.051868 C181.757689,499.894714 181.71996,499.815426 181.554545,499.80736 C181.454342,499.80249 181.35495,499.774539 181.255711,499.75435 C179.873814,499.473115 179.217374,498.769875 179.108297,497.415645 C179.058145,496.793113 179.031015,496.167183 179.028328,495.542672 C179.021837,494.021294 179.033754,492.499866 179.041918,490.978437 C179.050894,489.296556 179.063774,487.614675 179.075894,485.932794 C179.076401,485.870044 179.083906,485.643189 179.083906,485.643189 C179.083906,485.643189 179.183754,485.850869 179.209616,485.908698 C179.62995,486.848482 180.055255,487.786033 180.469453,488.728506 C182.040954,492.304513 183.608601,495.882244 185.180254,499.45815 C185.218236,499.54459 185.286796,499.617588 185.341055,499.696875 C185.400183,499.61424 185.476958,499.539061 185.515853,499.447751 C185.935477,498.462261 186.331421,497.466373 186.767627,496.488391 C188.396938,492.835532 190.038925,489.188303 191.676856,485.539298 C191.700589,485.486288 191.733094,485.437132 191.791866,485.331771 C191.797495,485.449409 191.801907,485.498716 191.801907,485.547922 C191.796836,489.039163 191.79643,492.530404 191.781319,496.021594 C191.778682,496.628349 191.727059,497.236119 191.67356,497.841251 C191.622191,498.421882 191.403631,498.937378 190.87858,499.239209 C190.539432,499.434206 190.165802,499.577969 189.793692,499.703571 C189.551552,499.785243 189.284412,499.793004 189.013824,499.836174 C189.020467,499.914244 189.026451,499.984908 189.03208,500.051108 L196.59643,500.051108 C196.661542,499.856211 196.556014,499.846269 196.411897,499.810303" id="CMS"></path>
        </g>
    </g>
</svg>