<?xml version="1.0" encoding="UTF-8"?>
<svg width="72px" height="72px" viewBox="0 0 72 72" version="1.1" xmlns="http://www.w3.org/2000/svg" xmlns:xlink="http://www.w3.org/1999/xlink">
    <title>72</title>
    <g id="Page-1" stroke="none" stroke-width="1" fill="none" fill-rule="evenodd">
        <g id="72">
            <rect id="Rectangle" x="0" y="0" width="72" height="72"></rect>
            <g id="02psd" transform="translate(7.000000, 9.000000)" fill-rule="nonzero">
                <rect id="B01" fill="#FFFFFF" x="0" y="9.19714286" width="58" height="42.7542857" rx="5"></rect>
                <path d="M10.3985714,0 L47.6014286,0 C50.1411495,0 52.2,2.05885056 52.2,4.59857143 L52.2,9.19714286 L5.8,9.19714286 L5.8,4.59857143 C5.8,2.05885056 7.85885056,0 10.3985714,0 Z" id="B02" fill="#FFFFFF" opacity="0.5"></path>
                <path d="M16.1362759,22.6805387 C23.3285609,15.971249 35.0038041,15.971249 42.1960891,22.6805387 L43.0619565,23.4941902 C43.4250621,23.8276539 43.4250621,24.3745343 43.0619565,24.7079981 L40.1012489,27.4690775 C39.919696,27.6424786 39.6264184,27.6424786 39.4448655,27.4690775 L38.2577894,26.361978 C33.2301727,21.6801476 25.1021924,21.6801476 20.0745756,26.361978 L18.8037059,27.5491088 C18.622153,27.72251 18.3288755,27.72251 18.1473225,27.5491088 L15.1866149,24.7880293 C14.8235093,24.4545657 14.8235093,23.9076852 15.1866149,23.5742215 L16.1362759,22.6805387 Z" id="Path-Copy-5" fill="#4F5C71"></path>
                <path d="M48.3591874,27.852487 L51.0146002,30.4143394 C51.3798952,30.7624173 51.3798952,31.3332648 51.0146002,31.6813426 L39.0582175,43.2514484 C38.6929227,43.5995263 38.1028309,43.5995263 37.7515859,43.2514484 C37.7515859,43.2514484 37.7515859,43.2514484 37.7515859,43.2514484 L29.2655045,35.0368126 C29.1812058,34.9532739 29.026658,34.9532739 28.9423591,35.0368126 C28.9423591,35.0368126 28.9423591,35.0368126 28.9423591,35.0368126 L20.4562779,43.2514484 C20.0909829,43.5995263 19.5008912,43.5995263 19.1496461,43.2514484 C19.1496461,43.2514484 19.1496461,43.2514484 19.1496461,43.2514484 L7.15111403,31.6813426 C6.78581913,31.3332648 6.78581913,30.7624173 7.15111403,30.4143394 L9.8065269,27.852487 C10.1718218,27.5044091 10.7619134,27.5044091 11.1131585,27.852487 L19.5992399,36.0671228 C19.6835386,36.1506615 19.8380865,36.1506615 19.9223854,36.0671228 C19.9223854,36.0671228 19.9223854,36.0671228 19.9223854,36.0671228 L28.4084665,27.852487 C28.7737615,27.5044091 29.3638532,27.5044091 29.7150983,27.852487 C29.7150983,27.852487 29.7150983,27.852487 29.7150983,27.852487 L38.2011796,36.0671228 C38.2854783,36.1506615 38.4400261,36.1506615 38.524325,36.0671228 L47.0104063,27.852487 C47.4038008,27.5044091 47.9938925,27.5044091 48.3591874,27.852487 L48.3591874,27.852487 Z" id="Path-Copy-6" fill="#4F5C71"></path>
            </g>
        </g>
    </g>
</svg>