<?xml version="1.0" encoding="UTF-8"?>
<svg width="24" height="24" viewBox="0 0 24 24" fill="none" xmlns="http://www.w3.org/2000/svg">
<g id="Iconsax/Bulk/briefcase">
<path id="Vector" d="M21.091 6.97999C20.241 6.03999 18.821 5.56999 16.761 5.56999H16.521V5.52999C16.521 3.84999 16.521 1.76999 12.761 1.76999H11.241C7.48101 1.76999 7.48101 3.85999 7.48101 5.52999V5.57999H7.24101C5.17101 5.57999 3.76101 6.04999 2.91101 6.98999C1.92101 8.08999 1.95101 9.56999 2.05101 10.58L2.06101 10.65L2.16101 11.7C2.17101 11.71 2.19101 11.73 2.21101 11.74C2.54101 11.96 2.88101 12.18 3.24101 12.38C3.38101 12.47 3.53101 12.55 3.68101 12.63C5.39101 13.57 7.27101 14.2 9.18101 14.51C9.27101 15.45 9.68101 16.55 11.871 16.55C14.061 16.55 14.491 15.46 14.561 14.49C16.601 14.16 18.571 13.45 20.351 12.41C20.411 12.38 20.451 12.35 20.501 12.32C20.961 12.06 21.391 11.78 21.811 11.47C21.8323 11.4587 21.8497 11.4413 21.861 11.42L21.901 11.06L21.951 10.59C21.961 10.53 21.961 10.48 21.971 10.41C22.051 9.39999 22.031 8.01999 21.091 6.97999ZM13.091 13.83C13.091 14.89 13.091 15.05 11.861 15.05C10.631 15.05 10.631 14.86 10.631 13.84V12.58H13.091V13.83ZM8.91101 5.56999V5.52999C8.91101 3.82999 8.91101 3.19999 11.241 3.19999H12.761C15.091 3.19999 15.091 3.83999 15.091 5.52999V5.57999H8.91101V5.56999Z" fill="#326CFF"/>
<path id="Vector_2" opacity="0.4" d="M20.4999 12.298L20.3499 12.388C18.5621 13.427 16.6001 14.1318 14.5599 14.468C14.4799 15.428 14.0599 16.528 11.8699 16.528C9.67991 16.528 9.25991 15.438 9.17991 14.488C7.26991 14.188 5.38991 13.558 3.67991 12.608C3.52991 12.528 3.37991 12.448 3.23991 12.358C2.87991 12.158 2.53991 11.938 2.20991 11.718C2.18991 11.708 2.16991 11.688 2.15991 11.678L2.76991 18.188C2.97991 20.178 3.79991 22.228 8.19991 22.228H15.8199C20.2199 22.228 21.0399 20.178 21.2499 18.178L21.8799 11.398C21.8686 11.4193 21.8512 11.4367 21.8299 11.448C21.3999 11.758 20.9599 12.048 20.4999 12.298Z" fill="#326CFF"/>
</g>
</svg>
