<?xml version="1.0" encoding="UTF-8"?>
<svg width="24px" height="24px" viewBox="0 0 24 24" version="1.1" xmlns="http://www.w3.org/2000/svg" xmlns:xlink="http://www.w3.org/1999/xlink">
    <g id="Uniswap" stroke="none" stroke-width="1" fill="none" fill-rule="evenodd">
        <g id="v5-Swap-connectWallet-set" transform="translate(-972.000000, -565.000000)">
            <g id="Group-15-Copy" transform="translate(952.000000, 439.000000)">
                <g id="Group-5-Copy-2" transform="translate(20.000000, 126.000000)">
                    <rect id="Rectangle" x="0" y="0" width="24" height="24"></rect>
                    <g id="Group" transform="translate(3.000000, 3.000000)" fill-rule="nonzero">
                        <path d="M9,18 C4.02943725,18 0,13.9705627 0,9 C0,4.02943725 4.02943725,0 9,0 C13.9705627,0 18,4.02943725 18,9 C18,13.9705627 13.9705627,18 9,18 Z M9,1.125 C4.6507576,1.125 1.125,4.6507576 1.125,9 C1.125,13.3492424 4.6507576,16.875 9,16.875 C13.3492424,16.875 16.875,13.3492424 16.875,9 C16.875,6.91142014 16.0453149,4.90838308 14.5684659,3.4315341 C13.0916169,1.95468512 11.0885799,1.125 9,1.125 Z" id="Shape" fill="#E90074"></path>
                        <path d="M9.67091527,12.2666589 C9.86709082,12.4476908 9.97207466,12.7069366 9.9571402,12.9734593 C9.962953,13.238389 9.859431,13.4940249 9.67091527,13.6802596 C9.472288,13.8591104 9.21386478,13.9570611 8.94659096,13.9548019 C8.40625524,13.9485643 7.96885123,13.5137485 7.95940703,12.9734593 C7.94759538,12.7084628 8.05727462,12.4525445 8.25731461,12.2783416 C8.439108,12.0916481 8.69213003,11.991715 8.95243229,12.0037993 C9.21772787,11.9899319 9.47720411,12.0848622 9.67091527,12.2666589 L9.67091527,12.2666589 Z M8.95854215,4.00246791 C9.5108269,4.00246791 9.95854215,4.45018316 9.95854215,5.00246791 L9.95854215,10.0024679 C9.95854215,10.5547527 9.5108269,11.0024679 8.95854215,11.0024679 C8.4062574,11.0024679 7.95854215,10.5547527 7.95854215,10.0024679 L7.95854215,5.00246791 C7.95854215,4.45018316 8.4062574,4.00246791 8.95854215,4.00246791 Z" id="Shape" fill="#D52473"></path>
                    </g>
                </g>
            </g>
        </g>
    </g>
</svg>