<?xml version="1.0" encoding="UTF-8"?>
<svg width="40px" height="40px" viewBox="0 0 40 40" version="1.1" xmlns="http://www.w3.org/2000/svg" xmlns:xlink="http://www.w3.org/1999/xlink">
    <title>subdao-2</title>
    <g id="Page-1" stroke="none" stroke-width="1" fill="none" fill-rule="evenodd">
        <g id="Home" transform="translate(-38.000000, -14.000000)">
            <g id="subdao-2" transform="translate(39.000000, 15.000000)">
                <g id="Mask_Group_3" fill-rule="nonzero" stroke="#FFFFFF" stroke-width="1.6">
                    <rect id="Rectangle_9" x="0" y="0" width="38" height="38" rx="8"></rect>
                </g>
                <path d="M14.7585712,13.5067037 C14.7585712,13.5067037 16.7601034,9.52365447 17.7827045,8.06435549 C18.9090213,6.45403179 21.0233672,3.95393603 21.4364106,4.08130626 C21.9331546,4.23415055 21.3781843,7.10725915 21.3781843,9.81114729 C21.3781843,11.1867458 21.9349741,14.7949627 21.9349741,14.7949627 C21.9349741,14.7949627 25.9380387,14.5584179 28.5363915,15.1061099 C30.7053247,15.5610036 33.7622103,16.701877 33.7622103,17.249569 C33.7622103,17.7972611 31.953553,17.9592032 31.140203,18.2248611 C30.3268531,18.4905191 27.1025666,19.4985635 24.3513695,21.4637043 C24.3513695,21.4637043 26.4857307,24.644321 27.1953649,28.6073549 C27.904999,32.5703888 27.4319096,33.8841218 27.4319096,33.8841218 C27.4319096,33.8841218 27.2954415,34.0788163 26.8642023,33.5656962 C26.8642023,33.5656962 26.0890634,32.1537062 22.5572687,29.5262402 C19.025474,26.8987742 17.6808083,26.0490328 17.6808083,26.0490328 C16.44075,26.7383121 15.2508307,27.5141613 14.1199004,28.3708102 C12.5514269,29.5990232 9.61099406,32.7941965 9.42903658,32.9779736 C9.2470791,33.1617506 8.96140586,33.3018579 8.94684926,32.8506033 C8.93229266,32.3993488 9.04692588,28.5109174 9.64010726,26.2218924 C10.2332886,23.9328673 11.4596821,21.1489178 11.4596821,21.1489178 C10.5385558,19.9751793 9.50832093,18.8913308 8.38278108,17.9118943 C6.68693737,16.4853476 4.30511396,14.5565984 4.2377897,13.7013982 C4.20321777,13.2519632 7.0963417,13.0226968 9.83844091,13.1009385 C11.4843756,13.1514095 13.1266059,13.2868449 14.7585712,13.5067037 Z" id="路径" fill="#FFFFFF" fill-rule="nonzero"></path>
                <path d="M33.7622103,17.249569 C33.7622103,17.249569 28.9185022,16.7564643 25.5195365,17.4533614 C22.1205708,18.1502586 18.0447232,20.0353381 14.7531124,20.5921279 L11.4633212,21.1489178" id="路径" stroke="#041532" stroke-width="0.5"></path>
                <path d="M21.5837962,4.28873779 C21.5837962,4.28873779 18.854434,8.86678797 18.4140969,13.3138288 C17.9737598,17.7608696 17.686267,26.0508523 17.686267,26.0508523" id="路径" stroke="#041532" stroke-width="0.5"></path>
                <path d="M21.9349741,14.7949627 C21.9349741,14.7949627 18.5887761,19.3438996 16.3670753,21.1489178 C14.1453744,22.953936 12.225723,25.5613867 10.9174488,28.3944647 C10.189774,29.9311456 9.57554312,31.5190238 9.07967822,33.1453744" id="路径" stroke="#041532" stroke-width="0.5"></path>
                <path d="M14.7585712,13.5067037 C14.7585712,13.5067037 17.0384984,18.8198621 19,21.5728788 C20.9615016,24.3258954 26.5294005,29.6590691 27.4319096,33.887761" id="路径" stroke="#041532" stroke-width="0.5"></path>
                <path d="M24.3513695,21.4709826 C24.3513695,21.4709826 17.8936985,20.1226776 16.2342463,19.1219115 C14.5747941,18.1211454 5.15485539,13.7341505 4.2377897,13.7013982" id="路径" stroke="#041532" stroke-width="0.5"></path>
            </g>
        </g>
    </g>
</svg>