<?xml version="1.0" encoding="UTF-8"?>
<svg width="90px" height="90px" viewBox="0 0 90 90" version="1.1" xmlns="http://www.w3.org/2000/svg" xmlns:xlink="http://www.w3.org/1999/xlink">
    <title>Group 20 Copy 3</title>
    <g id="第五期UI优化" stroke="none" stroke-width="1" fill="none" fill-rule="evenodd">
        <g id="home-copy" transform="translate(-324.000000, -631.000000)">
            <g id="Group-10" transform="translate(245.000000, 601.000000)">
                <g id="Group-20-Copy-3" transform="translate(79.000000, 30.000000)">
                    <rect id="Rectangle" stroke="#F8F8F8" fill="#FFFFFF" x="0.5" y="0.5" width="89" height="89" rx="44.5"></rect>
                    <g id="subdao-2" transform="translate(16.714286, 16.714286)">
                        <g id="Mask_Group_3" fill-rule="nonzero">
                            <rect id="Rectangle_9" x="0" y="0" width="56.5714286" height="56.5714286" rx="19"></rect>
                        </g>
                        <path d="M21.9714067,20.1077243 C21.9714067,20.1077243 24.9511314,14.1780721 26.4734999,12.0055819 C28.1502723,9.60825786 31.2979451,5.88631078 31.9128519,6.07592962 C32.6523654,6.30347224 31.826169,10.5807317 31.826169,14.6060689 C31.826169,16.6539524 32.6550743,22.0255835 32.6550743,22.0255835 C32.6550743,22.0255835 38.6145238,21.6734342 42.4827482,22.4887952 C45.7116863,23.1660054 50.2625386,24.8644485 50.2625386,25.6798096 C50.2625386,26.4951706 47.569951,26.7362574 46.3590992,27.1317482 C45.1482475,27.5272389 40.3481818,29.0279366 36.2524147,31.9534846 C36.2524147,31.9534846 39.4298848,36.688538 40.4863327,42.588393 C41.5427805,48.488248 40.838482,50.444031 40.838482,50.444031 C40.838482,50.444031 40.6353189,50.7338769 39.9933237,49.9699839 C39.9933237,49.9699839 38.8393575,47.8679235 33.5814978,43.9563576 C28.3236381,40.0447916 26.3218048,38.779763 26.3218048,38.779763 C24.475703,39.8059082 22.7042442,40.9609318 21.0206036,42.2362437 C18.6855829,44.0647112 14.3080964,48.8214354 14.0372124,49.0950283 C13.7663283,49.3686212 13.3410403,49.577202 13.3193696,48.9054095 C13.2976989,48.233617 13.4683558,42.4448245 14.3514379,39.0371029 C15.2345199,35.6293813 17.0602785,31.4848551 17.0602785,31.4848551 C15.6889778,29.7374849 14.1552447,28.1239361 12.479629,26.6658276 C9.95498947,24.5420965 6.40911703,21.6707254 6.30888992,20.3975703 C6.25742195,19.7284866 10.5644786,19.3871727 14.6467015,19.5036528 C17.0970404,19.57879 19.5418644,19.7804157 21.9714067,20.1077243 Z" id="路径" stroke="#E2E2E5" fill="#FFFFFF" fill-rule="nonzero"></path>
                        <path d="M50.2625386,25.6798096 C50.2625386,25.6798096 43.0516048,24.9457137 37.9914904,25.9831997 C32.931376,27.0206857 26.8635729,29.8270446 21.9632802,30.6559499 L17.0656962,31.4848551" id="路径" stroke="#E2E2E5"></path>
                        <path d="M32.132268,6.38473746 C32.132268,6.38473746 28.069007,13.2001806 27.4134676,19.8205872 C26.7579281,26.4409938 26.3299313,38.7824719 26.3299313,38.7824719" id="路径" stroke="#E2E2E5"></path>
                        <path d="M32.6550743,22.0255835 C32.6550743,22.0255835 27.6735163,28.7976852 24.3660218,31.4848551 C21.0585274,34.1720251 18.2007005,38.0537937 16.253044,42.2714587 C15.1697388,44.5591491 14.2553198,46.9230579 13.5171149,49.3442417" id="路径" stroke="#E2E2E5"></path>
                        <path d="M21.9714067,20.1077243 C21.9714067,20.1077243 25.365584,28.0175391 28.2857143,32.116015 C31.2058445,36.2144909 39.494897,44.1541029 40.838482,50.4494487" id="路径" stroke="#E2E2E5"></path>
                        <path d="M36.2524147,31.9643199 C36.2524147,31.9643199 26.6387392,29.957069 24.1682765,28.4672066 C21.6978138,26.9773442 7.67414562,20.4463294 6.30888992,20.3975703" id="路径" stroke="#E2E2E5"></path>
                    </g>
                </g>
            </g>
        </g>
    </g>
</svg>