<?xml version="1.0" encoding="UTF-8"?>
<svg width="50px" height="50px" viewBox="0 0 50 50" version="1.1" xmlns="http://www.w3.org/2000/svg" xmlns:xlink="http://www.w3.org/1999/xlink">
    <g stroke="none" stroke-width="1" fill="none" fill-rule="evenodd">
        <g id="v5-Venture-Portfolio-Add-Token-" transform="translate(-767.000000, -616.000000)">
            <g transform="translate(767.000000, 616.000000)">
                <rect fill="#E9E9ED" x="0" y="0" width="50" height="50"></rect>
                <g opacity="0.811895461" transform="translate(13.235294, 13.235294)" fill="#7F839D" fill-rule="nonzero">
                    <path d="M17.0074463,9.80776954 C20.8252043,9.80776954 23.4080981,11.2052284 23.5257905,13.0590748 L23.5294118,13.19234 L23.5294118,21.6574172 C23.4850508,23.5632918 20.899441,25 17.0074463,25 C13.1978363,25 10.6158477,23.5998028 10.4972501,21.7486947 L10.4927234,21.6163423 L10.4927234,13.1914272 C10.4927234,11.2745993 13.1054931,9.80776954 17.0074463,9.80776954 L17.0074463,9.80776954 Z M12.607564,19.9724342 L12.607564,21.6154296 C12.607564,22.0809449 14.5603513,22.8796232 17.0074463,22.8796232 C19.375778,22.8796232 21.2878256,22.1302348 21.405518,21.6619811 L21.4109499,21.6163423 L21.4109499,19.9751725 L21.2977842,20.029939 C20.2774823,20.4863266 18.9484643,20.7464676 17.3750085,20.781153 L17.0074463,20.7848041 C15.3009076,20.7848041 13.8451441,20.517361 12.7306883,20.0290263 L12.607564,19.9724342 L12.607564,19.9724342 Z M12.607564,15.7490233 L12.607564,17.4011464 C12.607564,17.8684873 14.5585406,18.6671731 17.0074463,18.6671731 C19.3766833,18.669904 21.2878256,17.91869 21.405518,17.4467852 L21.4109499,17.4011464 L21.4109499,15.7499361 L21.2914469,15.8074409 C20.2593758,16.2638285 18.9285472,16.5267078 17.3713872,16.5613933 L17.0074463,16.5659571 C15.3036236,16.5659571 13.84786,16.2966885 12.7315936,15.8065282 L12.607564,15.7490233 L12.607564,15.7490233 Z M17.0074463,11.9244952 C14.5612566,11.9244952 12.607564,12.7259119 12.607564,13.19234 C12.607564,13.6569426 14.5603513,14.4556209 17.0074463,14.4556209 C19.4572573,14.4556209 21.4109499,13.6587681 21.4109499,13.19234 C21.4109499,12.7240863 19.459068,11.9244952 17.0074463,11.9244952 Z M9.55390082,0 C14.6545051,0 18.947559,1.78721384 19.1050857,4.52188835 L19.108707,4.67797291 L19.108707,7.88820329 C19.108707,8.47420497 18.6343164,8.94884808 18.049476,8.94884808 C17.50447,8.94884808 17.0536179,8.53536091 16.9965824,8.00412574 L16.9902451,7.88820329 L16.9902451,7.69834605 L16.8942806,7.75493811 C15.2583573,8.67684107 12.8510966,9.24276169 10.3198063,9.33769031 L9.91965235,9.34864362 L9.55390082,9.35229472 C6.85512527,9.35229472 4.24326098,8.81649567 2.4742548,7.86447114 L2.22710092,7.72572931 L2.14290564,7.6746139 L2.14290564,11.2207456 C2.14290564,12.2567454 4.74119005,13.4862536 8.22669352,13.7336157 L8.50372315,13.7509584 L8.77713148,13.7637373 C9.15374692,13.7783417 9.49414933,13.9928438 9.6697825,14.3269196 C9.84632098,14.6619081 9.83093045,15.0662675 9.62904284,15.3857388 C9.42715524,15.7052101 9.07136229,15.892329 8.69474685,15.8777246 C6.3463323,15.7891854 4.11379943,15.2862463 2.51408913,14.4674869 L2.23887015,14.3196174 L2.12842043,14.2557231 L2.12842043,17.8000292 C2.12842043,18.8360291 4.72761017,20.0655373 8.21311364,20.3128993 L8.49014327,20.3302421 L8.76355159,20.3430209 C9.14016703,20.3594509 9.47966412,20.5757786 9.65439196,20.9107671 C9.8291198,21.2457556 9.81191861,21.650115 9.60912568,21.9686736 C9.40471348,22.2877615 9.04757659,22.4733603 8.67120838,22.4560955 C3.88475205,22.2324656 0.152094697,20.5127971 0.00452662789,17.946986 L0,17.7890759 L0,4.67797291 C0,1.85019533 4.35099473,0 9.55390082,0 Z M9.55390082,2.12128957 C5.4047937,2.12128957 2.11484055,3.48680127 2.11484055,4.67067071 C2.11484055,5.85454014 5.41746826,7.22735405 9.55390082,7.22735405 C13.6930494,7.22735405 16.9902451,5.8600168 16.9902451,4.67797291 C16.9902451,3.49136515 13.7011973,2.12128957 9.55390082,2.12128957 Z"></path>
                </g>
            </g>
        </g>
    </g>
</svg>