<?xml version="1.0" encoding="UTF-8"?>
<svg width="160px" height="160px" viewBox="0 0 160 160" version="1.1" xmlns="http://www.w3.org/2000/svg" xmlns:xlink="http://www.w3.org/1999/xlink">
    <g id="Page-1" stroke="none" stroke-width="1" fill="none" fill-rule="evenodd">
        <g id="Create-DAO-Basic-info" transform="translate(-227.000000, -474.000000)">
            <g id="Group" transform="translate(227.000000, 200.000000)">
                <g id="Logo-Copy" transform="translate(0.000000, 274.000000)">
                    <path d="M80,0.5 C101.953319,0.5 121.828319,9.3983406 136.214989,23.7850109 C150.601659,38.1716812 159.5,58.0466812 159.5,80 C159.5,101.953319 150.601659,121.828319 136.214989,136.214989 C121.828319,150.601659 101.953319,159.5 80,159.5 C58.0466812,159.5 38.1716812,150.601659 23.7850109,136.214989 C9.3983406,121.828319 0.5,101.953319 0.5,80 C0.5,58.0466812 9.3983406,38.1716812 23.7850109,23.7850109 C38.1716812,9.3983406 58.0466812,0.5 80,0.5 Z" id="Path" stroke-opacity="0.08" stroke="#FFFFFF" fill="#192A46"></path>
                    <g id="subdao-2" transform="translate(40.000000, 40.000000)">
                        <path d="M28.2031359,25.2785463 C28.2031359,25.2785463 33.5685017,14.6014685 36.3097158,10.6896291 C39.3289535,6.37294844 44.9967308,-0.328881158 46.1039472,0.0125512085 C47.4355334,0.422270048 45.9478638,8.12400871 45.9478638,15.3721301 C45.9478638,19.0595997 47.440411,28.7318908 47.440411,28.7318908 C47.440411,28.7318908 58.1711425,28.0978022 65.1363628,29.5659613 C70.9504682,30.7853626 79.144845,33.8436211 79.144845,35.3117803 C79.144845,36.7799395 74.2965054,37.2140463 72.1162159,37.9261767 C69.9359263,38.6383071 61.2928099,41.3405004 53.9178707,46.608314 C53.9178707,46.608314 59.6393017,55.134368 61.5415677,65.7577922 C63.4438338,76.3812164 62.1756564,79.9028474 62.1756564,79.9028474 C62.1756564,79.9028474 61.809836,80.4247511 60.6538436,79.0492664 C60.6538436,79.0492664 58.5759837,75.2642448 49.108552,68.2209828 C39.6411202,61.1777209 36.03657,58.8998792 36.03657,58.8998792 C32.7124335,60.7475814 29.5227012,62.8273455 26.4910965,65.1237035 C22.2866008,68.416087 14.4043907,76.9811618 13.9166302,77.4737999 C13.4288697,77.9664381 12.6630857,78.3420137 12.6240648,77.1323676 C12.585044,75.9227215 12.8923331,65.4992791 14.4824324,59.3632517 C16.0725317,53.2272243 19.3600377,45.7644883 19.3600377,45.7644883 C16.8908398,42.6181305 14.1291622,39.7127347 11.1120072,37.0872286 C6.56607912,33.2631861 0.181293866,28.0929245 0.000822472087,25.8004501 C-0.0918520274,24.5956816 7.6635403,23.9811033 15.0140914,24.1908404 C19.426232,24.3261343 23.8284423,24.6891864 28.2031359,25.2785463 Z" id="路径" fill="#FFFFFF" fill-rule="nonzero" opacity="0.08"></path>
                        <path d="M79.144845,35.3117803 C79.144845,35.3117803 66.1606599,33.9899493 57.0492933,35.8580721 C47.9379267,37.7261949 37.012091,42.7793939 28.1885031,44.2719411 L19.3697929,45.7644883" id="路径" stroke="#041532" stroke-width="0.5"></path>
                        <path d="M46.4990332,0.568598205 C46.4990332,0.568598205 39.1826253,12.840653 38.0022449,24.7615202 C36.8218644,36.6823874 36.0512028,58.9047568 36.0512028,58.9047568" id="路径" stroke="#041532" stroke-width="0.5"></path>
                        <path d="M47.440411,28.7318908 C47.440411,28.7318908 38.470495,40.9259039 32.514939,45.7644883 C26.559383,50.6030727 21.4135095,57.592681 17.9065113,65.1871124 C15.9558852,69.3063841 14.3093599,73.5628966 12.98013,77.9225396" id="路径" stroke="#041532" stroke-width="0.5"></path>
                        <path d="M28.2031359,25.2785463 C28.2031359,25.2785463 34.3147753,39.5211536 39.5728337,46.9009703 C44.8308922,54.2807871 59.7563642,68.577048 62.1756564,79.9126026" id="路径" stroke="#041532" stroke-width="0.5"></path>
                        <path d="M53.9178707,46.6278244 C53.9178707,46.6278244 36.6072498,43.013519 32.1588738,40.3308361 C27.7104978,37.6481532 2.45913551,25.888247 0.000822472087,25.8004501" id="路径" stroke="#041532" stroke-width="0.5"></path>
                    </g>
                </g>
            </g>
        </g>
    </g>
</svg>