<?xml version="1.0" encoding="UTF-8"?>
<svg width="49px" height="49px" viewBox="0 0 49 49" version="1.1" xmlns="http://www.w3.org/2000/svg" xmlns:xlink="http://www.w3.org/1999/xlink">
    <title>DeFi</title>
    <defs>
        <polygon id="path-1" points="0 0 49 0 49 49 0 49"></polygon>
    </defs>
    <g id="第五期UI优化" stroke="none" stroke-width="1" fill="none" fill-rule="evenodd">
        <g id="v5-Venture-Management" transform="translate(-1038.000000, -389.000000)">
            <g id="DeFi" transform="translate(1038.000000, 389.000000)">
                <g id="编组">
                    <mask id="mask-2" fill="white">
                        <use xlink:href="#path-1"></use>
                    </mask>
                    <g id="Clip-2"></g>
                    <path d="M24.4980503,0 L0.531092877,10.6530493 C0.205957123,10.7990145 -0.00340307811,11.1222079 -0.00425384763,11.4788621 L-0.00425384763,15.42609 C-0.00425384763,15.927008 0.401988601,16.3332152 0.903304545,16.3332152 L48.0924416,16.3332152 C48.5937576,16.3332152 49,15.927008 49,15.42609 L49,11.4788621 C48.9994328,11.1222079 48.789789,10.7990145 48.4646533,10.6530493 L24.4980503,0 Z M24.4980503,12.7036512 C22.4932119,12.7036512 20.8678167,11.0786807 20.8678167,9.0740872 C20.8678167,7.06949373 22.4932119,5.44452321 24.4980503,5.44452321 C26.5028178,5.44452321 28.1279294,7.06949373 28.1279294,9.0740872 C28.1279294,11.0786807 26.5028178,12.7036512 24.4980503,12.7036512 Z" id="Fill-1" fill="#63678A" mask="url(#mask-2)"></path>
                    <path d="M0.903304545,45.370436 L48.0924416,45.370436 C48.6976223,45.370436 49,45.6728583 49,46.2779156 L49,48.0925204 C49,48.6976486 48.6976223,49 48.0924416,49 L0.903304545,49 C0.298194719,49 -0.00425384763,48.6976486 -0.00425384763,48.0925204 L-0.00425384763,46.2779156 C-0.00425384763,45.6728583 0.298194719,45.370436 0.903304545,45.370436 Z" id="Fill-3" fill="#63678A" mask="url(#mask-2)"></path>
                </g>
                <path d="M2.89971875,40 L46.0999297,40 C46.6997656,40 47,40.3332878 47,41.0000977 L47,43.000293 C47,43.6667904 46.6997656,44 46.0999297,44 L2.89971875,44 C2.29988281,44 2,43.6667904 2,43.000293 L2,41.0000977 C2,40.3332878 2.29988281,40 2.89971875,40 Z" id="Fill-4" fill="#63678A"></path>
                <path d="M3,38 L13.9566458,38 L13.9566458,37.0908445 C13.9566458,35.5846762 12.7303164,34.3633781 11.217306,34.3633781 L5.73933978,34.3633781 C4.22632944,34.3633781 3,35.5846762 3,37.0908445 L3,38 Z M13.9566458,18.9091555 L13.9566458,18 L3,18 L3,18.9091555 C3,20.4153238 4.22632944,21.6362668 5.73933978,21.6362668 L11.217306,21.6362668 C12.7303164,21.6362668 13.9566458,20.4153238 13.9566458,18.9091555 Z M34.0433542,38 L45,38 L45,37.0908445 C45,35.5846762 43.7737419,34.3633781 42.2610169,34.3633781 L36.782694,34.3633781 C35.269969,34.3633781 34.0433542,35.5846762 34.0433542,37.0908445 L34.0433542,38 Z M45,18.9091555 L45,18 L34.0433542,18 L34.0433542,18.9091555 C34.0433542,20.4153238 35.269969,21.6362668 36.782694,21.6362668 L42.2610169,21.6362668 C43.7737419,21.6362668 45,20.4153238 45,18.9091555 Z M5.73933978,32.5454223 L11.217306,32.5454223 L11.217306,23.4545777 L5.73933978,23.4545777 L5.73933978,32.5454223 Z M36.782694,32.5454223 L42.2610169,32.5454223 L42.2610169,23.4545777 L36.782694,23.4545777 L36.782694,32.5454223 Z M19.4349687,32.5454223 C18.9305844,32.5454223 18.5218554,32.9523796 18.5218554,33.4545777 C18.5218554,33.9564208 18.9305844,34.3633781 19.4349687,34.3633781 L20.3477253,34.3633781 L20.3477253,35.2725336 C20.3477253,35.7747317 20.7565255,36.1816891 21.2608386,36.1816891 C21.7652229,36.1816891 22.1739518,35.7747317 22.1739518,35.2725336 L22.1739518,34.3633781 L24.0001783,34.3633781 L24.0001783,35.2725336 C24.0001783,35.7747317 24.4089073,36.1816891 24.9129349,36.1816891 C25.4173193,36.1816891 25.8260482,35.7747317 25.8260482,35.2725336 L25.8260482,34.3633781 L26.2827831,34.3633781 C27.7063439,34.3681366 28.9602073,33.4317796 29.3544559,32.0698575 C29.7489899,30.7080063 29.1883964,29.2509144 27.9807558,28.4999254 C28.3605242,27.9688923 28.5651026,27.3335985 28.565388,26.6816145 L28.565388,26.5725954 C28.5695252,24.9954049 27.3967656,23.6601161 25.8260482,23.4545777 L25.8260482,22.5454223 C25.8260482,22.0432951 25.4173193,21.6362668 24.9129349,21.6362668 C24.4089073,21.6362668 24.0001783,22.0432951 24.0001783,22.5454223 L24.0001783,23.4545777 L22.1739518,23.4545777 L22.1739518,22.5454223 C22.1739518,22.0432951 21.7652229,21.6362668 21.2608386,21.6362668 C20.7565255,21.6362668 20.3477253,22.0432951 20.3477253,22.5454223 L20.3477253,23.4545777 L19.4349687,23.4545777 C18.9305844,23.4545777 18.5218554,23.8615351 18.5218554,24.3637332 C18.5218554,24.8655762 18.9305844,25.2725336 19.4349687,25.2725336 L19.4349687,32.5454223 Z M26.2827831,32.5454223 L21.2608386,32.5454223 L21.2608386,29.8179558 L26.2827831,29.8179558 C27.0389673,29.8179558 27.6522747,30.4286049 27.6522747,31.1818666 C27.6522747,31.9347732 27.0389673,32.5454223 26.2827831,32.5454223 Z M24.9129349,25.2725336 L25.4242384,25.2725336 C26.1484661,25.2775762 26.7341683,25.8607396 26.7391614,26.5817572 L26.7391614,26.6907763 C26.7341683,27.411865 26.1484661,27.9949574 25.4242384,28 L21.2608386,28 L21.2608386,25.2725336 L24.9129349,25.2725336 Z" id="Fill-5" fill="#63678A"></path>
            </g>
        </g>
    </g>
</svg>