<?xml version="1.0" encoding="UTF-8"?>
<svg width="72px" height="72px" viewBox="0 0 72 72" version="1.1" xmlns="http://www.w3.org/2000/svg" xmlns:xlink="http://www.w3.org/1999/xlink">
    <title>Dife</title>
    <g id="Page-2" stroke="none" stroke-width="1" fill="none" fill-rule="evenodd">
        <g id="Icon" transform="translate(-723.000000, -102.000000)">
            <g id="Dife" transform="translate(723.000000, 102.000000)">
                <rect id="rectangle" x="0" y="0" width="72" height="72"></rect>
                <path d="M13,51.9999999 C13.5363115,51.8696448 13.971134,51.6378005 14.3044673,51.3044672 C14.571134,51.0378005 14.7728476,50.7061808 14.9096082,50.3096081 L15,49.9999999 L15,31.9999999 C14.8696448,31.4636884 14.6378006,31.028866 14.3044673,30.6955326 C13.971134,30.3621993 13.5363115,30.1303551 13,29.9999999 L12,30 C10.8954305,30 10,29.1045695 10,28 L10,21.2796648 C10,20.4995629 10.4535828,19.7906541 11.1618836,19.463746 L34.3237673,8.77364587 C35.3873477,8.28276258 36.6126523,8.28276258 37.6762327,8.77364587 L60.8381164,19.463746 C61.5464172,19.7906541 62,20.4995629 62,21.2796648 L62,28 C62,29.1045695 61.1045695,30 60,30 L59,29.9999999 C58.4636883,30.1303551 58.0288659,30.3621993 57.6955325,30.6955326 C57.4288659,30.9621993 57.2271522,31.293819 57.0903917,31.6903917 L57,31.9934834 L57,50.0054834 L57.0903917,50.3096081 C57.2271522,50.7061808 57.4288659,51.0378005 57.6955325,51.3044672 C58.0288659,51.6378005 58.4636883,51.8696448 59,51.9999999 L60,52 C61.1045695,52 62,52.8954305 62,54 L62,60 C62,61.1045695 61.1045695,62 60,62 L12,62 C10.8954305,62 10,61.1045695 10,60 L10,54 C10,52.8954305 10.8954305,52 12,52 L13,51.9999999 Z M49,29.9999999 L23,29.9999999 C22.4636883,30.1303551 22.0288659,30.3621993 21.6955325,30.6955326 C21.4288659,30.9621993 21.2271522,31.293819 21.0903917,31.6903917 L21,31.9934834 L21,50.0054834 L21.0903917,50.3096081 C21.2271522,50.7061808 21.4288659,51.0378005 21.6955325,51.3044672 C22.0288659,51.6378005 22.4636883,51.8696448 23,51.9999999 L25,51.9999999 C25.5363115,51.8696448 25.971134,51.6378005 26.3044673,51.3044672 C26.571134,51.0378005 26.7728476,50.7061808 26.9096082,50.3096081 L27,49.9999999 L27,38.9999999 C27,37.3431458 28.3431458,35.9999999 30,35.9999999 C31.6568542,35.9999999 33,37.3431458 33,38.9999999 L33,50.0054834 L33.0903917,50.3096081 C33.2271522,50.7061808 33.4288659,51.0378005 33.6955325,51.3044672 C34.0288659,51.6378005 34.4636883,51.8696448 35,51.9999999 L37,51.9999999 C37.5363115,51.8696448 37.971134,51.6378005 38.3044673,51.3044672 C38.571134,51.0378005 38.7728476,50.7061808 38.9096082,50.3096081 L39,49.9999999 L39,38.9999999 C39,37.3431458 40.3431458,35.9999999 42,35.9999999 C43.6568542,35.9999999 45,37.3431458 45,38.9999999 L45,50.0054834 L45.0903917,50.3096081 C45.2271522,50.7061808 45.4288659,51.0378005 45.6955325,51.3044672 C46.0288659,51.6378005 46.4636883,51.8696448 47,51.9999999 L49,51.9999999 C49.5363115,51.8696448 49.971134,51.6378005 50.3044673,51.3044672 C50.571134,51.0378005 50.7728476,50.7061808 50.9096082,50.3096081 L51,49.9999999 L51,31.9999999 C50.8696448,31.4636884 50.6378006,31.028866 50.3044673,30.6955326 C49.971134,30.3621993 49.5363115,30.1303551 49,29.9999999 Z" id="shap" fill="#fff"></path>
            </g>
        </g>
    </g>
</svg>