<?xml version="1.0" encoding="UTF-8"?>
<svg width="48px" height="48px" viewBox="0 0 48 48" version="1.1" xmlns="http://www.w3.org/2000/svg" xmlns:xlink="http://www.w3.org/1999/xlink">
    <title>Discord</title>
    <g id="Page1" stroke="none" stroke-width="1" fill="none" fill-rule="evenodd">
        <g id="Icon" transform="translate(-1580.000000, -634.000000)">
            <g id="Discord" transform="translate(1580.000000, 634.000000)">
                <rect id="Rectangle" x="0" y="0" width="48" height="48"></rect>
                <path d="M39.3051619,10.871542 C39.2929325,10.8475082 39.2726657,10.8286754 39.2479917,10.8184168 C36.3952232,9.49094407 33.3847346,8.54435205 30.2918649,8.00232972 C30.2342321,7.99146301 30.1762245,8.01930321 30.1479664,8.07139238 C29.7380319,8.8259885 29.3659021,9.60108302 29.0329965,10.3937194 C25.6990518,9.88044093 22.3078172,9.88044093 18.9738726,10.3937194 C18.638763,9.59907031 18.2606698,8.82378256 17.8413176,8.07139238 C17.8118827,8.02054933 17.7547695,7.99315268 17.6973443,8.00232972 C14.6041476,8.54321413 11.5934635,9.48987732 8.7410678,10.8184927 C8.71665015,10.8289914 8.69604707,10.8469172 8.68210161,10.8697964 C2.97787061,19.5093083 1.41526647,27.9363955 2.18182699,36.2591297 C2.18618399,36.3003422 2.20684115,36.3379985 2.23907209,36.3634827 C5.56059294,38.8577478 9.27575419,40.7616395 13.2260156,41.9939114 C13.2829891,42.0112448 13.3445797,41.9907762 13.3803903,41.9426077 C14.2288207,40.7717906 14.9805939,39.5319989 15.6280649,38.2358398 C15.6460602,38.1998631 15.6480188,38.1577968 15.6334462,38.1202604 C15.6188735,38.0827239 15.5891623,38.0533044 15.5518129,38.0394287 C14.3663216,37.5793906 13.2186276,37.0248256 12.1195015,36.3809381 C12.0789544,36.3567633 12.0529558,36.3136818 12.0501771,36.2660628 C12.0473985,36.2184437 12.0682053,36.1725528 12.1056579,36.1436964 C12.3369406,35.9684825 12.5642104,35.787885 12.7872861,35.6020478 C12.8271944,35.5687117 12.882279,35.5611844 12.9294635,35.5826192 C20.1302984,38.9156138 27.9261831,38.9156138 35.0417864,35.5826192 C35.0891146,35.559802 35.1451699,35.5666868 35.1857597,35.6003023 C35.409089,35.787122 35.6369418,35.9683088 35.869109,36.1436964 C35.9067619,36.1722568 35.9278976,36.2179753 35.9254642,36.2655978 C35.9230308,36.3132203 35.8973486,36.3564781 35.8569865,36.3809381 C34.7603597,37.030242 33.6116254,37.5844596 32.4230288,38.0376831 C32.3856977,38.052091 32.3561908,38.0819529 32.3419049,38.1197834 C32.3276189,38.1576139 32.3299081,38.1998265 32.3481986,38.2358398 C33.0065098,39.5247907 33.7571759,40.7630206 34.5941521,41.9405586 C34.6289903,41.9900955 34.6911585,42.0114895 34.7485268,41.9936837 C38.705867,40.7655896 42.4275215,38.8615209 45.7532051,36.3634827 C45.7859638,36.3392352 45.8068257,36.3018419 45.8104502,36.2608753 C46.7281677,26.6389281 44.2740366,18.2809035 39.3051619,10.871542 L39.3051619,10.871542 Z M16.7034496,31.1914479 C14.5354692,31.1914479 12.7491227,29.1736797 12.7491227,26.6956202 C12.7491227,24.2175606 14.5008228,22.1996406 16.7034496,22.1996406 C18.9232874,22.1996406 20.692348,24.2350919 20.6577016,26.6954684 C20.6577016,29.1736797 18.9059268,31.1914479 16.7034496,31.1914479 Z M31.3237733,31.1914479 C29.1558677,31.1914479 27.3695212,29.1736797 27.3695212,26.6956202 C27.3695212,24.2175606 29.1212213,22.1996406 31.3237733,22.1996406 C33.5437607,22.1996406 35.3127465,24.2350919 35.2781001,26.6954684 C35.2781001,29.1736797 33.5437607,31.1914479 31.3237733,31.1914479 Z" id="Shap" fill="#FFFFFF" fill-rule="nonzero" opacity="0.319999993"></path>
            </g>
        </g>
    </g>
</svg>