<?xml version="1.0" encoding="UTF-8"?>
<svg width="24px" height="24px" viewBox="0 0 24 24" version="1.1" xmlns="http://www.w3.org/2000/svg" xmlns:xlink="http://www.w3.org/1999/xlink">
    <g id="Page-1" stroke="none" stroke-width="1" fill="none" fill-rule="evenodd">
        <g transform="translate(-1351.000000, -540.000000)">
            <g id="Group-6-Copy-2" transform="translate(1311.000000, 500.000000)">
                <g id="Copy-Copy-2" transform="translate(40.000000, 40.000000)">
                    <rect id="Rectangle" x="0" y="0" width="24" height="24"></rect>
                    <g id="Group" transform="translate(3.500000, 3.500000)" fill="#FFFFFF">
                        <path d="M14.3333333,0 C15.9901876,-7.48448398e-16 17.3333333,1.34314575 17.3333333,3 L17.3333333,15 C17.3333333,16.6568542 15.9901876,18 14.3333333,18 L3,18 C1.34314575,18 1.09108455e-15,16.6568542 0,15 L0,3 C-2.02906125e-16,1.34314575 1.34314575,-5.83819232e-16 3,0 L14.3333333,0 Z M9.33333333,10.6666667 L4.66666667,10.6666667 C3.930287,10.6666667 3.33333333,11.2636203 3.33333333,12 C3.33333333,12.7363797 3.930287,13.3333333 4.66666667,13.3333333 L9.33333333,13.3333333 C10.069713,13.3333333 10.6666667,12.7363797 10.6666667,12 C10.6666667,11.2636203 10.069713,10.6666667 9.33333333,10.6666667 Z M11.3333333,4.66666667 L4.66666667,4.66666667 C3.930287,4.66666667 3.33333333,5.26362033 3.33333333,6 C3.33333333,6.73637967 3.930287,7.33333333 4.66666667,7.33333333 L11.3333333,7.33333333 C12.069713,7.33333333 12.6666667,6.73637967 12.6666667,6 C12.6666667,5.26362033 12.069713,4.66666667 11.3333333,4.66666667 Z" id="Combined-Shape"></path>
                    </g>
                </g>
            </g>
        </g>
    </g>
</svg>