<?xml version="1.0" encoding="UTF-8"?>
<svg width="72px" height="72px" viewBox="0 0 72 72" version="1.1" xmlns="http://www.w3.org/2000/svg" xmlns:xlink="http://www.w3.org/1999/xlink">
    <defs>
        <linearGradient x1="22.4671317%" y1="-1.38777878e-14%" x2="76.8632187%" y2="100%" id="linearGradient-1">
            <stop stop-color="#7BE0FF" offset="0%"></stop>
            <stop stop-color="#3575FF" offset="100%"></stop>
        </linearGradient>
    </defs>
    <g id="Page-1" stroke="none" stroke-width="1" fill="none" fill-rule="evenodd">
        <g id="Create-DAO--NFT-Copy-2" transform="translate(-418.000000, -555.000000)">
            <g id="Group-Copy-2" transform="translate(100.000000, 500.000000)">
                <g id="NFT" transform="translate(318.000000, 55.000000)">
                    <rect id="shap" x="0" y="0" width="72" height="72"></rect>
                    <path d="M40.0525589,16.0717968 L51.1051178,22.4529946 C53.5803264,23.882057 55.1051178,26.5230731 55.1051178,29.3811978 L55.1051178,42.1435935 C55.1051178,45.0017183 53.5803264,47.6427344 51.1051178,49.0717968 L40.0525589,55.4529946 C37.5773503,56.882057 34.5277675,56.882057 32.0525589,55.4529946 L21,49.0717968 C18.5247914,47.6427344 17,45.0017183 17,42.1435935 L17,29.3811978 C17,26.5230731 18.5247914,23.882057 21,22.4529946 L32.0525589,16.0717968 C34.5277675,14.6427344 37.5773503,14.6427344 40.0525589,16.0717968 Z M45.3386886,29.7954223 C44.6535676,29.0613797 43.4383782,28.80118 42.7532572,29.5352226 L34.0637961,38.3336835 L29.8628001,34.1866456 C29.5091892,33.8314637 29.045075,33.6420333 28.6030614,33.6420333 C28.1389472,33.6420333 27.6969336,33.8077849 27.3433228,34.1866456 C26.6582018,34.9206882 26.3649337,36.214454 27.0500547,36.9484966 L32.8178887,43.0876618 C33.5030097,43.8217044 34.6301443,43.8217044 35.3152653,43.0876618 L45.3165879,32.4948048 C46.0017089,31.7607622 46.0017089,30.5531437 45.3386886,29.7954223 Z" id="shap" fill="url(#linearGradient-1)"></path>
                </g>
            </g>
        </g>
    </g>
</svg>