<?xml version="1.0" encoding="UTF-8"?>
<svg width="48px" height="48px" viewBox="0 0 48 48" version="1.1" xmlns="http://www.w3.org/2000/svg" xmlns:xlink="http://www.w3.org/1999/xlink">
    <title>Edit</title>
    <g id="Page1" stroke="none" stroke-width="1" fill="none" fill-rule="evenodd">
        <g id="Icon" transform="translate(-940.000000, -634.000000)">
            <g id="Edit" transform="translate(940.000000, 634.000000)">
                <rect id="Rectangle-Copy-9" x="0" y="0" width="48" height="48"></rect>
                <path d="M26,38 L42,38 C43.1045695,38 44,38.8954305 44,40 C44,41.1045695 43.1045695,42 42,42 L26,42 C24.8954305,42 24,41.1045695 24,40 C24,38.8954305 24.8954305,38 26,38 Z" id="Rectangle" fill="#FFFFFF"></path>
                <path d="M32.3976186,25.5563492 L18.4463017,39.507666 C17.8659874,40.0879804 17.1212164,40.4757495 16.313016,40.6183731 L8.34757067,42.0240399 C7.25980878,42.2159979 6.22239086,41.4898054 6.03043288,40.4020435 C5.98985571,40.1721062 5.98985571,39.9368395 6.03043288,39.7069022 L7.4360997,31.7414569 C7.57872331,30.9332564 7.96649246,30.1884854 8.54680681,29.6081711 L22.4981236,15.6568542 C23.2791722,14.8758057 24.5455022,14.8758057 25.3265508,15.6568542 L32.3976186,22.7279221 C33.1786672,23.5089706 33.1786672,24.7753006 32.3976186,25.5563492 Z M40.8829,11.4142136 C42.4449971,12.9763107 42.4449971,15.5089706 40.8829,17.0710678 L38.0544728,19.8994949 C37.2734242,20.6805435 36.0070943,20.6805435 35.2260457,19.8994949 L28.1549779,12.8284271 C27.3739293,12.0473785 27.3739293,10.7810486 28.1549779,10 L30.983405,7.17157288 C32.5455022,5.60947571 35.0781621,5.60947571 36.6402593,7.17157288 L40.8829,11.4142136 Z" id="Shap" fill="#FFFFFF"></path>
            </g>
        </g>
    </g>
</svg>