<?xml version="1.0" encoding="UTF-8"?>
<svg width="393px" height="351px" viewBox="0 0 393 351" version="1.1" xmlns="http://www.w3.org/2000/svg" xmlns:xlink="http://www.w3.org/1999/xlink">
    <defs>
        <linearGradient x1="32.7230281%" y1="46.4774659%" x2="92.7550765%" y2="44.6672246%" id="linearGradient-1">
            <stop stop-color="#041735" offset="0%"></stop>
            <stop stop-color="#041735" stop-opacity="0" offset="100%"></stop>
        </linearGradient>
        <linearGradient x1="30.7420794%" y1="50%" x2="92.7550765%" y2="49.5582618%" id="linearGradient-2">
            <stop stop-color="#041735" offset="0%"></stop>
            <stop stop-color="#041735" stop-opacity="0" offset="100%"></stop>
        </linearGradient>
        <linearGradient x1="66.3063026%" y1="52.4117621%" x2="83.7322537%" y2="54.6356032%" id="linearGradient-3">
            <stop stop-color="#1D2E49" offset="0%"></stop>
            <stop stop-color="#1D2E49" stop-opacity="0" offset="100%"></stop>
        </linearGradient>
        <linearGradient x1="65.7607177%" y1="54.6149706%" x2="89.7537903%" y2="57.7912091%" id="linearGradient-4">
            <stop stop-color="#041735" offset="0%"></stop>
            <stop stop-color="#041735" stop-opacity="0" offset="100%"></stop>
        </linearGradient>
        <linearGradient x1="56.4019296%" y1="51.9162715%" x2="87.4911525%" y2="52.5479131%" id="linearGradient-5">
            <stop stop-color="#041735" offset="0%"></stop>
            <stop stop-color="#041735" stop-opacity="0" offset="100%"></stop>
        </linearGradient>
    </defs>
    <g id="Page-2" stroke="none" stroke-width="1" fill="none" fill-rule="evenodd">
        <g transform="translate(-414.000000, -464.000000)">
            <g id="Empty-state" transform="translate(419.000000, 466.989110)">
                <g id="Group" transform="translate(213.733870, 172.510890) rotate(14.000000) translate(-213.733870, -172.510890) translate(72.803724, 29.856647)">
                    <polygon id="Fill-3" fill-opacity="0.5" fill="#041735" points="137.562747 231.728208 54.1936852 231.728208 50.7172244 124.226568 131.893493 125.393183"></polygon>
                    <polygon id="Stroke-5" stroke="#041735" stroke-width="4.95" stroke-linecap="round" stroke-linejoin="round" points="137.562747 231.728208 54.1936852 231.728208 50.7172244 124.226568 131.893493 125.393183"></polygon>
                    <path d="M199.837633,63.5072076 L212.463818,230.903208 L138.344769,230.903208 L132.737737,125.735251 L199.837633,63.5072076 Z" id="Fill-7" stroke-opacity="0.08" stroke="#FFFFFF" stroke-width="1.65" fill-opacity="0.5" fill="#041735"></path>
                    <polygon id="Stroke-9" stroke="#041735" stroke-width="4.5" stroke-linecap="round" stroke-linejoin="round" points="213.353389 231.728208 137.562582 231.728208 131.893328 125.393183 200.531567 61.738489"></polygon>
                    <g transform="translate(8.258368, 54.824480)">
                        <polyline id="Fill-11" fill="#FFFFFF" opacity="0.08" points="40.5493601 0 0 28.4865095 18.8375669 29.4076085"></polyline>
                        <polyline id="Stroke-13" stroke="#041735" stroke-width="4.5" stroke-linecap="round" stroke-linejoin="round" points="40.5493601 0 0 28.4865095 18.8375669 29.4076085"></polyline>
                    </g>
                    <g transform="translate(4.274215, 231.727879)" stroke="#041735" stroke-linecap="round" stroke-linejoin="round" stroke-width="4.5">
                        <polyline id="Stroke-16" points="166.062809 40.4275112 150.982678 53.5802771 0 53.5802771 49.9194698 0"></polyline>
                    </g>
                    <polygon id="Stroke-19" stroke="#041735" stroke-width="4.5" stroke-linecap="round" stroke-linejoin="round" points="54.1928603 231.728208 4.27339041 285.308485 8.05356502e-14 123.514734 48.8073984 54.8244797 50.7163994 124.226568"></polygon>
                    <path d="M49.6571516,55.6895232 L198.526294,62.4734596 L131.574695,124.562365 L51.5199932,123.411868 L49.6571516,55.6895232 Z" id="Fill-21" stroke-opacity="0.08" stroke="#FFFFFF" stroke-width="1.65" fill-opacity="0.5" fill="#041735"></path>
                    <polygon id="Stroke-23" stroke="#041735" stroke-width="4.5" stroke-linecap="round" stroke-linejoin="round" points="200.531567 61.7389834 131.893328 125.39203 50.7170594 124.225414 48.8080583 54.824974"></polygon>
                    <polygon id="Fill-25" fill-opacity="0.08" fill="#FFFFFF" points="195.624593 272.15539 39.5303463 272.15539 54.1935202 231.727549 213.353389 231.727549"></polygon>
                    <polygon id="Stroke-27" stroke="#041735" stroke-width="4.5" stroke-linecap="round" stroke-linejoin="round" points="195.624593 272.15539 39.5303463 272.15539 54.1935202 231.727549 213.353389 231.727549"></polygon>
                    <path d="M244.166968,-5.19522836e-14 C244.166968,-5.19522836e-14 161.091099,2.39706208 130.269889,15.8213791 C106.667244,26.1017663 92.7056739,39.2978198 84.5086841,54.8444543" id="Stroke-29" stroke="url(#linearGradient-1)" stroke-width="4.5" stroke-linecap="round" stroke-linejoin="round"></path>
                    <path d="M151.888835,48.9821747 C157.097751,40.8158662 160.396017,38.4678054 179.180785,40.4731317 C197.963903,42.4784581 247.538532,39.5256686 247.538532,39.5256686" id="Stroke-31" stroke="url(#linearGradient-2)" stroke-width="4.5" stroke-linecap="round" stroke-linejoin="round"></path>
                    <path d="M118.675187,47.9124476 C118.675187,47.9124476 117.419569,53.3253458 112.799687,60.6364658 C108.178156,67.9492336 95.1649395,79.5791378 104.089561,86.1355828 C113.014182,92.6903801 128.490785,73.5038393 131.937547,69.489891 C136.166388,64.5647304 146.679918,57.1481536 151.888835,48.9818451 C157.097751,40.8155367 160.396017,38.4691236 179.180785,40.4744499" id="Fill-33" fill="#1D2E49"></path>
                    <path d="M118.675187,47.9124476 C118.675187,47.9124476 117.419569,53.3253458 112.799687,60.6364658 C108.178156,67.9492336 95.5107874,81.7240497 104.089561,86.1355828 C112.668334,90.5471159 128.490785,73.5038393 131.937547,69.489891 C136.166388,64.5647304 146.679918,57.1481536 151.888835,48.9818451 C157.097751,40.8155367 160.396017,38.4691236 179.180785,40.4744499" id="Stroke-35" stroke="#041735" stroke-width="4.5" stroke-linecap="round"></path>
                    <g transform="translate(105.651115, 152.773655)">
                        <path d="M3.56469962,14.1388466 C-0.106456238,11.4991319 -0.728490286,7.02381031 0.728422352,3.9194267 C5.31860464,-5.86827961 19.0116035,5.16513477 25.1461462,10.0705223 C26.3192661,11.0080988 32.1997153,15.3120532 33.6632278,16.5330448" id="Fill-36" fill="#1D2E49"></path>
                        <path d="M3.56469962,14.1388466 C-0.106456238,11.4991319 -0.728490286,7.02381031 0.728422352,3.9194267 C5.31860464,-5.86827961 19.0116035,5.16513477 25.1461462,10.0705223 C26.3192661,11.0080988 32.1997153,15.3120532 33.6632278,16.5330448" id="Stroke-38" stroke="#041735" stroke-width="4.5" stroke-linecap="round"></path>
                    </g>
                    <path d="M160.122784,165.269353 C160.632115,165.569553 161.115916,165.858173 161.589444,166.14179 L161.942902,166.353668 C162.060238,166.42405 162.17717,166.494222 162.293937,166.564287 L162.994463,166.984215 L163.346814,167.194757 L163.702463,167.406508 C166.147265,168.859003 168.923308,170.439311 174.084273,173.03302 L175.256279,173.618994 C176.737516,174.355928 178.401239,175.170471 180.287108,176.079726 C191.820907,181.640648 221.763066,185.89845 252.665261,188.799452 L255.013826,189.017171 C256.97203,189.196429 258.93231,189.370246 260.890243,189.538608 L263.238352,189.738025 C267.931185,190.131619 272.600304,190.493766 277.184557,190.824278 C277.184557,190.824278 278.278772,204.076841 279.617466,217.570186 L279.741707,218.81603 L279.930348,220.682386 C280.542149,226.68467 281.189603,232.535648 281.797247,237.079766 L281.860292,237.545138 C281.860292,237.545138 263.716162,232.373966 243.262122,227.395989 L241.879879,227.060748 C240.494495,226.725922 239.10023,226.392522 237.701935,226.062192 L236.302478,225.732945 L235.602078,225.569204 C186.39044,214.087598 159.276685,203.072309 153.689929,201.291078 C144.460065,198.349823 124.472478,187.626188 114.557882,184.350437 C99.9178077,179.514256 89.7359188,175.226779 90.0824099,168.25345 C90.6202961,157.458961 107.746857,163.750116 115.283864,165.969652 C116.932364,166.454993 118.876875,167.071258 120.888918,167.730715 L121.561786,167.952014 C121.7867,168.026233 122.012135,168.100865 122.237776,168.175789 L122.915008,168.40132 L123.5916,168.627883 C129.334591,170.55602 134.804513,172.517858 134.804513,172.517858 L134.7916,172.508782 C131.039092,169.885043 129.119069,167.775263 128.179603,165.287478 C126.054457,159.663667 130.383946,156.285755 135.111075,155.527784 C141.973249,154.427079 151.656851,160.281577 160.122784,165.269353 Z" id="Shap" fill="url(#linearGradient-3)"></path>
                    <path d="M139.723869,173.052727 C139.723869,173.052727 124.452195,170.473049 117.481123,168.13817 C110.135512,165.678062 91.0113361,156.552692 90.546048,166.725975 C90.2259562,173.699303 99.0152808,177.29472 113.594307,184.030771 C123.071664,188.408875 144.460065,198.349823 153.689929,201.291078 C159.276685,203.072309 179.204874,209.892396 185.471414,212.021304 C204.099436,218.347063 217.368396,221.306443 235.602078,225.569204 C258.952279,231.028239 281.860292,237.545138 281.860292,237.545138" id="Stroke-43" stroke="url(#linearGradient-4)" stroke-width="4.5" stroke-linecap="round" stroke-linejoin="round"></path>
                    <path d="M152.988697,186.068064 C149.895995,180.896979 146.684618,177.983987 141.716596,174.172713 C137.159413,170.676162 130.882564,169.109298 129.603846,165.723147 C127.480351,160.099335 130.382626,156.286414 135.111405,155.526795 C141.973579,154.427738 151.790827,160.063084 160.123114,165.270012 C167.308679,169.760164 172.965595,172.332498 178.162962,175.17324 C187.76269,180.421294 201.423366,181.596316 215.156247,184.041986 C235.223507,187.615738 257.396745,190.01288 276.459481,187.916422" id="Stroke-45" stroke="url(#linearGradient-5)" stroke-width="4.5" stroke-linecap="round" stroke-linejoin="round"></path>
                </g>
                <path d="M46.4766815,145.88423 C46.4766815,141.331623 43.1210008,137.641344 38.9808016,137.641344 C43.1210008,137.641344 46.4766815,133.950279 46.4766815,129.397672 C46.4766815,133.950279 49.8331712,137.641344 53.9733703,137.641344 C49.8331712,137.641344 46.4766815,141.331623 46.4766815,145.88423 Z" id="Fill-1" stroke="#041735" stroke-width="4.5" fill="#041735" stroke-linecap="round" stroke-linejoin="round"></path>
                <path d="M280.360753,313.747365 C280.360753,309.194758 277.005073,305.504479 272.864874,305.504479 C277.005073,305.504479 280.360753,301.813414 280.360753,297.260807 C280.360753,301.813414 283.717243,305.504479 287.857442,305.504479 C283.717243,305.504479 280.360753,309.194758 280.360753,313.747365 Z" id="Fill-" stroke="#041735" stroke-width="4.5" fill="#041735" stroke-linecap="round" stroke-linejoin="round"></path>
                <path d="M16.4922333,153.37812 C16.4922333,157.13007 17.8545292,160.534926 20.0824775,162.996587 C22.2331732,165.372892 25.1976006,166.866069 28.4860035,166.866069 L28.4860035,171.366069 C25.1974992,171.366069 22.2329555,172.858964 20.0822216,175.235084 C17.8544152,177.696354 16.4922333,181.100744 16.4922333,184.852518 L11.9922333,184.852518 C11.9922333,181.100606 10.630332,177.696081 8.40272377,175.234764 C6.25238632,172.858826 3.28831696,171.366069 0,171.366069 L0,166.866069 C3.28821559,166.866069 6.25216869,165.37303 8.40246786,162.996907 C10.630218,160.535199 11.9922333,157.130208 11.9922333,153.37812 Z" id="Fill-" stroke="#041735" stroke-width="4.5" fill-opacity="0.12" fill="#FFFFFF" stroke-linecap="round" stroke-linejoin="round"></path>
            </g>
        </g>
    </g>
</svg>