<?xml version="1.0" encoding="UTF-8"?>
<svg width="44px" height="44px" viewBox="0 0 44 44" version="1.1" xmlns="http://www.w3.org/2000/svg" xmlns:xlink="http://www.w3.org/1999/xlink">
    <g id="Page-1" stroke="none" stroke-width="1" fill="none" fill-rule="evenodd">
        <g transform="translate(-1413.000000, -452.000000)" fill="#FFA4D1">
            <g transform="translate(1215.000000, 148.000000)">
                <path d="M220,304 C232.150264,304 242,313.849736 242,326 C242,338.150264 232.150264,348 220,348 C207.849736,348 198,338.150264 198,326 C198,313.849736 207.849736,304 220,304 Z M228.443174,317.373534 C228.012078,316.979106 227.517892,316.850222 226.96048,316.986717 C226.403041,317.123211 225.841901,317.479752 225.277032,318.056229 C224.72705,318.632595 224.013547,319.368343 223.136658,320.263391 L220.282645,323.176024 L215.020657,317.805906 C214.61931,317.396311 214.165977,317.138405 213.66066,317.032187 C213.155206,316.926052 212.716761,316.986717 212.34519,317.214235 C212.27075,317.259817 212.177939,317.331869 212.066402,317.430393 C211.955002,317.529 211.843465,317.639024 211.731928,317.760324 C211.620528,317.881764 211.51272,318.006842 211.408613,318.135865 C211.304643,318.264776 211.222882,318.3748 211.163466,318.465713 C210.895865,318.951166 210.862361,319.383537 211.063089,319.762744 C211.263708,320.14209 211.579593,320.559157 212.010688,321.014333 C212.248541,321.257046 212.549511,321.568005 212.913652,321.94724 C213.277902,322.326447 213.686598,322.743653 214.140039,323.19869 C214.230706,323.289725 214.338318,323.397481 214.462877,323.521959 L214.734589,323.793208 C214.979845,324.037828 215.272173,324.328895 215.611573,324.666409 C216.322563,325.371825 216.861386,325.906563 217.22804,326.270623 L215.533541,327.999942 C214.998448,328.546031 214.489292,329.061872 214.006184,329.547297 C213.523076,330.03275 213.084604,330.480204 212.690714,330.889799 C212.296797,331.299393 211.966052,331.640741 211.69856,331.91373 C211.3121,332.308159 211.115074,332.736725 211.107643,333.199401 C211.100186,333.662049 211.297212,334.090615 211.69856,334.485044 C211.728227,334.500237 211.780321,334.541902 211.854624,334.61015 C211.928955,334.678508 212.006987,334.750533 212.088748,334.826391 C212.170509,334.902221 212.252243,334.970469 212.334004,335.031133 C212.415765,335.091769 212.464048,335.129768 212.478936,335.144962 C212.865395,335.448311 213.266743,335.54314 213.682869,335.429339 C214.099104,335.315621 214.485564,335.084186 214.842383,334.735339 C215.094988,334.477433 215.410845,334.15889 215.789983,333.779655 C216.169012,333.400448 216.592569,332.971854 217.060789,332.494012 C217.52901,332.01617 218.034463,331.504135 218.576987,330.958046 C219.119538,330.411957 219.673248,329.850674 220.238117,329.274197 C220.921845,329.956892 221.579634,330.612893 222.211376,331.242535 C222.84301,331.872065 223.411581,332.437153 223.917034,332.937689 C224.422352,333.438308 224.846017,333.863096 225.18784,334.211943 L225.879107,334.917415 C226.235818,335.296622 226.59261,335.505169 226.949321,335.54314 C227.306005,335.581028 227.707352,335.448311 228.153363,335.144962 C228.242445,335.084186 228.398537,334.951497 228.621583,334.746755 C228.844548,334.541902 229.0155,334.363743 229.134359,334.211943 C229.40196,333.817515 229.531977,333.426919 229.524547,333.040101 C229.517089,332.653284 229.320199,332.262688 228.933739,331.868287 C228.896574,331.830358 228.827809,331.761132 228.727459,331.660619 L228.448375,331.381671 L228.331664,331.265228 L228.028655,330.962461 C227.974357,330.908131 227.918162,330.851867 227.860069,330.793668 L227.488747,330.421247 C227.357386,330.289364 227.218439,330.149737 227.071908,330.002362 C226.559133,329.486633 225.979376,328.902573 225.332855,328.250265 C224.686224,327.59793 224.006226,326.907764 223.292722,326.179598 C223.946674,325.512097 224.574715,324.874956 225.17679,324.268203 C225.778757,323.661366 226.325009,323.115277 226.815575,322.629824 L228.019508,321.355569 C228.36144,321.021805 228.599265,320.794286 228.733011,320.672986 C228.896533,320.506103 229.045167,320.324027 229.179022,320.126896 C229.312768,319.929626 229.413119,319.724885 229.479992,319.512449 C229.546865,319.300096 229.565482,319.083966 229.535706,318.86403 C229.50593,318.643983 229.40939,318.427853 229.245895,318.215501 C229.231007,318.185113 229.179022,318.124476 229.089804,318.033425 Z" id="Failed"></path>
            </g>
        </g>
    </g>
</svg>