<?xml version="1.0" encoding="UTF-8"?>
<svg width="48px" height="48px" viewBox="0 0 48 48" version="1.1" xmlns="http://www.w3.org/2000/svg" xmlns:xlink="http://www.w3.org/1999/xlink">
    <g id="Page-2" stroke="none" stroke-width="1" fill="none" fill-rule="evenodd">
        <g id="Icon" transform="translate(-1068.000000, -892.000000)">
            <g id="Voting-Failure" transform="translate(1068.000000, 892.000000)">
                <rect id="Rectangle" x="0" y="0" width="48" height="48"></rect>
                <g id="Group" transform="translate(5.000000, 1.805506)">
                    <g>
                        <g transform="translate(0.000000, 6.017259)" id="Oval">
                            <path d="M18.8713704,2.13638157 C9.62889127,2.13638157 2.13638155,9.62889133 2.13638155,18.8713705 C2.13638155,28.1138497 9.62889127,35.6063594 18.8713704,35.6063594 C28.1138495,35.6063594 35.6063592,28.1138497 35.6063592,18.8713705 C35.6063592,9.62889133 28.1138495,2.13638157 18.8713704,2.13638157 Z" fill="#142B7D"></path>
                            <path d="M18.8713704,0 C8.44900032,0 0,8.44900037 0,18.8713705 C0,29.2937406 8.44900032,37.742741 18.8713704,37.742741 C29.2937405,37.742741 37.7427408,29.2937406 37.7427408,18.8713705 C37.7427408,8.44900037 29.2937405,0 18.8713704,0 Z M18.8713704,4.27276313 C26.9339586,4.27276313 33.4699777,10.8087823 33.4699777,18.8713705 C33.4699777,26.9339587 26.9339586,33.4699779 18.8713704,33.4699779 C10.8087822,33.4699779 4.27276311,26.9339587 4.27276311,18.8713705 C4.27276311,10.8087823 10.8087822,4.27276313 18.8713704,4.27276313 Z" fill="#3677FF"></path>
                        </g>
                        <path d="M25.3945632,0 C26.5094357,0 27.4132185,0.903782743 27.4132185,2.01865526 C27.4132185,3.13352777 26.5094357,4.03731051 25.3945632,4.03731051 L11.6900785,4.03731051 C10.5752059,4.03731051 9.67142321,3.13352777 9.67142321,2.01865526 C9.67142321,0.903782743 10.5752059,0 11.6900785,0 L25.3945632,0 Z" id="Path" fill="#3677FF" fill-rule="nonzero"></path>
                    </g>
                    <g id="icon/" transform="translate(6.711190, 12.185187)" fill="#45BEFF" fill-rule="nonzero">
                        <g id="Group" transform="translate(12.587494, 12.587494) rotate(-45.000000) translate(-12.587494, -12.587494) translate(3.686792, 3.686792)">
                            <path d="M8.95591334,-9.68398454e-14 C9.82060576,-9.69508677e-14 10.5215775,0.700971702 10.5215775,1.56566412 L10.521,6.999 L16.2357406,6.99935675 C17.100433,6.99935675 17.8014047,7.70032846 17.8014047,8.56502087 C17.8014047,9.42971329 17.100433,10.130685 16.2357406,10.130685 L10.521,10.13 L10.5215775,16.2357406 C10.5215775,17.1004331 9.82060576,17.8014048 8.95591334,17.8014048 C8.09122093,17.8014048 7.39024924,17.1004331 7.39024924,16.2357406 L7.39,10.13 L1.56566411,10.130685 C0.700971698,10.130685 1.231053e-13,9.42971329 1.231053e-13,8.56502087 C1.231053e-13,7.70032846 0.700971698,6.99935675 1.56566411,6.99935675 L7.39,6.999 L7.39024924,1.56566412 C7.39024924,0.700971702 8.09122093,-9.68398454e-14 8.95591334,-9.68398454e-14 Z" id="Combined-Shape"></path>
                        </g>
                    </g>
                </g>
            </g>
        </g>
    </g>
</svg>