<?xml version="1.0" encoding="UTF-8"?>
<svg width="51px" height="45px" viewBox="0 0 51 45" version="1.1" xmlns="http://www.w3.org/2000/svg" xmlns:xlink="http://www.w3.org/1999/xlink">
    <title>Fill 1</title>
    <g id="第五期UI优化" stroke="none" stroke-width="1" fill="none" fill-rule="evenodd">
        <g id="v5-Venture-Management" transform="translate(-614.000000, -614.000000)" fill="#63678A">
            <path d="M629.17931,614 C637.258908,614 644.108409,617.592703 644.351495,622.841204 L644.355721,623.129977 L644.355721,649.86969 C644.355721,655.274787 637.405886,659 629.177985,659 C620.951077,659 614,655.274787 614,649.86969 L614,623.129977 L614,623.131227 C614,617.726547 620.951077,614.00125 629.177985,614.00125 L629.17931,614 Z M649.82359,629.337126 C657.903187,629.337126 664.752688,632.929841 664.995775,638.179675 L665,638.467115 L665,647.342488 C665,652.747169 658.050497,656.470799 649.822264,656.470799 C648.730612,656.470799 647.661662,656.405377 646.626681,656.279033 L646.626681,651.972107 C647.630593,652.121536 648.703768,652.203875 649.822264,652.203875 C655.875645,652.203875 660.543168,649.777599 660.752534,647.500334 L660.759659,647.340822 L660.759659,644.900211 C659.024665,645.959878 656.849813,646.746441 654.40793,647.191726 C652.938558,647.458998 651.396112,647.597092 649.822264,647.597092 C648.737738,647.597092 647.66713,647.531587 646.626681,647.40366 L646.626681,643.097984 C647.653294,643.251663 648.727713,643.330086 649.822264,643.330086 C651.144326,643.330086 652.434075,643.21616 653.651247,642.992892 C658.014871,642.197829 660.759659,640.178168 660.759659,638.467115 C660.759659,636.145597 656.017072,633.604061 649.822264,633.604061 C648.703768,633.604061 647.630593,633.688068 646.626681,633.837163 L646.626681,629.528903 C647.686932,629.40031 648.754308,629.336138 649.822264,629.337126 L649.82359,629.337126 Z M640.116705,647.429079 C638.380055,648.488746 636.205534,649.275226 633.763319,649.720594 C632.294362,649.987866 630.751584,650.125877 629.177985,650.125877 C627.640757,650.128544 626.106679,649.992783 624.593644,649.720594 C622.151844,649.275226 619.976992,648.488746 618.241915,647.430745 L618.241915,649.86969 L618.24904,650.029202 C618.458406,652.306384 623.124687,654.732744 629.17931,654.732744 C635.372461,654.732744 640.115048,652.192458 640.115048,649.86969 L640.116705,647.429079 Z M640.116705,638.496701 C638.380055,639.555118 636.205534,640.342931 633.763319,640.786966 C632.294362,641.055488 630.751584,641.192249 629.177985,641.192249 C627.640757,641.194832 626.106679,641.059071 624.593644,640.786966 C622.151844,640.342931 619.976992,639.555118 618.241915,638.496701 L618.241915,640.995983 L618.250366,641.16233 C618.420294,642.836296 621.126557,644.752449 625.348753,645.521677 C626.566256,645.743694 627.857248,645.858954 629.177985,645.858954 C630.500046,645.858954 631.789465,645.745028 633.006968,645.521677 C637.370592,644.725447 640.115048,642.707036 640.115048,640.995983 L640.115048,640.937645 L640.116705,638.496701 Z M618.241915,629.563073 L618.241915,632.062272 L618.250366,632.229952 C618.420294,633.904252 621.126557,635.818487 625.348753,636.589632 C626.566256,636.8114 627.857248,636.925326 629.177985,636.925326 C630.500046,636.925326 631.789465,636.8114 633.006968,636.589632 C637.370592,635.793069 640.115048,633.773408 640.115048,632.063605 L640.115048,629.563073 C638.380055,630.621407 636.205534,631.40922 633.763319,631.853255 C632.294362,632.123527 630.751584,632.259871 629.177985,632.259871 C627.640757,632.262538 626.106679,632.126777 624.593644,631.854588 C622.151844,631.40922 619.976992,630.62274 618.241915,629.563073 Z M629.177985,618.266923 C622.984502,618.266923 618.241915,620.807125 618.241915,623.129977 C618.241915,624.84103 620.985129,626.860691 625.349996,627.655671 C626.566256,627.877688 627.857248,627.992948 629.177985,627.992948 C630.500046,627.992948 631.789465,627.877688 633.006968,627.655671 C637.370592,626.859441 640.115048,624.84103 640.115048,623.129977 C640.115048,620.807125 635.372461,618.266923 629.177985,618.266923 Z" id="Fill-1"></path>
        </g>
    </g>
</svg>