<?xml version="1.0" encoding="UTF-8"?>
<svg width="24px" height="24px" viewBox="0 0 24 24" version="1.1" xmlns="http://www.w3.org/2000/svg" xmlns:xlink="http://www.w3.org/1999/xlink">
    <g id="Page-1" stroke="none" stroke-width="1" fill="none" fill-rule="evenodd">
        <g id="Wallet-Connect-Copy-4" transform="translate(-438.000000, -306.000000)">
            <g id="Group" transform="translate(408.000000, 221.000000)">
                <g id="icon/flag" transform="translate(30.000000, 85.000000)">
                    <rect id="Rectangle" x="0" y="0" width="24" height="24"></rect>
                    <rect id="Rectangle" fill="#328AFF" x="4" y="4" width="12" height="10" rx="1"></rect>
                    <path d="M12.5,7 L20.022967,7 C20.5752518,7 21.022967,7.44771525 21.022967,8 C21.022967,8.12721943 20.9986918,8.2532704 20.9514437,8.37139068 L19.6485563,11.6286093 C19.5531919,11.8670204 19.5531919,12.1329796 19.6485563,12.3713907 L20.9514437,15.6286093 C21.1565571,16.1413928 20.9071412,16.7233633 20.3943577,16.9284767 C20.2762374,16.9757248 20.1501865,17 20.022967,17 L12.5,17 C11.9477153,17 11.5,16.5522847 11.5,16 L11.5,8 C11.5,7.44771525 11.9477153,7 12.5,7 Z" id="Rectangle" fill="#328AFF"></path>
                    <rect id="Rectangle" fill="#328AFF" x="3" y="3" width="3" height="18" rx="1"></rect>
                </g>
            </g>
        </g>
    </g>
</svg>