<?xml version="1.0" encoding="UTF-8"?>
<svg width="131px" height="40px" viewBox="0 0 131 40" version="1.1" xmlns="http://www.w3.org/2000/svg" xmlns:xlink="http://www.w3.org/1999/xlink">
    <title>gate-io</title>
    <g id="Page-2" stroke="none" stroke-width="1" fill="none" fill-rule="evenodd">
        <g id="Icon" transform="translate(-594.000000, -594.000000)" fill="#FFFFFF" fill-rule="nonzero">
            <g id="gate-io" transform="translate(594.000000, 594.000000)">
                <path d="M15.6447067,19.6843974 L15.2979707,19.3357065 C15.0363614,19.0738884 14.5863712,19.2593129 14.5863712,19.6307219 L14.5863712,24.6106258 C14.5863712,24.8408466 14.7744328,25.0277109 15.0048981,25.0277109 L19.9771503,25.0277109 C20.3476036,25.0277109 20.5348666,24.5778285 20.2709416,24.3156904 C20.1088182,24.1527881 20.1088182,23.889202 20.2709416,23.7262997 L25.5599837,18.4137835 C25.7223316,18.2513971 25.7223316,17.9876591 25.5599837,17.8240728 L25.0782107,17.343233 C24.8164418,17.0814149 25.0030659,16.6314525 25.3727207,16.6314525 L30.3422578,16.6314525 C30.5720044,16.6314525 30.7599063,16.8183968 30.7599063,17.0486176 L30.7599063,22.0287615 C30.7599063,22.3997705 30.3087182,22.585995 30.0469493,22.3237769 L29.7113132,21.9882849 C29.5468093,21.8209389 29.2850403,21.8209389 29.1236508,21.9882849 L20.207376,30.916019 C20.0453476,31.0778455 19.7820614,31.0778455 19.617797,30.916019 L8.70902774,19.987972 C8.63030306,19.9097486 8.5860222,19.8032722 8.5860222,19.6921967 C8.5860222,19.5811212 8.63030306,19.4746449 8.70902774,19.3964214 L23.8108114,4.26912534 C23.9723607,4.10633894 23.9723607,3.84068114 23.8108114,3.67845469 L20.2597617,0.121551876 C20.0965032,-0.0405172921 19.8333613,-0.0405172921 19.6701028,0.121551876 L0.121521317,19.7058356 C-0.0405071058,19.868702 -0.0405071058,20.1343598 0.121521317,20.2965062 L19.6701028,39.8786301 C19.8322111,40.0404566 20.0982124,40.0404566 20.2597617,39.8786301 L39.8076245,20.2965062 C39.9690939,20.1337198 39.9690939,19.8694219 39.8076245,19.7071155 L28.3069604,8.18655804 C28.1461299,8.02449158 27.881566,8.02449158 27.7185793,8.18655804 L16.2351641,19.6845574 C16.1571127,19.7634274 16.0508411,19.8077941 15.9399753,19.8077941 C15.8291096,19.8077941 15.722838,19.7634274 15.6447865,19.6845574 L15.6447067,19.6843974 L15.6447067,19.6843974 Z M105.881442,24.6392634 C105.377469,24.6392634 104.942651,24.8202083 104.578187,25.1839379 C104.218355,25.5479875 104.034605,25.9777916 104.034605,26.47543 C104.034605,27.2340866 104.418794,27.8241973 105.181741,28.2458421 C106.018635,28.4747029 106.691185,28.3257554 107.197474,27.8069187 C107.563375,27.4406293 107.743531,27.001466 107.743531,26.4897488 C107.743531,25.9717921 107.563375,25.5387882 107.197474,25.1840979 C106.834527,24.8226081 106.398432,24.6419832 105.880324,24.6419832 L105.881442,24.6397434 L105.881442,24.6392634 L105.881442,24.6392634 Z M76.1755389,10.5632395 L74.7972193,10.5632395 C74.2018906,10.5632395 73.7177219,11.0446392 73.7177219,11.6409894 L73.7177219,12.4110851 C72.2516401,10.8836927 70.5915076,10.1195965 68.737484,10.1195965 C66.5962972,10.1195965 64.8096723,10.9177698 63.3851158,12.5097168 C61.9564867,14.1016638 61.245047,16.0915776 61.245047,18.480738 C61.245047,20.9107749 61.9564867,22.9394854 63.3809633,24.5654296 C64.8212514,26.1581765 66.6373433,26.95435 68.8371447,26.95435 C70.5768141,26.95435 72.2048444,26.2428094 73.7178816,24.823408 L73.7178816,26.3460008 C73.7178816,27.085619 74.3180815,27.6867688 75.0553148,27.6867688 L77.4086,27.6867688 L77.4086,11.7972164 C77.4086,11.1174332 76.8554354,10.5632395 76.1755389,10.5632395 L76.1755389,10.5632395 Z M72.6922872,22.2573824 C71.8536364,23.195544 70.7556123,23.6639049 69.3936632,23.6639049 C68.1179589,23.6639049 67.0611407,23.1789854 66.2254445,22.2091464 C65.4069974,21.2510665 64.9989317,20.0043707 64.9989317,18.4783382 C64.9989317,17.0507774 65.418896,15.8484779 66.2566683,14.8790389 C67.1053012,13.9184791 68.1615604,13.440839 69.4250467,13.440839 C70.7644764,13.440839 71.85164,13.9140795 72.6902908,14.8671999 C73.529261,15.8368788 73.9486663,17.067256 73.9486663,18.5617712 C73.9486663,20.0563663 73.529261,21.2865835 72.6902908,22.2586623 L72.6926066,22.2574624 L72.6922872,22.2573824 Z M61.2437693,13.2518148 L61.2437693,11.6763465 C61.2437693,11.0613578 60.7469034,10.5659592 60.1326488,10.5659592 L58.6801426,10.5659592 C58.0682038,10.5659592 57.5702998,11.059038 57.5702998,11.6763465 L57.5702998,12.364529 C56.2418105,10.8689739 54.5761679,10.1198365 52.5730526,10.1198365 C50.2869266,10.1198365 48.4448814,10.9838443 47.0523473,12.7048205 C45.7563595,14.327325 45.1088048,16.3031599 45.1088048,18.6264058 C45.1088048,21.0143663 45.8070683,23.0066798 47.2012793,24.5973469 C48.5840709,26.1716954 50.3579987,26.9523501 52.5249791,26.9523501 C54.4279546,26.9523501 56.1111656,26.2081723 57.57022,24.7134972 L57.57022,26.9383513 C57.57022,30.2442351 56.2261587,31.897217 53.5377965,31.897217 C52.0783428,31.897217 50.9696979,31.3994986 50.207789,30.4063816 C50.0134986,30.1550426 49.8521889,29.8405088 49.7238598,29.4647802 C49.5437839,28.9388242 49.0445223,28.5890134 48.4912779,28.5890134 L47.0989035,28.5890134 C46.3967271,28.5890134 45.8748663,29.2581575 46.0524667,29.9390606 C46.4333013,31.3876596 47.1686181,32.5663611 48.2634479,33.4785249 C49.6349798,34.6245891 51.3835132,35.1987811 53.5049756,35.1987811 C56.0194107,35.1987811 57.995854,34.3675706 59.433986,32.7121889 C60.195895,31.8505009 60.7056177,30.819707 60.9676262,29.6199673 C61.054989,29.1856036 61.123346,28.6798058 61.1714993,28.1056138 C61.219493,27.5350215 61.2432901,26.8727568 61.2432901,26.1192198 L61.2432901,23.8041332 C60.2151403,22.3189773 59.6976715,20.5450455 59.6976715,18.4789781 C59.6976715,16.4490677 60.2141022,14.710413 61.2432901,13.2534947 L61.2432901,13.2522948 L61.2437693,13.2518148 L61.2437693,13.2518148 Z M56.5898242,22.1317929 C55.7736929,23.1531476 54.6648882,23.6637449 53.258539,23.6637449 C51.8540265,23.6637449 50.7547247,23.1563473 49.9583978,22.1410721 C49.2305076,21.2161094 48.8658838,20.0254889 48.8658838,18.5768899 C48.8658838,17.103493 49.2303479,15.9037533 49.9583978,14.9775906 C50.7659845,13.9431971 51.8640884,13.4257203 53.258539,13.4257203 C54.5642693,13.4257203 55.6371386,13.8997607 56.4744319,14.8472815 C57.3022222,15.7736041 57.7176347,17.0112607 57.7176347,18.5620112 C57.7176347,20.01181 57.3408727,21.1998708 56.5896645,22.1296331 L56.5896645,22.1321129 L56.5898242,22.1317929 Z M91.7884029,10.5749985 L91.7884029,10.5633195 L84.1681958,10.5633195 L84.1681958,5.88962995 C84.1681958,5.28864016 83.6831487,4.80140087 83.0818308,4.80140087 L81.5943475,4.80140087 C80.98728,4.80140087 80.4948861,5.29447967 80.4948861,5.90266886 L80.4948861,10.5633995 L78.9260293,10.5633995 L78.9260293,13.9961526 L80.4928897,13.9961526 L80.4928897,27.6847727 L82.5881591,27.6847727 C83.0068559,27.6856846 83.4086707,27.5194943 83.7047572,27.2229448 C84.0008437,26.9263953 84.1668103,26.5239163 84.1659598,26.104501 L84.1659598,13.9983925 L87.9338993,13.9983925 C88.2293652,13.4300712 88.5942914,12.9007942 89.0202643,12.4227641 C89.8008596,11.5705153 90.7242379,10.9529669 91.7860871,10.5749985 L91.7885626,10.5749985 L91.7884029,10.5749985 L91.7884029,10.5749985 Z M110.537463,4.80132088 C109.885836,4.80132088 109.325564,5.03618125 108.856887,5.50574202 C108.390367,5.9740229 108.153593,6.5317363 108.153593,7.17392264 C108.153593,7.85154603 108.388291,8.41957857 108.856887,8.89281903 C109.325564,9.3610999 109.892863,9.59484038 110.55615,9.59484038 C111.220554,9.59484038 111.779548,9.3611799 112.235607,8.89145914 C112.703166,8.41957857 112.940259,7.85618564 112.940259,7.19048126 C112.940259,6.52701669 112.705562,5.96370376 112.236805,5.50822182 C111.766771,5.03634124 111.201069,4.80132088 110.537463,4.80132088 Z M111.281724,12.3664488 L109.949082,12.3664488 C109.265911,12.3664488 108.709153,12.9207225 108.709153,13.608505 L108.709153,25.2943287 C108.990327,25.6243011 109.124007,26.0129086 109.124007,26.4647909 C109.124007,26.9166731 108.990327,27.3099203 108.709153,27.6422925 L108.709153,28.2999176 L111.074257,28.2999176 C111.798714,28.2999176 112.384539,27.7116467 112.384539,26.9848274 L112.384539,13.4677168 C112.384539,12.8594476 111.890149,12.3664488 111.280446,12.3664488 L111.281724,12.3664488 L111.281724,12.3664488 Z M128.550648,14.6230603 C126.895786,12.9992759 124.881171,12.1868638 122.507922,12.1868638 C120.145294,12.1868638 118.14106,12.9923165 116.498097,14.6089014 C114.855133,16.2218867 114.032214,18.1802031 114.032214,20.4811308 C114.032214,22.9230868 114.836207,24.9517973 116.448825,26.5670223 C118.061523,28.2013658 120.060726,29.0195374 122.441961,29.0195374 C124.847152,29.0195374 126.878217,28.2188043 128.534277,26.6150983 C130.174925,24.9985134 131,23.0003603 131,20.6114399 C131,18.2434778 130.18315,16.2476445 128.550648,14.6205005 L128.550648,14.6230603 L128.550648,14.6230603 Z M125.951086,24.3412083 C125.093269,25.2697707 123.944696,25.7288524 122.508241,25.7288524 C121.079532,25.7288524 119.931917,25.2628113 119.060206,24.3223299 C118.211733,23.3973672 117.786259,22.1341927 117.786259,20.5445655 C117.786259,19.0630093 118.22435,17.8514305 119.095183,16.9145488 C119.964738,15.9776671 121.101892,15.5068264 122.507922,15.5068264 C123.931919,15.5068264 125.08169,15.9776671 125.951086,16.9145488 C126.811697,17.8395915 127.242681,19.0794879 127.242681,20.6243988 C127.242681,22.1764292 126.811457,23.411366 125.951086,24.3387285 L125.951086,24.3412083 Z" id="Shap"></path>
                <path d="M93.1572995,23.6978221 C92.3999424,22.9298862 91.9771033,21.8827737 91.8795988,20.574963 L102.410967,20.574963 C102.891542,20.574963 103.287789,20.1898752 103.294657,19.7097553 C103.294657,17.0765353 102.619472,15.0243067 101.270619,13.5401907 C99.9077917,12.0471955 98.0557645,11.3003779 95.7165341,11.3003779 C93.4007015,11.3003779 91.5374944,12.0704735 90.1336208,13.6061852 C88.7389306,15.1674948 88.0426635,17.2054045 88.0426635,19.724874 C88.0426635,22.2655417 88.7623285,24.3057713 90.1967871,25.8415629 C91.199862,26.9097937 92.4294893,27.6022958 93.8884638,27.9252289 C94.5003227,28.0694568 95.1355795,28.1445705 95.7765062,28.1351313 C98.3934768,28.1892868 100.668183,28.2432023 103.284116,28.2972778 L103.287869,27.9133099 C102.967645,27.564779 102.807134,27.1444941 102.807134,26.6535751 C102.807134,26.1770549 102.974832,25.7673292 103.301365,25.4128788 L103.30384,24.9467577 C101.238836,24.895082 96.2393532,24.8457262 96.0401916,24.8457262 C94.8682207,24.8457262 93.9046746,24.4665578 93.1572197,23.7000619 L93.1572197,23.6978221 L93.1572995,23.6978221 L93.1572995,23.6978221 Z M92.6460595,16.3393169 C92.8772435,15.9799869 93.1502722,15.6724126 93.4725722,15.416514 C93.7947923,15.1570956 94.1488751,14.9632718 94.5426465,14.8272032 C94.9339424,14.6909746 95.3535074,14.6228203 95.801022,14.6228203 C97.7584595,14.6228203 98.9936767,15.6031384 99.509229,17.5649745 L92.1248375,17.5649745 C92.2452608,17.1081326 92.4188684,16.6996068 92.6460595,16.3391569 L92.6460595,16.3393169 L92.6460595,16.3393169 Z" id="Path"></path>
            </g>
        </g>
    </g>
</svg>