<?xml version="1.0" encoding="UTF-8"?>
<svg width="24px" height="24px" viewBox="0 0 24 24" version="1.1" xmlns="http://www.w3.org/2000/svg" xmlns:xlink="http://www.w3.org/1999/xlink">
    <title>Github</title>
    <g id="Page-1" stroke="none" stroke-width="1" fill="none" fill-rule="evenodd">
        <g id="Create-DAO--NFT-Copy-2" transform="translate(-1485.000000, -618.000000)">
            <g id="Group-6-Copy-2" transform="translate(1311.000000, 500.000000)">
                <g id="github" transform="translate(174.000000, 118.000000)">
                    <rect id="Rectangle" x="0" y="0" width="24" height="24"></rect>
                    <g transform="translate(1.000000, 1.500000)" fill="#FFFFFF" fill-rule="nonzero">
                        <g id="social_github">
                            <path d="M19.8966429,17.3619424 C18.4980714,19.2663116 16.6925,20.5801546 14.4791429,21.3128446 C14.2261429,21.3573684 14.0281429,21.3237803 13.9181429,21.2144236 C13.798611,21.1049601 13.7338942,20.9485465 13.7413571,20.7871512 L13.7413571,17.7876525 C13.7413571,16.869056 13.4883571,16.1902632 12.9933571,15.7637719 C13.4868919,15.7153833 13.9761535,15.6307919 14.4571429,15.5106892 C14.9279609,15.3853879 15.3798192,15.1980833 15.8007143,14.953751 C16.2635,14.6905138 16.6485,14.3835338 16.9572857,14.011721 C17.2652857,13.6399081 17.5182857,13.1353049 17.7162857,12.5119716 C17.9150714,11.8878571 18.0140714,11.1770384 18.0140714,10.3662364 C18.0140714,9.21720969 17.6400714,8.24315372 16.8795,7.43313283 C17.2322857,6.56765246 17.1992857,5.60453216 16.7695,4.53205514 C16.5055,4.44378864 16.1205,4.49924812 15.6137143,4.68515455 C15.1535376,4.84928952 14.7108515,5.05834884 14.2921429,5.30926901 L13.7523571,5.64827485 C12.8567375,5.39780805 11.9303729,5.27266649 11,5.27646199 C10.0532143,5.27646199 9.13942857,5.39675439 8.24764286,5.64827485 C8.04999023,5.51412324 7.84795242,5.38647137 7.64185714,5.26552632 C7.38807143,5.1124269 6.99207143,4.92652047 6.44128571,4.71796157 C5.90228571,4.49924812 5.4835,4.44378864 5.20771429,4.52111947 C4.78971429,5.59359649 4.75671429,6.55749791 5.10871429,7.42219716 C4.35992857,8.24315372 3.97492857,9.21720969 3.97492857,10.3662364 C3.97492857,11.1770384 4.07392857,11.8878571 4.27271429,12.5010359 C4.46992857,13.1142147 4.72371429,13.6180368 5.0215,14.0007853 C5.3295,14.3835338 5.7145,14.7014495 6.17728571,14.953751 C6.64007143,15.2052715 7.09107143,15.3911779 7.52085714,15.5106892 C8.0020993,15.6308521 8.49162663,15.715444 8.98542857,15.7637719 C8.59964286,16.1019967 8.36864286,16.594883 8.28064286,17.2299332 C8.07486533,17.3290067 7.85614637,17.398945 7.63085714,17.4377109 C7.36191646,17.4848109 7.08913114,17.5067781 6.81607143,17.503325 C6.49628571,17.503325 6.18828571,17.4049039 5.8795,17.1971261 C5.5715,16.9893484 5.3075,16.6933041 5.0875,16.3105556 C4.91277767,16.0157059 4.67613369,15.7617955 4.39371429,15.5661487 C4.11792857,15.3693066 3.87592857,15.2591688 3.68892857,15.2263617 L3.40292857,15.182619 C3.20414286,15.182619 3.06114286,15.2052715 2.98414286,15.2482331 C2.90714286,15.2919758 2.88514286,15.3466541 2.91814286,15.4122682 C2.95114286,15.4778822 2.99514286,15.5442774 3.05014286,15.6098914 C3.10514286,15.6755054 3.17114286,15.7301838 3.23714286,15.7848622 L3.33614286,15.8504762 C3.54592857,15.9488972 3.75492857,16.1246491 3.96392857,16.3871053 C4.17371429,16.6495614 4.31671429,16.8909273 4.41571429,17.1096408 L4.55871429,17.4377109 C4.67971429,17.7993693 4.88871429,18.0946324 5.1865,18.3133459 C5.4835,18.5328404 5.8025,18.6750042 6.14428571,18.7406182 C6.48528571,18.8062322 6.81607143,18.8390393 7.13507143,18.8390393 C7.45407143,18.8390393 7.71885714,18.8281036 7.92785714,18.7843609 L8.25864286,18.7296825 C8.25864286,19.0905597 8.25864286,19.5178321 8.26885714,19.9997828 C8.26885714,20.4817335 8.28064286,20.7441896 8.28064286,20.766061 C8.28432792,20.92879 8.21561524,21.0848474 8.09285714,21.1925522 C7.97185714,21.3019089 7.77385714,21.334716 7.52085714,21.2909733 C5.3075,20.5575021 3.50192857,19.2444403 2.10335714,17.3392899 C0.693785714,15.456792 0,13.3110568 0,10.9356725 C0,8.95475355 0.495785714,7.12615288 1.47557143,5.45143275 C2.435906,3.79603079 3.81836039,2.42166093 5.4835,1.46694236 C7.16807143,0.492886383 9.00664286,0 11,0 C12.9933571,0 14.8319286,0.492886383 16.5165,1.46694236 C18.1816396,2.42166093 19.564094,3.79603079 20.5244286,5.45143275 C21.5042143,7.11521721 22,8.95475355 22,10.9356725 C22,13.3219925 21.2952143,15.456792 19.8966429,17.3619424 Z" id="Path"></path>
                        </g>
                    </g>
                </g>
            </g>
        </g>
    </g>
</svg>