<?xml version="1.0" encoding="UTF-8"?>
<svg width="54px" height="54px" viewBox="0 0 54 54" version="1.1" xmlns="http://www.w3.org/2000/svg" xmlns:xlink="http://www.w3.org/1999/xlink">
    <title>Group</title>
    <defs>
        <polygon id="path-1" points="0 0 12 0 12 12 0 12"></polygon>
    </defs>
    <g  stroke="none" stroke-width="1" fill="none" fill-rule="evenodd">
        <g transform="translate(-1748.000000, -511.000000)">
            <g id="Group" transform="translate(1748.000000, 511.000000)">
                <path d="M17.9471964,-7.25088215e-16 L36.0528036,7.25088215e-16 C42.2934348,-4.21297134e-16 44.5564384,0.649779278 46.8379199,1.86992893 C49.1194014,3.09007857 50.9099214,4.88059859 52.1300711,7.16208008 C53.3502207,9.44356156 54,11.7065652 54,17.9471964 L54,36.0528036 C54,42.2934348 53.3502207,44.5564384 52.1300711,46.8379199 C50.9099214,49.1194014 49.1194014,50.9099214 46.8379199,52.1300711 C44.5564384,53.3502207 42.2934348,54 36.0528036,54 L17.9471964,54 C11.7065652,54 9.44356156,53.3502207 7.16208008,52.1300711 C4.88059859,50.9099214 3.09007857,49.1194014 1.86992893,46.8379199 C0.649779278,44.5564384 2.80864756e-16,42.2934348 -4.83392144e-16,36.0528036 L4.83392144e-16,17.9471964 C-2.80864756e-16,11.7065652 0.649779278,9.44356156 1.86992893,7.16208008 C3.09007857,4.88059859 4.88059859,3.09007857 7.16208008,1.86992893 C9.44356156,0.649779278 11.7065652,4.21297134e-16 17.9471964,-7.25088215e-16 Z" id="Rectangle" fill="#FFEBF5"></path>
                <g transform="translate(15.000000, 15.000000)">
                    <path d="M24.9333916,11.1857443 C24.8828394,10.6960325 24.4435616,10.3395597 23.9535661,10.3904419 C23.4630409,10.4409604 23.1063946,10.8788975 23.1572117,11.3690061 C23.1953493,11.7361908 23.214385,12.111079 23.214385,12.4835536 C23.214385,18.3836694 18.4079864,23.1837188 12.5000662,23.1837188 C6.59188119,23.1837188 1.78564807,18.3836694 1.78564807,12.4835536 C1.78564807,6.5831733 6.59188119,1.78325617 12.5000662,1.78325617 C14.607699,1.78325617 16.6472006,2.39374294 18.3976575,3.54885733 C18.809259,3.82032803 19.3630157,3.70679371 19.6348456,3.29609959 C19.9062781,2.88517406 19.7932557,2.33201649 19.3817535,2.06054579 C17.3387759,0.712515609 14.9586842,0 12.5000662,0 C5.60752027,0 0,5.60024495 0,12.4835536 C0,19.3668622 5.60752027,24.9669749 12.5000662,24.9669749 C19.3924797,24.9669749 25,19.3668622 25,12.4835536 C25,12.0500137 24.977753,11.6134983 24.9333916,11.1857443 L24.9333916,11.1857443 Z" id="Shape" stroke="#D51172" stroke-width="0.8" fill="#D51172" fill-rule="nonzero"></path>
                    <g id="cuowu" transform="translate(13.000000, 12.000000) scale(-1, -1) translate(-13.000000, -12.000000) translate(7.000000, 6.000000)">
                        <mask id="mask-2" fill="white">
                            <use xlink:href="#path-1"></use>
                        </mask>
                        <g id="Clip-2"></g>
                        <path d="M11.3555518,8.70047768 C11.6135986,8.97293853 11.8026819,9.22258763 11.9227692,9.44965774 C12.0429216,9.67664471 12.0228664,9.93545509 11.8626848,10.226039 C11.8271197,10.280458 11.7781789,10.3463161 11.715944,10.4234804 C11.6536277,10.5007112 11.5890956,10.575581 11.522413,10.6482727 C11.455649,10.7208812 11.3888849,10.7867394 11.3222024,10.845764 C11.2554383,10.9047387 11.1998831,10.9478682 11.1553249,10.9751525 C10.9329084,11.1113414 10.6704628,11.147654 10.3679067,11.0841236 C10.065432,11.0205433 9.79407484,10.8661649 9.55383508,10.6209883 L6.40409733,7.40652556 L4.69573296,9.14997906 C4.17084184,9.68573949 3.74375075,10.1261461 3.41454115,10.471149 C3.0764199,10.8162184 2.74053063,11.0296381 2.40685706,11.1113414 C2.07319978,11.1930447 1.77738849,11.1158971 1.51934173,10.8797987 L1.13227974,10.4847995 C1.07887503,10.4302973 1.04775757,10.3940014 1.03884593,10.3758118 C0.940980729,10.2487011 0.883193504,10.1193292 0.86537021,9.98761288 C0.847546916,9.85596309 0.858690547,9.72659116 0.898719646,9.59948045 C0.938748744,9.47231985 0.998816829,9.34976484 1.07887503,9.2316824 C1.15899839,9.11368309 1.24796823,9.00469543 1.34584972,8.90480254 C1.42590792,8.83219397 1.56826619,8.69600511 1.77294082,8.49621933 L2.49359492,7.73347193 C2.78723939,7.44288803 3.11421701,7.11600816 3.47454406,6.75276582 C3.83493628,6.38957336 4.21087094,6.00819135 4.60231544,5.60863641 C4.17522435,5.17276888 3.76818854,4.75964659 3.38112654,4.36916981 C2.99412972,3.97870964 2.64709682,3.62910115 2.34015819,3.32039421 C2.03317069,3.01163739 1.7817873,2.75969381 1.58608948,2.56446373 C1.39034279,2.36923365 1.27019033,2.24888999 1.22569726,2.20348262 C0.994369152,1.96740086 0.876513842,1.73359696 0.872049872,1.50205429 C0.867602194,1.27051161 0.945428406,1.03670771 1.10560997,0.800609332 C1.17675652,0.709744709 1.27908569,0.6031014 1.4125486,0.480479883 C1.54606038,0.357924873 1.6394942,0.278499384 1.69281745,0.242120282 C1.95979215,0.0605406771 2.20003191,-0.018901439 2.41353673,0.00377730657 C2.62705783,0.0265059321 2.84062782,0.151338793 3.05414893,0.378325768 L3.46792957,0.800609332 C3.67253903,1.00942338 3.92613811,1.26369468 4.22861277,1.56335673 C4.53116889,1.8629689 4.87150583,2.20122139 5.24959101,2.5780477 C5.62774136,2.95494052 6.02148302,3.34761203 6.43075081,3.75626174 C6.76887206,3.41119232 7.10031365,3.07521768 7.42507557,2.74833782 C7.7498212,2.42145795 8.05237732,2.11496235 8.33264618,1.82893415 C8.61291504,1.54290596 8.86644895,1.2863568 9.09332938,1.05936983 C9.32027498,0.832366226 9.50934201,0.641691846 9.66054676,0.487313435 C9.87413303,0.278499384 10.1054611,0.139966167 10.3546125,0.0718966765 C10.6036988,0.00377730657 10.8439385,0.0605406771 11.0752667,0.242120282 C11.0841783,0.251215057 11.1130801,0.273960309 11.1620208,0.310256278 C11.2109616,0.346568874 11.259886,0.387420544 11.3088267,0.432811288 C11.3577675,0.478218659 11.4044763,0.521331553 11.4489693,0.56224973 C11.4934461,0.6031014 11.5246287,0.628041369 11.5423868,0.637136145 C11.7826266,0.873234523 11.9005634,1.12976705 11.8960994,1.40670047 C11.8916517,1.68365052 11.773715,1.94018304 11.5423868,2.17628142 C11.3822705,2.3396881 11.1842918,2.54401296 10.9484997,2.78918949 C10.7127239,3.03436601 10.4502621,3.30220466 10.1610816,3.59278856 C9.87190105,3.88335583 9.56712924,4.19212928 9.24683128,4.51900914 L8.2325327,5.55415089 C8.45200577,5.7720708 8.77453571,6.09215591 9.20012252,6.51440622 C9.60644149,6.91846698 9.90005338,7.21131764 10.0809582,7.39295821 C10.3523806,7.66533593 10.5970191,7.91506816 10.8150531,8.14205514 C11.0330219,8.36905874 11.2131772,8.55519404 11.3555518,8.70047768 Z" id="Fill-1" fill="#D51172" mask="url(#mask-2)"></path>
                    </g>
                </g>
            </g>
        </g>
    </g>
</svg>