<?xml version="1.0" encoding="UTF-8"?>
<svg width="72px" height="72px" viewBox="0 0 72 72" version="1.1" xmlns="http://www.w3.org/2000/svg" xmlns:xlink="http://www.w3.org/1999/xlink">
    <title>group</title>
    <g id="Page-2" stroke="none" stroke-width="1" fill="none" fill-rule="evenodd">
        <g id="Icon" transform="translate(-875.000000, -102.000000)">
            <g id="group" transform="translate(875.000000, 102.000000)">
                <rect id="rectangle" x="0" y="0" width="72" height="72"></rect>
                <path d="M30.8865,46.1450818 L28.9615,46.1450818 L28.9615,43.2283029 L28.9615,43.2283029 C29,34.0327369 22.07,35.0914715 21.993,35.0914715 L21.972,35.0879658 C14.671,35.0879658 15.1015,43.0915789 15.1015,43.2283029 L15.1015,46.1450818 L13.0225,46.1450818 C12.158,46.1450818 11.5,46.7620927 11.5,47.564908 L11.5,58.5834609 C11.5,59.389782 12.158,59.9997814 13.0225,59.9997814 L30.8865,59.9997814 C31.751,59.9997814 32.423,59.389782 32.423,58.5834609 L32.423,47.564908 C32.423,46.7620927 31.7475,46.1450818 30.8865,46.1450818 Z M17.6215,43.2283029 C17.6215,43.2037627 17.352,37.7067564 21.853,37.7067564 C22.252,37.7207794 26.1265,37.4858946 26.1265,43.2283029 L26.1265,46.1450818 L17.6215,46.1450818 L17.6215,43.2283029 Z M60.5,56.1925436 C60.5,59.5405289 56.244,59.999891 56.244,59.999891 L42.769,59.999891 L38.359,59.999891 C38.359,59.999891 36.112,60.0523675 36.112,57.8542662 L36.0385,47.0670924 C36.126,36.7111252 33.375,32.9529678 27.075,30.8986019 C25.2515,29.5313618 24.4955,29.1842932 24.4955,26.5970543 C24.4955,24.0098153 26.62,24.0098153 26.62,24.0098153 C26.62,24.0098153 26.62,24.0834359 27.376,19.8239572 C28.111,15.6906852 32.1465,11.2804595 38.7685,11.0245402 L38.7685,11 C38.8665,11 38.9575,11.0105172 39.0555,11.0105172 C39.164,11.0105172 39.269,11 39.381,11 L39.381,11.028046 C45.1385,11.3190227 49.2825,15.708214 50.014,19.8239572 C50.7735,24.0834359 50.7735,24.0098153 50.7735,24.0098153 C50.7735,24.0098153 52.898,24.0098153 52.898,26.5970543 C52.898,29.1842932 52.142,30.0992923 50.3185,31.4665324 C48.495,32.8372783 49.0375,35.7856088 46.22,38.3868707 C44.715,39.7751453 43.637,40.8233627 43.637,42.8041079 C43.637,44.7778417 44.701,45.2335884 45.7615,45.8435878 C46.822,46.4535873 53.9655,48.4308268 57.308,50.7165717 C60.6505,53.0023167 60.5,54.2153041 60.5,56.1925436 Z" id="shap" fill="#fff" fill-rule="nonzero"></path>
            </g>
        </g>
    </g>
</svg>