<?xml version="1.0" encoding="UTF-8"?>
<svg width="32px" height="32px" viewBox="0 0 32 32" version="1.1" xmlns="http://www.w3.org/2000/svg" xmlns:xlink="http://www.w3.org/1999/xlink">
    <title>icon/home copy 2</title>
    <g id="第五期UI优化" stroke="none" stroke-width="1" fill="none" fill-rule="evenodd">
        <g id="v5-Venture-Management" transform="translate(-300.000000, -357.000000)">
            <g id="Navigation/home" transform="translate(270.000000, 338.000000)">
                <g id="icon/home-copy-2" transform="translate(30.000000, 19.000000)">
                    <rect id="矩形备份-10" x="0" y="0" width="32" height="32" rx="7"></rect>
                    <g id="Group" transform="translate(6.000000, 8.000000)" fill="#63678A">
                        <path d="M11.7965763,5.76425299 C11.406059,5.40141642 11.0373868,5.10114813 10.5480395,5.10114813 C10.057316,5.10114813 9.57253689,5.44344566 9.22412845,5.76425299 C9.16831517,5.8201929 3.80025416,10.7437666 2.6567553,11.7901281 L2.6567553,16.2694522 C2.6567553,16.4565031 2.72709292,16.6434351 2.86756319,16.7860195 C3.00815059,16.9287227 3.19231101,17 3.37647143,17 L7.44220289,17 C7.53429774,17 7.6263926,16.9643613 7.69661309,16.893084 C7.76683358,16.821777 7.80197311,16.7294851 7.80197311,16.6360042 L7.80299802,13.4310816 C7.80299802,13.3375115 7.83810826,13.2446251 7.90844589,13.1733181 C7.97869567,13.1020408 8.07076123,13.0664021 8.16285609,13.0664021 L12.7335133,13.0664021 C12.8255789,13.0664021 12.9176737,13.1020408 12.9878942,13.1733181 C13.058144,13.244744 13.0933714,13.3381952 13.0933714,13.4316761 L13.0933714,16.6347261 C13.0933714,16.728207 13.1284816,16.8216581 13.1987021,16.8929651 C13.2689519,16.9642425 13.3610175,17 13.4531123,17 L17.6022416,17 C17.786402,17 17.9705917,16.9286038 18.1110327,16.7860195 C18.2516201,16.6434351 18.3218699,16.4563842 18.3218699,16.2694522 L18.3218699,11.8318007 C17.1643738,10.7578259 11.8382167,5.80592554 11.7965763,5.76425299 Z M20.9988578,9.7186574 C20.9847727,9.38390967 20.8313887,9.07716163 20.5384421,8.79802685 L20.0158002,8.27506898 C19.7508774,8.00999349 19.4232892,7.69278272 19.0327719,7.32310971 C18.6423717,6.95352587 18.2137573,6.53867291 17.7466065,6.07819416 C17.2794557,5.61771541 16.8017631,5.15396705 16.3141436,4.68697882 C15.8258212,4.21930694 15.3449368,3.75555858 14.8710509,3.29543651 C14.3968137,2.83495776 13.967965,2.4201048 13.5845342,2.05040207 C13.2011033,1.68084795 12.8770583,1.36687706 12.6121355,1.10899469 C12.3470956,0.850785357 12.1728914,0.687305293 12.0891715,0.617276378 C11.6568967,0.198707967 11.1343719,-0.00703912435 10.5205721,0.000183722116 C9.90724092,0.00690126656 9.33543292,0.268499093 8.80582163,0.784590793 C8.73580612,0.854263024 8.48886307,1.087772 8.0634405,1.48541497 C7.63804721,1.88308765 7.12913896,2.3607764 6.53662792,2.91865955 C5.94397047,3.47681021 5.30273261,4.0767226 4.61265081,4.71821837 C3.92218833,5.35971414 3.27729011,5.95953736 2.67801471,6.51742051 C2.0784172,7.07533338 1.56251033,7.55658896 1.13038196,7.96112781 C0.697872917,8.36551804 0.439919485,8.60981671 0.356433818,8.6935185 C0.133151389,8.90286215 0.0148775877,9.18523681 0.00102675636,9.54088026 C-0.0131461874,9.89688039 0.119417689,10.2000319 0.398191293,10.4510481 C0.649146103,10.6745699 0.94906199,10.7787216 1.29749971,10.765019 C1.64625955,10.7510786 1.92500387,10.6601539 2.13387909,10.4927504 C2.20377747,10.4371077 2.40943157,10.2524049 2.75110493,9.93843405 C3.09254403,9.62461177 3.50057254,9.24456521 3.97480978,8.79802685 C4.44860777,8.35193434 4.96448536,7.87055986 5.52212041,7.35446816 C6.08010686,6.83822784 6.60971815,6.34326965 7.11186203,5.8690883 C7.6136838,5.39455026 8.05635403,4.9796973 8.43978486,4.62381606 C8.82309857,4.26820234 9.08456595,4.02785692 9.22412845,3.90209617 C9.64255241,3.52567589 10.0676236,3.33027263 10.499752,3.31621334 C10.9319096,3.30227295 11.3711537,3.49770594 11.8173965,3.90209617 C11.9149672,3.98582768 12.1449847,4.20200777 12.5075954,4.55078506 C12.8700889,4.89923539 13.3022466,5.31084846 13.8043905,5.78502982 C14.3060951,6.25921118 14.839601,6.76498877 15.4043226,7.3019762 C15.968927,7.8393203 16.4986554,8.34150134 16.9937128,8.80848957 C17.4887702,9.27568587 17.9138414,9.67695512 18.2695705,10.0114651 C18.6250947,10.3462128 18.8375132,10.541616 18.9074116,10.5975857 C19.1166089,10.7786027 19.3953825,10.8763638 19.743791,10.8903042 C20.0925508,10.9043337 20.399231,10.7929889 20.6642709,10.5555564 C20.9010528,10.3325102 21.0126794,10.0533754 20.9988578,9.7186574 Z" id="Fill-1"></path>
                    </g>
                </g>
            </g>
        </g>
    </g>
</svg>