<?xml version="1.0" encoding="UTF-8"?>
<svg width="72px" height="72px" viewBox="0 0 72 72" version="1.1" xmlns="http://www.w3.org/2000/svg" xmlns:xlink="http://www.w3.org/1999/xlink">
    <title>Home</title>
    <g id="Page-2" stroke="none" stroke-width="1" fill="none" fill-rule="evenodd">
        <g id="Icon" transform="translate(-115.000000, -288.000000)">
            <g id="Home" transform="translate(115.000000, 288.000000)">
                <rect id="Rectanle" x="0" y="0" width="72" height="72"></rect>
                <g id="group" transform="translate(9.307636, 9.000000)" fill="#FFFFFF">
                    <g transform="translate(5.437175, 11.357558)" id="path">
                        <path d="M24.2364886,1.00145344 L40.5866342,9.38137623 C41.7992143,10.3016367 42.5103784,11.7293472 42.5103784,13.2434245 L42.5103784,37.6468767 C42.5103784,40.3329145 40.3143156,42.5103784 37.6053348,42.5103784 L34.8195218,42.5103784 C33.649103,42.5103784 32.7002911,41.5615665 32.7002911,40.3911477 L32.7002911,28.0751655 L32.7002911,28.0751655 C32.7002911,21.807744 27.5761444,16.7269949 21.2551892,16.7269949 C14.934234,16.7269949 9.81008733,21.807744 9.81008733,28.0751655 L9.81008733,40.3911477 C9.81008733,41.5615665 8.86127542,42.5103784 7.69085663,42.5103784 L4.90504366,42.5103784 L4.90504366,42.5103784 C2.19606285,42.5103784 0,40.3329145 0,37.6468767 L0,13.2434245 C0,11.7293472 0.711164082,10.3016367 1.92374426,9.38137623 L18.2738898,1.00145344 C20.0333086,-0.333817813 22.4770699,-0.333817813 24.2364886,1.00145344 Z"></path>
                        <path d="M21.2551892,21.2551892 C25.4157444,21.2551892 28.7885407,24.2050087 28.7885407,27.8437955 L28.7885407,38.7103784 C28.7885407,40.8090605 27.0872228,42.5103784 24.9885407,42.5103784 L17.5218377,42.5103784 C15.4231556,42.5103784 13.7218377,40.8090605 13.7218377,38.7103784 L13.7218377,27.8437955 L13.7218377,27.8437955 C13.7218377,24.2050087 17.094634,21.2551892 21.2551892,21.2551892 Z" fill-rule="nonzero" opacity="0.5"></path>
                    </g>
                    <path d="M29.18343,0.930402068 L52.0757943,20.8030052 C53.6606295,22.1787827 53.8301042,24.5788336 52.4543267,26.1636687 C51.7325819,26.995087 50.6857156,27.4726032 49.5847288,27.4726032 L3.8,27.4726032 C1.70131795,27.4726032 0,25.7712852 0,23.6726032 C0,22.5716163 0.477516123,21.5247501 1.30893442,20.8030052 L24.2012988,0.930402068 C25.6303418,-0.310134023 27.754387,-0.310134023 29.18343,0.930402068 Z" id="Triganle"></path>
                </g>
            </g>
        </g>
    </g>
</svg>