<?xml version="1.0" encoding="UTF-8"?>
<svg width="172px" height="22px" viewBox="0 0 172 22" version="1.1" xmlns="http://www.w3.org/2000/svg" xmlns:xlink="http://www.w3.org/1999/xlink">
    <title>Huobi</title>
    <defs>
        <polygon id="path-1" points="0 0 9.52005074 0 9.52005074 22 0 22"></polygon>
        <polygon id="path-3" points="0 0 8.31312506 0 8.31312506 12.1360327 0 12.1360327"></polygon>
    </defs>
    <g id="Page-2" stroke="none" stroke-width="1" fill="none" fill-rule="evenodd">
        <g id="Icon" transform="translate(-813.000000, -602.000000)">
            <g id="Huobi" transform="translate(813.000000, 602.000000)">
                <path d="M27.6465479,5.66966282 L27.6465479,11.985291 L21.3524765,11.985291 L21.3524765,6.48232835 C21.3524765,6.03359564 20.9847339,5.66966282 20.5313037,5.66966282 L18.4069653,5.66966282 L18.4069653,20.7196788 C18.4069653,21.1684115 18.7743112,21.5323444 19.2277415,21.5323444 L21.3524765,21.5323444 L21.3524765,14.5324282 L27.6465479,14.5324282 L27.6465479,20.7196788 C27.6465479,21.1684115 28.0142905,21.5323444 28.4677207,21.5323444 L30.592059,21.5323444 L30.592059,6.48232835 C30.592059,6.03359564 30.2243164,5.66966282 29.7708862,5.66966282 L27.6465479,5.66966282 Z" id="Fill-1" fill="#FFFFFF"></path>
                <path d="M40.0018267,9.40949463 L40.0018267,16.9264545 C40.0018267,17.6091721 39.6499521,18.2565563 39.0521225,18.598504 C37.3843879,19.5521101 35.6583382,18.3609858 35.6583382,16.7898325 L35.6583382,10.2217676 C35.6583382,9.77303486 35.2905956,9.40949463 34.8371654,9.40949463 L32.7044963,9.40949463 L32.7044963,9.40949463 L32.7044963,17.0579728 C32.7044963,19.5187398 34.7387834,21.5323444 37.2257072,21.5323444 L38.4344577,21.5323444 C40.9213815,21.5323444 42.9560653,19.5187398 42.9560653,17.0579728 L42.9560653,10.2217676 C42.9560653,9.77303486 42.5883227,9.40949463 42.1348925,9.40949463 L40.0018267,9.40949463 Z" id="Fill-3" fill="#FFFFFF"></path>
                <path d="M72.5960002,21.5322266 L74.7203386,21.5322266 L74.7203386,10.8874859 C74.7203386,10.4387532 74.352596,10.0748204 73.8991658,10.0748204 L71.7748274,10.0748204 L71.7748274,20.719561 C71.7748274,21.1682938 72.14257,21.5322266 72.5960002,21.5322266" id="Fill-5" fill="#FFFFFF"></path>
                <path d="M73.2476623,8.92138494 C74.1553162,8.92138494 74.8915948,8.1931267 74.8915948,7.29448351 C74.8915948,6.39623291 74.1553162,5.66797467 73.2476623,5.66797467 C72.3396118,5.66797467 71.6037299,6.39623291 71.6037299,7.29448351 C71.6037299,8.1931267 72.3396118,8.92138494 73.2476623,8.92138494" id="Fill-7" fill="#FFFFFF"></path>
                <path d="M53.321448,16.4990395 C53.321448,17.9453486 52.1257886,18.9079843 50.664339,18.9079843 C49.2032862,18.9079843 48.0076268,17.9453486 48.0076268,16.4990395 L48.0076268,14.4351832 C48.0076268,12.9892667 49.2032862,12.026631 50.664339,12.026631 C52.1257886,12.026631 53.321448,12.9892667 53.321448,14.4351832 L53.321448,16.4990395 Z M50.6647357,9.40215316 L50.664339,9.40215316 C47.5748251,9.40215316 45.047041,11.5892834 45.047041,14.6467903 L45.047041,16.300388 C45.047041,19.3582874 47.5748251,21.5320695 50.664339,21.5320695 L50.6647357,21.5320695 C53.7542497,21.5320695 56.2820338,19.3582874 56.2820338,16.300388 L56.2820338,14.6467903 C56.2820338,11.5892834 53.7542497,9.40215316 50.6647357,9.40215316 L50.6647357,9.40215316 Z" id="Fill-9" fill="#FFFFFF"></path>
                <path d="M66.6910934,16.4990395 C66.6910934,17.9453486 65.495434,18.9079843 64.0339844,18.9079843 C62.5729316,18.9079843 61.3772722,17.9453486 61.3772722,16.4990395 L61.3772722,14.4351832 C61.3772722,12.9892667 62.5729316,12.026631 64.0339844,12.026631 C65.495434,12.026631 66.6910934,12.9892667 66.6910934,14.4351832 L66.6910934,16.4990395 Z M64.0343811,9.40215316 L64.0339844,9.40215316 C63.0688089,9.40215316 62.1579814,9.61572323 61.3621975,10.002819 L61.3621975,6.4687054 C61.3621975,6.0199727 60.9944549,5.65603987 60.5410247,5.65603987 L58.4166864,5.65603987 L58.4166864,16.300388 C58.4166864,19.3582874 60.9444705,21.5320695 64.0339844,21.5320695 L64.0343811,21.5320695 C67.1238951,21.5320695 69.6516792,19.3582874 69.6516792,16.300388 L69.6516792,14.6467903 C69.6516792,11.5892834 67.1238951,9.40215316 64.0343811,9.40215316 L64.0343811,9.40215316 Z" id="Fill-11" fill="#FFFFFF"></path>
                <g id="Group">
                    <mask id="mask-2" fill="white">
                        <use xlink:href="#path-1"></use>
                    </mask>
                    <g id="Clip-14"></g>
                    <path d="M9.52005074,6.77080498 C9.52005074,3.6120094 7.96537623,0.895665043 6.78241135,0.011155168 C6.77765093,0.00840702369 6.69196333,-0.0394892057 6.69910396,0.0869254325 C6.69950066,0.0884958007 6.69791386,0.0892809848 6.69791386,0.0908513529 C6.5995318,6.18976876 3.4509093,7.84258126 1.72009918,10.0693633 C-2.27429165,15.2080006 1.44082108,20.842089 5.22337312,21.8832431 C7.34017413,22.4658497 4.73463645,20.8522964 4.3990267,17.4442049 C3.99320071,13.3251292 9.52005074,10.1808595 9.52005074,6.77080498" id="Fill-13" fill="#FFFFFF" mask="url(#mask-2)"></path>
                </g>
                <path d="M11.3351203,8.84718504 C11.3109215,8.83108877 11.2764085,8.8197036 11.2526064,8.85857021 C11.1875473,9.62648025 10.3953337,11.2686928 9.39088462,12.7766388 C5.98400923,17.8917206 7.92546803,20.3575912 9.01719149,21.6818041 C9.65072433,22.450892 9.01719149,21.6818041 10.6012219,20.8962275 C10.7253896,20.8345905 13.6927194,19.1880595 14.0136512,15.4360573 C14.3250621,11.802618 12.1197966,9.51262856 11.3351203,8.84718504" id="Fill-15" fill="#FFFFFF"></path>
                <path d="M103.461387,14.2057916 L98.4724645,14.2057916 C98.5938553,13.4696815 98.8505214,12.8823639 99.2373057,12.4567941 C99.6645535,11.9860762 100.272301,11.7571951 101.09625,11.7571951 C101.50644,11.7571951 101.861488,11.8302172 102.151874,11.9731207 C102.44464,12.1183797 102.688215,12.3119276 102.875458,12.5494458 C103.068255,12.793638 103.216622,13.0845488 103.316591,13.4147187 C103.393551,13.6667628 103.441948,13.9317624 103.461387,14.2057916 M105.897136,12.7563418 C105.685694,12.0991427 105.354051,11.5267435 104.931961,11.0505294 C104.506299,10.5703893 103.972736,10.1883972 103.34436,9.91476059 C102.717968,9.64230171 101.983672,9.50410931 101.1625,9.50410931 C100.206052,9.50410931 99.36187,9.66821279 98.6533605,9.99249381 C97.9444544,10.3171674 97.3474181,10.761189 96.8789132,11.3123883 C96.4119952,11.8620171 96.0613107,12.5164681 95.8371742,13.2576818 C95.6158146,13.987903 95.5035479,14.7832945 95.5035479,15.6222637 C95.5035479,16.476544 95.6197816,17.2735059 95.8490752,17.9911641 C96.0831293,18.7221705 96.4592027,19.3644511 96.9661876,19.8999466 C97.4743627,20.4374051 98.1265405,20.8582638 98.9052662,21.1519227 C99.6736777,21.4428334 100.890759,21.6163591 101.948763,21.4781667 C103.868403,21.2273003 104.709014,20.5061088 105.278678,19.745658 C106.285904,18.3994598 105.998295,18.1674379 105.998295,18.1674379 L103.791046,18.1674379 C103.540331,18.1674379 103.023428,19.1885699 101.392587,19.1885699 C100.274681,19.1885699 99.8402925,19.0162219 99.2849099,18.5105634 C98.7799084,18.0516233 98.4907128,17.3265058 98.4228768,16.3516997 L105.949897,16.3516997 C106.158959,16.3516997 106.210134,16.2170407 106.218465,16.0148558 C106.254564,15.1739236 106.301375,14.0138141 105.897136,12.7563418" id="Fill-17" fill="#FFFFFF"></path>
                <path d="M158.798358,14.2057916 L153.809436,14.2057916 C153.930826,13.4696815 154.187492,12.8823639 154.574277,12.4567941 C155.001525,11.9860762 155.609272,11.7571951 156.433221,11.7571951 C156.843411,11.7571951 157.198459,11.8302172 157.488845,11.9731207 C157.781611,12.1183797 158.025186,12.3119276 158.212429,12.5494458 C158.405226,12.793638 158.553593,13.0845488 158.653562,13.4147187 C158.730522,13.6667628 158.778919,13.9317624 158.798358,14.2057916 M161.234107,12.7563418 C161.022665,12.0991427 160.691022,11.5267435 160.268932,11.0505294 C159.84327,10.5703893 159.309707,10.1883972 158.681331,9.91476059 C158.054939,9.64230171 157.320643,9.50410931 156.499471,9.50410931 C155.543023,9.50410931 154.698841,9.66821279 153.990332,9.99249381 C153.281425,10.3171674 152.684389,10.761189 152.215884,11.3123883 C151.748966,11.8620171 151.398282,12.5164681 151.174145,13.2576818 C150.952786,13.987903 150.840519,14.7832945 150.840519,15.6222637 C150.840519,16.476544 150.956753,17.2735059 151.186046,17.9911641 C151.4201,18.7221705 151.796174,19.3644511 152.303159,19.8999466 C152.811334,20.4374051 153.463512,20.8582638 154.242237,21.1519227 C155.010649,21.4428334 156.22773,21.6163591 157.285734,21.4781667 C159.205374,21.2273003 160.045985,20.5061088 160.615649,19.745658 C161.622875,18.3994598 161.335266,18.1674379 161.335266,18.1674379 L159.128017,18.1674379 C158.877302,18.1674379 158.360399,19.1885699 156.729558,19.1885699 C155.611652,19.1885699 155.177263,19.0162219 154.621881,18.5105634 C154.116879,18.0516233 153.827684,17.3265058 153.759848,16.3516997 L161.286868,16.3516997 C161.49593,16.3516997 161.547105,16.2170407 161.555436,16.0148558 C161.591535,15.1739236 161.638346,14.0138141 161.234107,12.7563418" id="Fill-19" fill="#FFFFFF"></path>
                <path d="M137.378006,9.39500798 L137.378006,16.9170715 C137.378006,17.6005743 137.025734,18.2487438 136.427905,18.5906914 C134.758583,19.5450827 133.031344,18.3527807 133.031344,16.7808421 L133.031344,10.2080661 C133.031344,9.75894081 132.663601,9.39500798 132.209774,9.39500798 L130.075518,9.39500798 L130.075518,17.0489825 C130.075518,19.5117124 132.111392,21.5264947 134.599903,21.5264947 L135.809843,21.5264947 C138.298354,21.5264947 140.334228,19.5117124 140.334228,17.0489825 L140.334228,10.2080661 C140.334228,9.75894081 139.966485,9.39500798 139.512658,9.39500798 L137.378006,9.39500798 Z" id="Fill-21" fill="#FFFFFF"></path>
                <g id="Group" transform="translate(163.686875, 9.390541)">
                    <mask id="mask-4" fill="white">
                        <use xlink:href="#path-3"></use>
                    </mask>
                    <g id="Clip-24"></g>
                    <path d="M7.55796344,6.46543325 C7.07240039,5.92601178 6.20044975,5.4317384 4.89450729,4.95552425 C3.68575679,4.48716194 3.27120337,4.21862899 3.13235772,4.10124396 C2.94392435,3.94106641 2.85268293,3.71336302 2.85268293,3.40557086 C2.85268293,3.10209721 2.97843741,2.88146048 3.26088912,2.68987557 C3.57864729,2.47316476 4.011449,2.36363158 4.54659978,2.36363158 C5.50463472,2.36363158 6.37222165,2.60389791 7.12476503,3.07893428 L7.52979761,3.33372652 L7.5694678,3.33058578 C7.62500605,3.32665986 7.75710777,3.29368213 7.78289339,3.06205282 L7.78289339,1.00801125 C7.78289339,0.911041014 7.69085856,0.67587838 7.45997809,0.580478513 C6.33929539,0.116042125 5.28882892,-0.00605400089 4.59896442,0.00022747181 L4.59777432,0.00022747181 C3.35094044,0.0226052183 2.28262238,0.336678854 1.4229695,0.933811353 C0.47881912,1.58983266 0,2.47709068 0,3.5716373 C0,4.33208809 0.214218993,4.99321309 0.635913048,5.53577529 C1.05364009,6.07401899 1.89663149,6.58752938 3.21645851,7.10614347 C4.18679121,7.45947631 4.82825809,7.75980922 5.12340426,7.99889778 C5.36023525,8.19126788 5.47051836,8.41779349 5.47051836,8.71223752 C5.47051836,9.00354082 5.3923681,9.21514793 5.22376982,9.37807363 C4.9393346,9.65328065 4.39585308,9.78087307 3.60919333,9.76359902 C1.69471026,9.71884352 0.283245113,8.77662262 0.261823214,8.76209671 L0.17692902,8.72872639 L0.117027043,8.76288189 C0.0281658306,8.81352627 0.0166614773,8.93326684 0.0166614773,9.03259263 L0.0166614773,11.1922415 L0.022215303,11.2271822 C0.054348152,11.3300413 0.124564378,11.4093449 0.22215303,11.4556707 C1.13258375,11.9071516 2.20764574,12.1360327 3.41639624,12.1360327 C4.82072075,12.1360327 5.98861097,11.8227443 6.88793404,11.2048044 C7.83327452,10.5554572 8.31328375,9.65367324 8.31328375,8.52614889 C8.31328375,7.71623151 8.05899787,7.02330655 7.55796344,6.46543325" id="Fill-23" fill="#FFFFFF" mask="url(#mask-4)"></path>
                </g>
                <path d="M127.913692,21.5264162 L127.913692,19.6871225 C127.913692,19.2517379 127.557453,18.8991903 127.117511,18.9007606 C126.672411,18.902331 126.114252,18.9039014 125.642177,18.9039014 C124.439774,18.9039014 123.749512,18.3087318 123.749512,16.7666303 L123.749512,12.1167701 L127.913692,12.1167701 L127.913692,10.2806171 C127.913692,9.84601772 127.55785,9.49425525 127.119098,9.49425525 L123.749512,9.49425525 L123.749512,6.44067433 C123.749512,6.00607494 123.393671,5.65391988 122.954919,5.65391988 L120.788133,5.65391988 L120.788133,17.1191779 C120.788133,19.8955889 122.257517,21.5264162 125.285939,21.5264162 C125.320848,21.5264162 125.389081,21.5264162 125.389081,21.5264162 L127.913692,21.5264162 Z" id="Fill-25" fill="#FFFFFF"></path>
                <path d="M146.721088,9.50312783 C143.668467,9.50312783 142.442658,11.6949692 142.442658,13.9924179 L142.442658,20.6927863 C142.442658,21.1532967 142.819922,21.5266518 143.285253,21.5266518 L145.344929,21.5266518 L145.344929,14.5031801 C145.344929,13.3827224 145.640869,12.6968641 146.191887,12.3462794 C146.628259,12.0070799 147.480772,11.7715247 149.129068,12.3969238 L149.129068,10.4610524 C149.129068,10.0931937 148.505849,9.50312783 146.721088,9.50312783" id="Fill-27" fill="#FFFFFF"></path>
                <path d="M113.850215,9.62235804 C112.739053,9.62235804 111.50531,9.88617989 111.300612,10.451905 L111.300612,10.1841573 C111.300612,9.77900226 110.968969,9.45079531 110.559573,9.45079531 L108.315431,9.45079531 L108.315431,20.7931721 C108.315431,21.198327 108.647073,21.526534 109.05647,21.526534 L111.278793,21.526534 L111.278793,14.9274543 C111.278793,12.8785164 112.47723,12.1887322 113.392421,12.1887322 C114.678528,12.1887322 115.724234,12.9432941 115.724234,14.8410841 L115.724234,20.7931721 C115.724234,21.198327 116.055877,21.526534 116.465273,21.526534 L118.666175,21.526534 L118.666175,14.7119213 C118.666175,11.4121852 116.879033,9.62235804 113.850215,9.62235804" id="Fill-29" fill="#FFFFFF"></path>
                <path d="M91.7880385,5.6527421 L89.3983066,13.0845095 C88.7929396,14.9618846 88.2220857,16.7528896 87.8714013,18.0421618 C87.5135762,16.594675 86.932408,14.7157294 86.4111418,13.0307244 L84.3867723,6.45480765 C84.2399926,5.9782009 83.7960833,5.6527421 83.2926686,5.6527421 L80.7394956,5.6527421 L86.0104729,21.5264162 L89.6196663,21.5264162 L95.0600353,5.6527421 L91.7880385,5.6527421 Z" id="Fill-31" fill="#FFFFFF"></path>
            </g>
        </g>
    </g>
</svg>