<?xml version="1.0" encoding="UTF-8"?>
<svg width="87px" height="36px" viewBox="0 0 87 36" version="1.1" xmlns="http://www.w3.org/2000/svg" xmlns:xlink="http://www.w3.org/1999/xlink">
    <title>HYPERSPHERE</title>
    <g id="Page-2" stroke="none" stroke-width="1" fill="none" fill-rule="evenodd">
        <g id="Icon" transform="translate(-1073.000000, -474.000000)" fill="#FFFFFF">
            <path d="M1105.53053,484.834932 C1105.9826,485.09737 1106.32166,484.891168 1106.30282,484.385038 C1106.22748,483.541488 1106.60421,482.904139 1107.24464,482.547974 C1107.97927,482.116826 1108.75156,481.723169 1109.56153,481.460732 C1111.72772,480.767146 1113.95042,480.598436 1116.21079,480.467217 C1116.81356,480.542199 1117.39748,480.598436 1118.00025,480.654673 C1119.01742,480.7484 1120.01575,480.842128 1121.03292,480.992093 C1122.3703,481.179548 1123.65118,481.554459 1124.81904,482.266791 C1125.62901,482.754175 1126.23177,483.354033 1126.13759,484.403784 C1126.08108,484.872423 1126.45781,485.078624 1126.85338,484.853677 C1127.26778,484.59124 1127.64451,484.310056 1128.02124,483.991382 C1128.43564,483.616471 1128.49215,483.241559 1128.13425,482.829157 C1127.81404,482.454246 1127.41847,482.060589 1127.00407,481.854388 C1126.06225,481.385749 1125.10159,480.954602 1124.10326,480.692164 C1119.07393,479.379975 1114.02576,479.39872 1108.95876,480.523454 C1107.77206,480.767146 1106.58537,481.142057 1105.53053,481.798152 C1105.09729,482.079335 1104.70173,482.416755 1104.34383,482.791666 C1103.94827,483.222814 1104.02361,483.597725 1104.43802,483.991382 C1104.75823,484.291311 1105.13496,484.609985 1105.53053,484.834932 L1105.53053,484.834932 Z M1124.55533,483.354033 C1124.04675,482.997867 1123.42515,482.697938 1122.84122,482.491737 C1120.7127,481.741915 1118.47116,481.59195 1116.32381,481.554459 C1114.2518,481.573205 1112.25514,481.685678 1110.33382,482.248045 C1109.52385,482.510483 1108.67621,482.829157 1107.94159,483.279051 C1107.09395,483.766435 1107.13163,484.403784 1107.92276,484.891168 C1108.52552,485.284825 1109.24131,485.584754 1109.93826,485.790955 C1111.99143,486.44705 1114.11994,486.597014 1116.2673,486.597014 C1118.37698,486.597014 1120.46782,486.428304 1122.48332,485.790955 C1123.18027,485.566009 1123.91489,485.228589 1124.53649,484.834932 C1125.28995,484.403784 1125.27112,483.822672 1124.55533,483.354033 L1124.55533,483.354033 Z M1139.05939,509.729031 L1143.12806,509.729031 L1143.12806,508.660534 L1140.49096,508.660534 L1140.49096,506.598523 L1142.86435,506.598523 L1142.88319,506.598523 L1142.88319,505.455044 L1140.49096,505.455044 L1140.49096,503.917909 L1143.12806,503.917909 L1143.12806,502.868157 L1139.05939,502.868157 L1139.05939,509.729031 Z M1133.72868,505.586263 L1131.37412,505.586263 L1131.37412,502.868157 L1129.98023,502.868157 L1129.98023,509.747777 L1131.41179,509.747777 L1131.41179,506.804724 L1133.76635,506.804724 L1133.76635,509.747777 L1135.12257,509.747777 L1135.12257,502.868157 L1133.76635,502.868157 C1133.72868,503.78669 1133.72868,504.667731 1133.72868,505.586263 L1133.72868,505.586263 Z M1124.96973,504.330311 C1124.593,503.861672 1124.08442,503.880417 1123.51933,503.974145 L1123.51933,505.97992 L1123.74536,505.97992 C1124.25395,505.961174 1124.7437,505.961174 1125.02624,505.47379 C1125.27112,505.13637 1125.23344,504.686476 1124.96973,504.330311 L1124.96973,504.330311 Z M1126.08108,503.393033 C1127.11709,504.442784 1126.64618,506.448559 1125.27112,506.898452 C1124.91322,507.010925 1124.51766,507.048417 1124.08442,507.104653 C1123.89606,507.123399 1123.70769,507.16089 1123.51933,507.179635 L1123.51933,509.710286 L1122.14427,509.710286 L1122.14427,502.830666 C1122.48332,502.849412 1122.82238,502.830666 1123.16143,502.830666 C1123.9714,502.811921 1124.78137,502.77443 1125.5725,503.074359 C1125.76086,503.130595 1125.94923,503.28056 1126.08108,503.393033 L1126.08108,503.393033 Z M1159.42158,503.974145 L1159.42158,502.905649 L1155.37174,502.905649 L1155.37174,509.729031 L1159.40274,509.729031 L1159.40274,508.660534 L1156.76564,508.660534 L1156.76564,506.598523 L1159.15787,506.598523 L1159.15787,505.436299 L1156.7468,505.436299 L1156.7468,503.974145 L1159.42158,503.974145 Z M1149.62663,504.217838 C1149.92801,504.611494 1149.75849,505.061388 1149.55128,505.511281 L1150.83216,505.511281 C1151.11471,505.511281 1151.19005,505.342571 1151.24656,505.117624 C1151.52911,504.086619 1150.96402,503.093104 1149.89034,502.924394 C1149.19339,502.830666 1148.51528,502.811921 1147.7995,502.793175 C1147.49811,502.793175 1147.19673,502.77443 1146.89535,502.755684 L1146.89535,509.710286 L1148.27041,509.710286 L1148.27041,503.917909 C1148.4211,503.936654 1148.55295,503.917909 1148.68481,503.917909 C1149.06154,503.936654 1149.38176,503.917909 1149.62663,504.217838 L1149.62663,504.217838 Z M1138.4943,486.653251 C1139.83168,485.584754 1139.83168,484.609985 1138.4943,483.522743 C1137.64666,482.829157 1136.64832,482.454246 1135.57465,482.060589 C1135.06606,481.873134 1134.65166,482.266791 1134.78352,482.829157 C1134.91537,483.260305 1134.74584,483.522743 1134.36912,483.710198 C1134.33144,483.728944 1134.27493,483.74769 1134.21842,483.785181 C1134.16191,483.803926 1134.10541,483.841417 1134.06773,483.860163 C1133.16358,484.347547 1133.16358,484.347547 1132.67384,483.485252 C1132.48547,483.185323 1132.29711,483.110341 1132.01456,483.316542 L1131.44947,483.728944 C1130.82787,484.178837 1130.71485,484.122601 1130.50765,483.410269 C1130.50765,483.391524 1130.48881,483.354033 1130.48881,483.335287 C1130.39463,482.979122 1130.30044,482.604211 1129.84837,482.323027 C1130.20626,483.710198 1129.73535,484.666222 1128.56749,485.322316 C1128.60517,485.341062 1128.64284,485.378553 1128.66167,485.397299 C1128.68051,485.416044 1128.68051,485.43479 1128.69935,485.43479 L1128.86888,485.43479 C1129.67884,485.359807 1130.50765,485.284825 1131.22343,484.872423 C1131.33645,484.816186 1131.619,484.778695 1131.69434,484.853677 C1131.76969,484.909914 1131.75085,485.041133 1131.75085,485.191097 L1131.75085,485.341062 C1131.75085,485.378553 1131.71318,485.43479 1131.69434,485.472281 C1131.69434,485.491026 1131.6755,485.491026 1131.6755,485.509772 C1131.6755,485.547263 1131.65667,485.6035 1131.65667,485.640991 C1131.63783,485.809701 1131.60016,485.978411 1131.6755,486.034647 C1131.80736,486.10963 1132.05223,486.10963 1132.22176,486.072139 C1132.89987,485.865937 1133.50264,485.528517 1133.99239,485.022387 C1134.08657,484.909914 1134.21842,484.797441 1134.36912,484.666222 L1134.44446,484.609985 C1134.93421,485.209843 1135.14141,485.809701 1134.91537,486.484541 C1134.59515,487.440564 1133.72868,487.721748 1132.84336,487.909203 C1133.12591,487.62802 1133.42729,487.384328 1133.74751,487.140635 L1133.8417,487.065653 C1134.0489,486.896943 1134.19959,486.671996 1134.01122,486.409559 C1133.80402,486.128375 1133.57799,486.165866 1133.29544,486.334576 C1132.93755,486.540777 1132.59849,486.746979 1132.22176,486.934434 C1130.45114,487.79673 1128.54866,488.30286 1126.6085,488.659025 C1119.80855,489.914978 1112.97092,489.914978 1106.17097,488.752753 C1103.66572,488.340351 1101.19815,487.703002 1099.03196,486.334576 C1099.01312,486.315831 1098.99428,486.315831 1098.97545,486.297085 C1098.93778,486.27834 1098.9001,486.240849 1098.88127,486.259594 C1098.86243,486.27834 1098.82476,486.27834 1098.78708,486.27834 C1098.61756,486.297085 1098.44803,486.315831 1098.37268,486.409559 C1098.2785,486.522032 1098.2785,486.78447 1098.35385,486.915689 C1098.41036,487.065653 1098.56105,487.159381 1098.71174,487.271854 L1098.74941,487.2906 L1098.76825,487.309345 C1098.82476,487.346836 1098.9001,487.403073 1098.95661,487.440564 C1099.01312,487.478055 1099.08847,487.534292 1099.14498,487.571783 L1099.50287,487.852966 C1098.56105,487.665511 1097.6569,487.421819 1097.37435,486.390813 C1097.18599,485.734719 1097.39319,485.153606 1097.8641,484.572494 C1098.05246,484.75995 1098.20315,484.909914 1098.33501,485.022387 C1098.84359,485.566009 1099.48403,485.884683 1100.18098,486.072139 C1100.33167,486.10963 1100.53887,486.072139 1100.65189,485.978411 C1100.7084,485.94092 1100.67073,485.734719 1100.65189,485.6035 L1100.65189,485.566009 C1100.65189,485.547263 1100.63305,485.528517 1100.61422,485.491026 C1100.59538,485.472281 1100.57655,485.43479 1100.57655,485.416044 C1100.57655,485.322316 1100.59538,485.209843 1100.59538,485.116115 C1100.61422,485.022387 1100.61422,484.92866 1100.61422,484.816186 C1100.65189,484.834932 1100.68956,484.834932 1100.72724,484.834932 C1100.87793,484.853677 1101.02862,484.872423 1101.16048,484.947405 C1101.97044,485.378553 1102.83692,485.43479 1103.74107,485.416044 C1102.59204,484.722458 1102.15881,483.74769 1102.38484,482.416755 C1102.15881,482.697938 1101.93277,482.979122 1101.8951,483.279051 C1101.76324,484.25382 1101.42419,484.235074 1100.72724,483.672707 C1099.97378,483.072849 1099.95494,483.091595 1099.48403,483.935145 C1099.38985,484.066364 1099.16381,484.291311 1099.08847,484.25382 C1098.57988,483.991382 1098.0713,483.710198 1097.60039,483.410269 C1097.52504,483.335287 1097.54388,483.091595 1097.56272,482.922885 C1097.67573,482.210554 1097.29901,481.854388 1096.62089,482.135572 C1096.50787,482.173063 1096.39486,482.229299 1096.28184,482.266791 C1095.77325,482.491737 1095.24583,482.697938 1094.77492,482.979122 C1094.26634,483.297796 1093.73892,483.691453 1093.32452,484.141346 C1092.74059,484.778695 1092.74059,485.472281 1093.32452,486.072139 C1093.8331,486.597014 1094.43587,487.12189 1095.09514,487.440564 C1096.18766,488.002931 1097.35551,488.490315 1098.52337,488.865227 C1102.59204,490.139924 1106.79257,490.6648 1111.03077,490.927238 C1116.58752,491.245912 1122.10659,491.095948 1127.56916,490.252398 C1130.26277,489.839995 1132.88104,489.277629 1135.42396,488.30286 C1136.55414,487.852966 1137.59015,487.365582 1138.4943,486.653251 L1138.4943,486.653251 Z M1145.53912,484.497512 C1145.44494,484.647476 1145.35076,484.778695 1145.27541,484.92866 C1145.04938,485.303571 1144.86101,485.640991 1144.61614,485.94092 C1144.29592,486.372067 1143.86268,486.746979 1143.44828,487.065653 C1142.90202,487.45931 1142.33693,487.834221 1141.73416,488.152895 C1139.86936,489.183901 1137.85386,489.82125 1135.80068,490.364871 C1135.34861,490.49609 1134.91537,490.589818 1134.48213,490.702291 C1134.2561,490.739782 1134.0489,490.796019 1133.82286,490.852256 C1133.97355,490.702291 1134.14308,490.627309 1134.33144,490.589818 C1135.95138,490.083688 1137.55247,489.521321 1138.94637,488.546552 C1139.58681,488.096659 1140.18958,487.534292 1140.67932,486.934434 C1141.56464,485.828446 1141.56464,484.497512 1140.75467,483.335287 C1140.49096,482.960376 1140.17074,482.660447 1139.85052,482.341773 C1139.75634,482.248045 1139.68099,482.173063 1139.60565,482.098081 L1139.3231,481.873134 C1139.26659,481.835643 1139.21008,481.798152 1139.17241,481.760661 C1140.73583,482.229299 1142.22391,482.847903 1143.27875,484.272565 C1143.65548,483.635216 1143.5613,483.091595 1143.20341,482.585465 C1142.69482,481.873134 1142.07322,481.348258 1141.30092,480.973347 L1141.07489,480.860874 C1140.03888,480.354744 1138.96521,479.848614 1137.85386,479.454957 C1134.29377,478.199005 1130.58299,477.636638 1126.83454,477.242981 C1122.65285,476.811834 1118.43349,476.661869 1114.23296,476.736851 C1109.52385,476.830579 1104.79591,477.20549 1100.14331,478.067786 C1097.28017,478.592661 1094.51121,479.323738 1091.91178,480.598436 C1091.196,480.935856 1090.51789,481.404495 1089.85861,481.891879 C1089.53839,482.116826 1089.27468,482.510483 1089.08632,482.885394 C1088.84144,483.316542 1088.84144,483.766435 1089.19934,484.216328 C1090.2165,482.810412 1091.72342,482.210554 1093.19266,481.666933 C1093.04197,481.873134 1092.85361,482.023098 1092.68408,482.173063 C1092.5899,482.248045 1092.49571,482.341773 1092.40153,482.435501 C1090.68742,484.010127 1090.66858,485.959665 1092.32619,487.590529 C1092.60873,487.871712 1092.91012,488.152895 1093.26801,488.359096 L1093.49404,488.490315 C1094.20983,488.921463 1094.90678,489.333865 1095.67907,489.671285 C1096.28184,489.933723 1096.90344,490.139924 1097.52504,490.364871 C1097.88293,490.49609 1098.25966,490.627309 1098.61756,490.758528 C1097.93944,490.627309 1097.28017,490.49609 1096.60206,490.308634 C1094.22867,489.671285 1091.91178,488.921463 1089.83978,487.62802 C1088.65308,486.878198 1087.5794,485.997156 1087.03315,484.628731 C1087.03315,484.609985 1087.01431,484.572494 1086.97664,484.553748 C1086.9578,484.535003 1086.92013,484.516257 1086.90129,484.497512 C1086.71293,485.397299 1086.93896,486.165866 1087.35337,486.915689 C1087.84311,487.777984 1088.59657,488.396588 1089.3877,488.958954 C1090.53672,489.746268 1091.79877,490.32738 1093.07964,490.814764 C1096.56438,492.145699 1100.21865,492.85803 1103.9106,493.345415 C1108.78923,494.001509 1113.70554,494.20771 1118.64069,494.095237 C1123.33096,493.982764 1128.0024,493.551616 1132.61733,492.651829 C1135.38628,492.108208 1138.09873,491.395877 1140.69816,490.233652 C1141.88485,489.708777 1143.03388,489.052682 1143.99454,488.171641 C1144.71032,487.534292 1145.27541,486.765724 1145.48261,485.809701 C1145.5768,485.397299 1145.59563,484.984896 1145.53912,484.497512 L1145.53912,484.497512 Z M1146.70698,490.252398 C1144.8045,491.602078 1142.71366,492.52061 1140.50979,493.289178 C1136.72367,494.620112 1132.82453,495.407426 1128.86888,495.969793 C1123.80187,496.663378 1118.67836,496.888325 1113.55485,496.757106 C1106.88675,496.588396 1100.294,495.838574 1093.87077,493.907781 C1091.49738,493.214196 1089.21817,492.370646 1087.10849,491.077202 C1086.129,490.458599 1085.20601,489.727522 1084.3207,488.9777 C1083.92513,488.659025 1083.60491,488.190386 1083.32237,487.721748 C1082.36171,486.184612 1082.36171,484.628731 1083.32237,483.072849 C1084.01932,481.948116 1085.03648,481.08582 1086.129,480.335998 C1088.37053,478.817608 1090.83811,477.842839 1093.4187,477.03678 C1097.43086,475.780828 1101.5372,475.049751 1105.70006,474.581112 C1109.20363,474.187456 1112.70721,474 1116.94541,474 C1122.91656,474.037491 1129.52815,474.581112 1136.02672,476.19323 C1139.13473,476.961798 1142.1674,477.936567 1144.97403,479.492448 C1146.1984,480.186034 1147.34742,480.954602 1148.30808,482.004353 C1148.60946,482.341773 1148.89201,482.679193 1149.11805,483.054104 C1150.11638,484.666222 1150.11638,486.259594 1149.11805,487.871712 C1148.47761,488.865227 1147.61113,489.633794 1146.70698,490.252398 L1146.70698,490.252398 Z M1150.68147,507.085908 C1150.39892,507.067162 1150.13521,507.067162 1149.85267,507.085908 L1149.36292,507.085908 C1149.4571,507.273363 1149.53245,507.479564 1149.60779,507.66702 C1149.89034,508.304369 1150.15405,508.922972 1150.4366,509.504085 C1150.51194,509.616558 1150.66263,509.766522 1150.81333,509.785268 C1151.07704,509.822759 1151.34075,509.822759 1151.66097,509.804013 L1152.01886,509.804013 C1151.64213,508.904227 1151.30307,508.079422 1150.92634,507.292109 C1150.90751,507.179635 1150.77565,507.085908 1150.68147,507.085908 L1150.68147,507.085908 Z M1085.18718,503.224323 C1084.99881,503.636725 1084.79161,504.067873 1084.58441,504.480275 C1084.49023,504.686476 1084.37721,504.892678 1084.28303,505.098879 C1084.24535,505.155115 1084.20768,505.211352 1084.17001,505.267589 C1084.1135,505.342571 1084.05699,505.417553 1084.00048,505.511281 C1083.62375,504.705222 1083.2847,503.9554 1082.9268,503.243069 C1082.85146,503.074359 1082.68193,502.886903 1082.55007,502.868157 C1082.24869,502.849412 1081.94731,502.849412 1081.62709,502.849412 L1081.28803,502.849412 C1081.32571,502.94314 1081.34454,503.018122 1081.38221,503.093104 C1081.41989,503.186832 1081.45756,503.261814 1081.49523,503.336796 C1081.58942,503.524252 1081.6836,503.711707 1081.77778,503.899163 C1082.15451,504.648985 1082.53124,505.398808 1082.9268,506.129884 C1083.20935,506.65476 1083.32237,507.16089 1083.30353,507.742002 C1083.2847,508.191896 1083.30353,508.641789 1083.30353,509.091682 L1083.30353,509.785268 L1084.69743,509.785268 C1084.69743,509.69154 1084.71626,509.579067 1084.71626,509.485339 C1084.7351,509.391611 1084.7351,509.297883 1084.7351,509.18541 L1084.7351,508.641789 C1084.75394,508.285623 1084.75394,507.910712 1084.7351,507.554547 C1084.69743,507.085908 1084.82928,506.692251 1085.05532,506.298594 C1085.58274,505.323825 1086.129,504.311565 1086.63758,503.318051 C1086.71293,503.205577 1086.7506,503.055613 1086.82595,502.849412 C1086.46805,502.849412 1086.129,502.849412 1085.82761,502.830666 C1085.48856,502.811921 1085.31903,502.924394 1085.18718,503.224323 L1085.18718,503.224323 Z M1092.89128,504.330311 C1092.51455,503.880417 1091.98713,503.899163 1091.44087,503.974145 L1091.44087,505.998665 L1091.66691,505.998665 C1092.17549,505.97992 1092.64641,505.97992 1092.92895,505.492535 C1093.15499,505.13637 1093.13615,504.686476 1092.89128,504.330311 L1092.89128,504.330311 Z M1094.39819,504.217838 C1094.73725,506.036157 1093.94612,506.99218 1092.28851,507.104653 C1092.13782,507.104653 1091.98713,507.123399 1091.83644,507.123399 C1091.70458,507.123399 1091.57273,507.123399 1091.4032,507.142144 L1091.4032,509.747777 L1090.0093,509.747777 L1090.0093,502.849412 C1090.27301,502.849412 1090.55556,502.830666 1090.81927,502.830666 C1091.6104,502.811921 1092.38269,502.793175 1093.15499,502.961885 C1093.8331,503.093104 1094.26634,503.542997 1094.39819,504.217838 L1094.39819,504.217838 Z M1076.69194,505.586263 L1074.35622,505.586263 L1074.35622,502.868157 L1073,502.868157 L1073,509.729031 L1074.35622,509.729031 L1074.35622,506.785979 L1076.71078,506.785979 L1076.71078,509.766522 L1078.08584,509.766522 L1078.08584,502.886903 L1076.69194,502.886903 L1076.69194,505.586263 Z M1117.54818,506.017411 C1117.05843,505.773719 1116.53101,505.530026 1116.02242,505.30508 C1115.47617,505.061388 1115.25013,504.761459 1115.36315,504.311565 C1115.45733,503.936654 1115.73988,503.824181 1116.39915,503.899163 C1116.66286,503.936654 1116.92657,503.974145 1117.19028,504.030382 C1117.37865,504.067873 1117.58585,504.105364 1117.79305,504.142855 L1117.83072,503.992891 C1117.88723,503.674216 1117.94374,503.374287 1117.98141,503.055613 C1117.17145,502.77443 1116.43683,502.699447 1115.68337,502.736939 C1114.77922,502.811921 1114.15762,503.261814 1113.96925,503.974145 C1113.74322,504.836441 1113.98809,505.605009 1114.74155,506.111139 C1115.0806,506.336085 1115.41966,506.48605 1115.77755,506.65476 C1115.90941,506.710997 1116.02242,506.767233 1116.13544,506.82347 C1116.32381,506.935943 1116.53101,507.029671 1116.71937,507.142144 C1117.00192,507.310854 1117.19028,507.554547 1117.11494,507.910712 C1117.03959,508.266878 1116.81356,508.51057 1116.45566,508.585552 C1116.15428,508.623043 1115.83406,508.641789 1115.55151,508.604298 C1115.19362,508.548061 1114.83573,508.454333 1114.459,508.360606 C1114.36482,508.323114 1114.27064,508.304369 1114.17645,508.285623 C1114.10111,508.491824 1114.02576,508.67928 1113.95042,508.84799 C1113.89391,508.979209 1113.85623,509.091682 1113.79973,509.204156 C1114.55318,509.766522 1116.30497,509.991469 1117.26563,509.597812 C1118.01909,509.297883 1118.43349,508.735517 1118.52767,507.948203 C1118.62185,507.104653 1118.32047,506.429813 1117.54818,506.017411 L1117.54818,506.017411 Z M1097.90177,509.747777 L1101.93277,509.747777 L1101.93277,508.698026 L1099.29567,508.698026 L1099.29567,506.579778 L1101.6879,506.579778 L1101.6879,505.436299 L1099.29567,505.436299 L1099.29567,503.9554 L1101.97044,503.9554 L1101.97044,502.886903 L1097.90177,502.886903 L1097.90177,509.747777 Z M1108.43134,504.217838 C1108.75156,504.574003 1108.6197,504.986405 1108.33716,505.530026 L1108.80807,505.530026 C1109.09062,505.530026 1109.33549,505.511281 1109.58036,505.530026 C1109.88175,505.548772 1109.99476,505.398808 1110.07011,505.13637 C1110.33382,504.274074 1109.86291,503.299305 1108.99643,503.018122 C1108.2053,502.755684 1107.39534,502.793175 1106.56653,502.830666 C1106.28399,502.849412 1106.00144,502.849412 1105.71889,502.849412 L1105.71889,509.729031 L1107.09395,509.729031 L1107.09395,503.974145 C1107.20697,503.974145 1107.30115,503.9554 1107.39534,503.9554 C1107.7909,503.917909 1108.14879,503.880417 1108.43134,504.217838 L1108.43134,504.217838 Z M1110.16429,508.248132 C1110.37149,508.735517 1110.57869,509.222901 1110.82357,509.804013 L1110.48451,509.804013 C1110.16429,509.804013 1109.88175,509.804013 1109.5992,509.785268 C1109.48618,509.766522 1109.31665,509.616558 1109.24131,509.485339 C1109.03411,509.035446 1108.84574,508.566807 1108.63854,508.116913 C1108.50669,507.798239 1108.35599,507.460819 1108.2053,507.142144 C1108.28065,507.104653 1108.29949,507.104653 1108.31832,507.085908 L1108.33716,507.085908 C1108.99643,507.048417 1109.33549,507.010925 1109.56153,507.16089 C1109.78756,507.310854 1109.91942,507.610783 1110.16429,508.248132 L1110.16429,508.248132 Z" id="HYPERSPHERE"></path>
        </g>
    </g>
</svg>