<?xml version="1.0" encoding="UTF-8"?>
<svg width="48px" height="48px" viewBox="0 0 48 48" version="1.1" xmlns="http://www.w3.org/2000/svg" xmlns:xlink="http://www.w3.org/1999/xlink">
    <title>icon-edit</title>
    <g id="Page-2" stroke="none" stroke-width="1" fill="none" fill-rule="evenodd">
        <g id="Icon" transform="translate(-1068.000000, -250.000000)">
            <g id="icon-edit" transform="translate(1068.000000, 250.000000)">
                <g id="编组-3">
                    <rect id="Rectangle" x="0" y="0" width="48" height="48"></rect>
                </g>
                <rect id="Rectangle-Copy-9" x="0" y="0" width="48" height="48"></rect>
                <g id="group" transform="translate(10.520000, 10.520000)" fill="#FFFFFF">
                    <path d="M18.98,23.98 L26.98,23.98 C27.8084271,23.98 28.48,24.6515729 28.48,25.48 C28.48,26.3084271 27.8084271,26.98 26.98,26.98 L18.98,26.98 C18.1515729,26.98 17.48,26.3084271 17.48,25.48 C17.48,24.6515729 18.1515729,23.98 18.98,23.98 Z" id="Rectangle"></path>
                    <g id="group-" transform="translate(13.480240, 13.480249) rotate(-360.000000) translate(-13.480240, -13.480249) " fill-rule="nonzero">
                        <path d="M13.8787966,6.01061571 L20.9498644,13.0816835 C21.730913,13.8627321 21.8892042,14.9707708 21.3034178,15.5565573 L10.8399302,26.0200449 C10.4046944,26.4552806 9.80149093,26.7014823 9.11214348,26.7252529 L2.31808721,26.9595307 C1.39029031,26.9915237 0.391775556,26.226428 0.0878420884,25.2506416 C0.0235948923,25.0443743 -0.00581344133,24.8385159 0.00094942142,24.6423929 L0.235227224,17.8483366 C0.258997826,17.1589892 0.505199464,16.5557857 0.940435222,16.1205499 L11.4039228,5.65706232 C11.9897093,5.07127588 13.097748,5.22956713 13.8787966,6.01061571 Z M12.464,8.8384049 L3.229,18.0734049 L3.027,23.9324049 L8.886,23.7304049 L18.121,14.4954049 L12.464,8.8384049 Z" id="path"></path>
                        <path d="M21.3034178,1.41442163 L25.5460585,5.65706232 C27.1081556,7.21915949 27.4247381,9.43523691 26.2531653,10.6068098 L21.3034178,15.5565573 C20.7176313,16.1423437 19.6095926,15.9840525 18.8285441,15.2030039 L11.7574762,8.13193606 C10.9764277,7.35088747 10.8181364,6.24284876 11.4039228,5.65706232 L16.3536703,0.707314854 C17.5252432,-0.464258022 19.7413206,-0.147675532 21.3034178,1.41442163 Z M18.2902654,3.012 L14.5852654,6.717 L20.2422654,12.374 L23.9472654,8.669 L23.9300122,8.58472546 C23.8740706,8.3807178 23.7460259,8.1423083 23.5502769,7.91388396 L23.4247381,7.77838267 L19.1820974,3.53574198 C18.9149117,3.26855622 18.6205638,3.09759788 18.3757547,3.0304679 L18.2902654,3.012 Z" id="path"></path>
                    </g>
                </g>
            </g>
        </g>
    </g>
</svg>