<?xml version="1.0" encoding="UTF-8"?>
<svg width="48px" height="48px" viewBox="0 0 48 48" version="1.1" xmlns="http://www.w3.org/2000/svg" xmlns:xlink="http://www.w3.org/1999/xlink">
    <title>icon-delete</title>
    <g id="Page-2" stroke="none" stroke-width="1" fill="none" fill-rule="evenodd">
        <g id="Icon" transform="translate(-1196.000000, -250.000000)">
            <g id="icon-delete" transform="translate(1196.000000, 250.000000)">
                <rect id="path" x="0" y="0" width="48" height="48"></rect>
                <g id="group" transform="translate(12.005534, 8.500000)" fill="#FFFFFF" fill-rule="nonzero">
                    <path d="M21.993278,4.64960449 L3.1972168,4.64960449 C2.36878967,4.64960449 1.6972168,5.32117737 1.6972168,6.14960449 L1.6972168,24.9727246 C1.6972168,28.0102907 4.15965067,30.4727246 7.1972168,30.4727246 L17.993278,30.4727246 C21.0308441,30.4727246 23.493278,28.0102907 23.493278,24.9727246 L23.493278,6.14960449 C23.493278,5.32117737 22.8217051,4.64960449 21.993278,4.64960449 Z M20.493278,7.64960449 L20.493278,24.9727246 C20.493278,26.3534365 19.3739899,27.4727246 17.993278,27.4727246 L7.1972168,27.4727246 L7.03284111,27.4674069 C5.72875273,27.3827633 4.6972168,26.298208 4.6972168,24.9727246 L4.6972168,7.64960449 L20.493278,7.64960449 Z" id="path"></path>
                    <path d="M23.5,4.64960449 C24.3284271,4.64960449 25,5.32117737 25,6.14960449 C25,6.97803162 24.3284271,7.64960449 23.5,7.64960449 L1.5,7.64960449 C0.671572875,7.64960449 0,6.97803162 0,6.14960449 C0,5.32117737 0.671572875,4.64960449 1.5,4.64960449 L23.5,4.64960449 Z" id="path"></path>
                    <path d="M15.5798372,0 C16.4082644,0 17.0798372,0.671572875 17.0798372,1.5 L17.0798372,5.75421875 C17.0798372,6.58264587 16.4082644,7.25421875 15.5798372,7.25421875 C14.7514101,7.25421875 14.0798372,6.58264587 14.0798372,5.75421875 L14.0791628,3 L10.9201628,3 L10.9201628,4.52635417 C10.9201628,5.30605028 10.3252747,5.94680284 9.56462277,6.01948759 L9.42016276,6.02635417 C8.59173564,6.02635417 7.92016276,5.35478129 7.92016276,4.52635417 L7.92016276,1.5 C7.92016276,0.671572875 8.59173564,0 9.42016276,0 L15.5798372,0 Z" id="path"></path>
                    <path d="M12.7732259,13.4371615 C13.601653,13.4371615 14.2732259,14.1087343 14.2732259,14.9371615 L14.2732259,19.8870313 C14.2732259,20.7154584 13.601653,21.3870313 12.7732259,21.3870313 C11.9447988,21.3870313 11.2732259,20.7154584 11.2732259,19.8870313 L11.2732259,14.9371615 C11.2732259,14.1087343 11.9447988,13.4371615 12.7732259,13.4371615 Z" id="path"></path>
                </g>
            </g>
        </g>
    </g>
</svg>