<?xml version="1.0" encoding="UTF-8"?>
<svg width="24px" height="24px" viewBox="0 0 24 24" version="1.1" xmlns="http://www.w3.org/2000/svg" xmlns:xlink="http://www.w3.org/1999/xlink">
    <title>icon/edit</title>
    <g id="Page-1" stroke="none" stroke-width="1" fill="none" fill-rule="evenodd">
        <g id="Managers" transform="translate(-873.000000, -317.000000)">
            <g id="Group" transform="translate(408.000000, 226.000000)">
                <g id="Group-5" transform="translate(297.000000, 0.000000)">
                    <g id="icon/edit" transform="translate(168.000000, 91.000000)">
                        <rect id="Rectangle-Copy-9" x="0" y="0" width="24" height="24"></rect>
                        <path d="M14.75,17.25 L18.75,17.25 C19.1642136,17.25 19.5,17.5857864 19.5,18 C19.5,18.4142136 19.1642136,18.75 18.75,18.75 L14.75,18.75 C14.3357864,18.75 14,18.4142136 14,18 C14,17.5857864 14.3357864,17.25 14.75,17.25 Z" id="Rectangle" fill="#45BEFF"></path>
                        <path d="M11.4466645,8.66448821 L15.2046021,12.3311718 C15.2714281,12.3979979 15.3218228,12.4751268 15.3357518,12.5535755 L10.149635,17.7396924 C10.0592124,17.830115 9.92984853,17.8682573 9.79022503,17.8730719 L6.3931969,17.9902108 C6.32366889,17.9926084 6.25809936,17.9501774 6.20066926,17.9061725 C6.14414658,17.8628629 6.09291987,17.80846 6.05684701,17.745832 L6.12733948,14.205402 C6.13282988,14.0675446 6.17112172,13.940031 6.2605477,13.8506051 L11.4466645,8.66448821 Z" id="Path" stroke="#45BEFF" stroke-width="1.5"></path>
                        <path d="M14.3976414,6.01054837 L14.4949827,6.02033311 C14.8003373,6.06395519 15.1168324,6.23299447 15.3813788,6.4975409 L17.5026992,8.61886125 C17.7672456,8.88340768 17.9362849,9.19990276 17.9799069,9.50525735 C18.0076946,9.69977124 17.9901124,9.899215 17.8562525,10.0330748 L15.4270058,12.4623216 L11.6690682,8.79563794 L13.9671652,6.14398751 C14.1010251,6.0101277 14.3004688,5.99254541 14.4949827,6.02033311 Z" id="Path" stroke="#45BEFF" stroke-width="1.5"></path>
                    </g>
                </g>
            </g>
        </g>
    </g>
</svg>