<?xml version="1.0" encoding="UTF-8"?>
<svg width="48px" height="48px" viewBox="0 0 48 48" version="1.1" xmlns="http://www.w3.org/2000/svg" xmlns:xlink="http://www.w3.org/1999/xlink">
    <title>icon-add</title>
    <g id="Page-2" stroke="none" stroke-width="1" fill="none" fill-rule="evenodd">
        <g id="Icon" transform="translate(-940.000000, -250.000000)">
            <g id="icon-add" transform="translate(940.000000, 250.000000)">
                <rect id="Rectangle" x="0" y="0" width="48" height="48"></rect>
                <path d="M35,22.5 C35.8284271,22.5 36.5,23.1715729 36.5,24 C36.5,24.8284271 35.8284271,25.5 35,25.5 L13,25.5 C12.1715729,25.5 11.5,24.8284271 11.5,24 C11.5,23.1715729 12.1715729,22.5 13,22.5 L35,22.5 Z" id="path" fill="#FFFFFF" fill-rule="nonzero"></path>
                <path d="M24,11.5 C24.8284271,11.5 25.5,12.1715729 25.5,13 L25.5,35 C25.5,35.8284271 24.8284271,36.5 24,36.5 C23.1715729,36.5 22.5,35.8284271 22.5,35 L22.5,13 C22.5,12.1715729 23.1715729,11.5 24,11.5 Z" id="path" fill="#FFFFFF" fill-rule="nonzero"></path>
            </g>
        </g>
    </g>
</svg>