<?xml version="1.0" encoding="UTF-8"?>
<svg width="48px" height="48px" viewBox="0 0 48 48" version="1.1" xmlns="http://www.w3.org/2000/svg" xmlns:xlink="http://www.w3.org/1999/xlink">
    <title>icon-Record</title>
    <g id="Page-2" stroke="none" stroke-width="1" fill="none" fill-rule="evenodd">
        <g id="Icon" transform="translate(-1809.000000, -378.000000)">
            <g id="icon-Record" transform="translate(1809.000000, 378.000000)">
                <rect id="Rectangle" x="0" y="0" width="48" height="48"></rect>
                <path d="M33,8.98022793 L15,8.98022793 C11.9624339,8.98022793 9.5,11.4426618 9.5,14.4802279 L9.5,34 C9.5,37.0375661 11.9624339,39.5 15,39.5 L33,39.5 C36.0375661,39.5 38.5,37.0375661 38.5,34 L38.5,14.4802279 C38.5,11.4426618 36.0375661,8.98022793 33,8.98022793 Z M33,11.9802279 C34.3807119,11.9802279 35.5,13.0995161 35.5,14.4802279 L35.5,34 C35.5,35.3807119 34.3807119,36.5 33,36.5 L15,36.5 C13.6192881,36.5 12.5,35.3807119 12.5,34 L12.5,14.4802279 C12.5,13.0995161 13.6192881,11.9802279 15,11.9802279 L33,11.9802279 Z" id="Rectangle" fill="#FFFFFF" fill-rule="nonzero"></path>
                <path d="M31,20 C31,20.8284271 30.3284271,21.5 29.5,21.5 L16.5,21.5 C15.6715729,21.5 15,20.8284271 15,20 C15,19.1715729 15.6715729,18.5 16.5,18.5 L29.5,18.5 C30.3284271,18.5 31,19.1715729 31,20 Z M24,27 C24,27.8284271 23.3284271,28.5 22.5,28.5 L16.5,28.5 C15.6715729,28.5 15,27.8284271 15,27 C15,26.1715729 15.6715729,25.5 16.5,25.5 L22.5,25.5 C23.3284271,25.5 24,26.1715729 24,27 Z" id="path" fill="#FFFFFF" fill-rule="nonzero"></path>
            </g>
        </g>
    </g>
</svg>