<?xml version="1.0" encoding="UTF-8"?>
<svg width="64px" height="56px" viewBox="0 0 64 56" version="1.1" xmlns="http://www.w3.org/2000/svg" xmlns:xlink="http://www.w3.org/1999/xlink">
    <g stroke="none" stroke-width="1" fill="none" fill-rule="evenodd" fill-opacity="0.4">
        <g transform="translate(-491.000000, -378.000000)" fill="#FFFFFF" fill-rule="nonzero">
            <g id="Group" transform="translate(491.000000, 378.000000)">
                <path d="M4.51918888,43.1281259 L4.51918888,37.477857 L10.5741488,33.5233431 C11.2467547,32.9810405 13.828718,31.1003047 16.911558,31.3963116 C18.8043449,31.5785855 20.5005472,32.5592495 21.8178907,34.2321026 C23.2775887,36.0864764 25.5055489,38.3144366 27.8261524,38.3965352 C29.3001611,38.449259 30.8464769,37.5973919 32.4206611,35.8657894 C33.0074024,35.2202986 33.598663,34.5514586 34.1703403,33.9052146 C37.8760752,29.7144201 41.376187,25.7556106 45.5692411,25.7556106 L45.5827987,25.7556106 C47.6887407,25.7601298 49.6470559,26.7761941 51.4012544,28.7766884 C56.4461756,34.5288627 59.4235678,37.1176047 59.4808109,37.1695754 L59.4808109,43.3566681 C59.2390343,43.1382407 53.2187215,37.7028397 48.0035775,31.7563403 C46.7058171,30.2770591 45.85395,30.2747995 45.5737603,30.2747995 C43.413588,30.2747995 40.3021265,33.7937413 37.5567192,36.898424 C36.9752502,37.555966 36.3734449,38.2361039 35.765614,38.9049439 C33.3425756,41.5697589 30.7206928,42.9187368 27.9662472,42.9187368 C27.8660719,42.9187368 27.7658965,42.9172304 27.6657211,42.9134644 C24.4126583,42.7982251 21.2507325,40.8180672 18.2665615,37.0279741 C17.5329465,36.096268 16.8942344,35.9350836 16.4777159,35.8951641 C15.1792023,35.7701332 13.7066999,36.7854443 13.3835779,37.0641276 L13.2615598,37.1695754 L4.51918888,42.9187368 L4.51918888,43.1281259 Z" id="Path"></path>
                <path d="M55.6711347,55.4820819 L8.32961831,55.4820819 C3.73661601,55.4820819 0,51.7454659 0,47.1524636 L0,8.32961831 C0,3.73661601 3.73661601,0 8.32961831,0 L55.6703815,0 C60.2633838,0 64,3.73661601 64,8.32961831 L64,47.1524636 C64.000753,51.7454659 60.264137,55.4820819 55.6711347,55.4820819 L55.6711347,55.4820819 Z M8.32961831,4.51843569 C6.22819548,4.51843569 4.51918888,6.22819548 4.51918888,8.32886511 L4.51918888,47.1517104 C4.51918888,49.2531332 6.22894868,50.9621398 8.32961831,50.9621398 L55.6703815,50.9621398 C57.7718043,50.9621398 59.4808109,49.25238 59.4808109,47.1517104 L59.4808109,8.32961831 C59.4808109,6.22819548 57.7710511,4.51918888 55.6703815,4.51918888 L8.32961831,4.51918888 L8.32961831,4.51843569 Z" id="Shape"></path>
                <path d="M15.1611255,25.460357 C10.6464558,25.460357 6.97310845,21.7870096 6.97310845,17.2723399 C6.97310845,12.7576702 10.6457026,9.08507605 15.1611255,9.08507605 C19.6765484,9.08507605 23.3491426,12.7584234 23.3491426,17.2730931 C23.3491426,21.7877628 19.6757952,25.460357 15.1611255,25.460357 Z M15.1611255,13.3029857 C12.9723317,13.3029857 11.1910181,15.0835461 11.1910181,17.2730931 C11.1910181,19.4626401 12.9715785,21.2432005 15.1611255,21.2432005 C17.3506725,21.2432005 19.1312329,19.4626401 19.1312329,17.2730931 C19.1312329,15.0835461 17.3499193,13.3029857 15.1611255,13.3029857 Z" id="Shape"></path>
            </g>
        </g>
    </g>
</svg>