<?xml version="1.0" encoding="UTF-8"?>
<svg width="134px" height="25px" viewBox="0 0 134 25" version="1.1" xmlns="http://www.w3.org/2000/svg" xmlns:xlink="http://www.w3.org/1999/xlink">
    <title>Kenetic</title>
    <g id="Page-2" stroke="none" stroke-width="1" fill="none" fill-rule="evenodd">
        <g id="Icon" transform="translate(-814.000000, -480.000000)" fill="#FFFFFF">
            <path d="M945.698749,497.992248 C945.525931,498.959016 945.00972,499.825877 944.248871,500.426069 C943.516451,500.989453 942.549865,501.271146 941.348367,501.271146 C939.796743,501.269643 938.580282,500.734052 937.698983,499.664373 C936.817685,498.594694 936.377036,497.117124 936.377036,495.230913 C936.377784,493.345452 936.818433,491.867883 937.697487,490.796701 C938.576541,489.725519 939.79375,489.189928 941.348367,489.189928 C943.440141,489.190679 944.818947,490.239326 945.483287,492.33737 L947.843641,491.190319 C947.31546,489.924582 946.44688,488.837625 945.338898,488.05715 C944.271315,487.327003 942.960589,486.961179 941.406721,486.959656 C939.067315,486.95517 937.228409,487.683814 935.890751,489.14636 C934.553092,490.608906 933.884263,492.633334 933.884263,495.218894 C933.893241,497.804453 934.56207,499.82813 935.890751,501.290676 C937.220179,502.753223 939.058337,503.484871 941.406721,503.484871 C943.022684,503.484871 944.391764,503.079234 945.51396,502.267961 C946.66683,501.404104 947.534662,500.201466 948,498.819296 L945.698749,497.992248 Z M930.088246,480.94874 C929.91468,480.768456 929.707447,480.62423 929.479267,480.526577 C929.250339,480.428923 929.004952,480.377843 928.757321,480.377843 C928.509689,480.377843 928.265051,480.428923 928.036122,480.526577 C927.807942,480.62423 927.60071,480.768456 927.427144,480.94874 C927.253577,481.129774 927.117417,481.34386 927.025397,481.57973 C926.933377,481.814849 926.888489,482.066494 926.892978,482.319642 C926.881756,482.574292 926.922155,482.82819 927.010435,483.066314 C927.098714,483.304438 927.233378,483.521529 927.406196,483.704065 L927.4047,483.704065 C927.674027,483.96172 928.010686,484.134491 928.374278,484.200595 C928.737121,484.26745 929.111935,484.224633 929.451586,484.078153 C929.791986,483.931673 930.083757,483.688291 930.290989,483.3758 C930.49897,483.064061 930.613434,482.697485 930.622412,482.319642 C930.6269,482.066494 930.581264,481.814849 930.489992,481.57973 C930.397972,481.34386 930.261812,481.129774 930.088246,480.94874 L930.088246,480.94874 Z M927.516919,503.175385 L930.002959,503.175385 L930.002959,487.278928 L927.516919,487.278928 L927.516919,503.175385 Z M922.869529,500.805415 C922.415414,501.009735 921.925388,501.116403 921.428629,501.119407 C920.811421,501.150206 920.204686,500.939876 919.734112,500.529732 C919.309922,500.13987 919.097452,499.562964 919.097452,498.798263 L919.097452,489.473123 L924.84684,489.473123 L924.84684,487.278928 L919.097452,487.278928 L919.097452,482.76434 L916.611413,483.464439 L916.611413,487.278928 L913.503676,487.278928 L913.503676,489.473123 L916.611413,489.473123 L916.611413,499.233947 C916.630864,500.660437 917.038596,501.727112 917.836103,502.43322 C918.632863,503.139329 919.663788,503.493134 920.927381,503.493134 C922.564292,503.493134 923.900454,503.016135 924.935867,502.062889 L924.07028,499.932544 C923.732873,500.304378 923.324393,500.601845 922.869529,500.805415 L922.869529,500.805415 Z M909.703171,493.923109 C909.537086,492.43953 909.060526,491.279709 908.27424,490.442895 C907.487206,489.606082 906.442815,489.186923 905.141067,489.186172 C903.77498,489.186172 902.672235,489.599321 901.832832,490.425618 L901.826099,490.425618 C900.985947,491.251916 900.47273,492.417746 900.287193,493.923109 L909.703171,493.923109 Z M911.291453,490.614915 C911.842825,491.795018 912.118886,493.090051 912.099434,494.397855 C912.099434,494.994291 912.058287,495.589976 911.976741,496.179652 L900.262505,496.179652 C900.400161,497.790181 900.923104,499.040143 901.830587,499.931793 C902.73807,500.822692 903.904407,501.26739 905.3281,501.266639 C906.469,501.266639 907.416134,501.065323 908.170998,500.663442 C908.88696,500.306631 909.43908,499.678645 909.709904,498.912443 L911.781479,500.024939 C911.203922,501.103633 910.342823,501.995283 909.295439,502.600733 C908.259278,503.194165 906.932841,503.490881 905.317626,503.490131 C902.969243,503.490131 901.130337,502.759232 899.802404,501.296686 C898.474471,499.834891 897.805642,497.810462 897.795917,495.224152 C897.795917,492.638593 898.433324,490.614164 899.708888,489.152369 C900.983703,487.689823 902.793432,486.958926 905.138075,486.958926 C906.456282,486.92362 907.758778,487.264656 908.898182,487.944473 C909.932847,488.576966 910.764769,489.505424 911.291453,490.614915 L911.291453,490.614915 Z M888.023829,486.96193 C886.956994,486.940897 885.900633,487.173012 884.936292,487.639494 C884.021327,488.098465 883.270204,488.839879 882.789904,489.759322 L882.63504,487.278928 L880.469201,487.278928 L880.469201,503.175385 L882.954492,503.175385 L882.954492,494.717857 C882.954492,493.447613 883.187161,492.393708 883.652499,491.555392 C884.055741,490.781677 884.678935,490.149935 885.439036,489.744299 C886.16173,489.373216 886.959986,489.182416 887.769464,489.186923 C888.940289,489.172651 889.870964,489.539978 890.561489,490.288904 C891.252014,491.037078 891.597651,492.238965 891.597651,493.892311 L891.597651,503.175385 L894.08369,503.175385 L894.08369,493.002163 C894.081446,491.052102 893.51137,489.558006 892.371966,488.519125 C891.231066,487.480995 889.781937,486.96193 888.023829,486.96193 L888.023829,486.96193 Z M874.275424,493.922358 C874.110087,492.43953 873.633527,491.279709 872.846494,490.442895 C872.058712,489.606082 871.014321,489.186923 869.711076,489.186172 C868.344241,489.186172 867.240747,489.599321 866.400596,490.425618 L866.398352,490.425618 C865.559697,491.251916 865.047975,492.417746 864.863935,493.922358 L874.275424,493.922358 Z M875.865202,490.61792 C876.415079,491.798023 876.691887,493.093056 876.671688,494.400859 C876.671688,494.995793 876.63054,495.590727 876.548994,496.179652 L864.832514,496.179652 C864.97017,497.789429 865.493113,499.040143 866.400596,499.931042 C867.308827,500.822692 868.474416,501.26739 869.898109,501.266639 C871.039009,501.266639 871.986891,501.065323 872.742503,500.663442 C873.457717,500.30588 874.009089,499.677894 874.279913,498.912443 L876.361961,500.024939 C875.784404,501.103633 874.923305,501.995283 873.875922,502.600733 C872.83976,503.194165 871.514072,503.490881 869.898109,503.490131 C867.549726,503.490131 865.710819,502.759232 864.382139,501.296686 C863.054206,499.834891 862.386125,497.811965 862.379392,495.227157 C862.379392,492.641597 863.016051,490.617169 864.28937,489.155374 C865.562689,487.692828 867.369426,486.96193 869.711076,486.96193 C871.030031,486.926625 872.332528,487.26766 873.471931,487.947478 C874.506596,488.579971 875.338518,489.508428 875.865202,490.61792 L875.865202,490.61792 Z M861.724777,482.195697 L858.462178,482.195697 L848.143954,493.002163 L848.143954,482.192693 L845.657914,482.192693 L845.657914,503.176137 L848.143954,503.176137 L848.143954,496.433551 L851.811292,492.618311 L858.834747,503.176137 L861.818293,503.176137 L853.551445,490.746372 L861.724777,482.195697 Z M830.147661,490.188246 C830.081825,490.390313 830.188808,490.608906 830.386315,490.676512 C830.583821,490.743367 830.797787,490.634446 830.863622,490.432379 C830.929458,490.230312 830.822475,490.011718 830.624969,489.944112 C830.426714,489.877257 830.213497,489.986178 830.147661,490.188246 L830.147661,490.188246 Z M831.768861,490.068808 C832.032951,490.15895 832.317989,490.01247 832.405521,489.742796 C832.493052,489.473123 832.350159,489.181665 832.086817,489.091524 C831.822726,489.002133 831.537688,489.147862 831.450157,489.417536 C831.362626,489.68796 831.504771,489.979418 831.768861,490.068808 L831.768861,490.068808 Z M832.983078,488.530393 C832.873851,488.868423 833.051906,489.232745 833.381832,489.345422 C833.711757,489.457348 834.068616,489.274811 834.178591,488.936781 C834.287818,488.599501 834.109763,488.235179 833.779837,488.122502 C833.449912,488.010577 833.093053,488.193113 832.983078,488.530393 L832.983078,488.530393 Z M835.694305,487.040804 C835.298543,486.906343 834.870612,487.125687 834.738941,487.530573 C834.606522,487.935459 834.821236,488.373396 835.216997,488.508609 C835.613507,488.64307 836.041438,488.423725 836.173109,488.01884 C836.30478,487.613203 836.090814,487.176016 835.694305,487.040804 L835.694305,487.040804 Z M837.950668,487.505784 C838.38608,487.282684 838.562639,486.739581 838.344185,486.294132 C838.125731,485.847931 837.596054,485.667648 837.159893,485.890748 C836.723733,486.113849 836.547174,486.656951 836.765628,487.102401 C836.984083,487.548601 837.514508,487.728884 837.950668,487.505784 L837.950668,487.505784 Z M830.147661,494.810252 C830.213497,495.012319 830.426714,495.121992 830.624969,495.054385 C830.822475,494.98753 830.929458,494.768937 830.863622,494.56687 C830.797787,494.364803 830.583821,494.255131 830.386315,494.322737 C830.188808,494.389592 830.081825,494.608185 830.147661,494.810252 L830.147661,494.810252 Z M832.405521,495.253448 C832.317989,494.983775 832.032951,494.837295 831.768861,494.927436 C831.504771,495.016826 831.362626,495.308284 831.450157,495.578709 C831.537688,495.848382 831.822726,495.994111 832.086817,495.90472 C832.350159,495.814579 832.493052,495.523121 832.405521,495.253448 L832.405521,495.253448 Z M834.178591,496.057961 C834.068616,495.720681 833.711757,495.538145 833.381832,495.650071 C833.051906,495.762748 832.873851,496.127069 832.983078,496.4651 C833.093053,496.80238 833.449912,496.984916 833.779837,496.872991 C834.109763,496.760314 834.287818,496.395992 834.178591,496.057961 L834.178591,496.057961 Z M835.454903,497.995253 C835.87236,497.995253 836.210515,497.648959 836.210515,497.221538 C836.210515,496.794868 835.87236,496.448574 835.454903,496.448574 C835.037446,496.448574 834.698542,496.794868 834.698542,497.221538 C834.698542,497.648959 835.037446,497.995253 835.454903,497.995253 L835.454903,497.995253 Z M837.554159,497.39506 C837.066377,497.39506 836.671364,497.799195 836.671364,498.297978 C836.671364,498.796761 837.066377,499.200895 837.554159,499.200895 C838.04194,499.200895 838.436953,498.796761 838.436953,498.297978 C838.436953,497.799195 838.04194,497.39506 837.554159,497.39506 L837.554159,497.39506 Z M821.936923,489.92383 C821.728194,489.92383 821.559864,490.096602 821.559864,490.309937 C821.559864,490.523272 821.728194,490.695292 821.936923,490.695292 C822.144903,490.695292 822.313981,490.523272 822.313981,490.309937 C822.313981,490.096602 822.144903,489.92383 821.936923,489.92383 L821.936923,489.92383 Z M820.008241,489.580541 C820.008241,489.864487 820.233428,490.095099 820.510985,490.095099 C820.789289,490.095099 821.014477,489.864487 821.014477,489.580541 C821.014477,489.295844 820.789289,489.065232 820.510985,489.065232 C820.233428,489.065232 820.008241,489.295844 820.008241,489.580541 L820.008241,489.580541 Z M818.231429,488.736967 C818.231429,489.093026 818.512727,489.380728 818.860608,489.380728 C819.208488,489.380728 819.490534,489.093026 819.490534,488.736967 C819.490534,488.380908 819.208488,488.092455 818.860608,488.092455 C818.512727,488.092455 818.231429,488.380908 818.231429,488.736967 L818.231429,488.736967 Z M816.985043,488.549923 C817.4025,488.549923 817.741403,488.20363 817.741403,487.776209 C817.741403,487.349539 817.4025,487.003245 816.985043,487.003245 C816.567586,487.003245 816.229431,487.349539 816.229431,487.776209 C816.229431,488.20363 816.567586,488.549923 816.985043,488.549923 L816.985043,488.549923 Z M815.675814,487.103903 C815.89352,486.657703 815.717709,486.115351 815.281549,485.8915 C814.845388,485.668399 814.314963,485.848682 814.096509,486.294883 C813.878055,486.741084 814.054614,487.283435 814.490774,487.506535 C814.926934,487.730387 815.457359,487.549352 815.675814,487.103903 L815.675814,487.103903 Z M822.313981,494.686308 C822.313981,494.472973 822.144903,494.300952 821.936923,494.300952 C821.728194,494.300952 821.559864,494.472973 821.559864,494.686308 C821.559864,494.899642 821.728194,495.072414 821.936923,495.072414 C822.144903,495.072414 822.313981,494.899642 822.313981,494.686308 L822.313981,494.686308 Z M820.510985,494.901145 C820.233428,494.901145 820.008241,495.131757 820.008241,495.416454 C820.008241,495.701151 820.233428,495.931012 820.510985,495.931012 C820.789289,495.931012 821.014477,495.701151 821.014477,495.416454 C821.014477,495.131757 820.789289,494.901145 820.510985,494.901145 L820.510985,494.901145 Z M819.490534,496.262282 C819.490534,495.906223 819.208488,495.61777 818.860608,495.61777 C818.512727,495.61777 818.231429,495.906223 818.231429,496.262282 C818.231429,496.618341 818.512727,496.906794 818.860608,496.906794 C819.208488,496.906794 819.490534,496.618341 819.490534,496.262282 L819.490534,496.262282 Z M816.747885,497.956942 C817.143647,498.092155 817.572326,497.87281 817.703997,497.467925 C817.835668,497.062288 817.620954,496.62435 817.225193,496.489889 C816.828684,496.354677 816.400753,496.574021 816.269082,496.979658 C816.13741,497.384544 816.351376,497.822481 816.747885,497.956942 L816.747885,497.956942 Z M814.490774,497.491211 C814.054614,497.715063 813.878055,498.257414 814.096509,498.703615 C814.314963,499.149064 814.845388,499.330098 815.281549,499.106247 C815.717709,498.883147 815.89352,498.340795 815.675814,497.894595 C815.457359,497.448394 814.926934,497.268111 814.490774,497.491211 L814.490774,497.491211 Z M828.718731,497.003696 C828.783818,496.800877 828.676835,496.583035 828.479329,496.515429 C828.281822,496.448574 828.068605,496.557495 828.002769,496.759563 C827.936934,496.962381 828.043916,497.180223 828.241423,497.247829 C828.43893,497.314684 828.652895,497.205763 828.718731,497.003696 L828.718731,497.003696 Z M829.549904,498.500045 C829.638184,498.230372 829.495291,497.938914 829.2312,497.849524 C828.967858,497.759382 828.68282,497.905111 828.594541,498.175536 C828.50701,498.445209 828.649903,498.736667 828.913993,498.826057 C829.177335,498.916198 829.462373,498.77047 829.549904,498.500045 L829.549904,498.500045 Z M830.526215,499.979868 C830.501527,499.625312 830.20003,499.357892 829.852897,499.383432 C829.506513,499.408972 829.245415,499.717707 829.270103,500.072263 C829.294792,500.42682 829.596288,500.69424 829.943421,500.6687 C830.289806,500.64316 830.550904,500.335176 830.526215,499.979868 L830.526215,499.979868 Z M831.596043,501.943451 C831.596043,501.516781 831.257887,501.170488 830.84043,501.170488 C830.422973,501.170488 830.08407,501.516781 830.08407,501.943451 C830.08407,502.370872 830.422973,502.717166 830.84043,502.717166 C831.257887,502.717166 831.596043,502.370872 831.596043,501.943451 L831.596043,501.943451 Z M831.893799,503.188907 C831.406017,503.188907 831.011004,503.593041 831.011004,504.091824 C831.011004,504.590607 831.406017,504.995493 831.893799,504.995493 C832.380832,504.995493 832.776594,504.590607 832.776594,504.091824 C832.776594,503.593041 832.380832,503.188907 831.893799,503.188907 L831.893799,503.188907 Z M823.959869,496.513927 C823.762362,496.581533 823.656128,496.800126 823.721215,497.002193 C823.787051,497.204261 824.001016,497.313182 824.198523,497.246327 C824.396029,497.178721 824.503012,496.960879 824.437177,496.75806 C824.371341,496.555993 824.158124,496.447072 823.959869,496.513927 L823.959869,496.513927 Z M823.209493,497.851026 C822.945403,497.940416 822.80251,498.231874 822.890041,498.501547 C822.978321,498.771972 823.263359,498.917701 823.526701,498.827559 C823.790791,498.738169 823.933684,498.446711 823.845405,498.177038 C823.757874,497.906613 823.472836,497.760885 823.209493,497.851026 L823.209493,497.851026 Z M822.343906,499.41423 C822.01398,499.526156 821.835925,499.891229 821.945152,500.228509 C822.055127,500.566539 822.411986,500.749076 822.741912,500.636399 C823.071837,500.524473 823.249893,500.1594 823.140665,499.822121 C823.03069,499.484841 822.673832,499.301553 822.343906,499.41423 L822.343906,499.41423 Z M821.362358,501.211803 C820.965848,501.346264 820.751883,501.784201 820.883554,502.189838 C821.015225,502.594724 821.443156,502.814068 821.839665,502.679607 C822.235427,502.544395 822.45014,502.106457 822.318469,501.701571 C822.186798,501.295935 821.758119,501.077341 821.362358,501.211803 L821.362358,501.211803 Z M820.941908,503.285809 C820.505748,503.062708 819.975323,503.242991 819.757617,503.689192 C819.539162,504.135393 819.715721,504.677744 820.151134,504.901596 C820.587294,505.124696 821.117719,504.944413 821.336173,504.498212 C821.554628,504.052012 821.378069,503.50966 820.941908,503.285809 L820.941908,503.285809 Z M828.357383,488.504101 C828.565364,488.504101 828.734441,488.33133 828.734441,488.117995 C828.734441,487.905411 828.565364,487.73264 828.357383,487.73264 C828.148655,487.73264 827.980325,487.905411 827.980325,488.117995 C827.980325,488.33133 828.148655,488.504101 828.357383,488.504101 L828.357383,488.504101 Z M829.074093,487.173012 C829.35165,487.173012 829.577585,486.9424 829.577585,486.658454 C829.577585,486.373757 829.35165,486.143145 829.074093,486.143145 C828.795788,486.143145 828.570601,486.373757 828.570601,486.658454 C828.570601,486.9424 828.795788,487.173012 829.074093,487.173012 L829.074093,487.173012 Z M830.101277,485.506896 C830.445417,485.448304 830.678086,485.115531 830.621228,484.763979 C830.56437,484.411676 830.238933,484.173552 829.894793,484.232144 C829.550652,484.289985 829.317984,484.622758 829.374842,484.975061 C829.4317,485.326613 829.757137,485.564737 830.101277,485.506896 L830.101277,485.506896 Z M831.074595,483.787446 C831.470357,483.652234 831.68507,483.214296 831.552651,482.809411 C831.42098,482.403774 830.993049,482.185181 830.597288,482.319642 C830.200778,482.454103 829.986813,482.892041 830.118484,483.297677 C830.250155,483.702563 830.678086,483.921907 831.074595,483.787446 L831.074595,483.787446 Z M831.495793,481.711187 C831.931954,481.934287 832.462378,481.754004 832.680833,481.307803 C832.899287,480.862354 832.722728,480.319251 832.286568,480.096151 C831.850407,479.873051 831.32073,480.053334 831.102276,480.499534 C830.883822,480.944984 831.060381,481.488086 831.495793,481.711187 L831.495793,481.711187 Z M824.081814,487.731138 C823.873834,487.731138 823.704756,487.903909 823.704756,488.117244 C823.704756,488.329828 823.873834,488.502599 824.081814,488.502599 C824.289795,488.502599 824.458872,488.329828 824.458872,488.117244 C824.458872,487.903909 824.289795,487.731138 824.081814,487.731138 L824.081814,487.731138 Z M822.863109,486.659205 C822.863109,486.943151 823.088296,487.173763 823.366601,487.173763 C823.644158,487.173763 823.870093,486.943151 823.870093,486.659205 C823.870093,486.374508 823.644158,486.143896 823.366601,486.143896 C823.088296,486.143896 822.863109,486.374508 822.863109,486.659205 L822.863109,486.659205 Z M821.912982,484.972807 C821.912982,485.328115 822.195028,485.616568 822.542909,485.616568 C822.89079,485.616568 823.172835,485.328115 823.172835,484.972807 C823.172835,484.616748 822.89079,484.328295 822.542909,484.328295 C822.195028,484.328295 821.912982,484.616748 821.912982,484.972807 L821.912982,484.972807 Z M820.849888,483.052793 C820.849888,483.479463 821.188043,483.825756 821.6055,483.825756 C822.022958,483.825756 822.361861,483.479463 822.361861,483.052793 C822.361861,482.625372 822.022958,482.279078 821.6055,482.279078 C821.188043,482.279078 820.849888,482.625372 820.849888,483.052793 L820.849888,483.052793 Z M820.549139,481.80884 C821.036173,481.80884 821.431934,481.403954 821.431934,480.905171 C821.431934,480.406388 821.036173,480.002254 820.549139,480.002254 C820.061358,480.002254 819.665597,480.406388 819.665597,480.905171 C819.665597,481.403954 820.061358,481.80884 820.549139,481.80884 L820.549139,481.80884 Z M826.218477,487.153481 C825.94092,487.153481 825.714984,487.384093 825.714984,487.668039 C825.714984,487.952736 825.94092,488.183348 826.218477,488.183348 C826.496781,488.183348 826.721969,487.952736 826.721969,487.668039 C826.721969,487.384093 826.496781,487.153481 826.218477,487.153481 L826.218477,487.153481 Z M826.216232,485.027643 C825.868351,485.027643 825.587054,485.316096 825.587054,485.671404 C825.587054,486.027463 825.868351,486.315916 826.216232,486.315916 C826.564113,486.315916 826.846159,486.027463 826.846159,485.671404 C826.846159,485.316096 826.564113,485.027643 826.216232,485.027643 L826.216232,485.027643 Z M826.21698,482.641898 C825.799523,482.641898 825.461368,482.988191 825.461368,483.415613 C825.461368,483.843034 825.799523,484.189327 826.21698,484.189327 C826.634437,484.189327 826.973341,483.843034 826.973341,483.415613 C826.973341,482.988191 826.634437,482.641898 826.21698,482.641898 L826.21698,482.641898 Z M826.221469,480.000751 C825.733688,480.000751 825.337926,480.405637 825.337926,480.90442 C825.337926,481.403203 825.733688,481.807338 826.221469,481.807338 C826.708502,481.807338 827.104264,481.403203 827.104264,480.90442 C827.104264,480.405637 826.708502,480.000751 826.221469,480.000751 L826.221469,480.000751 Z M826.576083,497.696283 C826.772094,497.494967 826.772094,497.168955 826.576083,496.967639 C826.379325,496.767074 826.060621,496.767074 825.863862,496.967639 C825.667104,497.168955 825.667104,497.494967 825.863862,497.696283 C826.060621,497.897599 826.379325,497.897599 826.576083,497.696283 L826.576083,497.696283 Z M825.771842,499.784562 C826.017977,500.036207 826.416731,500.036207 826.662118,499.784562 C826.908253,499.532917 826.908253,499.125026 826.662118,498.873381 C826.416731,498.621736 826.017977,498.621736 825.771842,498.873381 C825.525707,499.125026 825.525707,499.532917 825.771842,499.784562 L825.771842,499.784562 Z M825.682815,502.131246 C825.978327,502.43322 826.45713,502.43322 826.751894,502.131246 C827.047406,501.829272 827.047406,501.339503 826.751894,501.037529 C826.45713,500.735555 825.978327,500.735555 825.682815,501.037529 C825.388051,501.339503 825.388051,501.829272 825.682815,502.131246 L825.682815,502.131246 Z M826.221469,503.191911 C825.733688,503.191911 825.337926,503.596797 825.337926,504.09558 C825.337926,504.594363 825.733688,504.998498 826.221469,504.998498 C826.708502,504.998498 827.104264,504.594363 827.104264,504.09558 C827.104264,503.596797 826.708502,503.191911 826.221469,503.191911 L826.221469,503.191911 Z M826.216232,490.56684 C826.564113,490.56684 826.846159,490.278387 826.846159,489.922328 C826.846159,489.566269 826.564113,489.277816 826.216232,489.277816 C825.868351,489.277816 825.587054,489.566269 825.587054,489.922328 C825.587054,490.278387 825.868351,490.56684 826.216232,490.56684 L826.216232,490.56684 Z M826.216232,495.720681 C826.564113,495.720681 826.846159,495.432229 826.846159,495.076921 C826.846159,494.720862 826.564113,494.432409 826.216232,494.432409 C825.868351,494.432409 825.587054,494.720862 825.587054,495.076921 C825.587054,495.432229 825.868351,495.720681 826.216232,495.720681 L826.216232,495.720681 Z M831.298287,492.134551 C831.101528,491.933235 830.782824,491.933235 830.586066,492.134551 C830.390055,492.335867 830.390055,492.661879 830.586066,492.862444 C830.782824,493.06376 831.101528,493.06376 831.298287,492.862444 C831.495045,492.661879 831.495045,492.335867 831.298287,492.134551 L831.298287,492.134551 Z M833.333951,492.95559 C833.580086,492.704696 833.580086,492.296055 833.333951,492.045161 C833.088564,491.793516 832.68981,491.793516 832.443675,492.045161 C832.19754,492.296055 832.19754,492.704696 832.443675,492.95559 C832.68981,493.207235 833.088564,493.207235 833.333951,492.95559 L833.333951,492.95559 Z M835.632958,493.047234 C835.92847,492.74526 835.92847,492.255491 835.632958,491.953517 C835.338194,491.650792 834.85939,491.650792 834.563879,491.953517 C834.269115,492.255491 834.269115,492.74526 834.563879,493.047234 C834.85939,493.349208 835.338194,493.349208 835.632958,493.047234 L835.632958,493.047234 Z M837.554159,491.596707 C837.066377,491.596707 836.671364,492.000841 836.671364,492.499624 C836.671364,492.998407 837.066377,493.403293 837.554159,493.403293 C838.04194,493.403293 838.436953,492.998407 838.436953,492.499624 C838.436953,492.000841 838.04194,491.596707 837.554159,491.596707 L837.554159,491.596707 Z M821.496273,493.014933 C821.77383,493.014933 821.999766,492.784321 821.999766,492.499624 C821.999766,492.214927 821.77383,491.985067 821.496273,491.985067 C821.217969,491.985067 820.992781,492.214927 820.992781,492.499624 C820.992781,492.784321 821.217969,493.014933 821.496273,493.014933 L821.496273,493.014933 Z M819.544399,491.855864 C819.196518,491.855864 818.915221,492.144317 818.915221,492.500376 C818.915221,492.855683 819.196518,493.144136 819.544399,493.144136 C819.89228,493.144136 820.174326,492.855683 820.174326,492.500376 C820.174326,492.144317 819.89228,491.855864 819.544399,491.855864 L819.544399,491.855864 Z M818.094521,492.500376 C818.094521,492.073706 817.756366,491.727412 817.338909,491.727412 C816.921452,491.727412 816.582548,492.073706 816.582548,492.500376 C816.582548,492.927797 816.921452,493.27409 817.338909,493.27409 C817.756366,493.27409 818.094521,492.927797 818.094521,492.500376 L818.094521,492.500376 Z M814.885039,491.596707 C814.398006,491.596707 814.002244,492.000841 814.002244,492.499624 C814.002244,492.998407 814.398006,493.403293 814.885039,493.403293 C815.372821,493.403293 815.767834,492.998407 815.767834,492.499624 C815.767834,492.000841 815.372821,491.596707 814.885039,491.596707 L814.885039,491.596707 Z M828.738182,491.855864 C828.390301,491.855864 828.109004,492.144317 828.109004,492.500376 C828.109004,492.855683 828.390301,493.144136 828.738182,493.144136 C829.086063,493.144136 829.368108,492.855683 829.368108,492.500376 C829.368108,492.144317 829.086063,491.855864 828.738182,491.855864 L828.738182,491.855864 Z M824.327201,492.500376 C824.327201,492.144317 824.045156,491.855864 823.697275,491.855864 C823.349394,491.855864 823.067349,492.144317 823.067349,492.500376 C823.067349,492.855683 823.349394,493.144136 823.697275,493.144136 C824.045156,493.144136 824.327201,492.855683 824.327201,492.500376 L824.327201,492.500376 Z M828.73519,490.56684 C829.08307,490.56684 829.365116,490.278387 829.365116,489.922328 C829.365116,489.566269 829.08307,489.277816 828.73519,489.277816 C828.388057,489.277816 828.106011,489.566269 828.106011,489.922328 C828.106011,490.278387 828.388057,490.56684 828.73519,490.56684 L828.73519,490.56684 Z M829.997287,488.504853 C829.92771,488.504853 829.870852,488.562693 829.870852,488.634055 C829.870852,488.705418 829.92771,488.763258 829.997287,488.763258 C830.066863,488.763258 830.123721,488.705418 830.123721,488.634055 C830.123721,488.562693 830.066863,488.504853 829.997287,488.504853 L829.997287,488.504853 Z M830.807513,488.060154 C830.946665,488.060154 831.059633,487.944473 831.059633,487.801749 C831.059633,487.659025 830.946665,487.543343 830.807513,487.543343 C830.667612,487.543343 830.554644,487.659025 830.554644,487.801749 C830.554644,487.944473 830.667612,488.060154 830.807513,488.060154 L830.807513,488.060154 Z M832.070358,487.058832 C832.21774,486.907845 832.21774,486.663712 832.070358,486.512725 C831.923724,486.362489 831.68507,486.362489 831.537688,486.512725 C831.390307,486.663712 831.390307,486.907845 831.537688,487.058832 C831.68507,487.209068 831.923724,487.209068 832.070358,487.058832 L832.070358,487.058832 Z M832.617242,485.951594 C832.814,486.15291 833.132704,486.15291 833.329462,485.951594 C833.526221,485.750278 833.526221,485.424266 833.329462,485.223701 C833.132704,485.022385 832.814,485.022385 832.617242,485.223701 C832.421231,485.424266 832.421231,485.750278 832.617242,485.951594 L832.617242,485.951594 Z M834.765874,484.665575 C835.012009,484.41393 835.012009,484.006039 834.765874,483.755146 C834.520487,483.5035 834.121733,483.5035 833.875598,483.755146 C833.629463,484.006039 833.629463,484.41393 833.875598,484.665575 C834.121733,484.91722 834.520487,484.91722 834.765874,484.665575 L834.765874,484.665575 Z M835.315002,482.102551 C835.020239,482.404525 835.020239,482.894294 835.315002,483.196268 C835.610514,483.498242 836.089318,483.498242 836.384082,483.196268 C836.679593,482.894294 836.679593,482.404525 836.384082,482.102551 C836.089318,481.800577 835.610514,481.800577 835.315002,482.102551 L835.315002,482.102551 Z M836.930217,480.265917 C836.585329,480.618972 836.585329,481.190619 836.930217,481.543674 C837.275106,481.895977 837.83396,481.895977 838.178848,481.543674 C838.523736,481.190619 838.523736,480.618972 838.178848,480.265917 C837.83396,479.913614 837.275106,479.913614 836.930217,480.265917 L836.930217,480.265917 Z M823.700267,495.722184 C824.048148,495.722184 824.330194,495.433731 824.330194,495.077672 C824.330194,494.722364 824.048148,494.433911 823.700267,494.433911 C823.352386,494.433911 823.070341,494.722364 823.070341,495.077672 C823.070341,495.433731 823.352386,495.722184 823.700267,495.722184 L823.700267,495.722184 Z M822.531687,496.456837 C822.581063,496.406508 822.581063,496.32463 822.531687,496.274301 C822.48231,496.223972 822.40226,496.223972 822.352883,496.274301 C822.304255,496.32463 822.304255,496.406508 822.352883,496.456837 C822.40226,496.507166 822.48231,496.507166 822.531687,496.456837 L822.531687,496.456837 Z M821.624952,497.456657 C821.764852,497.456657 821.87782,497.340975 821.87782,497.198251 C821.87782,497.055527 821.764852,496.939846 821.624952,496.939846 C821.485799,496.939846 821.372832,497.055527 821.372832,497.198251 C821.372832,497.340975 821.485799,497.456657 821.624952,497.456657 L821.624952,497.456657 Z M820.368092,497.941919 C820.22071,498.092906 820.22071,498.337039 820.368092,498.488026 C820.515473,498.638262 820.754127,498.638262 820.901509,498.488026 C821.048891,498.337039 821.048891,498.092906 820.901509,497.941919 C820.754127,497.791683 820.515473,497.791683 820.368092,497.941919 L820.368092,497.941919 Z M819.818963,499.047655 C819.622205,498.84709 819.303501,498.84709 819.107491,499.047655 C818.910732,499.248971 818.910732,499.574983 819.107491,499.776299 C819.303501,499.977615 819.622205,499.977615 819.818963,499.776299 C820.015722,499.574983 820.015722,499.248971 819.818963,499.047655 L819.818963,499.047655 Z M817.668087,500.334425 C817.421952,500.58607 817.421952,500.993961 817.668087,501.245606 C817.914222,501.4965 818.312976,501.4965 818.558363,501.245606 C818.804498,500.993961 818.804498,500.58607 818.558363,500.334425 C818.312976,500.08278 817.914222,500.08278 817.668087,500.334425 L817.668087,500.334425 Z M816.05362,501.804483 C815.758108,502.106457 815.758108,502.596226 816.05362,502.8982 C816.349132,503.200174 816.827187,503.200174 817.122699,502.8982 C817.418211,502.596226 817.418211,502.106457 817.122699,501.804483 C816.827187,501.502509 816.349132,501.502509 816.05362,501.804483 L816.05362,501.804483 Z M814.258105,503.456326 C813.913965,503.80863 813.913965,504.381028 814.258105,504.733331 C814.602994,505.086386 815.161848,505.086386 815.506736,504.733331 C815.851624,504.381028 815.851624,503.80863 815.506736,503.456326 C815.161848,503.103272 814.602994,503.103272 814.258105,503.456326 L814.258105,503.456326 Z M823.697275,489.279319 C823.349394,489.279319 823.067349,489.567771 823.067349,489.92383 C823.067349,490.279889 823.349394,490.568342 823.697275,490.568342 C824.045156,490.568342 824.327201,490.279889 824.327201,489.92383 C824.327201,489.567771 824.045156,489.279319 823.697275,489.279319 L823.697275,489.279319 Z M822.439667,488.764761 C822.509991,488.764761 822.566101,488.70692 822.566101,488.635558 C822.566101,488.564196 822.509991,488.506355 822.439667,488.506355 C822.37009,488.506355 822.313981,488.564196 822.313981,488.635558 C822.313981,488.70692 822.37009,488.764761 822.439667,488.764761 L822.439667,488.764761 Z M821.874828,487.8025 C821.874828,487.659776 821.76186,487.544094 821.621959,487.544094 C821.482807,487.544094 821.369839,487.659776 821.369839,487.8025 C821.369839,487.945224 821.482807,488.060906 821.621959,488.060906 C821.76186,488.060906 821.874828,487.945224 821.874828,487.8025 L821.874828,487.8025 Z M821.010736,486.786905 C821.010736,486.573571 820.841659,486.400799 820.633678,486.400799 C820.42495,486.400799 820.25662,486.573571 820.25662,486.786905 C820.25662,486.999489 820.42495,487.17226 820.633678,487.17226 C820.841659,487.17226 821.010736,486.999489 821.010736,486.786905 L821.010736,486.786905 Z M819.462105,486.104083 C819.74041,486.104083 819.965597,485.873471 819.965597,485.588774 C819.965597,485.304829 819.74041,485.074217 819.462105,485.074217 C819.1838,485.074217 818.958613,485.304829 818.958613,485.588774 C818.958613,485.873471 819.1838,486.104083 819.462105,486.104083 L819.462105,486.104083 Z M818.112476,484.854121 C818.460357,484.854121 818.742403,484.565668 818.742403,484.209609 C818.742403,483.85355 818.460357,483.565097 818.112476,483.565097 C817.764596,483.565097 817.483298,483.85355 817.483298,484.209609 C817.483298,484.565668 817.764596,484.854121 818.112476,484.854121 L818.112476,484.854121 Z M816.587785,483.420871 C817.005243,483.420871 817.343398,483.074577 817.343398,482.647907 C817.343398,482.220486 817.005243,481.874192 816.587785,481.874192 C816.170328,481.874192 815.831425,482.220486 815.831425,482.647907 C815.831425,483.074577 816.170328,483.420871 816.587785,483.420871 L816.587785,483.420871 Z M814.885039,480 C814.398006,480 814.002244,480.404886 814.002244,480.903669 C814.002244,481.402452 814.398006,481.806586 814.885039,481.806586 C815.372821,481.806586 815.767834,481.402452 815.767834,480.903669 C815.767834,480.404886 815.372821,480 814.885039,480 L814.885039,480 Z M828.738182,494.431658 C828.390301,494.431658 828.109004,494.720111 828.109004,495.07617 C828.109004,495.431477 828.390301,495.71993 828.738182,495.71993 C829.086063,495.71993 829.368108,495.431477 829.368108,495.07617 C829.368108,494.720111 829.086063,494.431658 828.738182,494.431658 L828.738182,494.431658 Z M829.907511,496.273549 C829.858134,496.32463 829.858134,496.405757 829.907511,496.456837 C829.956888,496.507166 830.036938,496.507166 830.086314,496.456837 C830.135691,496.405757 830.135691,496.32463 830.086314,496.273549 C830.036938,496.22322 829.956888,496.22322 829.907511,496.273549 L829.907511,496.273549 Z M830.810505,497.456657 C830.949657,497.456657 831.062625,497.340975 831.062625,497.198251 C831.062625,497.055527 830.949657,496.939846 830.810505,496.939846 C830.670605,496.939846 830.557637,497.055527 830.557637,497.198251 C830.557637,497.340975 830.670605,497.456657 830.810505,497.456657 L830.810505,497.456657 Z M831.802527,497.82774 C831.594546,497.82774 831.425469,498.000511 831.425469,498.213095 C831.425469,498.426429 831.594546,498.599201 831.802527,498.599201 C832.011255,498.599201 832.179585,498.426429 832.179585,498.213095 C832.179585,498.000511 832.011255,497.82774 831.802527,497.82774 L831.802527,497.82774 Z M832.975596,498.895165 C832.697292,498.895165 832.472104,499.125777 832.472104,499.410474 C832.472104,499.69442 832.697292,499.925032 832.975596,499.925032 C833.253153,499.925032 833.47834,499.69442 833.47834,499.410474 C833.47834,499.125777 833.253153,498.895165 832.975596,498.895165 L832.975596,498.895165 Z M834.319988,500.14663 C833.972107,500.14663 833.69081,500.435083 833.69081,500.790391 C833.69081,501.14645 833.972107,501.434903 834.319988,501.434903 C834.667869,501.434903 834.949914,501.14645 834.949914,500.790391 C834.949914,500.435083 834.667869,500.14663 834.319988,500.14663 L834.319988,500.14663 Z M835.849168,501.579129 C835.431711,501.579129 835.093555,501.925423 835.093555,502.352844 C835.093555,502.779514 835.431711,503.125808 835.849168,503.125808 C836.266625,503.125808 836.605528,502.779514 836.605528,502.352844 C836.605528,501.925423 836.266625,501.579129 835.849168,501.579129 L835.849168,501.579129 Z M838.436953,504.097082 C838.436953,504.595866 838.04194,505 837.554159,505 C837.066377,505 836.671364,504.595866 836.671364,504.097082 C836.671364,503.598299 837.066377,503.193414 837.554159,503.193414 C838.04194,503.193414 838.436953,503.598299 838.436953,504.097082 L838.436953,504.097082 Z" id="Kenetic"></path>
        </g>
    </g>
</svg>