<?xml version="1.0" encoding="UTF-8"?>
<svg width="48px" height="48px" viewBox="0 0 48 48" version="1.1" xmlns="http://www.w3.org/2000/svg" xmlns:xlink="http://www.w3.org/1999/xlink">
    <title>icon-skip</title>
    <g id="Page1" stroke="none" stroke-width="1" fill="none" fill-rule="evenodd">
        <g id="Icon" transform="translate(-812.000000, -250.000000)">
            <g id="icon-skip" transform="translate(812.000000, 250.000000)">
                <rect id="Rectangle" x="0" y="0" width="48" height="48"></rect>
                <g id="group" transform="translate(12.000000, 10.500000)" fill="#FFFFFF" fill-rule="nonzero">
                    <path d="M7.63636364,2.36468622e-11 C8.46479076,2.36468622e-11 9.13636364,0.671572875 9.13636364,1.5 C9.13636364,2.32842712 8.46479076,3 7.63636364,3 L3,3 C2.17157288,3 1.5,3.67157288 1.5,4.5 L1.5,22.5 C1.5,23.3284271 2.17157288,24 3,24 L21,24 C21.8284271,24 22.5,23.3284271 22.5,22.5 L22.5,17.8636364 C22.5,17.0352092 23.1715729,16.3636364 24,16.3636364 C24.8284271,16.3636364 25.5,17.0352092 25.5,17.8636364 L25.5,22.5 C25.5,24.9852814 23.4852814,27 21,27 L3,27 C0.514718626,27 -1.5,24.9852814 -1.5,22.5 L-1.5,4.5 C-1.5,2.01471863 0.514718626,2.36468622e-11 3,2.36468622e-11 L7.63636364,2.36468622e-11 Z" id="path"></path>
                    <path d="M24,2.36468622e-11 C24.8284271,2.36468622e-11 25.5,0.671572875 25.5,1.5 L25.5,8.5 C25.5,9.32842712 24.8284271,10 24,10 C23.1715729,10 22.5,9.32842712 22.5,8.5 L22.5,3 L17,3 C16.2203039,3 15.5795513,2.40511192 15.5068666,1.64446001 L15.5,1.5 C15.5,0.671572875 16.1715729,2.36468622e-11 17,2.36468622e-11 L24,2.36468622e-11 Z" id="path"></path>
                    <path d="M22.9394151,0.439264515 C23.5252432,-0.146480325 24.4749906,-0.146412885 25.0607355,0.439415147 C25.6464803,1.02524318 25.6464129,1.97499064 25.0605849,2.56073548 L14.0590226,13.5607355 C13.4731945,14.1464803 12.5234471,14.1464129 11.9377022,13.5605849 C11.3519574,12.9747568 11.3520248,12.0250094 11.9378529,11.4392645 L22.9394151,0.439264515 Z" id="path"></path>
                </g>
            </g>
        </g>
    </g>
</svg>