<?xml version="1.0" encoding="UTF-8"?>
<svg width="24px" height="24px" viewBox="0 0 24 24" version="1.1" xmlns="http://www.w3.org/2000/svg" xmlns:xlink="http://www.w3.org/1999/xlink">
    <defs>
        <radialGradient cx="0.0003125%" cy="50.0015625%" fx="0.0003125%" fy="50.0015625%" r="100%" id="radialGradient-1">
            <stop stop-color="#5D9DF6" offset="0%"></stop>
            <stop stop-color="#006FFF" offset="100%"></stop>
        </radialGradient>
    </defs>
    <g id="Page-1" stroke="none" stroke-width="1" fill="none" fill-rule="evenodd">
        <g id="Create-Legal-Disclaimer" transform="translate(-1481.000000, -96.000000)">
            <g id="walletconnect-seeklogo.com" transform="translate(1481.000000, 96.000000)">
                <path d="M12,0 C18.628125,0 24,5.371875 24,12 C24,18.628125 18.628125,24 12,24 C5.371875,24 0,18.628125 0,12 C0,5.371875 5.371875,0 12,0 Z" id="Path" fill="url(#radialGradient-1)"></path>
                <path d="M7.6265625,9.2671875 C10.040625,6.909375 13.959375,6.909375 16.3734375,9.2671875 L16.6640625,9.553125 C16.7859375,9.6703125 16.7859375,9.8625 16.6640625,9.9796875 L15.6703125,10.95 C15.609375,11.0109375 15.5109375,11.0109375 15.45,10.95 L15.0515625,10.5609375 C13.3640625,8.915625 10.6359375,8.915625 8.9484375,10.5609375 L8.521875,10.978125 C8.4609375,11.0390625 8.3625,11.0390625 8.3015625,10.978125 L7.3078125,10.0078125 C7.1859375,9.890625 7.1859375,9.6984375 7.3078125,9.58125 L7.6265625,9.2671875 Z M18.43125,11.2734375 L19.3171875,12.1359375 C19.4390625,12.253125 19.4390625,12.4453125 19.3171875,12.5625 L15.328125,16.4578125 C15.20625,16.575 15.009375,16.575 14.8921875,16.4578125 C14.8921875,16.4578125 14.8921875,16.4578125 14.8921875,16.4578125 L12.0609375,13.6921875 C12.0328125,13.6640625 11.98125,13.6640625 11.953125,13.6921875 C11.953125,13.6921875 11.953125,13.6921875 11.953125,13.6921875 L9.121875,16.4578125 C9,16.575 8.803125,16.575 8.6859375,16.4578125 C8.6859375,16.4578125 8.6859375,16.4578125 8.6859375,16.4578125 L4.6828125,12.5625 C4.5609375,12.4453125 4.5609375,12.253125 4.6828125,12.1359375 L5.56875,11.2734375 C5.690625,11.15625 5.8875,11.15625 6.0046875,11.2734375 L8.8359375,14.0390625 C8.8640625,14.0671875 8.915625,14.0671875 8.94375,14.0390625 C8.94375,14.0390625 8.94375,14.0390625 8.94375,14.0390625 L11.775,11.2734375 C11.896875,11.15625 12.09375,11.15625 12.2109375,11.2734375 C12.2109375,11.2734375 12.2109375,11.2734375 12.2109375,11.2734375 L15.0421875,14.0390625 C15.0703125,14.0671875 15.121875,14.0671875 15.15,14.0390625 L17.98125,11.2734375 C18.1125,11.15625 18.309375,11.15625 18.43125,11.2734375 L18.43125,11.2734375 Z" id="Shape" fill="#FFFFFF" fill-rule="nonzero"></path>
            </g>
        </g>
    </g>
</svg>