<?xml version="1.0" encoding="UTF-8"?>
<svg width="32px" height="32px" viewBox="0 0 32 32" version="1.1" xmlns="http://www.w3.org/2000/svg" xmlns:xlink="http://www.w3.org/1999/xlink">
    <title>icon/managers copy 2</title>
    <g id="第五期UI优化" stroke="none" stroke-width="1" fill="none" fill-rule="evenodd">
        <g id="v5-Venture-Managers" transform="translate(-300.000000, -567.000000)">
            <g id="Navigation/home" transform="translate(270.000000, 338.000000)">
                <g id="icon/managers-copy-2" transform="translate(30.000000, 229.000000)">
                    <rect id="矩形备份-6" x="0" y="0" width="32" height="32" rx="7"></rect>
                    <path d="M23.6313333,10.2397709 C23.6312955,10.23601 23.6308485,10.232264 23.63,10.2285971 C23.6253333,10.2134795 23.978,11.2651397 23.616,10.1839015 C23.6086232,10.1612022 23.6008442,10.1386319 23.5926667,10.1162009 C23.242,9.13421309 22.6733333,8.75364353 22.2566667,8.67608357 C21.7213333,8.57551856 21.1413333,8.80951296 21.1413333,9.4963786 C21.1413333,9.59891547 21.1613333,9.71065438 21.198,9.82567971 L21.1946667,9.82502243 C21.1966667,9.83093802 21.2,9.83685361 21.2033333,9.8427692 C21.2413333,9.9597664 21.296,10.08005 21.362,10.1996764 C21.6846667,10.9857925 21.862,11.8455247 21.862,12.7453516 C21.862,14.5042534 21.1833333,16.1080353 20.07,17.3161301 C22.4613333,18.7089227 24.2233333,21.5714105 24.8293333,24.3333333 L27,24.3333333 C26.504,21.5608939 25.0566667,18.5879817 23.0033333,16.808704 C23.6550224,15.5507341 23.9936866,14.157908 23.9913333,12.7453516 C23.9926337,11.89754 23.8714157,11.0538698 23.6313333,10.2397709 Z M14.056,18.5557746 C16.1496955,18.5556573 18.0842863,17.4542897 19.1310309,15.6665464 C20.1777756,13.8788031 20.1776485,11.6762849 19.1306976,9.88865903 C18.0837467,8.10103316 16.1490288,6.99988256 14.0553333,7 C10.8187607,7.00018155 8.19514934,9.58717694 8.19533343,12.778216 C8.19551752,15.969255 10.8194273,18.5559561 14.056,18.5557746 Z M17.7626667,12.7013133 C17.7626667,14.7621209 16.0682137,16.4327355 13.978,16.4327355 C11.8877863,16.4327355 10.1933333,14.7621209 10.1933333,12.7013133 C10.1933333,10.6405058 11.8877863,8.96989123 13.978,8.96989123 C16.0682137,8.96989123 17.7626667,10.6405058 17.7626667,12.7013133 Z M22.0466667,24.3333333 C21.328,20.153641 17.8113333,16.4550832 13.7853333,16.4550832 C9.29133334,16.4550832 5.72400001,20.153641 5,24.3333333 L7.13999999,24.3333333 C7.82799999,21.3222985 10.4593333,18.5557746 13.7853333,18.5557746 C16.662,18.5557746 19.2286667,21.3216412 19.9073333,24.3333333 L22.0466667,24.3333333 Z" id="形状" fill="#FFFFFF" fill-rule="nonzero"></path>
                </g>
            </g>
        </g>
    </g>
</svg>