<?xml version="1.0" encoding="UTF-8"?>
<svg width="32px" height="32px" viewBox="0 0 32 32" version="1.1" xmlns="http://www.w3.org/2000/svg" xmlns:xlink="http://www.w3.org/1999/xlink">
    <title>icon/Management Copy 2</title>
    <g id="第五期UI优化" stroke="none" stroke-width="1" fill="none" fill-rule="evenodd">
        <g id="v5-Venture-Management" transform="translate(-300.000000, -637.000000)">
            <g id="Navigation/home" transform="translate(270.000000, 338.000000)">
                <g id="icon/Management-Copy-2" transform="translate(30.000000, 299.000000)">
                    <rect id="矩形备份-10" x="0" y="0" width="32" height="32" rx="7"></rect>
                    <path d="M13.234015,15.1355177 L7.91494289,15.1355177 C6.85108935,15.1355177 6,14.2743889 6,13.2259933 L6,7.90952437 C6,6.84868111 6.8635723,6 7.91494289,6 L13.234015,6 C14.2978686,6 15.1488275,6.86112874 15.1488275,7.90952437 L15.1488275,13.2135457 C15.1488275,14.2743889 14.2852552,15.1355177 13.234015,15.1355177 Z M7.91494289,7.24794766 C7.55195962,7.24794766 7.25148887,7.5475682 7.25148887,7.90952437 L7.25148887,13.2135457 C7.25148887,13.5755018 7.55195962,13.8749924 7.91494289,13.8749924 L13.234015,13.8749924 C13.5969983,13.8749924 13.8973387,13.5755018 13.8973387,13.2135457 L13.8973387,7.90952437 C13.8973387,7.5475682 13.5969983,7.24794766 13.234015,7.24794766 L7.91494289,7.24794766 Z M24.0849235,15.1355177 L18.7658513,15.1355177 C17.7019978,15.1355177 16.8510388,14.2743889 16.8510388,13.2259933 L16.8510388,7.90952437 C16.8510388,6.84868111 17.7146111,6 18.7658513,6 L24.0849235,6 C25.148777,6 25.9998664,6.86112874 25.9998664,7.90952437 L25.9998664,13.2135457 C26.0123493,14.2743889 25.148777,15.1355177 24.0849235,15.1355177 Z M18.7658513,7.24794766 C18.4028681,7.24794766 18.1025277,7.5475682 18.1025277,7.90952437 L18.1025277,13.2135457 C18.1025277,13.5755018 18.4028681,13.8749924 18.7658513,13.8749924 L24.0849235,13.8749924 C24.4479067,13.8749924 24.7482145,13.5755018 24.7482145,13.2135457 L24.7482145,7.90952437 C24.7482145,7.5475682 24.4479067,7.24794766 24.0849235,7.24794766 L18.7658513,7.24794766 Z M13.234015,25.0322581 L7.91494289,25.0322581 C6.85108935,25.0322581 6,24.1710968 6,23.1227337 L6,17.8186799 C6,16.7578691 6.8635723,15.909188 7.91494289,15.909188 C10.7517553,15.909188 12.5247793,15.909188 13.234015,15.909188 C14.2978686,15.909188 15.1488275,16.7703168 15.1488275,17.8186799 L15.1488275,23.1227337 C15.1488275,24.1710968 14.2852552,25.0322581 13.234015,25.0322581 Z M7.91494289,17.1446881 C7.55195962,17.1446881 7.25148887,17.4443086 7.25148887,17.8062648 L7.25148887,23.1102861 C7.25148887,23.4722422 7.55195962,23.7717003 7.91494289,23.7717003 L13.234015,23.7717003 C13.5969983,23.7717003 13.8973387,23.4722422 13.8973387,23.1102861 L13.8973387,17.8062648 C13.8973387,17.4443086 13.5969983,17.1446881 13.234015,17.1446881 L7.91494289,17.1446881 Z M24.4603571,24.9573448 L18.3903851,24.9573448 C17.5768424,24.9573448 16.9135513,24.2958981 16.9135513,23.4846574 L16.9135513,17.4443086 C16.9135513,16.6330679 17.5768424,15.9716212 18.3903851,15.9716212 L24.4479067,15.9716212 C25.2614495,15.9716212 25.9247405,16.6330679 25.9247405,17.4443086 L25.9247405,23.4846574 C25.9372235,24.2958981 25.2738998,24.9573448 24.4603571,24.9573448 Z" id="Fill-1" fill="#FFFFFF"></path>
                </g>
            </g>
        </g>
    </g>
</svg>