<?xml version="1.0" encoding="UTF-8"?>
<svg width="72px" height="72px" viewBox="0 0 72 72" version="1.1" xmlns="http://www.w3.org/2000/svg" xmlns:xlink="http://www.w3.org/1999/xlink">
    <title>Manager</title>
    <g id="Page-2" stroke="none" stroke-width="1" fill="none" fill-rule="evenodd">
        <g id="Icon" transform="translate(-571.000000, -288.000000)">
            <g id="Manager" transform="translate(571.000000, 288.000000)">
                <rect id="Rectangle" x="0" y="0" width="72" height="72"></rect>
                <g id="group" transform="translate(7.340000, 5.000000)">
                    <path d="M55.7911277,41.4482285 C55.57679,39.5796358 54.2712786,38.0081014 52.4542795,37.4235673 C44.5237848,34.9081541 36.5884188,33.6480518 28.6579241,33.6480518 C20.7274294,33.6480518 12.7920633,34.9081541 4.86156863,37.4235673 C3.04456953,38.0081014 1.73905812,39.5796358 1.52472042,41.4482285 L0.0340991787,54.6769065 C0.0097426225,54.8541832 0,55.03146 0,55.2087367 C0,57.853514 2.18234744,60 4.87131125,60 L28.6579241,60 L52.4445369,60 C52.6247754,60 52.8050139,59.9904175 52.9803812,59.9664612 C55.654731,59.6789854 57.5837703,57.30731 57.2866203,54.6769065 L55.7911277,41.4482285 Z" id="path" fill="#FFFFFF" opacity="0.5"></path>
                    <rect id="Rectangle" fill="#4F5C71" x="24.8402636" y="40.3114785" width="7.63629625" height="16.9622971" rx="3.81814813"></rect>
                    <circle id="oval" fill="#FFFFFF" cx="28.6584117" cy="18.3832273" r="18.3832273"></circle>
                </g>
            </g>
        </g>
    </g>
</svg>