<?xml version="1.0" encoding="UTF-8"?>
<svg width="56px" height="44px" viewBox="0 0 56 44" version="1.1" xmlns="http://www.w3.org/2000/svg" xmlns:xlink="http://www.w3.org/1999/xlink">
    <title>icon/managers copy 2</title>
    <g id="第五期UI优化" stroke="none" stroke-width="1" fill="none" fill-rule="evenodd">
        <g id="v5-Venture-Management" transform="translate(-825.000000, -614.000000)" fill="#63678A" fill-rule="nonzero">
            <g id="icon/managers-copy-2" transform="translate(825.000000, 614.000000)">
                <path d="M47.2502165,8.04596825 C47.2501182,8.03637378 47.2489571,8.02681721 47.2467533,8.01746261 C47.2346321,7.97889613 48.1506494,10.6617826 47.2103896,7.90343989 C47.191229,7.84553188 47.1710239,7.78795281 47.1497836,7.73072913 C46.2389611,5.22558393 44.7619048,4.25471442 43.6796537,4.05685151 C42.2891775,3.8003005 40.782684,4.39724271 40.782684,6.14950295 C40.782684,6.41108435 40.8346321,6.69614106 40.9298701,6.98958172 L40.9212121,6.98790494 C40.9264069,7.00299618 40.935065,7.01808741 40.943723,7.03317865 C41.0424242,7.33164976 41.1844156,7.63850487 41.3558442,7.94368321 C42.1939394,9.94914084 42.6545455,12.1424005 42.6545455,14.4379452 C42.6545455,18.9250727 40.8917749,23.0164745 38,26.0984403 C44.2112554,29.651588 48.7878788,36.9540695 50.3619048,44 L56,44 C54.7116883,36.9272406 50.9523809,29.3430561 45.6190476,24.8039476 C47.3117464,21.5947456 48.1913938,18.0415124 48.1852814,14.4379452 C48.1886589,12.2750965 47.8738071,10.1228125 47.2502165,8.04596825 Z M23.0008529,29 C28.3598368,28.9997054 33.3115796,26.2357488 35.9908076,21.7492858 C38.6700356,17.2628228 38.6697104,11.735454 35.9899544,7.24928569 C33.3101985,2.76311737 28.3581305,-0.000294728815 22.9991466,0 C14.7148754,0.000455611263 7.9995288,6.49269595 8,14.5008247 C8.0004712,22.5089535 14.7165818,29.0004554 23.0008529,29 Z M32,14.5 C32,19.7467051 27.7467051,24 22.5,24 C17.2532949,24 13,19.7467051 13,14.5 C13,9.25329482 17.2532949,5 22.5,5 C27.7467051,5 32,9.25329482 32,14.5 Z M44,44 C42.1450137,33.3892875 33.0679702,24 22.6762613,24 C11.0765741,24 1.86875247,33.3892875 0,44 L5.5236605,44 C7.29949158,36.3560821 14.091357,29.3328883 22.6762613,29.3328883 C30.1013688,29.3328883 36.7263199,36.3544134 38.4780602,44 L44,44 Z" id="形状"></path>
            </g>
        </g>
    </g>
</svg>