<?xml version="1.0" encoding="UTF-8"?>
<svg width="24px" height="24px" viewBox="0 0 24 24" version="1.1" xmlns="http://www.w3.org/2000/svg" xmlns:xlink="http://www.w3.org/1999/xlink">
    <title>Medium</title>
    <g id="Page-1" stroke="none" stroke-width="1" fill="none" fill-rule="evenodd">
        <g id="Create-DAO--NFT-Copy-2" transform="translate(-1443.000000, -618.000000)">
            <g id="Group-6-Copy-2" transform="translate(1311.000000, 500.000000)">
                <g id="Medium" transform="translate(132.000000, 118.000000)">
                    <rect id="Rectangle" x="0" y="0" width="24" height="24"></rect>
                    <path d="M7.06896552,18.137931 C10.4207626,18.137931 13.137931,15.4207626 13.137931,12.0689655 C13.137931,8.71716842 10.4207626,6 7.06896552,6 C3.71716842,6 1,8.71716842 1,12.0689655 C1,15.4207626 3.71716842,18.137931 7.06896552,18.137931 Z M16.9310345,18.137931 C18.606933,18.137931 19.9655172,15.5905856 19.9655172,12.4482759 C19.9655172,9.30596608 18.606933,6.75862069 16.9310345,6.75862069 C15.2551359,6.75862069 13.8965517,9.30596608 13.8965517,12.4482759 C13.8965517,15.5905856 15.2551359,18.137931 16.9310345,18.137931 Z M21.862069,17.3793103 C22.4905309,17.3793103 23,15.171611 23,12.4482759 C23,9.72494072 22.4905309,7.51724138 21.862069,7.51724138 C21.233607,7.51724138 20.7241379,9.72494072 20.7241379,12.4482759 C20.7241379,15.171611 21.233607,17.3793103 21.862069,17.3793103 Z" id="Shap" fill="#FFFFFF"></path>
                </g>
            </g>
        </g>
    </g>
</svg>