<?xml version="1.0" encoding="UTF-8"?>
<svg width="24px" height="24px" viewBox="0 0 24 24" version="1.1" xmlns="http://www.w3.org/2000/svg" xmlns:xlink="http://www.w3.org/1999/xlink">
    <title>Group 3备份 2</title>
    <g id="页面-1" stroke="none" stroke-width="1" fill="none" fill-rule="evenodd">
        <g id="0-主页1440-全页" transform="translate(-1379.000000, -22.000000)">
            <g id="Tab/001" transform="translate(33.000000, 10.000000)">
                <g id="编组-4" transform="translate(1340.000000, 6.000000)">
                    <g id="编组-3" transform="translate(6.000000, 6.000000)">
                        <rect id="Rectangle" x="0" y="0" width="24" height="24"></rect>
                        <path d="M6.5,13.5 C7.32842712,13.5 8,12.8284271 8,12 C8,11.1715729 7.32842712,10.5 6.5,10.5 C5.67157288,10.5 5,11.1715729 5,12 C5,12.8284271 5.67157288,13.5 6.5,13.5 Z M17.5,13.5 C18.3284271,13.5 19,12.8284271 19,12 C19,11.1715729 18.3284271,10.5 17.5,10.5 C16.6715729,10.5 16,11.1715729 16,12 C16,12.8284271 16.6715729,13.5 17.5,13.5 Z M12,13.5 C12.8284271,13.5 13.5,12.8284271 13.5,12 C13.5,11.1715729 12.8284271,10.5 12,10.5 C11.1715729,10.5 10.5,11.1715729 10.5,12 C10.5,12.8284271 11.1715729,13.5 12,13.5 Z" id="形状结合" fill="#FFFFFF" opacity="0.5"></path>
                    </g>
                </g>
            </g>
        </g>
    </g>
</svg>