<?xml version="1.0" encoding="UTF-8"?>
<svg width="48px" height="48px" viewBox="0 0 48 48" version="1.1" xmlns="http://www.w3.org/2000/svg" xmlns:xlink="http://www.w3.org/1999/xlink">
    <g id="Page-2" stroke="none" stroke-width="1" fill="none" fill-rule="evenodd">
        <g id="Icon" transform="translate(-1814.000000, -506.000000)">
            <g id="icon-Ratio" transform="translate(1814.000000, 506.000000)">
                <rect id="Rectangle" x="0" y="0" width="48" height="48"></rect>
                <g id="group" transform="translate(10.000000, 14.159209)" fill="#FFFFFF" fill-rule="nonzero">
                    <path d="M11.4074731,6.33770831e-06 L11.4079886,3.11501445 C6.78077718,3.38312123 3.11111111,7.22044517 3.11111111,11.9148655 C3.11111111,16.7831533 7.05763813,20.7296804 11.9259259,20.7296804 C16.2634605,20.7296804 19.8692638,17.5967662 20.603936,13.4703376 L23.7512476,13.4709906 C22.9887638,19.3222295 17.9850282,23.8407915 11.9259259,23.8407915 C5.33941891,23.8407915 0,18.5013726 0,11.9148655 C0,5.50206861 5.06149316,0.271446734 11.4074731,6.33770831e-06 Z" id="Combined-Shape"></path>
                </g>
                <path d="M26.0740741,10 C32.6605811,10 38,15.3394189 38,21.9259259 L37.998995,21.981 L38.462963,21.9814815 L38.462963,24.9814815 L23.535995,24.9814815 L23.535995,10.2708601 L25.035995,10.27 L25.0366521,10.0444968 C25.3785398,10.0150361 25.724551,10 26.0740741,10 Z M26.5363834,13.1230262 L26.535995,21.9808601 L34.8887146,21.9819516 C34.8888307,21.9632901 34.8888889,21.9446148 34.8888889,21.9259259 C34.8888889,17.2127091 31.1897773,13.363466 26.5363834,13.1230262 Z" id="Combined-Shape" fill="#FFFFFF" fill-rule="nonzero"></path>
            </g>
        </g>
    </g>
</svg>