<svg height="47" viewBox="0 0 47 47" width="47" xmlns="http://www.w3.org/2000/svg"><path d="m846.499857 413h-11c-3.035755 0-5.499857-2.464166-5.499857-5.500125v-11.000036c0-3.035673 2.464102-5.499839 5.499857-5.499839h11c3.036041 0 5.500143 2.464166 5.500143 5.499839v11.000036c0 3.035959-2.464102 5.500125-5.500143 5.500125zm-10.749977-18c-.959583 0-1.74988.790233-1.74988 1.749821v10.500085c0 .959861.790297 1.750094 1.74988 1.750094h10.499966c.959857 0 1.750154-.790233 1.750154-1.750094v-10.500085c0-.959588-.790297-1.749821-1.750154-1.749821zm10.749977 43h-11c-3.035755 0-5.499857-2.463003-5.499857-5.497405v-11.00519c0-3.034402 2.464102-5.497405 5.499857-5.497405h11c3.036041 0 5.500143 2.463003 5.500143 5.497405v10.995095c0 3.034688-2.464102 5.5075-5.500143 5.5075zm-10.749977-18c-.959583 0-1.74988.78093-1.74988 1.74988v10.499966c0 .969224.790297 1.750154 1.74988 1.750154h10.499966c.959857 0 1.750154-.78093 1.750154-1.750154v-10.499966c0-.96895-.790297-1.74988-1.750154-1.74988zm35.760054 18h-11.010085c-3.03575 0-5.499849-2.520108-5.499849-5.624863v-3.749981c0-3.105048 2.464099-5.625156 5.499849-5.625156h10.999986c3.036037 0 5.500165 2.520108 5.500165 5.625156v3.749981c.009784 3.094719-2.464128 5.624863-5.490066 5.624863zm-10.760054-11c-.96895 0-1.74988.78093-1.74988 1.750154v3.499966c0 .96895.78093 1.74988 1.74988 1.74988h10.499966c.969224 0 1.750154-.78093 1.750154-1.74988v-3.499966c0-.969224-.78093-1.750154-1.750154-1.750154zm10.760054-7h-11.010085c-3.03575 0-5.499849-2.436099-5.499849-5.437637v-18.125009c0-3.001184 2.464099-5.437354 5.499849-5.437354h10.999986c3.036037 0 5.500165 2.43617 5.500165 5.437354v18.125009c.009784 3.001538-2.464128 5.437637-5.490066 5.437637zm-10.760054-25c-.96895 0-1.74988.790231-1.74988 1.749818v17.500022c0 .95986.78093 1.75016 1.74988 1.75016h10.499966c.969224 0 1.750154-.7903 1.750154-1.75016v-17.500022c0-.959587-.78093-1.749818-1.750154-1.749818z" fill="#63678a" fill-rule="evenodd" transform="translate(-830 -391)"/></svg>