<?xml version="1.0" encoding="UTF-8"?>
<svg width="72px" height="72px" viewBox="0 0 72 72" version="1.1" xmlns="http://www.w3.org/2000/svg" xmlns:xlink="http://www.w3.org/1999/xlink">
    <title>NFT</title>
    <g id="Page-2" stroke="none" stroke-width="1" fill="none" fill-rule="evenodd">
        <g id="Icon" transform="translate(-571.000000, -102.000000)">
            <g id="NFT" transform="translate(571.000000, 102.000000)">
                <rect id="shap" x="0" y="0" width="72" height="72"></rect>
                <path d="M40,8.30940108 L57.9807621,18.6905989 C60.4559707,20.1196613 61.9807621,22.7606774 61.9807621,25.6188022 L61.9807621,46.3811978 C61.9807621,49.2393226 60.4559707,51.8803387 57.9807621,53.3094011 L40,63.6905989 C37.5247914,65.1196613 34.4752086,65.1196613 32,63.6905989 L14.0192379,53.3094011 C11.5440293,51.8803387 10.0192379,49.2393226 10.0192379,46.3811978 L10.0192379,25.6188022 C10.0192379,22.7606774 11.5440293,20.1196613 14.0192379,18.6905989 L32,8.30940108 C34.4752086,6.88033872 37.5247914,6.88033872 40,8.30940108 Z M30.976507,26 L26.4,26 L26.4,46 L31.9641422,46 L31.9641422,35.4663895 L32.075425,35.4663895 L39.8791345,46 L44.4,46 L44.4,26 L38.8358578,26 L38.8358578,36.3672904 L38.724575,36.3672904 L30.976507,26 Z" id="shap" fill="#fff"></path>
            </g>
        </g>
    </g>
</svg>