<?xml version="1.0" encoding="UTF-8"?>
<svg width="104px" height="34px" viewBox="0 0 104 34" version="1.1" xmlns="http://www.w3.org/2000/svg" xmlns:xlink="http://www.w3.org/1999/xlink">
    <title>NGC</title>
    <g id="Page-2" stroke="none" stroke-width="1" fill="none" fill-rule="evenodd">
        <g id="Icon" transform="translate(-1301.000000, -475.000000)" fill="#FFFFFF" fill-rule="nonzero">
            <path d="M1301,502.852911 L1301,475 L1311.17636,480.730337 L1311.17636,509 L1301,502.852911 Z M1316.37723,502.852911 L1316.37723,475 L1326.55359,480.730337 L1326.55359,509 L1316.37723,502.852911 Z M1331.75446,502.852911 L1331.75446,475 L1341.93082,480.730337 L1341.93082,509 L1331.75446,502.852911 Z M1363.39307,478.247191 L1367.17236,478.247191 L1367.17236,495.403473 L1363.08101,495.403473 L1359.05901,488.839632 C1357.67211,486.616956 1356.66661,484.897855 1356.04251,483.664964 C1356.14652,485.644535 1356.1812,487.867211 1356.1812,490.298264 L1356.1812,495.386108 L1352.4019,495.386108 L1352.4019,478.229826 L1356.59727,478.229826 L1360.96599,485.384065 C1362.17953,487.346272 1363.01167,488.770174 1363.49708,489.655771 C1363.42774,488.301328 1363.39307,486.339122 1363.39307,483.734423 L1363.39307,478.247191 Z M1377.59143,488.926456 L1377.59143,485.644535 L1385.73946,485.644535 L1385.73946,495.403473 L1382.77496,495.403473 L1382.63627,493.927477 C1381.64811,495.177732 1380.08785,495.80286 1377.93816,495.80286 C1375.3724,495.80286 1373.32672,494.969356 1371.81847,493.284985 C1370.31022,491.600613 1369.54742,489.447395 1369.54742,486.790603 C1369.51275,484.185904 1370.31022,482.032686 1371.90515,480.348315 C1373.53476,478.646578 1375.66711,477.79571 1378.31955,477.830439 C1379.81047,477.830439 1381.12802,478.073544 1382.27221,478.559755 C1383.43374,479.045965 1384.59527,479.862104 1385.79147,481.025536 L1383.32972,483.578141 C1382.35889,482.727273 1381.50942,482.136874 1380.74662,481.789581 C1379.98383,481.459653 1379.18636,481.286006 1378.31955,481.286006 C1376.84597,481.286006 1375.66711,481.754852 1374.8003,482.709908 C1373.95083,483.664964 1373.51742,485.019408 1373.51742,486.773238 C1373.51742,488.579162 1373.93349,489.968335 1374.76563,490.958121 C1375.6151,491.930541 1376.77663,492.399387 1378.23287,492.399387 C1379.48108,492.399387 1380.45191,492.104188 1381.14536,491.51379 C1381.85614,490.906027 1382.20287,490.072523 1382.20287,488.995914 L1382.20287,488.926456 L1377.59143,488.926456 Z M1396.47058,477.813075 C1397.84014,477.813075 1399.00167,478.02145 1399.9725,478.420838 C1400.96066,478.837589 1401.96616,479.514811 1402.989,480.452503 L1400.68328,483.144025 C1399.83381,482.414709 1399.10568,481.928498 1398.48158,481.668029 C1397.89215,481.390194 1397.1987,481.251277 1396.43591,481.251277 C1394.997,481.251277 1393.87015,481.754852 1393.00333,482.744637 C1392.1712,483.734423 1391.75513,485.071502 1391.75513,486.773238 C1391.75513,488.492339 1392.1712,489.864147 1393.00333,490.853933 C1393.85281,491.843718 1394.997,492.347293 1396.40123,492.347293 C1397.23337,492.347293 1397.96149,492.191011 1398.56826,491.895812 C1399.19237,491.600613 1399.98983,491.079673 1400.96066,490.298264 L1403.19703,492.955056 C1402.13952,493.944842 1401.06468,494.656793 1399.98983,495.125638 C1398.93232,495.57712 1397.75346,495.80286 1396.45324,495.80286 C1393.81814,495.80286 1391.70312,494.951992 1390.14286,493.26762 C1388.56526,491.565884 1387.78513,489.377937 1387.78513,486.721144 C1387.78513,484.116445 1388.56526,481.963228 1390.12552,480.296221 C1391.68578,478.646578 1393.8008,477.813075 1396.47058,477.813075 Z M1355.26238,506.72523 L1357.63744,499.692543 L1356.996,499.692543 L1354.91565,506.117467 L1354.88098,506.117467 L1352.81797,499.709908 L1352.14186,499.709908 L1354.49958,506.742594 L1355.26238,506.742594 L1355.26238,506.72523 Z M1362.35289,506.846782 C1363.32372,506.846782 1364.03451,506.343207 1364.36389,505.596527 L1363.93049,505.301328 C1363.65311,505.97855 1363.09835,506.343207 1362.37023,506.343207 C1361.31272,506.343207 1360.68861,505.596527 1360.68861,504.519918 L1360.68861,504.259448 L1364.50258,504.259448 L1364.50258,503.981614 C1364.50258,502.470889 1363.65311,501.446374 1362.33556,501.446374 C1360.96599,501.446374 1360.09918,502.453524 1360.09918,504.137896 C1360.09918,505.822268 1360.98333,506.846782 1362.35289,506.846782 Z M1362.33556,501.932584 C1363.25438,501.932584 1363.87848,502.644535 1363.87848,503.738509 L1363.87848,503.825332 L1360.68861,503.825332 L1360.68861,503.773238 C1360.70595,502.679265 1361.34739,501.932584 1362.33556,501.932584 Z M1368.54192,506.72523 L1368.54192,503.096016 C1368.54192,502.331971 1369.21804,501.967314 1369.94616,501.967314 C1370.79563,501.967314 1371.26371,502.470889 1371.26371,503.512768 L1371.26371,506.72523 L1371.83581,506.72523 L1371.83581,503.40858 C1371.83581,502.158325 1371.19437,501.446374 1370.10218,501.446374 C1369.27005,501.446374 1368.8193,501.845761 1368.5766,502.384065 L1368.54192,502.384065 L1368.54192,501.567926 L1367.96983,501.567926 L1367.96983,506.72523 L1368.54192,506.72523 L1368.54192,506.72523 Z M1377.55676,506.72523 L1377.55676,506.221655 L1376.46458,506.221655 L1376.46458,502.071502 L1377.6261,502.071502 L1377.6261,501.567926 L1376.46458,501.567926 L1376.46458,500.12666 L1375.94449,500.12666 L1375.94449,501.168539 C1375.94449,501.463739 1375.85781,501.567926 1375.58043,501.567926 L1374.991,501.567926 L1374.991,502.071502 L1375.89248,502.071502 L1375.89248,506.082737 C1375.89248,506.46476 1376.11785,506.72523 1376.53392,506.72523 L1377.55676,506.72523 L1377.55676,506.72523 Z M1384.23121,506.72523 L1384.8033,506.72523 L1384.8033,501.567926 L1384.23121,501.567926 L1384.23121,505.179775 C1384.23121,505.961185 1383.55509,506.325843 1382.84431,506.325843 C1381.99483,506.325843 1381.52675,505.822268 1381.52675,504.763023 L1381.52675,501.567926 L1380.95466,501.567926 L1380.95466,504.884576 C1380.95466,506.134831 1381.61344,506.846782 1382.70562,506.846782 C1383.58976,506.846782 1384.00583,506.395301 1384.19653,505.909091 L1384.23121,505.909091 L1384.23121,506.72523 Z M1389.25871,506.72523 L1389.25871,503.200204 C1389.25871,502.540347 1389.86548,502.14096 1390.73229,502.14096 L1391.18303,502.14096 L1391.18303,501.585291 L1390.83631,501.585291 C1389.95216,501.585291 1389.50142,502.019408 1389.29338,502.505618 L1389.25871,502.505618 L1389.25871,501.585291 L1388.68661,501.585291 L1388.68661,506.742594 L1389.25871,506.742594 L1389.25871,506.72523 Z M1396.10652,506.846782 C1397.07735,506.846782 1397.78813,506.343207 1398.11752,505.596527 L1397.70145,505.318693 C1397.42407,505.995914 1396.86931,506.360572 1396.14119,506.360572 C1395.08368,506.360572 1394.45958,505.613892 1394.45958,504.537283 L1394.45958,504.259448 L1398.27355,504.259448 L1398.27355,503.981614 C1398.27355,502.470889 1397.42407,501.446374 1396.10652,501.446374 C1394.73696,501.446374 1393.87015,502.453524 1393.87015,504.137896 C1393.87015,505.822268 1394.71962,506.846782 1396.10652,506.846782 Z M1396.08918,501.932584 C1397.008,501.932584 1397.63211,502.644535 1397.63211,503.738509 L1397.63211,503.825332 L1394.44224,503.825332 L1394.44224,503.773238 C1394.45958,502.679265 1395.10102,501.932584 1396.08918,501.932584 Z M1403.1797,506.846782 C1404.30655,506.846782 1405,506.273749 1405,505.318693 C1405,504.485189 1404.51459,504.033708 1403.45708,503.877426 L1403.04101,503.825332 C1402.31289,503.703779 1401.93149,503.478039 1401.93149,502.88764 C1401.93149,502.297242 1402.36489,501.967314 1403.09302,501.967314 C1403.8038,501.967314 1404.21987,502.297242 1404.49725,502.627171 L1404.87865,502.279877 C1404.49725,501.811032 1403.97716,501.481103 1403.12769,501.481103 C1402.13952,501.481103 1401.37673,501.967314 1401.37673,502.92237 C1401.37673,503.842697 1402.01817,504.224719 1402.95433,504.363636 L1403.3704,504.433095 C1404.11585,504.537283 1404.4279,504.849847 1404.4279,505.405516 C1404.4279,506.030644 1403.97716,506.377937 1403.19703,506.377937 C1402.52092,506.377937 1402.01817,506.100102 1401.6021,505.544433 L1401.18603,505.874362 C1401.67145,506.499489 1402.29555,506.846782 1403.1797,506.846782 Z" id="NGC"></path>
        </g>
    </g>
</svg>