<?xml version="1.0" encoding="UTF-8"?>
<svg width="102px" height="34px" viewBox="0 0 102 34" version="1.1" xmlns="http://www.w3.org/2000/svg" xmlns:xlink="http://www.w3.org/1999/xlink">
    <title>OKX</title>
    <g id="Page-2" stroke="none" stroke-width="1" fill="none" fill-rule="evenodd">
        <g id="Icon" transform="translate(-352.000000, -475.000000)" fill="#FFFFFF">
            <path d="M373.644848,497.607004 L363.500845,497.607004 C363.220861,497.607004 362.983953,497.371595 362.983953,497.093385 L362.983953,487.013619 C362.983953,486.735409 363.220861,486.5 363.500845,486.5 L373.644848,486.5 C373.924831,486.5 374.16174,486.735409 374.16174,487.013619 L374.16174,497.093385 C374.183277,497.371595 373.946368,497.607004 373.644848,497.607004 L373.644848,497.607004 Z M385.124155,497.885214 L385.124155,507.964981 C385.124155,508.243191 384.887247,508.478599 384.607264,508.478599 L374.46326,508.478599 C374.183277,508.478599 373.946368,508.243191 373.946368,507.964981 L373.946368,497.885214 C373.946368,497.607004 374.183277,497.371595 374.46326,497.371595 L384.607264,497.371595 C384.887247,497.371595 385.124155,497.607004 385.124155,497.885214 L385.124155,497.885214 Z M363.177787,497.885214 L363.177787,507.964981 C363.199324,508.22179 362.962416,508.478599 362.660895,508.478599 L352.516892,508.478599 C352.236909,508.478599 352,508.243191 352,507.964981 L352,497.885214 C352,497.607004 352.236909,497.371595 352.516892,497.371595 L362.660895,497.371595 C362.940878,497.371595 363.177787,497.607004 363.177787,497.885214 L363.177787,497.885214 Z M385.124155,476.05642 L385.124155,486.136187 C385.124155,486.414397 384.887247,486.649805 384.607264,486.649805 L374.46326,486.649805 C374.183277,486.649805 373.946368,486.414397 373.946368,486.136187 L373.946368,476.05642 C373.946368,475.77821 374.183277,475.542802 374.46326,475.542802 L384.607264,475.542802 C384.887247,475.542802 385.124155,475.77821 385.124155,476.05642 L385.124155,476.05642 Z M352,486.114786 L352,476.035019 C352,475.756809 352.236909,475.521401 352.516892,475.521401 L362.660895,475.521401 C362.940878,475.521401 363.177787,475.756809 363.177787,476.035019 L363.177787,486.114786 C363.199324,486.392996 362.962416,486.628405 362.660895,486.628405 L352.516892,486.628405 C352.236909,486.628405 352,486.392996 352,486.114786 L352,486.114786 Z M438.923986,506.509728 C438.923986,507.772374 437.997889,508.457198 436.425676,508.457198 C434.918074,508.457198 434.013514,507.836576 433.862753,506.680934 C433.884291,506.616732 433.948902,506.509728 434.056588,506.509728 L435.241132,506.509728 C435.32728,506.509728 435.391892,506.552529 435.413429,506.638132 C435.499578,507.087549 435.779561,507.344358 436.447213,507.344358 C437.071791,507.344358 437.373311,507.108949 437.373311,506.702335 C437.373311,506.29572 437.028716,506.124514 436.16723,505.996109 C434.595017,505.7607 433.970439,505.311284 433.970439,504.155642 C433.970439,502.935798 435.111909,502.315175 436.31799,502.315175 C437.567145,502.315175 438.51478,502.743191 438.730152,503.920233 C438.751689,504.027237 438.665541,504.134241 438.557855,504.134241 L437.394848,504.134241 C437.330236,504.134241 437.244088,504.09144 437.222551,504.005837 C437.114865,503.599222 436.834882,503.428016 436.31799,503.428016 C435.779561,503.428016 435.478041,503.663424 435.478041,504.027237 C435.478041,504.391051 435.758024,504.540856 436.61951,504.669261 C438.105574,504.883268 438.923986,505.247082 438.923986,506.509728 L438.923986,506.509728 Z M431.730574,504.776265 L429.339949,504.776265 C429.275338,504.776265 429.232264,504.712062 429.232264,504.64786 C429.404561,503.898833 429.878378,503.470817 430.567568,503.470817 C431.299831,503.470817 431.752111,503.83463 431.83826,504.64786 C431.859797,504.712062 431.795186,504.776265 431.730574,504.776265 L431.730574,504.776265 Z M430.567568,502.336576 C428.823057,502.336576 427.509291,503.535019 427.509291,505.396887 L427.509291,505.48249 C427.509291,507.365759 428.80152,508.478599 430.589105,508.478599 C432.118243,508.478599 433.13049,507.857977 433.388936,506.723735 C433.410473,506.616732 433.324324,506.509728 433.216639,506.509728 L432.032095,506.509728 C431.945946,506.509728 431.881334,506.552529 431.859797,506.616732 C431.730574,507.044747 431.342905,507.322957 430.653716,507.322957 C429.79223,507.322957 429.275338,506.809339 429.189189,505.910506 C429.167652,505.846304 429.232264,505.782101 429.296875,505.782101 L433.28125,505.782101 C433.388936,505.782101 433.453547,505.696498 433.453547,505.610895 L433.453547,505.332685 C433.453547,503.235409 432.096706,502.336576 430.567568,502.336576 L430.567568,502.336576 Z M427.186233,502.571984 L427.186233,503.727626 C427.186233,503.81323 427.121622,503.898833 427.013936,503.898833 C425.894003,503.920233 425.269426,504.326848 425.269426,505.396887 L425.269426,508.157588 C425.269426,508.243191 425.204814,508.328794 425.097128,508.328794 L423.804899,508.328794 C423.71875,508.328794 423.632601,508.264591 423.632601,508.157588 L423.632601,502.614786 C423.632601,502.550584 423.697213,502.464981 423.804899,502.464981 L425.097128,502.464981 C425.183277,502.464981 425.269426,502.529183 425.269426,502.636187 L425.269426,503.599222 C425.61402,502.871595 426.152449,502.464981 426.992399,502.400778 C427.100084,502.400778 427.186233,502.464981 427.186233,502.571984 L427.186233,502.571984 Z M422.42652,502.657588 L422.42652,508.200389 C422.42652,508.285992 422.361909,508.371595 422.254223,508.371595 L420.98353,508.371595 C420.897382,508.371595 420.811233,508.307393 420.811233,508.200389 L420.811233,507.451362 C420.509713,508.050584 419.906672,508.5 418.9375,508.5 C417.79603,508.478599 416.934544,507.815175 416.934544,506.274319 L416.934544,502.657588 C416.934544,502.571984 416.999155,502.486381 417.106841,502.486381 L418.377534,502.486381 C418.463682,502.486381 418.549831,502.550584 418.549831,502.657588 L418.549831,506.060311 C418.549831,506.85214 418.872889,507.237354 419.583615,507.237354 C420.272804,507.237354 420.811233,506.809339 420.811233,505.953307 L420.811233,502.657588 C420.811233,502.571984 420.875845,502.486381 420.98353,502.486381 L422.254223,502.486381 C422.340372,502.486381 422.42652,502.550584 422.42652,502.657588 L422.42652,502.657588 Z M416.137669,507.301556 L416.137669,508.200389 C416.137669,508.264591 416.094595,508.350195 416.008446,508.371595 C415.793074,508.435798 415.513091,508.478599 415.125422,508.478599 C413.897804,508.478599 413.230152,507.836576 413.230152,506.616732 L413.230152,503.663424 C413.230152,503.642023 413.230152,503.642023 413.208615,503.642023 L412.648649,503.642023 C412.5625,503.642023 412.476351,503.577821 412.476351,503.470817 L412.476351,502.657588 C412.476351,502.571984 412.540963,502.486381 412.648649,502.486381 L413.230152,502.486381 L413.230152,501.394942 C413.230152,501.309339 413.294764,501.223735 413.402449,501.223735 L414.673142,501.223735 C414.759291,501.223735 414.845439,501.287938 414.845439,501.394942 L414.845439,502.486381 L415.922297,502.486381 C416.008446,502.486381 416.094595,502.550584 416.094595,502.657588 L416.094595,503.470817 C416.094595,503.55642 416.029983,503.642023 415.922297,503.642023 L414.866976,503.642023 C414.845439,503.642023 414.845439,503.642023 414.845439,503.663424 L414.845439,506.466926 C414.845439,506.937743 415.082348,507.173152 415.513091,507.173152 C415.663851,507.173152 415.793074,507.173152 415.922297,507.13035 C416.029983,507.108949 416.137669,507.173152 416.137669,507.301556 L416.137669,507.301556 Z M411.851774,504.583658 L411.851774,508.136187 C411.851774,508.22179 411.787162,508.307393 411.679476,508.307393 L410.387247,508.307393 C410.301098,508.307393 410.214949,508.243191 410.214949,508.136187 L410.214949,504.797665 C410.214949,504.005837 409.891892,503.620623 409.159628,503.620623 C408.448902,503.620623 407.93201,504.048638 407.93201,504.904669 L407.93201,508.136187 C407.93201,508.22179 407.867399,508.307393 407.759713,508.307393 L406.467483,508.307393 C406.381334,508.307393 406.295186,508.243191 406.295186,508.136187 L406.295186,502.593385 C406.295186,502.550584 406.381334,502.464981 406.467483,502.464981 L407.759713,502.464981 C407.845861,502.464981 407.93201,502.529183 407.93201,502.636187 L407.93201,503.27821 C407.93201,503.299611 407.975084,503.321012 407.975084,503.27821 C408.298142,502.743191 408.92272,502.315175 409.848818,502.315175 C411.011824,502.315175 411.851774,503.021401 411.851774,504.583658 L411.851774,504.583658 Z M403.775338,504.776265 L401.384713,504.776265 C401.320101,504.776265 401.277027,504.712062 401.277027,504.64786 C401.449324,503.898833 401.923142,503.470817 402.612331,503.470817 C403.344595,503.470817 403.796875,503.83463 403.883024,504.64786 C403.904561,504.712062 403.839949,504.776265 403.775338,504.776265 L403.775338,504.776265 Z M402.612331,502.336576 C400.867821,502.336576 399.554054,503.535019 399.554054,505.396887 L399.554054,505.48249 C399.554054,507.365759 400.867821,508.478599 402.655405,508.478599 C404.184544,508.478599 405.196791,507.857977 405.455236,506.723735 C405.476774,506.616732 405.390625,506.509728 405.282939,506.509728 L404.098395,506.509728 C404.012247,506.509728 403.947635,506.552529 403.926098,506.616732 C403.796875,507.044747 403.409206,507.322957 402.720017,507.322957 C401.85853,507.322957 401.341639,506.809339 401.25549,505.910506 C401.233953,505.846304 401.298564,505.782101 401.363176,505.782101 L405.326014,505.782101 C405.433699,505.782101 405.498311,505.696498 405.498311,505.610895 L405.498311,505.332685 C405.498311,503.235409 404.14147,502.336576 402.612331,502.336576 L402.612331,502.336576 Z M399.898649,500.538911 L397.314189,508.243191 C397.292652,508.307393 397.228041,508.350195 397.141892,508.350195 L395.289696,508.350195 C395.225084,508.350195 395.160473,508.307393 395.117399,508.243191 L392.532939,500.538911 C392.532939,500.431907 392.619088,500.303502 392.748311,500.303502 L394.298986,500.303502 C394.363598,500.303502 394.449747,500.346304 394.471284,500.431907 L396.32348,506.402724 C396.32348,506.424125 396.366554,506.424125 396.366554,506.402724 L398.21875,500.431907 C398.240287,500.367704 398.304899,500.303502 398.391047,500.303502 L399.726351,500.303502 C399.834037,500.303502 399.920186,500.410506 399.898649,500.538911 L399.898649,500.538911 Z M454,492.449416 L454,496.044747 C454,496.13035 453.935389,496.215953 453.827703,496.215953 L452.55701,496.215953 C452.470861,496.215953 452.384713,496.151751 452.384713,496.044747 L452.384713,492.642023 C452.384713,491.892996 452.040118,491.550584 451.458615,491.550584 C450.834037,491.550584 450.317145,491.957198 450.317145,492.749027 L450.317145,496.066148 C450.317145,496.151751 450.252534,496.237354 450.144848,496.237354 L448.874155,496.237354 C448.788007,496.237354 448.701858,496.173152 448.701858,496.066148 L448.701858,492.663424 C448.701858,491.914397 448.357264,491.571984 447.77576,491.571984 C447.151182,491.571984 446.634291,491.978599 446.634291,492.770428 L446.634291,496.087549 C446.634291,496.173152 446.569679,496.258755 446.461993,496.258755 L445.191301,496.258755 C445.105152,496.258755 445.019003,496.194553 445.019003,496.087549 L445.019003,490.544747 C444.954392,490.437743 445.040541,490.35214 445.126689,490.35214 L446.418919,490.35214 C446.505068,490.35214 446.591216,490.416342 446.591216,490.523346 L446.591216,491.143969 C446.591216,491.16537 446.634291,491.18677 446.634291,491.143969 C446.935811,490.63035 447.560389,490.202335 448.400338,490.202335 C449.175676,490.202335 449.735642,490.501946 450.037162,491.18677 C450.037162,491.208171 450.080236,491.208171 450.080236,491.18677 C450.554054,490.501946 451.307855,490.202335 452.040118,490.202335 C453.138514,490.202335 454,490.88716 454,492.449416 L454,492.449416 Z M442.197635,494.182879 C442.197635,494.846304 441.659206,495.231518 440.926943,495.231518 C440.323902,495.231518 440.065456,494.953307 440.065456,494.525292 C440.065456,493.883268 440.625422,493.690661 441.573057,493.690661 L442.176098,493.690661 C442.197635,493.690661 442.197635,493.690661 442.197635,493.712062 L442.197635,494.182879 Z M441.357686,490.223735 C439.95777,490.223735 438.902449,490.801556 438.708615,492.042802 C438.687078,492.149805 438.773226,492.235409 438.880912,492.235409 L440.086993,492.235409 C440.173142,492.235409 440.237753,492.171206 440.259291,492.107004 C440.366976,491.657588 440.668497,491.400778 441.25,491.400778 C442.003801,491.400778 442.219172,491.785992 442.219172,492.492218 L442.219172,492.706226 C442.219172,492.727626 442.219172,492.727626 442.197635,492.727626 L441.55152,492.727626 C439.742399,492.727626 438.471706,493.241245 438.471706,494.610895 C438.471706,495.85214 439.376267,496.365759 440.474662,496.365759 C441.40076,496.365759 441.917652,496.001946 442.262247,495.531128 L442.262247,496.066148 C442.262247,496.173152 442.348395,496.237354 442.434544,496.237354 L443.662162,496.237354 C443.769848,496.237354 443.834459,496.151751 443.834459,496.066148 L443.834459,492.406615 C443.834459,490.801556 442.800676,490.223735 441.357686,490.223735 L441.357686,490.223735 Z M435.111909,491.357977 C435.844172,491.357977 436.296453,491.72179 436.382601,492.535019 C436.404139,492.599222 436.339527,492.663424 436.274916,492.663424 L433.884291,492.663424 C433.819679,492.663424 433.776605,492.599222 433.776605,492.535019 C433.948902,491.785992 434.42272,491.357977 435.111909,491.357977 L435.111909,491.357977 Z M435.154983,496.365759 C436.684122,496.365759 437.696368,495.745136 437.954814,494.610895 C437.976351,494.503891 437.890203,494.396887 437.782517,494.396887 L436.597973,494.396887 C436.511824,494.396887 436.447213,494.439689 436.425676,494.503891 C436.296453,494.931907 435.908784,495.210117 435.219595,495.210117 C434.358108,495.210117 433.841216,494.696498 433.755068,493.797665 C433.73353,493.733463 433.798142,493.669261 433.862753,493.669261 L437.825591,493.669261 C437.933277,493.669261 437.997889,493.583658 437.997889,493.498054 L437.997889,493.219844 C437.997889,491.122568 436.641047,490.223735 435.111909,490.223735 C433.367399,490.223735 432.053632,491.422179 432.053632,493.284047 L432.053632,493.36965 C432.053632,495.252918 433.367399,496.365759 435.154983,496.365759 L435.154983,496.365759 Z M428.176943,496.066148 L428.176943,490.523346 C428.176943,490.437743 428.241554,490.35214 428.34924,490.35214 L429.64147,490.35214 C429.727618,490.35214 429.813767,490.416342 429.813767,490.523346 L429.813767,491.486381 C430.158361,490.758755 430.696791,490.35214 431.53674,490.287938 C431.644426,490.287938 431.730574,490.35214 431.730574,490.459144 L431.730574,491.614786 C431.730574,491.700389 431.665963,491.785992 431.558277,491.785992 C430.438345,491.807393 429.813767,492.214008 429.813767,493.284047 L429.813767,496.066148 C429.813767,496.151751 429.749155,496.237354 429.64147,496.237354 L428.34924,496.237354 C428.263091,496.237354 428.176943,496.173152 428.176943,496.066148 L428.176943,496.066148 Z M423.934122,495.103113 C423.115709,495.103113 422.555743,494.503891 422.555743,493.348249 L422.555743,493.262646 C422.555743,492.085603 423.051098,491.464981 423.977196,491.464981 C424.881757,491.464981 425.398649,492.085603 425.398649,493.241245 L425.398649,493.326848 C425.398649,494.525292 424.795608,495.103113 423.934122,495.103113 L423.934122,495.103113 Z M425.290963,495.381323 C425.290963,495.338521 425.334037,495.359922 425.334037,495.381323 L425.334037,496.066148 C425.334037,496.173152 425.420186,496.237354 425.506334,496.237354 L426.777027,496.237354 C426.884713,496.237354 426.949324,496.151751 426.949324,496.066148 L426.949324,487.86965 C426.949324,487.762646 426.863176,487.698444 426.777027,487.698444 L425.506334,487.698444 C425.398649,487.698444 425.334037,487.784047 425.334037,487.86965 L425.334037,491.143969 C425.334037,491.143969 425.290963,491.16537 425.290963,491.143969 C424.967905,490.587549 424.386402,490.223735 423.481841,490.223735 C421.995777,490.223735 420.875845,491.357977 420.875845,493.305447 L420.875845,493.391051 C420.875845,495.359922 422.017314,496.365759 423.438767,496.38716 C424.257179,496.38716 424.967905,495.937743 425.290963,495.381323 L425.290963,495.381323 Z M415.642314,487.677043 L416.934544,487.677043 C417.020693,487.677043 417.106841,487.741245 417.106841,487.848249 L417.106841,492.55642 C417.106841,492.642023 417.214527,492.663424 417.257601,492.599222 L418.959037,490.35214 C418.980574,490.330739 419.002111,490.309339 419.045186,490.309339 L420.488176,490.309339 C420.574324,490.309339 420.638936,490.416342 420.574324,490.501946 L418.571368,492.984436 L420.768159,496.001946 C420.811233,496.066148 420.768159,496.194553 420.68201,496.194553 L419.109797,496.194553 C419.066723,496.194553 419.045186,496.173152 419.023649,496.151751 L417.257601,493.64786 C417.214527,493.583658 417.106841,493.626459 417.106841,493.690661 L417.106841,496.023346 C417.106841,496.108949 417.04223,496.194553 416.934544,496.194553 L415.642314,496.194553 C415.556166,496.194553 415.470017,496.13035 415.470017,496.023346 L415.470017,487.826848 C415.470017,487.762646 415.534628,487.677043 415.642314,487.677043 L415.642314,487.677043 Z M411.851774,496.38716 C410.150338,496.365759 408.836571,495.29572 408.836571,493.36965 L408.836571,493.284047 C408.836571,491.379377 410.214949,490.223735 411.894848,490.223735 C413.208615,490.223735 414.436233,490.780156 414.651605,492.321012 C414.651605,492.428016 414.586993,492.513619 414.479307,492.513619 L413.230152,492.513619 C413.187078,492.513619 413.122466,492.470817 413.122466,492.428016 C412.993243,491.807393 412.584037,491.507782 411.937922,491.507782 C411.076436,491.507782 410.51647,492.128405 410.51647,493.262646 L410.51647,493.348249 C410.51647,494.525292 411.054899,495.145914 411.959459,495.145914 C412.584037,495.145914 413.100929,494.803502 413.208615,494.097276 C413.208615,494.054475 413.251689,494.011673 413.316301,494.011673 L414.500845,494.011673 C414.60853,494.011673 414.694679,494.097276 414.673142,494.20428 C414.500845,495.488327 413.510135,496.38716 411.851774,496.38716 L411.851774,496.38716 Z M406.725929,493.262646 L406.725929,493.326848 C406.725929,494.461089 406.1875,495.124514 405.282939,495.124514 C404.356841,495.124514 403.839949,494.461089 403.839949,493.326848 L403.839949,493.241245 C403.839949,492.128405 404.378378,491.464981 405.282939,491.464981 C406.1875,491.464981 406.725929,492.128405 406.725929,493.262646 L406.725929,493.262646 Z M402.138514,493.284047 L402.138514,493.36965 C402.138514,495.210117 403.473818,496.365759 405.261402,496.365759 C407.048986,496.365759 408.384291,495.188716 408.384291,493.326848 L408.384291,493.241245 C408.384291,491.400778 407.048986,490.223735 405.261402,490.223735 C403.473818,490.223735 402.138514,491.44358 402.138514,493.284047 L402.138514,493.284047 Z M399.834037,487.677043 L401.10473,487.677043 C401.190878,487.677043 401.277027,487.741245 401.277027,487.848249 L401.277027,496.044747 C401.277027,496.13035 401.212416,496.215953 401.10473,496.215953 L399.834037,496.215953 C399.747889,496.215953 399.66174,496.151751 399.66174,496.044747 L399.66174,487.848249 C399.66174,487.762646 399.726351,487.677043 399.834037,487.677043 L399.834037,487.677043 Z M394.363598,489.538911 C394.363598,489.474708 394.406672,489.431907 394.471284,489.431907 L395.440456,489.431907 C396.301943,489.431907 396.689611,489.731518 396.689611,490.416342 L396.689611,490.459144 C396.689611,491.18677 396.345017,491.507782 395.461993,491.507782 L394.471284,491.464981 C394.406672,491.464981 394.363598,491.422179 394.363598,491.357977 L394.363598,489.538911 Z M396.92652,493.861868 C396.92652,494.589494 396.517314,494.996109 395.612753,494.996109 L394.471284,494.974708 C394.406672,494.974708 394.363598,494.931907 394.363598,494.867704 L394.363598,492.791829 C394.363598,492.727626 394.406672,492.684825 394.471284,492.684825 L395.526605,492.684825 C396.517314,492.684825 396.92652,493.070039 396.92652,493.819066 L396.92652,493.861868 Z M392.748311,496.237354 L395.914274,496.237354 C397.788007,496.237354 398.757179,495.466926 398.757179,493.990272 L398.757179,493.947471 C398.757179,492.877432 398.197213,492.27821 397.141892,492.064202 C398.046453,491.785992 398.455659,491.18677 398.455659,490.330739 L398.455659,490.287938 C398.455659,488.918288 397.529561,488.190661 395.763514,488.190661 L392.748311,488.190661 C392.640625,488.190661 392.576014,488.276265 392.576014,488.361868 L392.576014,496.066148 C392.576014,496.173152 392.662162,496.237354 392.748311,496.237354 L392.748311,496.237354 Z M409.353463,483.418288 L411.679476,479.501946 L409.461149,475.799611 C409.418074,475.714008 409.461149,475.585603 409.590372,475.585603 L411.313345,475.585603 C411.356419,475.585603 411.399493,475.607004 411.442568,475.649805 L412.820946,478.046693 L412.885557,478.046693 L414.263936,475.649805 C414.285473,475.607004 414.328547,475.585603 414.393159,475.585603 L416.116132,475.585603 C416.223818,475.585603 416.288429,475.714008 416.245355,475.799611 L414.00549,479.501946 L416.353041,483.418288 C416.417652,483.503891 416.353041,483.632296 416.223818,483.632296 L414.45777,483.632296 C414.414696,483.632296 414.350084,483.610895 414.328547,483.568093 L412.86402,480.935798 L412.799409,480.935798 L411.334882,483.568093 C411.313345,483.610895 411.27027,483.632296 411.205659,483.632296 L409.482686,483.632296 C409.375,483.632296 409.310389,483.503891 409.353463,483.418288 L409.353463,483.418288 Z M401.987753,475.799611 C401.944679,475.714008 402.030828,475.628405 402.138514,475.628405 L403.624578,475.628405 C403.710726,475.628405 403.796875,475.692607 403.796875,475.799611 L403.796875,479.095331 L406.575169,475.692607 C406.596706,475.649805 406.661318,475.628405 406.704392,475.628405 L408.319679,475.628405 C408.405828,475.628405 408.470439,475.735409 408.405828,475.821012 L405.369088,479.437743 L408.578125,483.503891 C408.642736,483.568093 408.578125,483.696498 408.491976,483.696498 L406.682855,483.696498 C406.63978,483.696498 406.575169,483.675097 406.553632,483.632296 L403.818412,480.079767 L403.818412,483.503891 C403.818412,483.589494 403.753801,483.675097 403.646115,483.675097 L402.160051,483.675097 C402.073902,483.675097 401.987753,483.610895 401.987753,483.503891 L401.987753,475.799611 Z M394.471284,479.608949 C394.471284,477.98249 395.33277,476.955253 396.732686,476.955253 C398.154139,476.955253 398.994088,478.025292 398.994088,479.587549 L398.994088,479.673152 C398.994088,481.299611 398.132601,482.348249 396.754223,482.348249 C395.418919,482.348249 394.471284,481.342412 394.471284,479.694553 L394.471284,479.608949 Z M396.754223,483.782101 C399.274071,483.782101 400.932432,482.027237 400.932432,479.63035 L400.932432,479.544747 C400.932432,477.126459 399.187922,475.5 396.754223,475.5 C394.342061,475.5 392.576014,477.212062 392.576014,479.608949 L392.576014,479.694553 C392.576014,482.048638 394.191301,483.803502 396.754223,483.782101 L396.754223,483.782101 Z" id="OKX"></path>
        </g>
    </g>
</svg>