<?xml version="1.0" encoding="UTF-8"?>
<svg width="54px" height="54px" viewBox="0 0 54 54" version="1.1" xmlns="http://www.w3.org/2000/svg" xmlns:xlink="http://www.w3.org/1999/xlink">
    <title>Ongoing</title>
    <g  stroke="none" stroke-width="1" fill="none" fill-rule="evenodd">
        <g transform="translate(-603.000000, -383.000000)">
            <g id="Ongoing" transform="translate(603.000000, 383.000000)">
                <path d="M17.9471964,-7.25088215e-16 L36.0528036,7.25088215e-16 C42.2934348,-4.21297134e-16 44.5564384,0.649779278 46.8379199,1.86992893 C49.1194014,3.09007857 50.9099214,4.88059859 52.1300711,7.16208008 C53.3502207,9.44356156 54,11.7065652 54,17.9471964 L54,36.0528036 C54,42.2934348 53.3502207,44.5564384 52.1300711,46.8379199 C50.9099214,49.1194014 49.1194014,50.9099214 46.8379199,52.1300711 C44.5564384,53.3502207 42.2934348,54 36.0528036,54 L17.9471964,54 C11.7065652,54 9.44356156,53.3502207 7.16208008,52.1300711 C4.88059859,50.9099214 3.09007857,49.1194014 1.86992893,46.8379199 C0.649779278,44.5564384 2.80864756e-16,42.2934348 -4.83392144e-16,36.0528036 L4.83392144e-16,17.9471964 C-2.80864756e-16,11.7065652 0.649779278,9.44356156 1.86992893,7.16208008 C3.09007857,4.88059859 4.88059859,3.09007857 7.16208008,1.86992893 C9.44356156,0.649779278 11.7065652,4.21297134e-16 17.9471964,-7.25088215e-16 Z" id="Rectangle" fill="#FFEBF5"></path>
                <g id="Group" transform="translate(14.000000, 12.000000)" fill="#D51172" fill-rule="nonzero">
                    <path d="M6.75305333,0 C5.92459429,0 5.25299555,0.671598745 5.25299555,1.50005778 C5.25299555,2.32851682 5.92459429,3.00011557 6.75305333,3.00011557 L11.2532266,3.00011557 L11.2532266,4.50017331 C11.2532266,4.53017446 11.2532266,4.55867557 11.2562268,4.58717667 C7.40728044,5.04179602 3.97397933,7.22217159 1.92592437,10.512542 C-0.122130595,13.8029125 -0.562632413,17.8461231 0.728821332,21.5003281 C1.0129796,22.2039564 1.80084912,22.559017 2.51620541,22.3058291 C3.23156171,22.0526412 3.62065951,21.2810135 3.39892418,20.5552917 C1.73082737,15.8444039 3.82871816,10.6283219 8.29406291,8.38428397 C12.7594077,6.140246 18.1968673,7.56947314 20.9816247,11.7191883 C23.7663822,15.8689035 23.0282513,21.4423961 19.2592983,24.7241644 C15.4903452,28.0059327 9.86829932,27.9704837 6.14102976,24.641449 C5.5577946,24.1199341 4.66221771,24.1699682 4.14070276,24.7532033 C3.61918781,25.3364385 3.6692219,26.2320154 4.25245704,26.7535303 C8.35075394,30.4187006 14.3369293,31.044026 19.104222,28.3049693 C23.8715146,25.5659126 26.3461348,20.0794217 25.243781,14.6929268 C24.1414271,9.30643199 19.7103946,5.23319266 14.2503421,4.58717667 L14.2533422,4.50017331 L14.2533422,3.00011557 L18.7535155,3.00011557 C19.5819746,3.00011557 20.2535733,2.32851682 20.2535733,1.50005778 C20.2535733,0.671598745 19.5819746,0 18.7535155,0 L6.75305333,0 L6.75305333,0 Z M14.4348492,21.0533108 L11.260727,17.8791886 L11.2532249,12.7519911 C11.2524228,12.2160721 11.5375893,11.7204336 12.0013069,11.4517779 C12.4650244,11.1831222 13.0368433,11.1822645 13.5013647,11.4495278 C13.9658861,11.7167912 14.2525383,12.2115719 14.2533422,12.747491 L14.2533422,16.6281404 L16.5574309,18.9307291 C17.1431514,19.5168639 17.1428156,20.4668403 16.5566809,21.0525608 C15.9705461,21.6382813 15.0205697,21.6379455 14.4348492,21.0518108 L14.4348492,21.0533108 Z" id="Shape"></path>
                </g>
            </g>
        </g>
    </g>
</svg>