<?xml version="1.0" encoding="UTF-8"?>
<svg width="48px" height="48px" viewBox="0 0 48 48" version="1.1" xmlns="http://www.w3.org/2000/svg" xmlns:xlink="http://www.w3.org/1999/xlink">
    <g id="Page-2" stroke="none" stroke-width="1" fill="none" fill-rule="evenodd">
        <g id="Icon" transform="translate(-940.000000, -892.000000)">
            <g id="In-progress" transform="translate(940.000000, 892.000000)">
                <rect id="Rectangle" x="0" y="0" width="48" height="48"></rect>
                <g id="Group" transform="translate(6.000000, 2.241997)">
                    <g transform="translate(0.000000, 6.004501)">
                        <path d="M18.5,2.13699064 C9.43940396,2.13699064 2.09433962,9.6316365 2.09433962,18.8767507 C2.09433962,28.1218649 9.43940396,35.6165107 18.5,35.6165107 C27.560596,35.6165107 34.9056604,28.1218649 34.9056604,18.8767507 C34.9056604,9.6316365 27.560596,2.13699064 18.5,2.13699064 Z" id="Oval" fill="#142B7D"></path>
                        <path d="M18.5,0 C8.28273213,0 0,8.45140915 0,18.8767507 C0,29.3020922 8.28273213,37.7535014 18.5,37.7535014 C28.7172679,37.7535014 37,29.3020922 37,18.8767507 C37,8.45140915 28.7172679,0 18.5,0 Z M18.5,4.27398129 C26.4039242,4.27398129 32.8113208,10.8118638 32.8113208,18.8767507 C32.8113208,26.9416375 26.4039242,33.4795201 18.5,33.4795201 C10.5960758,33.4795201 4.18867925,26.9416375 4.18867925,18.8767507 C4.18867925,10.8118638 10.5960758,4.27398129 18.5,4.27398129 Z" id="Oval" fill="#3677FF"></path>
                        <path d="M18.782739,13.2620608 L18.7541256,19.4964143 L18.7541256,19.4964143 L24.8003156,19.5253059 C25.6952893,19.5295825 26.4213365,20.251041 26.4312872,21.1459696 C26.4410826,22.0269307 25.7348633,22.7490315 24.8539022,22.7588269 C24.8479904,22.7588926 24.8420783,22.7589255 24.8361661,22.7589255 L17.0948961,22.7589255 C16.2850097,22.7589255 15.6284669,22.1023828 15.6284669,21.2924963 L15.6284669,13.2986769 C15.6284669,12.422642 16.3332546,11.7096482 17.2092307,11.6995075 C18.0682623,11.6895629 18.7727066,12.3778839 18.7826511,13.2369154 C18.7827482,13.2452968 18.7827774,13.2536789 18.782739,13.2620608 Z" id="Path" fill="#45BEFF"></path>
                    </g>
                    <path d="M18.0121123,5.68434189e-14 C19.3619231,5.68434189e-14 20.4561609,1.09423785 20.4561609,2.44404864 L20.4561609,7.25793815 C20.4561609,8.60774894 19.3619231,9.70198679 18.0121123,9.70198679 C16.6623015,9.70198679 15.5680637,8.60774894 15.5680637,7.25793815 L15.5680637,2.44404864 C15.5680637,1.09423785 16.6623015,5.68434189e-14 18.0121123,5.68434189e-14 Z" id="Path" fill="#3677FF" fill-rule="nonzero"></path>
                    <path d="M24.8948227,0.00475742757 C25.9993922,0.00475742757 26.8948227,0.900187928 26.8948227,2.00475743 C26.8948227,3.10932693 25.9993922,4.00475743 24.8948227,4.00475743 L11.460029,4.00475743 C10.3554595,4.00475743 9.46002897,3.10932693 9.46002897,2.00475743 C9.46002897,0.900187928 10.3554595,0.00475742757 11.460029,0.00475742757 L24.8948227,0.00475742757 Z" id="Path" fill="#3677FF" fill-rule="nonzero"></path>
                </g>
            </g>
        </g>
    </g>
</svg>