<?xml version="1.0" encoding="UTF-8"?>
<svg width="24px" height="24px" viewBox="0 0 24 24" version="1.1" xmlns="http://www.w3.org/2000/svg" xmlns:xlink="http://www.w3.org/1999/xlink">
    <g id="Page-1" stroke="none" stroke-width="1" fill="none" fill-rule="evenodd">
        <g id="Vote-History" transform="translate(-1142.000000, -376.000000)">
            <g transform="translate(340.000000, 226.000000)">
                <g id="Group" transform="translate(68.000000, 58.000000)">
                    <g transform="translate(0.000000, 73.000000)" id="Completion">
                        <g transform="translate(734.000000, 19.000000)">
                            <rect id="Rectangle" x="0" y="0" width="24" height="24"></rect>
                            <g id="Group" transform="translate(12.396423, 9.620033) rotate(-45.000000) translate(-12.396423, -9.620033) translate(5.255357, 5.400698)" fill="#79DFC4" fill-rule="nonzero">
                                <path d="M0.99785724,1.33495534e-12 C1.55014072,-0.00118109558 1.99881431,0.445573758 2,0.99785724 L2.01357163,7.33136174 C2.01475272,7.88364522 1.56799787,8.33231881 1.01571439,8.3335046 C0.463430907,8.33468569 0.0147573156,7.88793084 0.0135738743,7.33564736 L3.43000884e-13,1.00214286 C-0.00118109558,0.449859378 0.445573758,0.00118578709 0.99785724,1.33495534e-12 Z" id="Path"></path>
                                <path d="M13.282133,6.43866991 C13.8344178,6.43866991 14.282133,6.88638516 14.282133,7.43866991 C14.282133,7.99095466 13.8344178,8.43866991 13.282133,8.43866991 L1.00000005,8.43866991 C0.4477153,8.43866991 4.99368236e-08,7.99095466 4.99368236e-08,7.43866991 C4.99368236e-08,6.88638516 0.4477153,6.43866991 1.00000005,6.43866991 L13.282133,6.43866991 Z" id="Path"></path>
                            </g>
                        </g>
                    </g>
                </g>
            </g>
        </g>
    </g>
</svg>