<?xml version="1.0" encoding="UTF-8"?>
<svg width="32px" height="32px" viewBox="0 0 32 32" version="1.1" xmlns="http://www.w3.org/2000/svg" xmlns:xlink="http://www.w3.org/1999/xlink">
    <title>icon/Portfolio</title>
    <g id="第五期UI优化" stroke="none" stroke-width="1" fill="none" fill-rule="evenodd">
        <g id="v5-Venture-Management-info" transform="translate(-300.000000, -415.000000)">
            <g id="Navigation/home" transform="translate(270.000000, 326.000000)">
                <g id="icon/Portfolio" transform="translate(30.000000, 89.000000)">
                    <rect id="矩形备份-10" x="0" y="0" width="32" height="32" rx="7"></rect>
                    <path d="M15.5442766,8.26922793 L14.3802084,8.26922793 C13.1144267,8.26922793 11.8857986,8.51699316 10.7286853,9.00573445 C9.61156973,9.47746416 8.60847452,10.1525586 7.74750407,11.0123023 C6.88630093,11.8720461 6.2101418,12.8734585 5.7376681,13.9888151 C5.24825941,15.1441837 5,16.3707738 5,17.6345623 C5,18.8983508 5.24815599,20.1250443 5.7376681,21.2804129 C6.2101418,22.395692 6.88630093,23.3971818 7.74740065,24.2569256 C8.60847452,25.1166694 9.61146631,25.7917638 10.7285819,26.2634935 C11.8857986,26.7522348 13.1143233,27 14.3802084,27 C15.6459901,27 16.8745923,26.7522348 18.031809,26.2634935 C19.1489246,25.7917638 20.1519164,25.1166694 21.0131195,24.2569256 C21.8741934,23.3971818 22.5503784,22.3957952 23.0228262,21.2804129 C23.5123642,20.1250443 23.7604943,18.8984541 23.7604943,17.6345623 L23.7604943,16.4723271 L15.5442766,16.4723271 L15.5442766,8.26922793 Z M21.3362032,18.7969008 C20.7798043,22.1282563 17.8723356,24.6754005 14.3802084,24.6754005 C10.4917504,24.6754005 7.32836918,21.5168973 7.32836918,17.6345623 C7.32836918,14.1480374 9.87953062,11.2452244 13.2160109,10.6897274 L13.2160109,18.7969008 L21.3362032,18.7969008 Z M24.4286458,7.56720188 C23.6227982,6.76262317 22.6840301,6.13079346 21.6385069,5.68931806 C20.5554423,5.23191527 19.4055943,5 18.2209196,5 L17.0568255,5 L17.0568255,14.9272849 L27,14.9272849 L27,13.7650497 C27,12.5823438 26.7676931,11.4343064 26.3095948,10.3530247 C25.8673197,9.30907039 25.234571,8.37188385 24.4286458,7.56720188 Z M19.3850913,12.6027112 L19.3850913,7.42966353 C22.0107926,7.90934402 24.0860675,9.98124779 24.5665045,12.6028145 L19.3850913,12.6028145 L19.3850913,12.6027112 Z" id="Fill-1" fill="#63678A"></path>
                </g>
            </g>
        </g>
    </g>
</svg>