<?xml version="1.0" encoding="UTF-8"?>
<svg width="51px" height="46px" viewBox="0 0 51 46" version="1.1" xmlns="http://www.w3.org/2000/svg" xmlns:xlink="http://www.w3.org/1999/xlink">
    <title>Start Redemption</title>
    <defs>
        <polygon id="path-1" points="0 0 51 0 51 46 0 46"></polygon>
    </defs>
    <g id="第五期UI优化" stroke="none" stroke-width="1" fill="none" fill-rule="evenodd">
        <g id="v5-Venture-Management" transform="translate(-1255.000000, -612.000000)">
            <g id="Group-21" transform="translate(1225.183066, 578.000000)">
                <g id="Start-Redemption" transform="translate(29.816934, 34.000000)">
                    <mask id="mask-2" fill="white">
                        <use xlink:href="#path-1"></use>
                    </mask>
                    <g id="Clip-2"></g>
                    <path d="M33.8986845,25.038319 C34.0337718,24.7692449 34.0337718,24.3653973 33.8986845,23.9616022 C33.7638607,23.8268285 33.7638607,23.6923178 33.6289842,23.5575442 L24.4536923,14.4037688 C23.9140808,13.8654104 23.1045055,13.8654104 22.5646833,14.4037688 C22.0250718,14.9421272 22.0250718,15.7500329 22.5646833,16.2883913 L29.4462313,23.1536965 L4.34939755,23.1536965 C3.53961144,23.1536965 3,23.6923178 3,24.4999606 C3,25.1730926 3.53961144,25.8462246 4.34939755,25.8462246 L29.4462313,25.8462246 L22.5646833,32.7115299 C22.0250718,33.2498883 22.0250718,34.0577939 22.5646833,34.5961523 C22.8345944,34.8654367 23.239382,35 23.5092932,35 C23.7789935,35 24.1839919,34.8654367 24.4536923,34.5961523 L33.6289842,25.442377 C33.7638607,25.3076033 33.8986845,25.1730926 33.8986845,25.038319 Z" id="Fill-1" stroke="#63678A" stroke-width="1.8" fill="#63678A" mask="url(#mask-2)"></path>
                    <path d="M38.8012751,44 L12.4661334,44 C8.393697,44 5.13564183,40.7999479 5.13564183,36.8001042 L5.13564183,32.8000521 C5.13564183,32.1333333 5.6787394,31.4666146 6.49322668,31.4666146 C7.30766093,31.4666146 7.85075851,32.0001042 7.85075851,32.8000521 L7.85075851,36.8001042 C7.85075851,39.3332292 9.88692368,41.3333854 12.4661334,41.3333854 L38.8012751,41.3333854 C41.3805379,41.3333854 43.41665,39.3332292 43.41665,36.8001042 L43.41665,11.1998958 C43.41665,8.66677083 41.3805379,6.66661458 38.8012751,6.66661458 L12.4661334,6.66661458 C9.88692368,6.66661458 7.71490457,8.66677083 7.71490457,11.1998958 L7.71490457,15.4666667 C7.71490457,16.1333854 7.17196608,16.8001042 6.35753183,16.8001042 C5.54309757,16.8001042 5,16.2666667 5,15.4666667 L5,11.1998958 C5,7.20005208 8.25800215,4 12.3304916,4 L38.6653682,4 C42.7378576,4 45.9959128,7.20005208 45.9959128,11.1998958 L45.9959128,36.9333333 C46.1315546,40.7999479 42.8737646,44 38.8012751,44 Z" id="Fill-3" stroke="#63678A" stroke-width="2" fill="#63678A" mask="url(#mask-2)"></path>
                </g>
            </g>
        </g>
    </g>
</svg>