<?xml version="1.0" encoding="UTF-8"?>
<svg width="48px" height="48px" viewBox="0 0 48 48" version="1.1" xmlns="http://www.w3.org/2000/svg" xmlns:xlink="http://www.w3.org/1999/xlink">
    <title>Refresh</title>
    <g id="Page-2" stroke="none" stroke-width="1" fill="none" fill-rule="evenodd">
        <g id="Icon" transform="translate(-1580.000000, -506.000000)">
            <g id="Refresh" transform="translate(1580.000000, 506.000000)">
                <rect id="Rectangle" x="0" y="0" width="48" height="48"></rect>
                <g id="Group" transform="translate(11.152955, 9.138281)" fill="#FFFFFF" fill-rule="nonzero">
                    <path d="M13.9824581,0.585786438 C14.7635067,1.36683502 14.7635067,2.63316498 13.9824581,3.41421356 L13.3577803,4.03931315 C20.2162508,4.30744827 25.6940909,9.95221118 25.6940909,16.8763922 C25.6940909,23.9716195 19.9422727,29.7234376 12.8470454,29.7234376 C5.75181816,29.7234376 0,23.9716195 0,16.8763922 C0,15.7718227 0.8954305,14.8763922 2,14.8763922 C3.1045695,14.8763922 4,15.7718227 4,16.8763922 C4,21.7624805 7.96095716,25.7234376 12.8470454,25.7234376 C17.7331337,25.7234376 21.6940909,21.7624805 21.6940909,16.8763922 C21.6940909,12.1358355 17.9655731,8.26612081 13.2810978,8.03980831 L13.9824581,8.74300481 C14.7280045,9.48855118 14.761893,10.6762651 14.0841236,11.4620085 L13.9824581,11.5714319 C13.2014096,12.3524805 11.9350796,12.3524805 11.154031,11.5714319 L7.07542183,7.49282275 C6.29437325,6.71177416 6.29437325,5.44544421 7.07542183,4.66439562 L11.154031,0.585786438 C11.9350796,-0.195262146 13.2014096,-0.195262146 13.9824581,0.585786438 Z" id="Combined-Shape"></path>
                </g>
            </g>
        </g>
    </g>
</svg>