<?xml version="1.0" encoding="UTF-8"?>
<svg width="64px" height="64px" viewBox="0 0 64 64" version="1.1" xmlns="http://www.w3.org/2000/svg" xmlns:xlink="http://www.w3.org/1999/xlink">
    <title>Group 4</title>
    <g id="Page-1" stroke="none" stroke-width="1" fill="none" fill-rule="evenodd">
        <g id="Wallet-Connect-Copy-4" transform="translate(-962.000000, -457.000000)">
            <g id="Group-7" transform="translate(798.500000, 417.000000)">
                <g id="Group-4" transform="translate(163.500000, 40.000000)">
                    <rect id="Rectangle" fill="#326CFF" opacity="0.280000001" transform="translate(32.000000, 32.000000) rotate(-360.000000) translate(-32.000000, -32.000000) " x="0" y="0" width="64" height="64" rx="10"></rect>
                    <g id="Group" transform="translate(6.156923, 2.698007)">
                        <path d="M16.2864919,31.7525458 C17.3910451,31.7585781 18.2815967,32.6588611 18.2755946,33.7634143 L18.2563222,37.2503174 C18.3304935,43.1451747 21.4268873,48.4592334 26.3622277,51.4435781 C27.1930612,51.9459738 28.0665828,52.3756231 28.9738584,52.7271477 C30.0038219,53.1262078 30.5152702,54.2846603 30.1162101,55.3146238 C29.71715,56.3445873 28.5586974,56.8560356 27.5287339,56.4569754 C26.404265,56.0212991 25.3217775,55.4888682 24.2924561,54.8664491 C18.1843008,51.1729164 14.3483515,44.5896259 14.25651,37.2646123 L14.2756536,33.7416786 C14.2816558,32.6371254 15.1819387,31.7465738 16.2864919,31.7525458 Z" id="Path" fill="#45BEFF" fill-rule="nonzero" transform="translate(22.254172, 44.172573) rotate(-45.000000) translate(-22.254172, -44.172573) "></path>
                        <ellipse id="Oval" fill="#45BEFF" cx="45.2131296" cy="28.1591502" rx="2.6299476" ry="2.65868604"></ellipse>
                        <ellipse id="Oval" fill="#45BEFF" cx="44.1611506" cy="35.6034711" rx="2.6299476" ry="2.65868604"></ellipse>
                        <ellipse id="Oval" fill="#45BEFF" cx="40.479224" cy="42.5160548" rx="2.6299476" ry="2.65868604"></ellipse>
                        <path d="M18.8820059,9.78028484 C30.5099931,9.71709836 39.8916238,19.0986307 39.8290686,30.7266913 C39.8227824,31.8312446 38.9225238,32.7218208 37.8179704,32.7158787 C36.7134171,32.7098768 35.8228409,31.8096182 35.8288129,30.7050648 C35.8796467,21.3030487 28.3056544,13.7291358 18.9037416,13.7802258 C13.9860889,13.8069483 9.39543789,15.9239597 6.15631617,19.5389015 C5.41920107,20.3615406 4.15477045,20.4308715 3.33213134,19.6937564 C2.50949223,18.9566413 2.44016133,17.6922107 3.17727644,16.8695716 C7.16129197,12.4233095 12.8211633,9.81321946 18.8820059,9.78028484 Z" id="Path" fill="#45BEFF" fill-rule="nonzero" transform="translate(21.247923, 21.247923) rotate(-45.000000) translate(-21.247923, -21.247923) "></path>
                        <polyline id="Path" stroke="#45BEFF" stroke-width="4" stroke-linecap="round" stroke-linejoin="round" transform="translate(38.130962, 14.870305) rotate(-90.000000) translate(-38.130962, -14.870305) " points="42.3848592 19.0782208 33.8770639 19.0782208 33.8770639 10.6623885"></polyline>
                        <polyline id="Path" stroke="#45BEFF" stroke-width="4" stroke-linecap="round" stroke-linejoin="round" transform="translate(14.019276, 44.638419) scale(1, -1) translate(-14.019276, -44.638419) " points="18.2271918 48.8923167 9.81135944 48.8923167 9.81135944 40.3845214"></polyline>
                    </g>
                </g>
            </g>
        </g>
    </g>
</svg>