<?xml version="1.0" encoding="UTF-8"?>
<svg width="24px" height="24px" viewBox="0 0 24 24" version="1.1" xmlns="http://www.w3.org/2000/svg" xmlns:xlink="http://www.w3.org/1999/xlink">
    <g id="Page-1" stroke="none" stroke-width="1" fill="none" fill-rule="evenodd">
        <g id="Vote-History" transform="translate(-1142.000000, -438.000000)">
            <g transform="translate(340.000000, 226.000000)">
                <g id="Group" transform="translate(68.000000, 58.000000)">
                    <g transform="translate(0.000000, 73.000000)" id="编组-4备份-2">
                        <g transform="translate(734.000000, 81.000000)" id="Close">
                            <rect id="Rectangle" x="0" y="0" width="24" height="24"></rect>
                            <g id="Group" transform="translate(12.198726, 12.198726) rotate(-45.000000) translate(-12.198726, -12.198726) translate(5.057659, 5.057659)" fill="#FFA4D1" fill-rule="nonzero">
                                <path d="M7.18729045,8.69071298e-13 C7.7395752,8.69071298e-13 8.18729045,0.44771525 8.18729045,1 L8.18729045,13.282133 C8.18729045,13.8344177 7.7395752,14.282133 7.18729045,14.282133 C6.6350057,14.282133 6.18729045,13.8344177 6.18729045,13.282133 L6.18729045,1 C6.18729045,0.44771525 6.6350057,8.69071298e-13 7.18729045,8.69071298e-13 Z" id="Path"></path>
                                <path d="M13.282133,5.86002604 C13.8344177,5.86002604 14.282133,6.30774129 14.282133,6.86002604 C14.282133,7.41231079 13.8344177,7.86002604 13.282133,7.86002604 L1,7.86002604 C0.44771525,7.86002604 -1.13761204e-13,7.41231079 -1.13761204e-13,6.86002604 C-1.13761204e-13,6.30774129 0.44771525,5.86002604 1,5.86002604 L13.282133,5.86002604 Z" id="Path"></path>
                            </g>
                        </g>
                    </g>
                </g>
            </g>
        </g>
    </g>
</svg>