<?xml version="1.0" encoding="UTF-8"?>
<svg width="24px" height="24px" viewBox="0 0 24 24" version="1.1" xmlns="http://www.w3.org/2000/svg" xmlns:xlink="http://www.w3.org/1999/xlink">
    <g id="Page-2" stroke="none" stroke-width="1" fill="none" fill-rule="evenodd">
        <g id="Icon-Copy" transform="translate(-478.000000, -169.000000)">
            <g id="*" transform="translate(478.000000, 169.000000)">
                <rect id="Rectangle" x="0" y="0" width="24" height="24"></rect>
                <g transform="translate(7.000000, 7.000000)" fill="#FFA4D1" fill-rule="nonzero" id="Path">
                    <path d="M2.50906511,9.89684075 L1.52530348,9.12314636 C1.38183825,9.0156888 1.29985811,8.85987535 1.27936308,8.655706 C1.25886804,8.45153664 1.28961059,8.28497743 1.37159073,8.15602837 C1.37159073,8.13453686 1.43307583,8.05931657 1.55604603,7.9303675 L3.8924799,5.60928433 L0.695254611,5.19019987 C0.613274476,5.16870836 0.556913133,5.15258973 0.526170582,5.14184397 C0.495428031,5.13109822 0.469809239,5.12572534 0.449314205,5.12572534 C0.305848967,5.08274232 0.188002522,4.96991188 0.0957748699,4.78723404 C0.00354721741,4.6045562 -0.022071575,4.41650548 0.0189184928,4.22308188 L0.418571654,2.99806576 C0.459561722,2.82613368 0.572284408,2.69718461 0.756739713,2.61121857 C0.941195018,2.52525253 1.10515529,2.50376101 1.24862053,2.54674404 C1.26911556,2.54674404 1.3510957,2.58972706 1.49456093,2.6756931 L4.32287561,4.28755642 L3.73876714,0.967117988 C3.71827211,0.881151945 3.70802459,0.82205029 3.70802459,0.789813024 C3.70802459,0.757575758 3.70802459,0.730711369 3.70802459,0.709219858 C3.70802459,0.537287771 3.77463345,0.37610144 3.90785117,0.225660864 C4.04106889,0.075220288 4.19990541,0 4.38436071,0 L5.61406275,0 C5.79851805,0 5.95735456,0.075220288 6.09057228,0.225660864 C6.22379,0.37610144 6.29039886,0.537287771 6.29039886,0.709219858 C6.29039886,0.730711369 6.29039886,0.757575758 6.29039886,0.789813024 C6.29039886,0.82205029 6.28015135,0.881151945 6.25965631,0.967117988 L5.6448053,4.31979368 L8.50386253,2.6756931 C8.64732776,2.58972706 8.7293079,2.54674404 8.74980293,2.54674404 C8.9137632,2.50376101 9.08284723,2.52525253 9.25705502,2.61121857 C9.43126281,2.69718461 9.53886174,2.82613368 9.57985181,2.99806576 L9.97950497,4.22308188 C10.020495,4.41650548 10,4.6045562 9.91801986,4.78723404 C9.83603973,4.96991188 9.71306953,5.08274232 9.54910925,5.12572534 C9.52861422,5.12572534 9.50299543,5.13109822 9.47225288,5.14184397 C9.44151033,5.15258973 9.38514898,5.16870836 9.30316885,5.19019987 L6.07520101,5.6415216 L8.44237742,7.9303675 C8.56534763,8.05931657 8.62683273,8.13453686 8.62683273,8.15602837 C8.7293079,8.28497743 8.77029797,8.45153664 8.74980293,8.655706 C8.7293079,8.85987535 8.63708025,9.0156888 8.47311997,9.12314636 L7.48935835,9.89684075 C7.32539808,9.98280679 7.15119029,10.0150441 6.96673498,9.99355255 C6.78227968,9.97206104 6.63881444,9.88609499 6.53633927,9.73565442 C6.53633927,9.71416291 6.52609175,9.69267139 6.50559672,9.67117988 C6.48510169,9.64968837 6.45435914,9.5959596 6.41336907,9.50999355 L4.99921173,6.41521599 L3.58505439,9.50999355 C3.56455936,9.5959596 3.53894056,9.64968837 3.50819801,9.67117988 C3.47745546,9.69267139 3.46208419,9.71416291 3.46208419,9.73565442 C3.38010405,9.88609499 3.24176257,9.97206104 3.04705975,9.99355255 C2.85235693,10.0150441 2.67302538,9.98280679 2.50906511,9.89684075 Z"></path>
                </g>
            </g>
        </g>
    </g>
</svg>