<?xml version="1.0" encoding="UTF-8"?>
<svg width="9px" height="5px" viewBox="0 0 9 5" version="1.1" xmlns="http://www.w3.org/2000/svg" xmlns:xlink="http://www.w3.org/1999/xlink">
    <g id="Page-1" stroke="none" stroke-width="1" fill="none" fill-rule="evenodd">
        <g id="AAV-E-Copy-3" transform="translate(-503.000000, -502.000000)" fill="#FFFFFF" fill-rule="nonzero">
            <g transform="translate(146.000000, 178.000000)">
                <g transform="translate(21.000000, 241.000000)">
                    <g transform="translate(19.000000, 15.000000)">
                        <g id="Group" transform="translate(317.000000, 68.000000)">
                            <path d="M7.55555556,3 L0.444444444,3 C0.199111111,3 0,2.776 0,2.5 C0,2.224 0.199111111,2 0.444444444,2 L7.55555556,2 C7.80088889,2 8,2.224 8,2.5 C8,2.776 7.80088889,3 7.55555556,3 Z" id="Path"></path>
                            <path d="M8.17900048,2.85871045 L6.14055742,0.820104125 C5.95314753,0.632679215 5.95314753,0.327993592 6.14055742,0.140568682 C6.32796732,-0.0468562275 6.63262854,-0.0468562275 6.82003844,0.140568682 L8.85944258,2.17917501 C9.04685247,2.36659992 9.04685247,2.67128554 8.85944258,2.85871045 C8.6710716,3.04709652 8.36737146,3.04709652 8.17900048,2.85871045 Z" id="Path"></path>
                            <path d="M6.14060247,4.17969877 L8.17969877,2.14060247 C8.36716872,1.95313251 8.67192758,1.95313251 8.85939753,2.14060247 C9.04686749,2.32807242 9.04686749,2.63283128 8.85939753,2.82030123 L6.82030123,4.85939753 C6.63283128,5.04686749 6.32807242,5.04686749 6.14060247,4.85939753 C5.95313251,4.67192758 5.95313251,4.36716872 6.14060247,4.17969877 Z" id="Path"></path>
                        </g>
                    </g>
                </g>
            </g>
        </g>
    </g>
</svg>