<?xml version="1.0" encoding="UTF-8"?>
<svg width="64px" height="64px" viewBox="0 0 64 64" version="1.1" xmlns="http://www.w3.org/2000/svg" xmlns:xlink="http://www.w3.org/1999/xlink">
    <title>Group 5</title>
    <g id="Page-1" stroke="none" stroke-width="1" fill="none" fill-rule="evenodd">
        <g id="Wallet-Connect-Copy-4" transform="translate(-1318.000000, -457.000000)">
            <g id="Group-6" transform="translate(779.000000, 417.000000)">
                <g id="Group-5" transform="translate(539.000000, 40.000000)">
                    <rect id="Rectangle" fill="#326CFF" opacity="0.280000001" x="0" y="0" width="64" height="64" rx="10"></rect>
                    <g id="Group" transform="translate(10.000000, 14.000000)" fill="#45BEFF">
                        <path d="M38.992226,33.5 C40.0967955,33.5 40.992226,34.3954305 40.992226,35.5 C40.992226,36.6045695 40.0967955,37.5 38.992226,37.5 L3.00000011,37.5 C1.89543061,37.5 1.00000011,36.6045695 1.00000011,35.5 C1.00000011,34.3954305 1.89543061,33.5 3.00000011,33.5 L38.992226,33.5 Z" id="Path" fill-rule="nonzero"></path>
                        <path d="M37.5822832,2.08991557 C38.3610513,1.30659317 39.6273759,1.3029012 40.4106983,2.08166932 C41.1940207,2.86043745 41.1977127,4.12676202 40.4189445,4.91008443 L25.5061554,19.9100844 C24.7407695,20.6799463 23.5009882,20.6986645 22.7127097,19.9522599 L15.3620001,12.992 L3.42001004,25.0331313 C2.68311451,25.7761048 1.50780022,25.8198765 0.719300303,25.1610572 L0.591606766,25.0447479 C-0.192643063,24.2669137 -0.197843987,23.0005944 0.579990176,22.2163446 L13.8984276,8.78805514 C14.6635478,8.01662422 15.9046015,7.99714717 16.6935525,8.74418854 L24.0450001,15.705 L37.5822832,2.08991557 Z" id="Path" fill-rule="nonzero"></path>
                        <path d="M31.416524,0 L41.0000001,0 C41.5522849,-1.01453063e-16 42.0000001,0.44771525 42.0000001,1 L42.0000001,10.5854371 C42.0000001,11.1377219 41.5522849,11.5854371 41.0000001,11.5854371 C40.7347482,11.5854371 40.4803632,11.4800522 40.292821,11.2924716 L30.7093449,1.70703444 C30.3188605,1.3164702 30.3189253,0.683305223 30.7094895,0.292820885 C30.89702,0.105328756 31.1513429,4.87129669e-17 31.416524,0 Z" id="Rectangle"></path>
                    </g>
                </g>
            </g>
        </g>
    </g>
</svg>