<?xml version="1.0" encoding="UTF-8"?>
<svg width="16px" height="17px" viewBox="0 0 16 17" version="1.1" xmlns="http://www.w3.org/2000/svg" xmlns:xlink="http://www.w3.org/1999/xlink">
    <g id="Page-1" stroke="none" stroke-width="1" fill="none" fill-rule="evenodd">
        <g transform="translate(-224.000000, -588.000000)" fill="#FFFFFF" fill-rule="nonzero">
            <g transform="translate(205.000000, 403.500000)">
                <g transform="translate(0.000000, 170.000000)">
                    <g transform="translate(19.000000, 15.000000)">
                        <path d="M2.94727711,2.94727711 L13.0525301,2.94727711 L13.0525301,13.0525301 L2.94727711,13.0525301 L2.94727711,2.94727711 Z M4,4 L4,12 L12,12 L12,4 L4,4 Z" id="Shape"></path>
                        <path d="M1,0 L6.57898795,0 C7.1312727,-1.01453063e-16 7.57898795,0.44771525 7.57898795,1 L7.57898795,6.57898795 C7.57898795,7.1312727 7.1312727,7.57898795 6.57898795,7.57898795 L1,7.57898795 C0.44771525,7.57898795 2.8967998e-16,7.1312727 0,6.57898795 L0,1 C-6.76353751e-17,0.44771525 0.44771525,3.23497668e-16 1,0 Z" id="Path"></path>
                        <path d="M9.42101205,8.42101205 L15,8.42101205 C15.5522847,8.42101205 16,8.8687273 16,9.42101205 L16,15 C16,15.5522847 15.5522847,16 15,16 L9.42101205,16 C8.8687273,16 8.42101205,15.5522847 8.42101205,15 L8.42101205,9.42101205 C8.42101205,8.8687273 8.8687273,8.42101205 9.42101205,8.42101205 Z" id="Path"></path>
                    </g>
                </g>
            </g>
        </g>
    </g>
</svg>