<?xml version="1.0" encoding="UTF-8"?>
<svg width="24px" height="24px" viewBox="0 0 24 24" version="1.1" xmlns="http://www.w3.org/2000/svg" xmlns:xlink="http://www.w3.org/1999/xlink">
    <title>形状</title>
    <g id="第五期UI优化" stroke="none" stroke-width="1" fill="none" fill-rule="evenodd">
        <g id="home-copy" transform="translate(-1324.000000, -390.000000)" fill="#FFFFFF" fill-rule="nonzero">
            <g id="Group-38" transform="translate(245.000000, 92.000000)">
                <g id="编组-3-copy-2" transform="translate(295.000000, 282.000000)">
                    <path d="M786.769962,27.1869097 C786.730665,24.2191201 788.27765,21.4558048 790.828182,19.9378778 C793.378715,18.4199508 796.545308,18.3780215 799.135137,19.8278841 C801.724967,21.2777467 803.344575,23.9991328 803.383872,26.9669223 C803.44462,31.5547275 799.774715,35.3231241 795.186911,35.383872 C790.599106,35.4446198 786.83071,31.7747148 786.769962,27.1869097 L786.769962,27.1869097 Z M803.490397,33.7882224 C805.303187,31.5207798 806.141573,28.6249105 805.820944,25.7382804 C805.500315,22.8516502 804.046963,20.2109675 801.780914,18.3977063 C797.063359,14.6218138 790.182057,15.3889464 786.40954,20.1113184 C782.912668,24.4701798 783.258028,30.7668963 787.210582,34.7161555 C791.163136,38.6654147 797.452725,38.9981171 801.798887,35.4878377 L805.952773,39.6468962 C806.411889,40.1084402 807.15496,40.1188391 807.626781,39.670323 C808.098601,39.2218069 808.126759,38.4782718 807.690215,37.9952701 L807.64628,37.9512801 L803.490397,33.7882224 Z" id="形状"></path>
                </g>
            </g>
        </g>
    </g>
</svg>