<?xml version="1.0" encoding="UTF-8"?>
<svg width="48px" height="48px" viewBox="0 0 48 48" version="1.1" xmlns="http://www.w3.org/2000/svg" xmlns:xlink="http://www.w3.org/1999/xlink">
    <g id="Page1" stroke="none" stroke-width="1" fill="none" fill-rule="evenodd">
        <g id="Icon" transform="translate(-1324.000000, -250.000000)">
            <g id="icon-setting" transform="translate(1324.000000, 250.000000)">
                <rect id="Rectangle" x="0" y="0" width="48" height="48"></rect>
                <g id="Group" transform="translate(10.000000, 12.000000)" fill-rule="nonzero" stroke="#FFFFFF" stroke-width="3">
                    <path d="M20.7784211,0 C20.9223889,0.000367934311 21.0547048,0.0742491993 21.1236221,0.192750012 L27.9500434,11.81775 C28.0166522,11.9313597 28.0166522,12.0690153 27.9500434,12.182625 L21.1236221,23.807625 C21.0545994,23.9259809 20.9223039,23.9997071 20.7784211,24 L7.22157889,24 C7.07769605,23.9997071 6.94540055,23.9259809 6.87637783,23.807625 L0.049956604,12.182625 C-0.0166522013,12.0690153 -0.0166522013,11.9313597 0.049956604,11.81775 L6.87637783,0.192750012 C6.94529519,0.0742491993 7.07761109,0.000367934311 7.22157889,0 Z M14,7 C11.2385001,7 9,9.23850001 9,12 C9,14.7615 11.2385,17 14,17 C16.7615,17 19,14.7615 19,12 C19,9.23850001 16.7615,7 14,7 Z" id="Shape"></path>
                </g>
            </g>
        </g>
    </g>
</svg>