<?xml version="1.0" encoding="UTF-8"?>
<svg width="138px" height="38px" viewBox="0 0 138 38" version="1.1" xmlns="http://www.w3.org/2000/svg" xmlns:xlink="http://www.w3.org/1999/xlink">
    <title>SevenX-Ventures</title>
    <g id="Page-2" stroke="none" stroke-width="1" fill="none" fill-rule="evenodd">
        <g id="Icon" transform="translate(-115.000000, -594.000000)">
            <g id="SevenX-Ventures" transform="translate(115.000000, 594.000000)">
                <path d="M10.0072115,34.0132062 C9.95192308,33.9295671 9.89663462,33.8738078 9.84134615,33.7901687 C9.73076923,33.5671313 9.56490385,33.3719736 9.39903846,33.1768158 C9.17788462,32.8701394 8.984375,32.5077036 8.79086538,32.1731475 C8.68028846,32.0058694 8.56971154,31.8107117 8.43149038,31.6434336 C7.07692308,31.6434336 5.72235577,31.6434336 4.39543269,31.6434336 C3.06850962,31.6434336 1.76923077,31.6434336 0.442307692,31.6434336 C0.331730769,31.6434336 0.193509615,31.699193 0.110576923,31.5597946 C0.0829326923,31.5597946 0.0552884615,31.5597946 0,31.5597946 C0,31.6155539 0,31.6434336 0,31.699193 C0.0829326923,31.782832 0.165865385,31.8385913 0.221153846,31.9222304 C0.691105769,32.5913426 1.13341346,33.2883346 1.60336538,33.9574468 C1.60336538,33.9853265 1.63100962,33.9853265 1.65865385,34.0132062 C1.71394231,34.1247249 1.76923077,34.2362436 1.85216346,34.3477623 C2.57091346,35.4350697 3.31730769,36.5502568 4.03605769,37.6375642 C4.09134615,37.7212032 4.11899038,37.8327219 4.17427885,37.916361 C6.99399038,37.916361 9.81370192,37.916361 12.6057692,37.916361 C11.7764423,36.6617755 10.8918269,35.323551 10.0072115,34.0132062 Z" id="Path" fill="#C0C0BF" fill-rule="nonzero"></path>
                <path d="M51.9987981,9.64636831 L51.7223558,9.64636831 C51.2800481,9.64636831 51.03125,9.8972854 50.9759615,10.3154806 C50.9483173,10.5663977 50.9483173,10.8173147 50.9759615,11.0682318 C51.0036058,11.4306676 51.2524038,11.6815847 51.6117788,11.7094644 C51.7223558,11.7094644 51.8052885,11.7094644 51.9158654,11.7094644 L51.9711538,11.7094644 C53.3533654,11.7094644 54.7355769,11.7094644 56.1177885,11.7094644 L56.1177885,11.7094644 L56.1177885,11.7094644 C57.5,11.7094644 58.8822115,11.7094644 60.2644231,11.7094644 C60.4026442,11.7094644 60.5685096,11.7094644 60.734375,11.7373441 C61.453125,11.8488628 61.9783654,12.434336 61.9783654,13.1870873 C61.9783654,13.5216434 61.9783654,13.8840792 61.9783654,14.2186354 L61.9783654,14.2186354 C61.9783654,14.3859134 61.9783654,14.5531915 61.9783654,14.7483492 C61.9783654,15.4732208 61.9783654,16.2259721 61.9783654,16.9508437 C61.9783654,18.4284666 61.9783654,19.9060895 61.9783654,21.3837124 C61.9783654,21.8019076 61.8677885,22.192223 61.5637019,22.4988995 C61.2872596,22.7776963 60.9831731,22.9170946 60.5961538,22.9170946 C60.4579327,22.9170946 60.3197115,22.9170946 60.2091346,22.9170946 C60.1538462,22.9170946 60.0709135,22.9170946 60.015625,22.9170946 L48.515625,22.9170946 L48.1009615,22.9170946 L48.1009615,19.9897285 C48.15625,19.9897285 48.2115385,19.9897285 48.2391827,19.9897285 L48.2391827,19.9897285 L48.2391827,19.9897285 L48.2391827,19.9897285 L48.2391827,19.9897285 C48.3221154,19.9897285 48.4050481,19.9897285 48.4879808,19.9897285 L58.0252404,19.9897285 L58.1081731,19.9897285 L58.1081731,19.9897285 C58.21875,19.9897285 58.3016827,19.9897285 58.3846154,19.9897285 C58.7716346,19.9618489 59.0204327,19.7109318 59.0480769,19.348496 C59.0480769,19.2369773 59.0480769,19.1533382 59.0480769,19.0418195 C59.0480769,18.651504 59.0480769,18.2890682 59.0480769,17.8987528 C59.0480769,17.1460015 59.0480769,16.3653705 59.0480769,15.6126192 C59.0480769,14.9156273 58.7992788,14.6647102 58.1081731,14.6647102 C55.2608173,14.6647102 52.4411058,14.6647102 49.59375,14.6647102 C49.1237981,14.6647102 48.7091346,14.4974321 48.4050481,14.1349963 C48.1838942,13.8840792 48.0733173,13.5774028 48.0733173,13.214967 C48.0733173,12.7131328 48.0733173,12.2391783 48.0733173,11.7373441 C48.0733173,10.5106383 48.0733173,9.2839325 48.0733173,8.02934703 C48.0733173,7.24871607 48.7091346,6.63536317 49.4831731,6.60748349 C49.5384615,6.60748349 49.59375,6.60748349 49.6490385,6.60748349 C49.6766827,6.60748349 49.7043269,6.60748349 49.7319712,6.60748349 L61.5913462,6.60748349 L61.9507212,6.60748349 C62.0060096,6.85840059 62.0336538,9.11665444 61.9783654,9.56272927 C61.8401442,9.56272927 61.7295673,9.56272927 61.5913462,9.56272927 L51.9987981,9.56272927 L51.9987981,9.64636831 Z M137.944712,6.83052091 C137.944712,6.83052091 137.917067,6.83052091 137.917067,6.85840059 C137.47476,7.52751284 137.004808,8.16874541 136.5625,8.83785767 L136.5625,8.83785767 L136.5625,8.83785767 L136.5625,8.83785767 L136.5625,8.83785767 L136.5625,8.83785767 L136.5625,8.83785767 C135.84375,9.8972854 135.125,10.9288335 134.40625,11.9882612 C134.157452,12.350697 134.129808,12.6573734 134.268029,13.0755686 C134.903846,14.7204696 135.512019,16.3653705 136.147837,18.0102715 C136.396635,18.6793837 136.673077,19.3763756 136.921875,20.0454879 L138,22.8613353 L138,23.056493 C137.972356,23.056493 137.917067,23.056493 137.889423,23.056493 C137.80649,23.056493 137.723558,23.0286134 137.640625,23.0286134 L135.31851,23.0286134 L134.986779,23.0286134 C134.820913,22.5825385 134.655048,22.1643434 134.489183,21.7461482 L134.489183,21.7461482 L134.489183,21.7461482 C133.715144,19.6830521 132.913462,17.619956 132.139423,15.5568599 C132.084135,15.4453412 132.028846,15.3059428 131.945913,15.1944241 C131.420673,14.5531915 130.397837,14.7204696 130.09375,15.5011005 C129.844952,16.1144534 129.623798,16.7278063 129.402644,17.3411592 L129.402644,17.3411592 C129.292067,17.619956 129.18149,17.8987528 129.098558,18.1775495 C128.822115,18.9303008 128.518029,19.6830521 128.241587,20.4358034 C127.965144,21.1885547 127.661058,21.9413059 127.384615,22.6940572 C127.356971,22.7776963 127.329327,22.8613353 127.274038,22.972854 L127.246394,23.056493 L124.205529,23.056493 L124.233173,23.0007337 C124.260817,22.9170946 124.288462,22.8334556 124.316106,22.7776963 C125.034856,20.9097579 125.725962,19.0696992 126.444712,17.2017608 L126.472356,17.1181218 C126.887019,16.0029347 127.329327,14.8877476 127.74399,13.7725605 C127.771635,13.6889215 127.799279,13.6052825 127.854567,13.5216434 L127.854567,13.5216434 L127.854567,13.5216434 L127.854567,13.5216434 L127.854567,13.5216434 C127.909856,13.382245 127.965144,13.214967 128.020433,13.0755686 C128.186298,12.7410125 128.103365,12.434336 127.909856,12.1555393 C127.135817,11.0403522 126.361779,9.92516508 125.58774,8.78209831 L125.58774,8.78209831 L125.58774,8.78209831 L125.58774,8.78209831 L125.58774,8.78209831 C125.200721,8.22450477 124.813702,7.66691123 124.426683,7.10931768 C124.371394,7.05355833 124.34375,6.9699193 124.260817,6.85840059 L124.260817,6.85840059 L124.260817,6.85840059 L124.205529,6.77476156 L124.509615,6.77476156 C124.730769,6.77476156 124.951923,6.77476156 125.173077,6.77476156 C125.78125,6.77476156 126.361779,6.77476156 126.969952,6.77476156 C127.191106,6.77476156 127.301683,6.85840059 127.41226,7.02567865 C127.909856,7.75055026 128.435096,8.50330154 128.932692,9.22817315 C129.430288,9.95304475 129.955529,10.705796 130.453125,11.4306676 C130.591346,11.6258254 130.729567,11.7652238 130.978365,11.8209831 C131.310096,11.8767425 131.558894,11.7652238 131.752404,11.486427 C132.084135,11.0124725 132.415865,10.5106383 132.747596,10.0366838 C132.913462,9.78576669 133.079327,9.56272927 133.245192,9.31181218 L134.737981,7.13719736 C134.765625,7.10931768 134.793269,7.05355833 134.820913,7.02567865 L134.820913,7.02567865 L134.820913,7.02567865 L134.820913,7.02567865 L134.820913,7.02567865 C134.876202,6.9699193 134.93149,6.88628026 134.986779,6.80264123 L137.972356,6.80264123 L137.944712,6.83052091 C137.972356,6.83052091 137.944712,6.83052091 137.944712,6.83052091 Z M107.508413,13.2428467 C107.480769,12.4622157 106.983173,11.9046222 106.236779,11.7931034 C106.098558,11.7652238 105.932692,11.7652238 105.766827,11.7652238 L95.3449519,11.7652238 C95.3173077,11.7652238 95.2896635,11.7652238 95.2620192,11.7652238 L95.2620192,11.7652238 C95.2067308,11.7652238 95.1514423,11.7652238 95.0961538,11.7652238 C94.2115385,11.8209831 93.6310096,12.434336 93.6310096,13.3264857 C93.6310096,14.4137931 93.6310096,15.5011005 93.6310096,16.5884079 L93.6310096,16.5884079 L93.6310096,16.5884079 L93.6310096,16.5884079 C93.6310096,18.2333089 93.6310096,19.8503302 93.6310096,21.4952311 C93.6310096,22.3316214 94.2944712,23.0286134 95.1237981,23.0007337 C97.0036058,23.0007337 98.8557692,23.0007337 100.735577,23.0007337 C101.426683,23.0007337 102.145433,23.0007337 102.836538,23.0007337 C102.891827,23.0007337 102.97476,23.0007337 103.030048,22.972854 C103.057692,22.972854 103.085337,22.972854 103.085337,22.972854 L103.085337,20.0454879 L102.698317,20.0454879 L97.3629808,20.0454879 C97.2247596,20.0454879 97.0865385,20.0454879 96.9759615,20.0176082 C96.671875,19.9339692 96.5612981,19.7388114 96.5612981,19.4042553 C96.5889423,19.0975789 96.7548077,18.9024211 97.0588942,18.8745415 C97.1418269,18.8745415 97.2247596,18.8745415 97.3076923,18.8745415 C97.3353365,18.8745415 97.3629808,18.8745415 97.390625,18.8745415 L97.390625,18.8745415 C100.210337,18.8745415 103.002404,18.8745415 105.822115,18.8745415 C105.987981,18.8745415 106.18149,18.8745415 106.347356,18.8187821 C107.010817,18.651504 107.453125,18.0939105 107.480769,17.3969186 C107.480769,16.7278063 107.480769,16.0586941 107.480769,15.3895818 C107.480769,15.110785 107.480769,14.8598679 107.480769,14.5810712 C107.480769,14.4416728 107.480769,14.3301541 107.480769,14.1907557 L107.480769,14.1907557 L107.480769,14.1907557 L107.480769,14.1907557 C107.508413,13.8561996 107.508413,13.5495231 107.508413,13.2428467 Z M104.080529,15.891416 C103.997596,15.9192957 103.914663,15.9192957 103.831731,15.9192957 L97.390625,15.9192957 C97.2800481,15.9192957 97.1418269,15.9192957 97.03125,15.891416 C96.7271635,15.807777 96.5889423,15.6126192 96.6165865,15.2780631 C96.6442308,14.9713866 96.8377404,14.7762289 97.1418269,14.7483492 C97.1971154,14.7483492 97.2800481,14.7483492 97.3353365,14.7483492 C97.3629808,14.7483492 97.390625,14.7483492 97.390625,14.7483492 L100.542067,14.7483492 L103.721154,14.7483492 L103.748798,14.7483492 L103.804087,14.7483492 C103.887019,14.7483492 103.942308,14.7483492 104.02524,14.7483492 C104.329327,14.7762289 104.522837,14.9992663 104.550481,15.3059428 C104.578125,15.5568599 104.384615,15.8356566 104.080529,15.891416 Z M77.2103365,14.8877476 C77.2103365,15.1665444 77.2103365,15.4174615 77.2103365,15.6962583 C77.2103365,15.9192957 77.2103365,16.1144534 77.2103365,16.3374908 C77.2103365,16.6441673 77.2103365,16.9787234 77.2103365,17.2853999 C77.2379808,18.2333089 76.4915865,18.8466618 75.6622596,18.8466618 C73.5889423,18.8466618 71.5432692,18.8466618 69.4699519,18.8466618 L69.4699519,18.8466618 L69.4699519,18.8466618 C68.6959135,18.8466618 67.921875,18.8466618 67.1478365,18.8466618 C67.1201923,18.8466618 67.0925481,18.8466618 67.0649038,18.8466618 C66.9819712,18.8466618 66.9266827,18.8466618 66.84375,18.8466618 C66.5120192,18.8745415 66.2908654,19.0975789 66.2632212,19.432135 C66.2355769,19.7388114 66.4567308,19.9897285 66.8161058,20.0454879 C66.8990385,20.0454879 66.9819712,20.0454879 67.0649038,20.0454879 C67.0925481,20.0454879 67.1201923,20.0454879 67.1478365,20.0454879 L72.4278846,20.0454879 L72.8149038,20.0454879 L72.8149038,22.9449743 C72.7872596,22.9449743 72.7596154,22.9449743 72.7319712,22.9449743 C72.6766827,22.9449743 72.6213942,22.972854 72.59375,22.972854 C71.6262019,22.972854 70.6586538,22.972854 69.6634615,22.972854 L69.6634615,22.972854 L69.6634615,22.972854 C68.0324519,22.972854 66.4290865,22.972854 64.7980769,22.972854 C63.9963942,22.972854 63.3329327,22.3037417 63.3329327,21.4952311 C63.3329327,19.9897285 63.3329327,18.484226 63.3329327,16.9787234 L63.3329327,16.9787234 L63.3329327,16.9787234 C63.3329327,15.7241379 63.3329327,14.4695525 63.3329327,13.214967 C63.3329327,12.3785767 63.9134615,11.7931034 64.7704327,11.7373441 C64.8257212,11.7373441 64.9086538,11.7373441 64.9639423,11.7373441 L64.9639423,11.7373441 L64.9639423,11.7373441 C64.9915865,11.7373441 65.0192308,11.7373441 65.0192308,11.7373441 L75.46875,11.7373441 L75.5240385,11.7373441 C75.6069712,11.7373441 75.6899038,11.7373441 75.7728365,11.7373441 C76.6298077,11.8209831 77.1826923,12.434336 77.1826923,13.2707263 C77.2103365,13.8283199 77.2103365,14.3580337 77.2103365,14.8877476 Z M73.5336538,15.891416 C73.6165865,15.891416 73.671875,15.891416 73.7548077,15.891416 C74.0865385,15.8356566 74.2800481,15.6126192 74.2800481,15.2780631 C74.2800481,14.9713866 74.0588942,14.7483492 73.7548077,14.7204696 C73.6995192,14.7204696 73.6165865,14.7204696 73.5612981,14.7204696 L73.5336538,14.7204696 L73.5060096,14.7204696 L70.2992788,14.7204696 L67.0925481,14.7204696 C67.0649038,14.7204696 67.0372596,14.7204696 67.0372596,14.7204696 L67.0372596,14.7204696 C66.9819712,14.7204696 66.8990385,14.7204696 66.84375,14.7204696 C66.5673077,14.7483492 66.3461538,14.9713866 66.3185096,15.2780631 C66.2908654,15.5568599 66.4567308,15.7798973 66.7055288,15.8635363 C66.84375,15.891416 66.9819712,15.9192957 67.1201923,15.9192957 C69.2487981,15.9192957 71.3774038,15.9192957 73.5060096,15.9192957 L73.5336538,15.891416 Z M122.685096,12.9640499 C122.574519,12.350697 122.132212,11.9046222 121.551683,11.7931034 C121.385817,11.7652238 121.192308,11.7373441 121.026442,11.7373441 C117.543269,11.7373441 114.060096,11.7373441 110.576923,11.7373441 C110.549279,11.7373441 110.521635,11.7373441 110.521635,11.7373441 C110.466346,11.7373441 110.383413,11.7373441 110.328125,11.7373441 C109.360577,11.7931034 108.890625,12.5737344 108.890625,13.2428467 C108.890625,15.6126192 108.890625,17.9823918 108.890625,20.3521643 C108.890625,21.1327953 108.890625,21.9413059 108.890625,22.7219369 C108.890625,22.7776963 108.890625,22.8334556 108.918269,22.889215 L108.918269,22.889215 C108.918269,22.889215 108.918269,22.9170946 108.918269,22.9170946 C108.918269,22.9170946 108.918269,22.9170946 108.918269,22.9449743 C109.388221,23.0007337 111.544471,22.972854 111.820913,22.9170946 L111.820913,22.5546588 L111.820913,15.6404989 C111.820913,15.6126192 111.820913,15.5847395 111.820913,15.5568599 C111.820913,15.4732208 111.820913,15.4174615 111.820913,15.3338225 C111.876202,14.9156273 112.125,14.6925899 112.539663,14.6647102 C112.594952,14.6647102 112.65024,14.6647102 112.705529,14.6647102 C112.733173,14.6647102 112.760817,14.6647102 112.788462,14.6647102 L115.691106,14.6647102 C115.967548,14.6647102 116.24399,14.6647102 116.520433,14.6647102 L116.520433,14.6647102 C117.34976,14.6647102 118.151442,14.6647102 118.980769,14.6647102 C119.50601,14.6647102 119.782452,14.943507 119.810096,15.4732208 C119.810096,15.5289802 119.810096,15.6126192 119.810096,15.6683786 L119.810096,15.6683786 C119.810096,15.6962583 119.810096,15.7241379 119.810096,15.7798973 L119.810096,22.5546588 L119.810096,22.9170946 C120.141827,22.972854 122.463942,22.972854 122.740385,22.9170946 C122.740385,22.889215 122.740385,22.8334556 122.740385,22.8055759 C122.740385,22.7498166 122.740385,22.6940572 122.740385,22.6382979 L122.740385,13.4101247 C122.71274,13.2707263 122.685096,13.131328 122.685096,12.9640499 Z M86.6923077,18.6793837 C87.5216346,16.5047689 88.3509615,14.3301541 89.1526442,12.1276596 C89.2079327,12.0161409 89.2632212,11.8767425 89.3185096,11.7652238 L92.359375,11.7652238 C92.359375,11.7931034 92.3317308,11.8209831 92.3317308,11.8488628 C92.3040865,11.9325018 92.3040865,11.9882612 92.2764423,12.0440205 C92.0552885,12.6294938 91.8341346,13.214967 91.6129808,13.8004402 C90.5348558,16.672047 89.4567308,19.515774 88.3786058,22.3873808 C88.2127404,22.8055759 87.9362981,23.0007337 87.5216346,23.0007337 L85.7524038,23.0007337 L83.6790865,23.0007337 L83.4579327,23.0007337 C83.015625,23.0007337 82.7391827,22.8055759 82.6009615,22.3873808 C82.3245192,21.6067498 82.0204327,20.8261189 81.7163462,20.0454879 C81.578125,19.7109318 81.4675481,19.3763756 81.3293269,19.0418195 C80.8870192,17.8708731 80.4447115,16.7278063 80.0300481,15.5847395 C79.5877404,14.4137931 79.1454327,13.2707263 78.7307692,12.0997799 C78.703125,12.0440205 78.6754808,11.9603815 78.6478365,11.9046222 C78.6201923,11.8488628 78.6201923,11.8209831 78.5925481,11.7652238 L81.6334135,11.7652238 C81.6887019,11.8767425 81.7163462,11.9882612 81.7716346,12.0719002 C82.2139423,13.2707263 82.6838942,14.4695525 83.1262019,15.6683786 C83.5685096,16.8672047 84.0384615,18.0660308 84.4807692,19.2369773 C84.5360577,19.348496 84.5637019,19.4878944 84.6466346,19.5994131 C84.8677885,19.9339692 85.1995192,20.1012472 85.6141827,20.0454879 C86.0288462,20.0176082 86.3052885,19.7945708 86.4711538,19.4042553 C86.5540865,19.2090976 86.6370192,19.0139398 86.6923077,18.8187821 C86.6646635,18.7630227 86.6923077,18.7351431 86.6923077,18.6793837 Z" id="Path" fill="#FFFFFF"></path>
                <path d="M51.2800481,29.6082172 L51.2800481,29.6082172 C51.6394231,28.4930301 51.9987981,27.3499633 52.3581731,26.2347762 C52.3858173,26.1232575 52.4411058,26.0117388 52.4963942,25.9002201 L53.7680288,25.9002201 C53.6574519,26.2626559 53.546875,26.597212 53.4362981,26.9317682 L53.4362981,26.9317682 C53.2704327,27.461482 53.1045673,28.0190756 52.9110577,28.5487894 C52.6622596,29.3294204 52.4134615,30.137931 52.1646635,30.918562 L52.1646635,30.918562 C52.1370192,30.9743213 52.109375,31.0579604 52.109375,31.1137197 C52.0540865,31.3088775 51.9435096,31.3925165 51.7223558,31.3925165 C51.5012019,31.3925165 51.2524038,31.3925165 51.03125,31.3925165 L51.03125,31.3925165 L51.03125,31.3925165 C50.7271635,31.3925165 50.4230769,31.3925165 50.1189904,31.3925165 C49.8701923,31.3925165 49.7872596,31.3367572 49.7043269,31.0858401 C49.3449519,29.9148936 48.9579327,28.7718269 48.5985577,27.6008804 L48.15625,26.2347762 C48.1286058,26.1790169 48.1286058,26.0953778 48.1009615,26.0396185 L48.1009615,26.0396185 L48.1009615,26.0396185 C48.1009615,25.9838591 48.0733173,25.9559795 48.0456731,25.8723404 L49.2896635,25.8723404 C49.3173077,25.9002201 49.3173077,25.9559795 49.3449519,25.9838591 L49.3449519,25.9838591 C49.3725962,26.0396185 49.4002404,26.0953778 49.4278846,26.1790169 C49.7319712,27.1548056 50.0360577,28.1305943 50.3677885,29.106383 L50.3677885,29.106383 L50.3677885,29.106383 L50.5889423,29.8033749 C50.6165865,29.8591343 50.6165865,29.9148936 50.6442308,29.9427733 C50.7824519,30.1658107 51.03125,30.1658107 51.1694712,29.9148936 C51.2247596,29.8312546 51.2524038,29.7197359 51.2800481,29.6082172 L51.2800481,29.6082172 L51.2800481,29.6082172 Z M101.841346,26.7366104 C101.951923,26.7366104 102.0625,26.7366104 102.173077,26.7366104 C102.173077,26.7644901 102.200721,26.7923698 102.200721,26.8202494 C102.200721,26.8481291 102.228365,26.9038885 102.228365,26.9317682 C102.228365,28.2142333 102.228365,29.4688188 102.228365,30.7512839 C102.228365,31.0858401 102.0625,31.2809978 101.730769,31.3646368 C101.647837,31.3925165 101.564904,31.3925165 101.481971,31.3925165 C100.09976,31.3925165 98.7175481,31.3925165 97.3353365,31.3925165 C97.2247596,31.3925165 97.0865385,31.3925165 96.9759615,31.3367572 C96.7271635,31.2531181 96.5889423,31.0858401 96.5612981,30.8070433 C96.5612981,30.7512839 96.5612981,30.7234043 96.5612981,30.6676449 L96.5612981,27.0154072 C96.5612981,26.9596478 96.5612981,26.9317682 96.5612981,26.8760088 L96.5612981,26.8760088 C96.5612981,26.8481291 96.5612981,26.7923698 96.5612981,26.7644901 L97.7223558,26.7644901 C97.7223558,26.7923698 97.7223558,26.8481291 97.7223558,26.8760088 C97.7223558,26.9596478 97.7223558,27.0154072 97.7223558,27.0990462 L97.7223558,29.5803375 C97.7223558,29.6082172 97.7223558,29.6360968 97.7223558,29.6360968 L97.7223558,29.6360968 C97.7223558,29.6918562 97.7223558,29.7476156 97.7223558,29.8033749 C97.75,30.0264123 97.8329327,30.1100514 98.0540865,30.137931 C98.2199519,30.137931 98.3858173,30.137931 98.5516827,30.137931 C98.6069712,30.137931 98.6899038,30.137931 98.7451923,30.137931 C98.9387019,30.137931 99.1598558,30.137931 99.3533654,30.137931 C99.7680288,30.137931 100.182692,30.137931 100.569712,30.137931 C100.901442,30.137931 100.984375,30.054292 100.984375,29.7197359 C100.984375,29.1342627 100.984375,28.5766691 100.984375,27.9911959 L100.984375,27.9911959 L100.984375,27.9911959 L100.984375,27.9911959 L100.984375,27.9911959 C100.984375,27.7123991 100.984375,27.4057227 100.984375,27.1269259 L100.984375,26.7644901 C101.316106,26.7366104 101.592548,26.7366104 101.841346,26.7366104 Z M124.454327,26.7366104 C124.951923,26.7366104 125.173077,26.9596478 125.173077,27.461482 C125.173077,27.6287601 125.173077,27.7681585 125.173077,27.9354365 L125.173077,27.9354365 L125.173077,27.9354365 C125.173077,28.2699927 125.173077,28.6045488 125.173077,28.9391049 C125.200721,29.3294204 124.86899,29.6360968 124.481971,29.6360968 C123.707933,29.6082172 122.90625,29.6360968 122.132212,29.6360968 C121.828125,29.6360968 121.496394,29.6360968 121.192308,29.6360968 C121.164663,29.6360968 121.137019,29.6360968 121.137019,29.6360968 C121.054087,29.6360968 120.971154,29.6360968 120.915865,29.6360968 C120.777644,29.6639765 120.694712,29.7754952 120.722356,29.8870139 C120.722356,30.0264123 120.832933,30.0821717 120.94351,30.0821717 C121.026442,30.0821717 121.109375,30.0821717 121.164663,30.0821717 L121.164663,30.0821717 L123.044471,30.0821717 C123.127404,30.0821717 123.182692,30.0821717 123.265625,30.0821717 L123.376202,30.0821717 C123.403846,30.4724872 123.376202,30.8628026 123.376202,31.2809978 C123.320913,31.2809978 123.265625,31.2809978 123.210337,31.2809978 C123.155048,31.2809978 123.09976,31.2809978 123.044471,31.2809978 L120.197115,31.2809978 C119.699519,31.2809978 119.450721,31.0300807 119.450721,30.5282465 C119.450721,29.4688188 119.450721,28.409391 119.450721,27.3499633 C119.450721,26.8760088 119.699519,26.6529714 120.169471,26.6529714 C121.606971,26.7366104 123.016827,26.7366104 124.454327,26.7366104 Z M123.569712,28.4651504 C123.652644,28.4651504 123.707933,28.4651504 123.790865,28.4372707 C123.901442,28.409391 123.956731,28.325752 123.956731,28.2142333 C123.956731,28.1027146 123.901442,28.0190756 123.790865,27.9911959 C123.707933,27.9633162 123.625,27.9633162 123.542067,27.9633162 C123.265625,27.9633162 122.989183,27.9633162 122.740385,27.9633162 C122.602163,27.9633162 122.463942,27.9633162 122.325721,27.9633162 C122.1875,27.9633162 122.049279,27.9633162 121.911058,27.9633162 C121.634615,27.9633162 121.358173,27.9633162 121.109375,27.9633162 C121.026442,27.9633162 120.94351,27.9633162 120.860577,27.9911959 C120.75,28.0190756 120.694712,28.1305943 120.694712,28.242113 C120.694712,28.3536317 120.777644,28.409391 120.888221,28.4372707 C120.94351,28.4651504 121.026442,28.4651504 121.081731,28.4651504 C121.358173,28.4651504 121.634615,28.4651504 121.911058,28.4651504 L121.911058,28.4651504 L121.911058,28.4651504 L121.911058,28.4651504 L121.911058,28.4651504 L121.911058,28.4651504 L121.911058,28.4651504 C122.463942,28.4651504 123.016827,28.4651504 123.569712,28.4651504 Z M134.019231,27.9633162 C133.908654,27.9633162 133.825721,27.9633162 133.715144,27.9911959 C133.604567,28.0190756 133.521635,28.1027146 133.521635,28.2142333 C133.521635,28.3536317 133.576923,28.4372707 133.715144,28.4372707 C133.798077,28.4651504 133.908654,28.4651504 134.019231,28.4651504 C134.323317,28.4651504 134.627404,28.4651504 134.959135,28.4651504 C135.733173,28.4651504 136.507212,28.4651504 137.28125,28.4651504 C137.585337,28.4651504 137.80649,28.5487894 137.972356,28.7997065 L137.972356,31.0579604 C137.80649,31.2809978 137.585337,31.3925165 137.308894,31.3925165 C136.120192,31.3925165 134.93149,31.3925165 133.742788,31.3925165 C133.355769,31.3925165 132.941106,31.3925165 132.554087,31.3925165 C132.526442,31.3925165 132.471154,31.3925165 132.415865,31.3925165 L132.415865,31.3925165 C132.388221,31.3925165 132.360577,31.3925165 132.305288,31.3925165 C132.277644,31.1137197 132.277644,30.8070433 132.277644,30.5282465 L132.277644,30.5282465 L132.277644,30.5282465 L132.277644,30.5282465 L132.277644,30.5282465 L132.277644,30.5282465 L132.277644,30.5282465 L132.277644,30.5282465 L132.277644,30.5282465 L132.277644,30.5282465 L132.277644,30.5282465 L132.277644,30.5282465 L132.277644,30.5282465 C132.277644,30.4167278 132.277644,30.3052091 132.277644,30.1936904 C132.332933,30.1936904 132.360577,30.1936904 132.415865,30.1936904 C132.498798,30.1936904 132.581731,30.1936904 132.664663,30.1936904 L136.313702,30.1936904 L136.313702,30.1936904 C136.396635,30.1936904 136.479567,30.1936904 136.590144,30.1936904 C136.700721,30.1936904 136.75601,30.1100514 136.783654,29.9985326 C136.783654,29.8870139 136.75601,29.8033749 136.645433,29.7754952 C136.534856,29.7476156 136.424279,29.7476156 136.313702,29.7476156 L133.16226,29.7476156 C133.134615,29.7476156 133.106971,29.7476156 133.079327,29.7476156 C133.024038,29.7476156 132.96875,29.7476156 132.913462,29.7476156 C132.554087,29.7197359 132.305288,29.5245781 132.277644,29.1621423 C132.25,28.5766691 132.25,28.0190756 132.277644,27.4336023 C132.277644,27.0432869 132.554087,26.8202494 132.96875,26.8202494 C134.074519,26.8202494 135.180288,26.8202494 136.286058,26.8202494 L136.286058,26.8202494 C136.838942,26.8202494 137.391827,26.8202494 137.944712,26.8202494 L137.944712,28.0190756 C137.889423,28.0190756 137.861779,28.0190756 137.834135,28.0190756 C137.751202,28.0190756 137.668269,28.0190756 137.585337,28.0190756 L134.019231,28.0190756 L134.019231,27.9633162 Z M65.9591346,26.7366104 C65.9038462,26.7366104 65.8762019,26.7366104 65.8485577,26.7366104 C65.8209135,26.7366104 65.8209135,26.7366104 65.7932692,26.7366104 L61.5637019,26.7366104 C61.5360577,26.7366104 61.5360577,26.7366104 61.5084135,26.7366104 C61.4807692,26.7366104 61.4254808,26.7366104 61.3978365,26.7366104 C61.0384615,26.7644901 60.8173077,26.9875275 60.8173077,27.3220836 C60.8173077,28.4651504 60.8173077,29.6360968 60.8173077,30.7791636 C60.8173077,31.0579604 60.9831731,31.2531181 61.2596154,31.3367572 C61.3425481,31.3646368 61.453125,31.3646368 61.5360577,31.3646368 C62.5036058,31.3646368 63.4711538,31.3646368 64.4387019,31.3646368 C64.4939904,31.3646368 64.5492788,31.3646368 64.6045673,31.3367572 L64.6045673,31.3367572 L64.6045673,31.3367572 L64.6045673,31.3367572 C64.6322115,31.3367572 64.6598558,31.3367572 64.6875,31.3367572 L64.6875,30.1100514 L64.328125,30.1100514 L62.4483173,30.1100514 C62.3653846,30.1100514 62.2824519,30.1100514 62.2271635,30.1100514 C62.1165865,30.1100514 62.0336538,30.054292 62.0336538,29.9427733 C62.0060096,29.8033749 62.0889423,29.7197359 62.1995192,29.6918562 C62.2824519,29.6639765 62.3653846,29.6639765 62.4759615,29.6639765 L62.5036058,29.6639765 L65.4338942,29.6639765 C65.4891827,29.6639765 65.5444712,29.6639765 65.5997596,29.6639765 C65.7103365,29.6639765 65.8209135,29.6639765 65.9314904,29.6639765 C66.2908654,29.6639765 66.5396635,29.4130594 66.5396635,29.0506236 C66.5396635,28.4651504 66.5396635,27.9075569 66.5396635,27.3220836 C66.5120192,27.0154072 66.2908654,26.7644901 65.9591346,26.7366104 Z M65.1574519,28.4372707 C65.0745192,28.4651504 65.0192308,28.4651504 64.9362981,28.4651504 C64.6598558,28.4651504 64.3834135,28.4651504 64.1069712,28.4651504 L64.1069712,28.4651504 L64.1069712,28.4651504 L64.1069712,28.4651504 L64.1069712,28.4651504 L64.1069712,28.4651504 C63.96875,28.4651504 63.8305288,28.4651504 63.6923077,28.4651504 C63.5540865,28.4651504 63.4158654,28.4651504 63.2776442,28.4651504 L63.2776442,28.4651504 L63.2776442,28.4651504 L63.2776442,28.4651504 L63.2776442,28.4651504 L63.2776442,28.4651504 C63.0012019,28.4651504 62.7247596,28.4651504 62.4483173,28.4651504 C62.1995192,28.4651504 62.0612981,28.3815114 62.0612981,28.1863536 C62.0612981,28.0469552 62.2271635,27.9354365 62.4206731,27.9354365 C62.9459135,27.9354365 63.4711538,27.9354365 64.0240385,27.9354365 C64.328125,27.9354365 64.6322115,27.9354365 64.9362981,27.9354365 C65.0192308,27.9354365 65.1021635,27.9633162 65.1850962,27.9911959 C65.2956731,28.0190756 65.3509615,28.1027146 65.3509615,28.2142333 C65.3233173,28.325752 65.2680288,28.409391 65.1574519,28.4372707 Z M78.6478365,26.7366104 C77.2103365,26.7366104 75.8004808,26.7366104 74.3629808,26.7366104 C73.8653846,26.7366104 73.6442308,26.9596478 73.6442308,27.4336023 C73.6442308,28.242113 73.6442308,29.0506236 73.6442308,29.8591343 L73.6442308,29.8591343 L73.6442308,29.8591343 L73.6442308,29.8591343 C73.6442308,30.2773294 73.6442308,30.6676449 73.6442308,31.0858401 C73.6442308,31.1415994 73.6442308,31.1973588 73.671875,31.2809978 L73.671875,31.2809978 L73.671875,31.2809978 C73.671875,31.3088775 73.671875,31.3367572 73.671875,31.3646368 L74.8329327,31.3646368 L74.8329327,30.137931 C74.8329327,29.9985326 74.8329327,29.8312546 74.8329327,29.6918562 L74.8329327,29.6918562 C74.8329327,29.2457814 74.8329327,28.7997065 74.8329327,28.3536317 C74.8329327,28.1027146 74.9435096,27.9911959 75.1923077,27.9633162 C75.2475962,27.9633162 75.2752404,27.9633162 75.3305288,27.9633162 C75.3581731,27.9633162 75.3581731,27.9633162 75.3858173,27.9633162 L77.5973558,27.9633162 L77.625,27.9633162 C77.6802885,27.9633162 77.7355769,27.9633162 77.7908654,27.9633162 C77.984375,27.9911959 78.0949519,28.1027146 78.1225962,28.325752 C78.1225962,28.3815114 78.1225962,28.4372707 78.1225962,28.4930301 L78.1225962,28.4930301 C78.1225962,28.5209098 78.1225962,28.5487894 78.1225962,28.5487894 L78.1225962,31.0300807 C78.1225962,31.0858401 78.1225962,31.1694791 78.1225962,31.2252384 L78.1225962,31.2252384 C78.1225962,31.2531181 78.1225962,31.3088775 78.1225962,31.3367572 C78.4543269,31.3925165 79.0348558,31.3925165 79.2836538,31.3367572 L79.2836538,31.3088775 C79.2836538,31.2809978 79.2836538,31.2252384 79.2836538,31.1973588 C79.2836538,30.7791636 79.2836538,30.3609685 79.2836538,29.9427733 L79.2836538,29.9427733 L79.2836538,29.9427733 L79.2836538,29.9427733 C79.2836538,29.106383 79.2836538,28.2699927 79.2836538,27.4336023 C79.3389423,26.9596478 79.0901442,26.7366104 78.6478365,26.7366104 Z M88.6550481,26.7366104 C88.3509615,26.7366104 88.2680288,26.6250917 88.2403846,26.3462949 C88.2403846,26.2905356 88.2403846,26.2626559 88.2403846,26.2068966 L88.2403846,26.2068966 C88.2403846,26.0953778 88.2403846,25.9838591 88.1850962,25.9002201 L87.0240385,25.9002201 C87.0240385,25.9559795 87.0240385,26.0117388 87.0240385,26.0396185 L87.0240385,26.0396185 C87.0240385,26.1232575 87.0240385,26.2068966 87.0240385,26.2905356 C87.0240385,26.6250917 86.9411058,26.7087307 86.6370192,26.7366104 C86.5817308,26.7366104 86.5264423,26.7366104 86.4711538,26.7644901 L86.4711538,27.9075569 C86.4987981,27.9075569 86.4987981,27.9075569 86.5264423,27.9354365 C86.5540865,27.9354365 86.5540865,27.9354365 86.5540865,27.9354365 C86.5817308,27.9354365 86.5817308,27.9354365 86.609375,27.9354365 C86.609375,27.9354365 86.6370192,27.9354365 86.6370192,27.9354365 C86.9411058,27.9911959 86.9963942,28.0748349 87.0240385,28.3815114 C87.0240385,28.4372707 87.0240385,28.4651504 87.0240385,28.5209098 L87.0240385,28.5209098 C87.0240385,28.5487894 87.0240385,28.5766691 87.0240385,28.5766691 L87.0240385,31.0300807 C87.0240385,31.1137197 87.0240385,31.1694791 87.0240385,31.2531181 L87.0240385,31.2531181 L87.0240385,31.2531181 C87.0240385,31.2809978 87.0240385,31.3367572 87.0240385,31.3646368 L88.1850962,31.3646368 L88.1850962,31.3088775 C88.1850962,31.1973588 88.1850962,31.0858401 88.1850962,30.9743213 L88.1850962,28.409391 C88.1850962,28.0190756 88.2956731,27.9354365 88.6826923,27.9075569 C88.7379808,27.9075569 88.8209135,27.9075569 88.8762019,27.9075569 C88.9591346,27.9075569 89.0420673,27.9075569 89.1526442,27.9075569 C89.2079327,27.9075569 89.2355769,27.9075569 89.2908654,27.8796772 C89.3185096,27.8796772 89.3461538,27.8796772 89.3737981,27.8517975 L89.3737981,26.6808511 C89.1526442,26.7366104 88.9038462,26.7366104 88.6550481,26.7366104 Z M109.44351,26.9596478 C109.554087,26.8202494 109.692308,26.7366104 109.858173,26.7366104 C110.632212,26.7366104 111.433894,26.7366104 112.235577,26.7366104 L112.235577,26.7366104 C112.235577,26.7366104 112.235577,26.7366104 112.263221,26.7366104 C112.263221,26.7366104 112.290865,26.7366104 112.290865,26.7644901 L112.290865,27.9075569 C112.235577,27.9075569 112.207933,27.9075569 112.180288,27.9075569 C112.125,27.9075569 112.069712,27.9075569 111.986779,27.9075569 C111.876202,27.9075569 111.793269,27.9075569 111.682692,27.9075569 C111.489183,27.9075569 111.268029,27.9075569 111.074519,27.9075569 C110.604567,27.9075569 110.521635,27.9911959 110.521635,28.4372707 L110.521635,30.9464417 L110.521635,31.3088775 C110.49399,31.3088775 110.466346,31.3088775 110.411058,31.3088775 C110.245192,31.3088775 110.079327,31.3088775 109.913462,31.3088775 C109.77524,31.3088775 109.664663,31.3088775 109.526442,31.3088775 C109.471154,31.3088775 109.388221,31.3088775 109.305288,31.3088775 C109.305288,31.2809978 109.305288,31.2531181 109.277644,31.1973588 C109.277644,31.1415994 109.25,31.0858401 109.25,31.0579604 C109.25,29.8312546 109.25,28.6045488 109.25,27.377843 L109.25,27.377843 C109.277644,27.294204 109.305288,27.0990462 109.44351,26.9596478 Z" id="Path" fill="#FFFFFF"></path>
                <path d="M4.25721154,0.0278796772 C4.06370192,0.334556126 3.87019231,0.641232575 3.67668269,0.947909024 C2.81971154,2.25825385 1.93509615,3.56859868 1.078125,4.87894351 C0.884615385,5.18561996 0.691105769,5.4922964 0.497596154,5.79897285 C0.359375,5.99413059 0.221153846,6.16140866 0.0829326923,6.3565664 C0.387019231,6.3565664 0.663461538,6.3565664 0.967548077,6.3565664 C6.109375,6.3565664 11.2512019,6.3565664 16.4206731,6.3565664 C16.6971154,6.3565664 16.890625,6.44020543 17.0288462,6.69112252 C17.6370192,7.63903155 18.2728365,8.5590609 18.8810096,9.50696992 C19.2127404,10.0088041 19.5444712,10.538518 19.8762019,11.0682318 C20.2355769,11.5979457 20.5949519,12.1276596 20.9266827,12.6573734 C21.0649038,12.6573734 21.0925481,12.5458547 21.1478365,12.4622157 C21.2584135,12.2949376 21.3966346,12.1276596 21.5072115,11.9603815 C21.7283654,11.5979457 21.9495192,11.2355099 22.1983173,10.8730741 C22.6682692,10.1482025 23.1658654,9.42333089 23.6358173,8.6705796 C23.6911058,8.58694057 23.7463942,8.53118122 23.8293269,8.44754219 C23.8846154,8.39178283 23.9122596,8.3081438 23.9675481,8.25238445 C24.0228365,8.16874541 24.1057692,8.05722671 24.1610577,7.97358767 C24.1887019,7.945708 24.2163462,7.88994864 24.2439904,7.86206897 C24.2716346,7.83418929 24.2992788,7.80630961 24.3269231,7.77842993 C24.3269231,7.75055026 24.3269231,7.75055026 24.3269231,7.75055026 C24.3545673,7.72267058 24.3545673,7.6947909 24.3822115,7.66691123 C24.5757212,7.36023478 24.7692308,7.02567865 24.9903846,6.7190022 C25.15625,6.44020543 25.3497596,6.16140866 25.515625,5.88261189 L25.515625,5.88261189 C25.515625,5.85473221 25.5432692,5.85473221 25.5432692,5.82685253 C25.8473558,5.40865737 26.1237981,4.96258254 26.4278846,4.54438738 C26.4831731,4.46074835 26.5661058,4.37710932 26.6213942,4.29347029 L26.6213942,4.29347029 C26.7043269,4.18195158 26.7596154,4.07043287 26.8425481,3.95891416 C27.0084135,3.70799707 27.1742788,3.45707997 27.3125,3.23404255 C27.3401442,3.1782832 27.3954327,3.12252384 27.4230769,3.06676449 C27.7271635,2.59280998 28.03125,2.11885547 28.3629808,1.64490095 C28.6947115,1.14306676 29.0264423,0.641232575 29.3305288,0.167278063 C29.3581731,0.139398386 29.3581731,0.0836390315 29.3581731,0.0557593544 C20.9819712,0.0278796772 12.6057692,0.0278796772 4.25721154,0.0278796772 Z" id="Path" fill="#B3B2B2" fill-rule="nonzero"></path>
                <path d="M12.6057692,12.7131328 C12.5228365,12.6852531 12.4675481,12.7131328 12.3846154,12.7131328 C9.78605769,12.7131328 7.1875,12.7131328 4.58894231,12.7131328 C4.50600962,12.7131328 4.42307692,12.7131328 4.34014423,12.7131328 C4.56129808,13.0476889 4.78245192,13.382245 5.00360577,13.7168012 C5.41826923,14.3580337 5.86057692,14.9992663 6.27524038,15.6404989 C6.33052885,15.7241379 6.35817308,15.807777 6.41346154,15.891416 C7.04927885,16.839325 7.68509615,17.8151137 8.32091346,18.7630227 C8.37620192,18.8745415 8.48677885,18.9581805 8.45913462,19.0975789 C8.48677885,19.0696992 8.51442308,19.0696992 8.54206731,19.0418195 C8.79086538,18.6236244 9.06730769,18.2333089 9.31610577,17.8151137 C9.59254808,17.3690389 9.92427885,16.9508437 10.1454327,16.4768892 C10.2560096,16.2538518 10.3665865,16.0308144 10.6153846,15.9192957 C10.6430288,15.8356566 10.6430288,15.7520176 10.6706731,15.6683786 C10.6983173,15.6683786 10.7536058,15.6404989 10.7536058,15.6404989 C10.9747596,15.3338225 11.1682692,14.9992663 11.3617788,14.6925899 C11.3617788,14.4416728 11.3617788,14.4416728 11.5552885,14.4137931 C11.5829327,14.3580337 11.6105769,14.3301541 11.6382212,14.2743947 C11.7487981,14.1349963 11.859375,13.9955979 11.9423077,13.8561996 C12.1081731,13.6052825 12.3016827,13.3264857 12.4675481,13.0476889 C12.5504808,12.9082905 12.6334135,12.8525312 12.7716346,12.8525312 C12.6887019,12.8246515 12.6610577,12.7410125 12.6057692,12.7131328 Z" id="Path" fill="#B8B8B8" fill-rule="nonzero"></path>
                <path d="M37.5408654,25.0359501 C36.9326923,24.1159208 36.3245192,23.1958914 35.7163462,22.2758621 C35.0528846,21.2721937 34.4170673,20.296405 33.7536058,19.2927366 C33.6983173,19.2090976 33.6706731,19.0696992 33.5048077,19.0418195 C33.4771635,19.1254585 33.421875,19.2090976 33.3942308,19.2648569 C32.9242788,19.9618489 32.4543269,20.6867205 32.0120192,21.3837124 C31.984375,21.4115921 31.9567308,21.4394718 31.9290865,21.4673514 C31.9014423,21.5231108 31.8737981,21.5509905 31.8461538,21.6067498 L31.8461538,21.6067498 C31.8185096,21.6346295 31.8185096,21.6625092 31.7908654,21.6903888 L31.7908654,21.6903888 C31.7355769,21.7740279 31.6526442,21.8576669 31.5973558,21.9691856 L31.5973558,21.9691856 C31.5697115,22.0528247 31.5420673,22.1364637 31.4867788,22.192223 C30.8233173,23.1958914 30.1875,24.1716801 29.5240385,25.1753485 C29.4963942,25.2311079 29.4411058,25.2589875 29.4134615,25.3147469 C29.3581731,25.2311079 29.2752404,25.1474688 29.2475962,25.0638298 C28.7223558,24.2831988 28.1694712,23.4746882 27.6442308,22.6661775 C27.5889423,22.5825385 27.5060096,22.4988995 27.4507212,22.4152605 C27.4230769,22.3873808 27.4230769,22.3595011 27.3954327,22.3316214 C27.3677885,22.2758621 27.3401442,22.2479824 27.3125,22.192223 L27.3125,22.192223 C27.2848558,22.1643434 27.2848558,22.1364637 27.2572115,22.108584 C27.1742788,21.9413059 27.0637019,21.7740279 26.9807692,21.6067498 L26.9807692,21.6067498 C26.953125,21.5788701 26.9254808,21.5509905 26.9254808,21.5231108 C26.6766827,21.1885547 26.4002404,20.8818782 26.2067308,20.5194424 C26.1790865,20.4636831 26.1514423,20.4358034 26.1514423,20.380044 C26.0961538,20.3242847 26.0685096,20.2406456 26.0132212,20.1848863 C25.8197115,19.9060895 25.6538462,19.6272927 25.4603365,19.348496 C25.4050481,19.2648569 25.3497596,19.1812179 25.2944712,19.1254585 C25.2944712,19.0975789 25.2668269,19.0975789 25.2668269,19.0696992 C25.2668269,19.0418195 25.2668269,19.0139398 25.2944712,18.9860602 C25.2944712,18.9581805 25.2944712,18.9581805 25.2668269,18.9303008 C25.2668269,18.9024211 25.2944712,18.9024211 25.2944712,18.8745415 C25.3221154,18.8187821 25.3774038,18.7630227 25.4050481,18.7351431 C26.7319712,16.7278063 28.0588942,14.7204696 29.3858173,12.7131328 C29.4411058,12.6573734 29.46875,12.5737344 29.4963942,12.5179751 C29.5793269,12.3785767 29.6622596,12.2112986 29.7728365,12.0719002 C29.9387019,11.8209831 30.1322115,11.570066 30.2980769,11.3191489 C30.6021635,10.9009538 30.8786058,10.4548789 31.1550481,10.0366838 C31.4867788,9.50696992 31.8461538,8.97725605 32.1778846,8.44754219 C32.6478365,7.75055026 33.1177885,7.05355833 33.5877404,6.3565664 C33.0901442,5.60381511 32.5925481,4.85106383 32.0949519,4.12619222 C32.0949519,4.09831255 32.0673077,4.09831255 32.0673077,4.07043287 C32.0396635,4.04255319 32.0396635,4.01467351 32.0120192,3.98679384 C31.8737981,3.76375642 31.7632212,3.56859868 31.5973558,3.34556126 C31.265625,2.87160675 30.9338942,2.39765224 30.6298077,1.92369773 C30.3810096,1.53338225 30.1322115,1.14306676 29.9110577,0.752751284 C29.7451923,0.501834189 29.6069712,0.250917095 29.4411058,0 C29.4134615,0 29.3858173,0 29.3858173,0 C29.3858173,0.0278796772 29.3858173,0.0836390315 29.3581731,0.111518709 C29.0264423,0.613352898 28.7223558,1.11518709 28.390625,1.5891416 C27.7548077,2.5649303 27.1466346,3.51283933 26.4831731,4.46074835 C26.1790865,4.87894351 25.9026442,5.32501834 25.5985577,5.7432135 C25.5985577,5.77109318 25.5709135,5.77109318 25.5709135,5.79897285 L25.5709135,5.79897285 C25.4050481,6.07776963 25.2115385,6.3565664 25.0456731,6.63536317 C24.8521635,6.94203962 24.6586538,7.27659574 24.4375,7.58327219 C24.4098558,7.61115187 24.4098558,7.63903155 24.3822115,7.66691123 C24.3545673,7.66691123 24.3545673,7.6947909 24.3822115,7.6947909 C24.3545673,7.72267058 24.3269231,7.75055026 24.2992788,7.77842993 C24.1334135,8.05722671 24.1057692,8.05722671 23.9122596,8.36390315 C23.8569712,8.44754219 23.7740385,8.50330154 23.71875,8.58694057 C23.2211538,9.31181218 22.7512019,10.0366838 22.28125,10.7894351 C22.0600962,11.1518709 21.8112981,11.5143067 21.5901442,11.8767425 C21.4795673,12.0440205 21.3413462,12.2112986 21.2307692,12.3785767 C21.1754808,12.4622157 21.1478365,12.5737344 21.0096154,12.5737344 C20.6502404,12.0440205 20.2908654,11.5143067 19.9591346,10.9845928 C19.6274038,10.4548789 19.2956731,9.95304475 18.9639423,9.42333089 C18.3557692,8.47542186 17.7199519,7.55539252 17.1117788,6.60748349 C16.9459135,6.3565664 16.7800481,6.27292737 16.5036058,6.27292737 C11.3617788,6.27292737 6.21995192,6.27292737 1.05048077,6.27292737 C0.746394231,6.27292737 0.469951923,6.27292737 0.165865385,6.27292737 C0.165865385,6.27292737 0.138221154,6.27292737 0.110576923,6.27292737 C0.110576923,6.30080704 0.110576923,6.32868672 0.110576923,6.32868672 C0.193509615,6.41232575 0.276442308,6.49596478 0.331730769,6.57960382 C1.27163462,8.00146735 2.23918269,9.45121056 3.17908654,10.8730741 C3.234375,10.9845928 3.31730769,11.0682318 3.40024038,11.1518709 C3.56610577,11.402788 3.70432692,11.6537051 3.87019231,11.9046222 C4.03605769,12.1555393 4.20192308,12.3785767 4.36778846,12.6294938 C4.45072115,12.6294938 4.53365385,12.6294938 4.61658654,12.6294938 C7.21514423,12.6294938 9.81370192,12.6294938 12.4122596,12.6294938 C12.4951923,12.6294938 12.578125,12.6294938 12.6334135,12.6294938 C12.6887019,12.6573734 12.7163462,12.7131328 12.7716346,12.7688921 C13.1862981,13.4101247 13.6009615,14.0513573 14.015625,14.6647102 C14.1538462,14.8598679 14.2644231,15.027146 14.4026442,15.2223037 C14.4302885,15.2501834 14.4855769,15.3059428 14.5132212,15.3338225 C14.5132212,15.3617021 14.5408654,15.3895818 14.5408654,15.4174615 C14.5685096,15.4453412 14.6237981,15.4732208 14.6514423,15.5011005 L14.6514423,15.5011005 C14.6790865,15.5847395 14.7067308,15.6404989 14.734375,15.7241379 C14.8173077,15.8635363 14.9278846,15.975055 15.0108173,16.1144534 C15.453125,16.7835657 15.8954327,17.4526779 16.3377404,18.1217902 C16.3653846,18.1217902 16.3653846,18.1496698 16.3653846,18.1775495 C16.6418269,18.5957447 16.8353365,18.9303008 16.5588942,19.4600147 L16.5588942,19.4600147 C16.53125,19.4878944 16.5036058,19.515774 16.5036058,19.5436537 C16.5036058,19.5436537 16.5036058,19.5436537 16.5036058,19.5436537 C16.4483173,19.6272927 16.3653846,19.7109318 16.3100962,19.7945708 C15.8125,20.5473221 15.3149038,21.2721937 14.8173077,22.024945 C14.7620192,22.108584 14.7067308,22.192223 14.6514423,22.2758621 C14.4026442,22.6661775 14.1262019,23.0843727 13.8774038,23.4746882 C13.8221154,23.5583272 13.7668269,23.6698459 13.7391827,23.753485 C12.8269231,25.0359501 12.0252404,26.3741746 11.1129808,27.6287601 C10.8918269,27.9354365 10.6706731,28.2699927 10.4495192,28.5766691 C10.3112981,28.7997065 10.1730769,29.0227439 10.0348558,29.2179017 C9.62019231,29.8591343 9.17788462,30.5003668 8.76322115,31.1694791 C8.68028846,31.2809978 8.625,31.4203962 8.56971154,31.5319149 L8.54206731,31.5319149 L8.51442308,31.5319149 C8.625,31.699193 8.73557692,31.866471 8.87379808,32.0616288 C9.06730769,32.3961849 9.26081731,32.730741 9.48197115,33.0652971 C9.62019231,33.2604549 9.78605769,33.4556126 9.92427885,33.67865 C9.97956731,33.7622891 10.0348558,33.8180484 10.0901442,33.9016875 C10.9747596,35.2120323 11.8317308,36.5502568 12.7163462,37.8606016 C12.7439904,37.8606016 12.7716346,37.8606016 12.7716346,37.8606016 C12.8269231,37.7490829 12.8822115,37.6375642 12.9375,37.5539252 C13.6838942,36.4387381 14.4302885,35.323551 15.1490385,34.1804842 C15.6466346,33.4277329 16.1442308,32.7028613 16.6418269,31.9222304 C16.8353365,31.6155539 17.0012019,31.2809978 17.25,31.002201 C18.1346154,29.6639765 18.9915865,28.325752 19.8762019,26.9875275 C19.9038462,26.9596478 19.9314904,26.9038885 19.9314904,26.8760088 C20.2355769,26.4020543 20.5396635,25.9559795 20.8713942,25.4820249 C20.9266827,25.3983859 20.9819712,25.2589875 21.1478365,25.2589875 C21.5625,25.9002201 22.0048077,26.5414527 22.4194712,27.1826853 C22.9170673,27.9354365 23.4146635,28.6881878 23.9122596,29.4409391 C24.0504808,29.6360968 24.1334135,29.8312546 24.2716346,30.0264123 C24.2992788,30.054292 24.3269231,30.0821717 24.3269231,30.1100514 C24.3545673,30.137931 24.3822115,30.1658107 24.3822115,30.1936904 C24.4098558,30.2215701 24.4375,30.2773294 24.4651442,30.3052091 C24.4927885,30.3609685 24.5204327,30.3888481 24.5480769,30.4446075 C24.6862981,30.6118855 24.796875,30.8070433 24.9350962,30.9743213 C25.1009615,31.2252384 25.2944712,31.5040352 25.4603365,31.7549523 C25.4879808,31.8107117 25.5432692,31.866471 25.5709135,31.8943507 C25.6262019,31.9501101 25.6538462,32.0337491 25.7091346,32.0895084 C25.7367788,32.1452678 25.7644231,32.1731475 25.7920673,32.2289068 C25.9026442,32.3961849 26.0132212,32.5355833 26.0961538,32.7028613 C26.0961538,32.730741 26.1237981,32.730741 26.1237981,32.7586207 C26.4555288,33.2604549 26.7596154,33.7344094 27.0913462,34.2362436 C27.1466346,34.3477623 27.2019231,34.459281 27.2572115,34.54292 C27.3954327,34.7101981 27.5336538,34.8774762 27.6442308,35.0726339 C28.1971154,35.8811445 28.7223558,36.6896552 29.2475962,37.4981658 C29.3028846,37.6096845 29.3581731,37.7212032 29.4134615,37.8048423 C29.4411058,37.8048423 29.46875,37.8048423 29.46875,37.8048423 C29.5516827,37.6654439 29.6346154,37.5539252 29.7451923,37.4424065 C30.6298077,36.0763023 31.5420673,34.7380778 32.4266827,33.3719736 C32.7584135,32.8701394 33.0625,32.3961849 33.3665865,31.8943507 C33.421875,31.8385913 33.4771635,31.782832 33.5048077,31.7270726 C34.4723558,30.2773294 35.4399038,28.8275862 36.4074519,27.3499633 C36.4350962,27.294204 36.4627404,27.2663243 36.4903846,27.2105649 C36.7115385,26.8760088 36.9603365,26.5414527 37.1814904,26.2068966 C37.4026442,25.8723404 37.6514423,25.5377843 37.8449519,25.2032282 C37.6790865,25.2311079 37.6237981,25.1474688 37.5408654,25.0359501 Z" id="Path" fill="#454545" fill-rule="nonzero"></path>
                <path d="M29.1646635,37.6654439 C28.6394231,36.8569332 28.0865385,36.0484226 27.5612981,35.239912 C27.4507212,35.0726339 27.2848558,34.8774762 27.1742788,34.7101981 C27.1189904,34.5986794 27.0913462,34.4871607 27.0084135,34.4035216 C26.7043269,33.9016875 26.3725962,33.4277329 26.0408654,32.9258988 C26.0408654,32.8980191 26.0132212,32.8980191 26.0132212,32.8701394 C25.9026442,32.7028613 25.7920673,32.5634629 25.7091346,32.3961849 C25.6814904,32.3404255 25.6538462,32.3125459 25.6262019,32.2567865 C25.5709135,32.2010271 25.5432692,32.1173881 25.4879808,32.0616288 C25.4326923,32.0058694 25.4050481,31.9779897 25.3774038,31.9222304 C25.2115385,31.6713133 25.0180288,31.3925165 24.8521635,31.1415994 C24.7139423,30.9743213 24.6033654,30.7791636 24.4651442,30.6118855 C24.4375,30.5561262 24.4098558,30.5282465 24.3822115,30.4724872 C24.3545673,30.4446075 24.3269231,30.3888481 24.2992788,30.3609685 C24.2716346,30.3330888 24.2439904,30.3052091 24.2439904,30.2773294 C24.2163462,30.2494497 24.1887019,30.2215701 24.1887019,30.1936904 C24.078125,29.9985326 23.9675481,29.8033749 23.8293269,29.6082172 C23.3317308,28.8554659 22.8341346,28.1027146 22.3365385,27.3499633 C21.921875,26.7087307 21.4795673,26.0674982 21.0649038,25.4262656 C20.8990385,25.3983859 20.8713942,25.5377843 20.7884615,25.649303 C20.484375,26.1232575 20.1526442,26.5693324 19.8485577,27.0432869 C19.8209135,27.0711665 19.8209135,27.1269259 19.7932692,27.1548056 C18.9086538,28.4930301 18.0516827,29.8312546 17.1670673,31.1694791 C17.0012019,31.3646368 16.890625,31.5319149 16.7524038,31.7549523 C16.8076923,31.8385913 16.9182692,31.8943507 16.9735577,31.9779897 C17.1117788,32.1731475 17.25,32.3683052 17.3605769,32.5913426 C17.9411058,33.4556126 18.5216346,34.375642 19.0745192,35.1841526 C19.6274038,36.0205429 20.1802885,36.8290536 20.7055288,37.6654439 C20.7884615,37.7769626 20.84375,37.8884813 20.8990385,38 C23.6911058,38 26.4831731,38 29.2752404,38 C29.2752404,37.8606016 29.2199519,37.7490829 29.1646635,37.6654439 Z" id="Path" fill="#BEBDBD" fill-rule="nonzero"></path>
                <path d="M16.6694712,18.7909024 C16.6694712,18.7909024 16.6418269,18.7630227 16.6418269,18.7630227 C16.6141827,18.6793837 16.5865385,18.6236244 16.5588942,18.567865 C16.53125,18.5399853 16.53125,18.5121056 16.5036058,18.484226 L16.5036058,18.484226 C16.4483173,18.4284666 16.4206731,18.3448276 16.3653846,18.2890682 L16.3653846,18.2890682 C16.3653846,18.2611886 16.3377404,18.2611886 16.3377404,18.2333089 C15.8954327,17.5641966 15.453125,16.8950844 15.0108173,16.2259721 C14.9278846,16.0865737 14.8173077,15.9471753 14.734375,15.8356566 C14.7067308,15.7520176 14.6790865,15.6962583 14.6514423,15.6126192 L14.6514423,15.6126192 C14.6237981,15.5847395 14.5685096,15.5568599 14.5408654,15.5289802 C14.5408654,15.5011005 14.5132212,15.4732208 14.5132212,15.4453412 C14.4855769,15.4174615 14.4302885,15.3617021 14.4026442,15.3338225 C14.2644231,15.1386647 14.1262019,14.9713866 14.015625,14.7762289 C13.6009615,14.1349963 13.1862981,13.5216434 12.7716346,12.8804109 C12.6334135,12.8804109 12.5504808,12.9361702 12.4675481,13.0755686 C12.3016827,13.3543654 12.1358173,13.6052825 11.9423077,13.8840792 C11.859375,14.0234776 11.7211538,14.162876 11.6382212,14.3022744 C11.6105769,14.3580337 11.5829327,14.3859134 11.5552885,14.4416728 C11.5,14.5253118 11.4170673,14.6368305 11.3617788,14.7204696 C11.1682692,15.027146 10.9471154,15.3617021 10.7536058,15.6683786 C10.7259615,15.6962583 10.6983173,15.6962583 10.6706731,15.6962583 C10.6430288,15.7798973 10.6430288,15.8635363 10.6153846,15.9471753 C10.3665865,16.0586941 10.2560096,16.3096112 10.1454327,16.5047689 C9.92427885,16.9787234 9.59254808,17.3969186 9.31610577,17.8429934 C9.06730769,18.2611886 8.79086538,18.651504 8.54206731,19.0696992 C8.51442308,19.0975789 8.48677885,19.0975789 8.45913462,19.1254585 C7.82331731,20.1012472 7.15985577,21.0491563 6.52403846,22.024945 C6.44110577,22.1643434 6.35817308,22.3037417 6.27524038,22.4431401 C6.21995192,22.4988995 6.16466346,22.5546588 6.13701923,22.6104182 C5.75,23.1680117 5.390625,23.753485 5.00360577,24.3110785 C4.72716346,24.7292737 4.47836538,25.1195891 4.20192308,25.5377843 C4.20192308,25.565664 4.17427885,25.5935437 4.14663462,25.6214233 C4.11899038,25.649303 4.11899038,25.6771827 4.09134615,25.7050624 C4.06370192,25.732942 4.03605769,25.7608217 4.00841346,25.7887014 C3.40024038,26.7087307 2.79206731,27.6287601 2.18389423,28.5487894 C2.15625,28.6045488 2.12860577,28.6603081 2.10096154,28.7160675 L2.10096154,28.7160675 C2.07331731,28.7439472 2.07331731,28.7718269 2.04567308,28.7997065 L2.04567308,28.7997065 C2.01802885,28.8275862 2.01802885,28.8554659 1.99038462,28.8833456 C1.93509615,28.9669846 1.87980769,29.0506236 1.82451923,29.106383 C1.27163462,29.9427733 0.71875,30.7791636 0.165865385,31.5876742 C0.248798077,31.699193 0.387019231,31.6713133 0.497596154,31.6713133 C1.82451923,31.6713133 3.12379808,31.6713133 4.45072115,31.6713133 C5.80528846,31.6713133 7.15985577,31.6713133 8.48677885,31.6713133 L8.51442308,31.6713133 L8.54206731,31.6713133 C8.625,31.5597946 8.68028846,31.4203962 8.73557692,31.3088775 C9.15024038,30.6676449 9.59254808,30.0264123 10.0072115,29.3573001 C10.1454327,29.1342627 10.2836538,28.9112252 10.421875,28.7160675 C10.6430288,28.409391 10.8641827,28.0748349 11.0853365,27.7681585 C11.2235577,27.5730007 11.3617788,27.4057227 11.5,27.2384446 C11.5276442,27.1826853 11.5552885,27.1269259 11.6105769,27.0432869 C11.6382212,27.0154072 11.6658654,26.9875275 11.6935096,26.9596478 C11.7211538,26.9038885 11.7764423,26.8481291 11.8040865,26.7923698 C11.8317308,26.7366104 11.859375,26.7087307 11.8870192,26.6529714 C11.8870192,26.6250917 11.9146635,26.6250917 11.9423077,26.597212 C11.9699519,26.5414527 11.9975962,26.513573 12.0252404,26.4578136 L12.0252404,26.4578136 C12.0528846,26.429934 12.0805288,26.4020543 12.0805288,26.3741746 C12.1081731,26.3462949 12.1358173,26.2905356 12.1358173,26.2626559 C12.578125,25.7050624 12.9375,25.0638298 13.3245192,24.4783566 C13.3798077,24.3947175 13.4350962,24.2831988 13.5180288,24.1995598 C13.6009615,24.1159208 13.65625,24.0044021 13.7391827,23.920763 C13.7944712,23.837124 13.8221154,23.7256053 13.8774038,23.6419663 C14.1262019,23.2516508 14.4026442,22.8334556 14.6514423,22.4431401 C14.7067308,22.3595011 14.7620192,22.2758621 14.8173077,22.192223 C15.3149038,21.4394718 15.8125,20.7146001 16.3100962,19.9618489 C16.3653846,19.8782098 16.4483173,19.7945708 16.5036058,19.7109318 L16.5036058,19.7109318 C16.53125,19.6830521 16.5588942,19.6551724 16.5588942,19.6272927 L16.5588942,19.6272927 C16.5865385,19.5715334 16.6141827,19.5436537 16.6418269,19.4878944 C16.6418269,19.4600147 16.6694712,19.432135 16.6694712,19.432135 C16.6971154,19.3763756 16.7247596,19.2927366 16.7524038,19.2369773 C16.7524038,19.1533382 16.7800481,19.0696992 16.7800481,18.9581805 C16.7247596,18.8745415 16.6971154,18.8466618 16.6694712,18.7909024 Z" id="Path" fill="#969696" fill-rule="nonzero"></path>
            </g>
        </g>
    </g>
</svg>