<?xml version="1.0" encoding="UTF-8"?>
<svg width="95px" height="36px" viewBox="0 0 95 36" version="1.1" xmlns="http://www.w3.org/2000/svg" xmlns:xlink="http://www.w3.org/1999/xlink">
    <title>SIGNUMCAPITAL</title>
    <g id="Page-2" stroke="none" stroke-width="1" fill="none" fill-rule="evenodd">
        <g id="Icon" transform="translate(-592.000000, -476.000000)" fill="#FFFFFF">
            <path d="M632.99902,490.860648 C633.76498,491.397906 634.65819,491.538775 635.579142,491.584039 C635.812652,491.58384 636.046162,491.583691 636.279671,491.583492 C636.795528,491.566182 637.30123,491.501667 637.776154,491.293449 C638.119849,491.153427 638.447946,490.991717 638.685329,490.703713 L638.685381,490.703713 C638.728356,490.668993 638.772535,490.635219 638.790332,490.58105 C639.035044,490.285884 639.191764,489.955948 639.228981,489.578758 C639.230185,489.575127 639.230813,489.571495 639.231912,489.567864 C639.23835,489.547023 639.248819,489.524937 639.248819,489.506234 C639.294516,489.30687 639.259759,489.104223 639.260073,488.903018 C639.261801,488.58313 639.174909,488.282194 639.025988,487.999363 C638.934908,487.826412 638.850372,487.640776 638.641726,487.556763 C638.641673,487.556713 638.641673,487.556713 638.641673,487.556713 L638.645337,487.556415 C638.580221,487.37247 638.421459,487.289302 638.247675,487.222251 C638.084569,487.062431 637.890265,486.957029 637.658117,486.917832 C637.491032,486.838793 637.337767,486.730555 637.147442,486.701009 L637.147442,486.700959 C636.891424,486.607047 636.632527,486.522238 636.362271,486.472595 C636.362271,486.472546 636.362271,486.472546 636.362219,486.472546 C636.348557,486.464886 636.334895,486.457275 636.321233,486.449615 C636.16713,486.408528 636.013132,486.367392 635.859082,486.326256 C635.813961,486.281184 635.753869,486.291486 635.69786,486.286711 C635.69786,486.286711 635.697808,486.286711 635.697756,486.286711 C635.330139,486.139526 634.962522,485.992341 634.594905,485.845155 C634.519058,485.787555 634.444833,485.727815 634.366944,485.672751 C634.098049,485.482688 633.935886,485.233384 633.866529,484.920012 C633.811672,484.67215 633.881238,484.440752 633.92861,484.204479 C634.001055,484.035656 634.158822,483.921499 634.243829,483.760735 C634.587891,483.577586 634.944987,483.428411 635.341236,483.381505 C635.485498,483.375984 635.632429,483.400755 635.772399,483.347134 C635.864264,483.347183 635.956077,483.347233 636.047889,483.347233 L636.063645,483.350615 L636.079715,483.348576 C636.261822,483.406227 636.450786,483.370761 636.636086,483.385534 L636.636086,483.385534 C636.679899,483.395731 636.723136,483.410007 636.767576,483.415429 C637.398277,483.492379 637.993018,483.664435 638.52306,484.009592 C638.595505,484.089377 638.644448,484.030185 638.69763,483.984224 C638.921508,483.791177 638.909992,483.557292 638.829015,483.310922 C638.825246,483.318632 638.821477,483.326342 638.817761,483.334052 C638.819855,483.325496 638.822891,483.317438 638.828963,483.310922 C638.745263,483.071565 638.531435,482.952136 638.329647,482.821614 C638.298344,482.788934 638.256364,482.782069 638.213232,482.777792 C638.21318,482.777792 638.213127,482.777792 638.213023,482.777742 C637.899111,482.592852 637.568921,482.453526 637.190888,482.448005 C637.170212,482.435221 637.151106,482.415524 637.128545,482.410748 C636.514961,482.280873 635.895933,482.245606 635.271199,482.318727 C634.968228,482.354192 634.665309,482.390354 634.385631,482.518887 C634.171855,482.566091 633.988387,482.671643 633.810625,482.788188 C633.780684,482.809875 633.750638,482.831612 633.720697,482.853299 C633.28969,483.136926 633.023151,483.525955 632.900874,484.007552 L632.900822,484.007552 C632.859103,484.093804 632.83827,484.184632 632.835077,484.279291 C632.824817,484.359225 632.807439,484.438961 632.805397,484.519095 C632.791631,485.07237 632.849733,485.608833 633.226877,486.066356 L633.226877,486.066306 L633.226877,486.066356 C633.24949,486.117839 633.289115,486.155344 633.336329,486.186681 L633.336329,486.186631 C633.433481,486.313671 633.560941,486.409722 633.691959,486.502341 C634.085016,486.780347 634.537274,486.943051 634.989741,487.105408 C635.262823,487.184845 635.535068,487.267018 635.809197,487.343172 C636.421264,487.513289 637.033906,487.681166 637.580856,488.00767 C637.616764,488.055969 637.675233,488.069996 637.72674,488.094569 C637.726793,488.094569 637.726793,488.094569 637.726793,488.094569 C637.908272,488.25215 638.054994,488.434503 638.161254,488.645556 L638.161254,488.645606 C638.259557,489.007724 638.254951,489.366311 638.120425,489.720471 C638.008407,489.882778 637.882256,490.033993 637.731818,490.166056 C637.690466,490.191176 637.649113,490.216295 637.607761,490.241415 C637.019093,490.555234 636.379022,490.61005 635.720107,490.595276 C635.314174,490.586124 634.917977,490.51768 634.518691,490.464953 L634.518691,490.464904 C634.49121,490.457691 634.463729,490.450479 634.436248,490.443266 C633.864644,490.289415 633.301939,490.11721 632.833192,489.748725 C632.767918,489.697391 632.727194,489.721118 632.707617,489.792995 C632.644228,489.885912 632.572882,489.976143 632.592878,490.097413 C632.516455,490.453364 632.735098,490.67551 632.99902,490.860648 L632.99902,490.860648 Z M648.998489,491.58399 C648.830201,491.584537 648.661913,491.585084 648.493625,491.585631 C648.114073,491.568371 647.743106,491.512561 647.392188,491.365923 C647.279594,491.350204 647.175323,491.312401 647.076863,491.259127 C646.521381,490.991766 646.044678,490.637805 645.704856,490.133127 L645.704856,490.133127 C645.676224,490.097512 645.647696,490.061898 645.619063,490.026283 L645.619063,490.026233 C645.42408,489.745491 645.273955,489.444057 645.159163,489.126259 L645.159163,489.126259 L645.159163,489.126259 C645.127547,489.01633 645.095983,488.906351 645.064419,488.796422 C644.949156,488.53503 644.935547,488.253095 644.882574,487.979168 C644.8653,487.890081 644.858129,487.799303 644.846299,487.70927 C644.795106,487.03562 644.794896,486.363761 644.923717,485.696378 C644.960253,485.492935 644.979778,485.285662 645.074417,485.095401 L645.074417,485.09545 C645.159791,484.737908 645.30264,484.402799 645.507726,484.091964 C645.547561,484.031329 645.587447,483.970644 645.627386,483.910009 L645.708521,483.795056 C645.790649,483.652597 645.911042,483.539683 646.026933,483.423288 C646.047034,483.40558 646.067186,483.387822 646.087287,483.370114 C646.087339,483.370114 646.087339,483.370064 646.087391,483.370064 C646.148844,483.281325 646.229926,483.212185 646.324304,483.156375 C646.380155,483.093103 646.441085,483.035503 646.520387,482.998545 L646.520439,482.998545 C646.714428,482.850414 646.930926,482.738794 647.156846,482.642146 C647.307023,482.579124 647.453169,482.505705 647.618892,482.48357 L647.618997,482.48352 C647.654277,482.449348 647.699241,482.447806 647.745252,482.449945 C648.116167,482.310072 648.512155,482.290026 648.899453,482.280824 C649.340719,482.270328 649.786486,482.303207 650.217963,482.417911 C650.640385,482.492971 651.037734,482.629761 651.400796,482.85121 L651.400849,482.85121 C651.476434,482.875086 651.533647,482.925027 651.592064,482.973276 C651.71879,483.052067 651.813691,483.16105 651.906708,483.271924 C652.141997,483.522174 652.089024,483.843007 651.791026,483.998549 C651.678014,484.057493 651.584474,484.063611 651.509883,483.948808 C651.378916,483.860417 651.24795,483.771976 651.117036,483.683586 L651.116983,483.683536 C650.691683,483.459201 650.237697,483.320074 649.754189,483.267348 C649.723463,483.263966 649.694412,483.247153 649.664575,483.236658 C649.101975,483.218452 648.538536,483.188607 647.989336,483.349571 C647.327489,483.585048 646.7975,483.975569 646.428784,484.553416 C646.116286,485.043222 645.961555,485.584708 645.86032,486.143107 C645.808708,486.702799 645.812844,487.262492 645.861315,487.822134 C645.926013,488.340242 646.098907,488.826615 646.338751,489.293539 C646.367017,489.348603 646.391619,489.405458 646.417843,489.461467 C646.417896,489.461467 646.417896,489.461467 646.417896,489.461467 C646.45035,489.476439 646.450507,489.506483 646.455636,489.534239 C646.455636,489.534239 646.455636,489.534289 646.455689,489.534289 C646.679881,489.756285 646.86963,490.008724 647.117064,490.210277 C647.434639,490.378801 647.744415,490.56384 648.107216,490.637805 C648.208712,490.658498 648.310575,490.677549 648.412281,490.697396 C648.492159,490.70237 648.576224,490.679638 648.64935,490.729479 C648.714519,490.729827 648.779741,490.730176 648.844962,490.730573 C648.920338,490.729479 648.995767,490.728435 649.071196,490.72739 C649.071353,490.72734 649.071458,490.727291 649.071562,490.727241 C649.161386,490.680285 649.259689,490.700977 649.354747,490.695307 C649.417875,490.681031 649.481055,490.666805 649.544182,490.652529 L649.544182,490.652479 C649.581138,490.623828 649.624741,490.619898 649.669967,490.621789 C650.46189,490.392082 651.068879,489.932868 651.517577,489.277324 C651.516216,488.807017 651.505852,488.336512 651.518101,487.866504 C651.522498,487.69584 651.463453,487.663409 651.297782,487.665349 C650.58804,487.673705 649.878142,487.669676 649.168295,487.66709 C649.101189,487.666841 649.024347,487.697332 648.966768,487.634608 C648.882441,487.537911 648.881551,487.421267 648.879562,487.304921 C648.843339,487.264282 648.841403,487.223544 648.8793,487.182756 L648.8793,487.182706 C648.867418,486.991102 648.98645,486.900821 649.161386,486.853865 C649.218965,486.795816 649.295702,486.814619 649.364012,486.81437 C650.17101,486.811783 650.978008,486.811435 651.785059,486.81233 C651.854886,486.81238 651.92953,486.801934 651.991035,486.849587 C652.057199,486.863365 652.131319,486.86053 652.171781,486.92793 C652.34834,487.077254 652.411939,487.274927 652.412357,487.488269 C652.414922,488.74295 652.412043,489.997631 652.410996,491.252363 C652.440833,491.396762 652.329339,491.416659 652.225068,491.442873 C652.207585,491.453319 652.189474,491.457149 652.171205,491.457944 C652.015899,491.498086 651.860644,491.500026 651.705338,491.442823 C651.602585,491.417903 651.562594,491.346474 651.550502,491.254302 C651.470676,491.000471 651.534956,490.740472 651.512971,490.484303 C651.506951,490.414068 651.548775,490.334581 651.475126,490.27514 L651.475073,490.27514 C650.851543,491.056381 650.043027,491.521813 648.998489,491.58399 L648.998489,491.58399 Z M686.64835,490.323389 L686.64835,490.323389 C686.433527,490.247832 686.222526,490.243554 686.017492,490.353333 C685.751947,490.494202 685.662909,490.86781 685.820414,491.180188 C685.975825,491.435511 686.174997,491.437401 686.177562,491.44342 L686.177562,491.44342 C686.529371,491.533303 686.856263,491.413625 686.950327,491.154571 C687.066898,490.833787 686.983042,490.414217 686.64835,490.323389 L686.64835,490.323389 Z M679.237075,490.958241 C679.138824,490.999874 679.040363,491.000571 678.941746,490.959235 C678.757493,490.959136 678.616947,490.884374 678.5199,490.735647 C678.37234,490.528623 678.300419,490.290162 678.208658,490.059908 C677.866638,489.266928 677.524618,488.473948 677.182546,487.680967 C677.097747,487.536866 677.034672,487.384557 676.992953,487.22429 C676.771064,486.721353 676.548285,486.218714 676.327547,485.71528 C676.134343,485.274669 675.943076,484.833263 675.75275,484.391557 C675.738513,484.35838 675.738617,484.319631 675.732022,484.283469 L675.663607,484.249296 L675.663607,484.249346 C675.635917,484.694185 675.608122,485.139024 675.580379,485.583863 C675.576453,485.761092 675.599014,485.940062 675.542482,486.113959 C675.540336,486.160965 675.538189,486.207921 675.535991,486.254926 C675.527773,486.41967 675.565513,486.587001 675.505265,486.74881 L675.505265,486.748761 C675.471398,487.32626 675.437583,487.90371 675.403821,488.48116 C675.394137,488.647247 675.384819,488.813334 675.375293,488.979471 C675.354721,489.217634 675.361474,489.458184 675.306616,489.693362 L675.306616,489.693312 C675.306512,490.055431 675.294158,490.416754 675.25223,490.776485 C675.253434,490.808668 675.246629,490.841895 675.239772,490.875172 C675.235846,490.904818 675.232235,490.934514 675.22789,490.96421 C675.228204,491.353885 675.088077,491.484855 674.681726,491.473364 C674.629904,491.471922 674.577926,491.467843 674.526681,491.46073 C674.169952,491.411436 674.170004,491.411038 674.205441,491.067274 L674.205441,491.067274 L674.205389,491.067274 L674.284691,489.94779 C674.292647,489.822143 674.255954,489.692765 674.319396,489.571794 C674.319396,489.571794 674.319396,489.571794 674.319448,489.571794 C674.310078,489.360342 674.336879,489.151229 674.364203,488.942165 C674.368076,488.80259 674.33557,488.660429 674.39718,488.524982 L674.397232,488.524982 C674.400321,488.426892 674.403357,488.328802 674.406445,488.230711 L674.406445,488.230662 L674.406445,488.230711 C674.404508,488.152319 674.388857,488.072434 674.435182,487.999463 C674.439684,487.492696 674.511605,486.990157 674.540971,486.484981 C674.540971,486.484981 674.540971,486.484931 674.541023,486.484931 C674.561856,486.197525 674.582794,485.910118 674.603732,485.622711 L674.603732,485.622761 L674.603732,485.622711 C674.600801,485.543672 674.583632,485.46319 674.631318,485.389572 C674.631318,485.389572 674.63137,485.389572 674.63137,485.389622 C674.647702,485.118928 674.66419,484.848284 674.680574,484.577641 C674.707584,484.351764 674.688007,484.12156 674.749407,483.898817 C674.749407,483.898867 674.74946,483.898867 674.74946,483.898867 C674.7526,483.813759 674.755741,483.728751 674.758829,483.643693 C674.759143,483.528989 674.735431,483.412593 674.786049,483.301521 L674.786049,483.301471 C674.785892,483.270631 674.784845,483.239841 674.785839,483.209001 C674.809813,482.427014 675.355716,482.307734 675.959145,482.47596 C676.140363,482.526497 676.165069,482.725215 676.171717,482.895928 C676.171037,482.895928 676.170409,482.895928 676.169676,482.895978 C676.360472,483.169208 676.46066,483.481635 676.590265,483.781029 C676.77567,484.209254 676.954794,484.639867 677.13643,485.069535 C677.165481,485.138328 677.195527,485.20707 677.191444,485.283623 C677.191025,485.283672 677.190607,485.283672 677.190135,485.283672 C677.349211,485.49005 677.417364,485.736321 677.516086,485.968315 C677.830416,486.707226 678.136789,487.449271 678.446199,488.190122 C678.496554,488.231756 678.491634,488.295326 678.515241,488.347604 C678.545025,488.418784 678.57481,488.489964 678.604594,488.561145 C678.627311,488.614169 678.650134,488.667243 678.672956,488.720318 C678.761052,488.921522 678.8503,489.12223 678.936668,489.324081 C678.960538,489.379941 678.975822,489.439034 678.995085,489.496684 C679.147932,489.67257 679.088834,489.430528 679.150025,489.425753 C679.255866,489.141131 679.358514,488.855416 679.468229,488.572137 C679.753036,487.836659 680.040984,487.102175 680.327729,486.367342 C680.333644,486.307205 680.359502,486.255722 680.402477,486.211651 C680.415092,486.092271 680.46126,485.984481 680.527371,485.883506 C680.579768,485.68643 680.633369,485.489752 680.757321,485.318989 C680.773915,485.117685 680.877714,484.945032 680.959058,484.765017 C680.967957,484.738306 680.976855,484.711644 680.985754,484.684983 C680.985754,484.684983 680.985806,484.684933 680.985806,484.684933 C681.045898,484.480943 681.128131,484.28511 681.224655,484.094401 C681.315996,483.719947 681.491456,483.373447 681.623678,483.012522 C681.671993,482.880657 681.697327,482.73576 681.819605,482.637918 L681.819605,482.637869 C682.044373,482.373044 682.353678,482.385977 682.655131,482.433331 C683.029081,482.492026 683.027668,482.507048 683.041958,482.897171 C683.09022,483.117974 683.124872,483.340219 683.118695,483.566643 C683.118538,483.56734 683.118538,483.568086 683.118433,483.568782 C683.170988,483.637923 683.150782,483.717012 683.151515,483.793216 C683.23066,484.446422 683.309963,485.099579 683.388846,485.752785 C683.489976,486.590185 683.59142,487.427634 683.690718,488.265282 C683.702443,488.36377 683.701396,488.463651 683.706264,488.562886 C683.706317,488.562935 683.706317,488.563035 683.706369,488.563134 C683.763843,488.672019 683.73453,488.790304 683.747198,488.904063 L683.747198,488.904113 C683.751333,488.913066 683.751542,488.922119 683.747721,488.931272 C683.747774,488.931371 683.747774,488.931421 683.747826,488.93152 C683.797082,489.004292 683.779599,489.08547 683.780175,489.164361 C683.78274,489.188286 683.785357,489.212162 683.78787,489.236038 L683.78787,489.236088 C683.837807,489.332686 683.818701,489.436696 683.823726,489.538119 C683.923128,490.107461 683.955163,490.684214 684.032581,491.255894 C684.045091,491.348513 683.993218,491.376667 683.921453,491.401886 C683.687944,491.483959 683.450403,491.499479 683.209461,491.437948 C683.048187,491.396812 682.947842,491.294145 682.926485,491.138852 C682.902983,490.967393 682.897015,490.793696 682.883353,490.620943 C682.868226,490.519918 682.825984,490.421828 682.84734,490.316873 L682.84734,490.316873 L682.84734,490.316873 C682.843205,490.233208 682.839227,490.149542 682.835144,490.065827 C682.776727,489.946099 682.806302,489.818363 682.797456,489.694108 C682.797403,489.694009 682.797403,489.693909 682.797351,489.69381 C682.751392,489.634866 682.764165,489.567665 682.767724,489.501708 L682.767724,489.501758 C682.701037,488.79488 682.634036,488.088052 682.568134,487.381125 C682.562376,487.319645 682.563737,487.257617 682.5618,487.195838 C682.561695,487.195539 682.561591,487.195241 682.561486,487.194943 C682.505844,487.084914 682.537878,486.966828 682.5272,486.852671 L682.5272,486.852671 L682.5272,486.852671 C682.495532,486.69504 682.478624,486.536215 682.483649,486.375599 C682.483545,486.37545 682.483545,486.375351 682.483492,486.375251 C682.434655,486.290243 682.453918,486.197624 682.451091,486.107492 L682.450201,486.067998 C682.434498,485.872215 682.418742,485.676482 682.402986,485.480749 C682.402986,485.480749 682.402986,485.480749 682.402934,485.480749 C682.352212,485.394148 682.371789,485.300684 682.373673,485.208911 C682.34279,484.888575 682.288508,484.570179 682.287043,484.247456 C682.263854,484.260936 682.240613,484.274416 682.21732,484.287896 C682.079339,484.724826 681.886501,485.142605 681.723238,485.570681 C681.696856,485.639723 681.657598,485.704287 681.624307,485.770941 L681.624254,485.770941 C681.482348,486.264079 681.24664,486.724636 681.072803,487.206682 C681.057989,487.247868 681.04684,487.290198 680.99727,487.30716 L680.99727,487.307209 C680.995542,487.329792 680.993762,487.352424 680.992087,487.375057 C680.78297,487.912514 680.578303,488.451564 680.361962,488.986385 C680.301923,489.134814 680.27753,489.298165 680.172736,489.429533 C680.035436,489.799511 679.898764,490.169688 679.759841,490.539118 C679.744923,490.578862 679.721577,490.618754 679.6685,490.626415 L679.6685,490.626365 C679.606471,490.832892 679.465821,490.947148 679.237232,490.958241 C679.237179,490.958241 679.237127,490.958241 679.237075,490.958241 L679.237075,490.958241 Z M664.782661,482.682586 C664.78057,482.528735 664.840191,482.477452 664.98194,482.452482 C665.195559,482.414827 665.407346,482.383639 665.617928,482.458799 C665.75638,482.508192 665.855312,482.589818 665.846413,482.746703 C665.89211,482.814998 665.87337,482.891451 665.873423,482.964273 C665.874051,484.724179 665.873004,486.484086 665.87358,488.243992 C665.873632,488.411174 665.882321,488.578405 665.887032,488.745586 C665.935399,488.856013 665.953353,488.972209 665.959425,489.090644 C666.02763,489.285183 666.095888,489.479772 666.164093,489.674361 C666.344944,489.985843 666.592901,490.237684 666.907597,490.430284 C667.131632,490.483507 667.333159,490.606269 667.568658,490.624176 L667.568658,490.624226 C667.615297,490.618705 667.660104,490.621291 667.698473,490.651435 L667.698473,490.651484 C668.070905,490.689039 668.443285,490.676405 668.815665,490.651932 C668.853301,490.62154 668.897323,490.616665 668.944067,490.622535 C669.1915,490.581001 669.426423,490.504299 669.650197,490.39626 C670.287127,490.055779 670.521788,489.486487 670.627996,488.844224 C670.643228,488.752301 670.657256,488.66023 670.671808,488.568208 C670.673379,486.592423 670.674949,484.616688 670.676624,482.640903 C670.676676,482.597976 670.669505,482.553109 670.706199,482.517991 C670.706199,482.517991 670.706251,482.517991 670.706251,482.518041 C670.773462,482.459346 670.857998,482.45094 670.943163,482.444274 C671.177929,482.387818 671.405733,482.38359 671.614065,482.525104 C671.731684,482.59907 671.755134,482.716112 671.755396,482.834596 C671.759164,484.652651 671.764504,486.470755 671.75885,488.288809 C671.757699,488.65829 671.704046,489.026477 671.608255,489.386904 C671.547901,489.681772 671.46059,489.966543 671.266077,490.211122 C671.222998,490.378602 671.101977,490.497882 670.985929,490.620197 C670.974465,490.659741 670.95358,490.689785 670.905475,490.692521 C670.855852,490.744402 670.828842,490.816427 670.754199,490.846073 C670.726037,490.869054 670.697928,490.892084 670.669819,490.915115 C670.268963,491.257635 669.780483,491.417604 669.264574,491.513058 C669.029232,491.556632 668.791744,491.600902 668.548708,491.585532 C668.328232,491.584736 668.107756,491.58394 667.887228,491.583144 C667.246581,491.559765 666.63195,491.446753 666.08343,491.108112 C666.035168,491.078317 665.978217,491.055187 665.959006,490.995497 L665.959006,490.995447 C665.693305,490.873133 665.525435,490.658995 665.372327,490.43103 C665.32595,490.393027 665.30072,490.342888 665.281771,490.289067 C665.281771,490.289018 665.281771,490.289018 665.281718,490.289018 C664.973146,489.784091 664.841918,489.229472 664.825482,488.655753 C664.803079,487.874512 664.830455,487.092027 664.807947,486.310786 C664.77298,485.10127 664.799519,483.891854 664.782661,482.682586 L664.782661,482.682586 Z M641.503724,491.179392 C641.52597,491.337719 641.636156,491.412132 641.786699,491.450831 C641.977234,491.499777 642.162796,491.466699 642.348044,491.424717 C642.487595,491.393081 642.537217,491.319613 642.536905,491.172925 C642.530936,488.62556 642.532506,486.078195 642.532402,483.530879 C642.532349,483.288588 642.533344,483.046247 642.531512,482.804005 C642.530151,482.621454 642.448336,482.494911 642.249793,482.45472 L642.249793,482.45472 C642.222469,482.443777 642.195197,482.432784 642.167873,482.421841 C641.939965,482.393289 641.720954,482.433182 641.505399,482.499587 L641.505399,482.499637 C641.434786,482.544653 641.467397,482.612848 641.467344,482.670549 C641.464675,485.422999 641.463157,488.175448 641.463785,490.927898 C641.463837,491.011912 641.440282,491.102939 641.503724,491.179392 L641.503724,491.179392 Z M661.667736,491.469534 C661.271382,491.524101 661.057397,491.286535 660.886649,490.99485 L660.886596,490.99485 C660.875238,490.982316 660.863826,490.969781 660.852415,490.957296 L660.852415,490.957246 C660.788555,490.869551 660.724642,490.781807 660.660729,490.694063 L660.660677,490.694063 C660.645444,490.670486 660.630212,490.646908 660.61498,490.623331 L660.61498,490.623231 C660.529553,490.551753 660.461401,490.468435 660.418949,490.367211 C660.308868,490.252955 660.201928,490.136609 660.139847,489.99027 C660.139847,489.99022 660.139899,489.99022 660.139899,489.99022 C659.877077,489.64382 659.612841,489.298464 659.351955,488.95077 C659.041551,488.53707 658.734026,488.121379 658.425244,487.706584 C658.398496,487.670422 658.3718,487.63426 658.345105,487.598098 L657.949745,487.079443 C657.934199,487.055417 657.918652,487.031392 657.903106,487.007317 L657.903106,487.007268 C657.631385,486.64505 657.359768,486.282831 657.088099,485.920663 C656.785442,485.512384 656.461743,485.118132 656.182484,484.694235 C656.182484,484.694235 656.182484,484.694235 656.182431,484.694235 C656.157882,484.667325 656.13328,484.640414 656.108678,484.613504 C656.063714,484.554958 655.993676,484.511385 655.987552,484.429759 C655.942745,484.40459 655.915212,484.413842 655.908983,484.465424 C655.932747,484.751338 655.919242,485.037402 655.912804,485.323416 L655.912804,485.433942 C655.975879,485.916783 655.93929,486.402062 655.945362,486.885948 C655.95892,487.966982 655.9462,489.048264 655.962793,490.129198 C655.968237,490.482711 655.982161,490.836473 655.982108,491.190235 C655.982056,491.24893 656.009537,491.315982 655.946671,491.364381 L655.946619,491.36443 C655.937772,491.374379 655.927932,491.378308 655.917149,491.37612 C655.691072,491.469286 655.455782,491.495151 655.212066,491.451528 C655.106748,491.432726 655.014935,491.391539 654.968924,491.290116 L654.968924,491.290067 C654.900144,491.186256 654.890983,491.070607 654.890983,490.951923 C654.891716,488.212207 654.891611,485.472491 654.893496,482.732825 C654.8936,482.661496 654.864078,482.582854 654.92663,482.519036 C654.92663,482.519036 654.926682,482.519036 654.926682,482.519036 C655.465362,482.304302 655.797384,482.419105 656.074026,482.804204 C657.224195,484.405037 658.393052,485.993733 659.554633,487.587055 C659.561805,487.596904 659.564055,487.610036 659.568557,487.621576 L659.568557,487.621676 C659.609543,487.653809 659.637024,487.6939 659.648173,487.743642 C659.947428,488.09621 660.200148,488.480165 660.473544,488.850193 C660.604668,489.027671 660.728934,489.209824 660.856289,489.389839 C660.939883,489.445003 660.954278,489.544088 661.013951,489.614373 C661.068651,489.572142 661.053105,489.514143 661.053,489.459278 C661.05211,489.087311 661.051587,488.715393 661.050906,488.343426 C661.050383,487.551291 661.04986,486.759157 661.049336,485.967022 C661.049284,485.966972 661.049284,485.966873 661.049231,485.966823 C661.009763,485.917977 661.021227,485.860575 661.021122,485.80576 C661.019761,484.759098 661.018662,483.712386 661.018348,482.665724 C661.018348,482.618867 660.996939,482.564997 661.053314,482.530427 C661.158108,482.454571 661.287976,482.451686 661.408002,482.420448 L661.408002,482.420398 C661.568334,482.395677 661.715056,482.452332 661.859475,482.499985 C662.046136,482.561615 662.100784,482.711983 662.100627,482.885432 C662.098376,485.600974 662.097748,488.316516 662.091309,491.032007 C662.090315,491.458492 662.15606,491.402333 661.667736,491.469534 L661.667736,491.469534 Z M618.243314,503.08633 C618.24635,503.10568 618.208976,503.130849 618.190079,503.153332 C618.046602,503.40592 617.875278,503.640153 617.675269,503.855335 C617.254732,504.457258 616.785566,505.023914 616.295149,505.575249 C616.05227,505.898569 615.761966,506.182892 615.477682,506.47209 C615.375191,506.634048 615.246214,506.773275 615.085568,506.885442 C615.078344,506.880717 615.071016,506.877334 615.063688,506.874449 C615.069236,506.879971 615.076355,506.8839 615.085568,506.885442 C615.073581,506.896684 615.061594,506.907925 615.049607,506.919167 C615.040918,506.992436 614.976168,507.022779 614.926283,507.064611 C614.788302,507.230052 614.63823,507.384649 614.469157,507.522035 C614.457641,507.534072 614.446178,507.54611 614.434714,507.558147 L614.434662,507.558197 C614.405087,507.613062 614.360332,507.6539 614.305004,507.685088 C613.808043,508.183001 613.295484,508.665245 612.735501,509.100036 C612.710532,509.119336 612.689804,509.143461 612.667086,509.165297 L612.667086,509.165347 C612.560146,509.277763 612.440852,509.376699 612.308368,509.46116 C612.159343,509.599641 612.006339,509.733495 611.829519,509.840241 L611.829519,509.840191 C611.60004,510.044181 611.35046,510.223848 611.092872,510.393964 C610.675528,510.717185 610.236251,511.011058 609.779962,511.282348 C609.602566,511.414263 609.41177,511.52638 609.213279,511.627057 L609.213226,511.627057 C609.071582,511.723506 608.927843,511.816623 608.762225,511.873626 C608.630107,511.955551 608.5027,512.058367 608.330747,511.959331 C607.856609,511.70749 607.390584,511.443461 606.959107,511.12805 L606.959107,511.12805 C606.293754,510.718577 605.672108,510.25429 605.068417,509.767519 L605.068364,509.767519 C604.812922,509.603869 604.598204,509.394009 604.363491,509.206782 L604.363491,509.206782 C603.890766,508.810242 603.425369,508.40634 602.987663,507.974534 L602.319378,507.333166 C601.975003,506.977862 601.61796,506.633302 601.304834,506.251536 C601.267564,506.212488 601.230295,506.173491 601.193078,506.134394 C601.072947,505.999843 600.952868,505.865292 600.832789,505.730741 C600.672039,505.569778 600.529452,505.395035 600.397281,505.212484 L600.397281,505.212434 C600.361425,505.171696 600.325674,505.130858 600.28987,505.09007 C600.209521,504.992377 600.129172,504.894635 600.048875,504.796843 C599.768883,504.472777 599.509149,504.134584 599.265537,503.7851 L598.882426,503.261221 C598.573802,502.836976 598.263555,502.413675 598.002407,501.96038 C597.991048,501.947497 597.979689,501.934614 597.968383,501.92178 C597.744662,501.564039 597.521045,501.206347 597.297376,500.848656 C597.297324,500.848556 597.297272,500.848457 597.297272,500.848357 C597.281411,500.809907 597.265708,500.771407 597.249847,500.732907 C597.249795,500.732907 597.249795,500.732857 597.249743,500.732857 C597.002519,500.391829 596.820202,500.016231 596.620245,499.65068 C596.405004,499.257274 596.209392,498.854267 596.005248,498.45544 C595.71395,497.894703 595.460444,497.318148 595.209818,496.74045 C595.209818,496.7404 595.209818,496.7404 595.20987,496.7404 C595.032683,496.303619 594.855497,495.866838 594.67831,495.430058 C594.339587,494.521926 594.013742,493.609914 593.750343,492.678851 C593.736891,492.631448 593.731604,492.581905 593.722548,492.533308 C593.673239,492.475757 593.667481,492.40383 593.650836,492.335535 C593.446639,491.609159 593.225954,490.886563 593.096558,490.143175 C593.051332,490.058018 593.033378,489.966443 593.02584,489.872432 L593.025788,489.872432 C592.896915,489.255388 592.745534,488.642273 592.665656,488.016673 C592.665604,488.016624 592.665604,488.016574 592.665604,488.016524 C592.613312,487.958028 592.635925,487.887992 592.632732,487.821985 C592.627445,487.811937 592.625979,487.801442 592.62823,487.790399 L592.62823,487.79025 C592.579968,487.681863 592.570599,487.566313 592.559397,487.451161 L592.431623,486.56024 L592.431623,486.560091 C592.378075,486.489159 592.402729,486.407384 592.396291,486.329887 C592.344051,485.912605 592.281499,485.496218 592.241769,485.077892 C592.169272,484.314607 592.109442,483.550179 592.046838,482.786049 C592.038724,482.68756 592.045372,482.587978 592.045215,482.488843 C592.043173,482.401994 592.041184,482.315145 592.039195,482.228296 L592.039195,482.228247 C591.979104,482.069422 592.005747,481.905324 592.006689,481.742769 C592.022602,481.707204 592.05626,481.707104 592.088452,481.707602 C592.754224,481.718346 593.419158,481.691237 594.084302,481.670843 C594.712282,481.620355 595.340261,481.569917 595.96824,481.519529 C596.004306,481.517191 596.040423,481.514903 596.076489,481.512615 C596.219704,481.466753 596.369619,481.461132 596.518069,481.447155 C596.68798,481.422085 596.85789,481.397015 597.027801,481.371896 L597.027801,481.371896 C597.492727,481.286788 597.957548,481.201033 598.422787,481.117468 C598.466495,481.109608 598.512925,481.115229 598.558098,481.114533 C598.762033,480.995601 599.005017,481.021267 599.222509,480.952326 L599.222509,480.952276 C599.759252,480.803101 600.296047,480.653876 600.832789,480.504651 C600.846975,480.497638 600.861055,480.490575 600.875241,480.483511 C601.437946,480.282705 602.000652,480.081848 602.563409,479.880992 C602.850991,479.755693 603.13852,479.630443 603.426102,479.505095 C603.742107,479.359302 604.039634,479.178491 604.367731,479.05553 C604.561144,478.907997 604.783923,478.806524 604.998066,478.691571 C605.152849,478.599002 605.307684,478.506383 605.462468,478.413864 L605.462468,478.413814 C605.964087,478.101387 606.435189,477.748919 606.917179,477.410726 C606.993812,477.320146 607.085153,477.246728 607.195967,477.19619 C607.326724,477.02115 607.523121,476.911171 607.676753,476.758116 C607.849961,476.585662 608.034738,476.423753 608.214437,476.257268 C608.228885,476.237024 608.240296,476.213894 608.258198,476.196982 C608.503118,475.965584 608.425648,475.897637 608.688785,476.21653 C608.715271,476.242545 608.74181,476.26856 608.768297,476.294525 L608.768297,476.294575 C608.976105,476.495033 609.183913,476.695492 609.391722,476.896 C609.442234,476.921468 609.48008,476.958923 609.507927,477.006028 C610.01834,477.42336 610.546812,477.818955 611.09172,478.194653 C611.419084,478.39352 611.746448,478.592337 612.073811,478.791204 C612.462314,478.991612 612.850921,479.192021 613.239423,479.39243 C613.658599,479.578762 614.077671,479.765144 614.496795,479.951525 C614.890061,480.109853 615.3073,480.21426 615.67722,480.425115 C616.115816,480.498135 616.520702,480.672231 616.939669,480.804245 C617.251015,480.890099 617.562362,480.975953 617.873656,481.061807 C618.021948,481.099859 618.170241,481.137862 618.318481,481.175914 C618.367789,481.178401 618.408566,481.186957 618.403593,481.249333 C618.364596,481.737695 618.425578,482.225212 618.419977,482.713525 C618.41825,482.858124 618.375589,482.907766 618.229599,482.854543 C618.139357,482.821664 618.031894,482.852802 617.950602,482.786894 C617.945054,482.774757 617.934271,482.770082 617.921394,482.768341 C617.93113,482.774558 617.940866,482.780726 617.950602,482.786894 C617.839841,482.784656 617.734471,482.761128 617.635121,482.714222 L617.635121,482.714371 C617.575134,482.716609 617.515827,482.715515 617.464477,482.679552 C616.909048,482.564748 616.364296,482.414827 615.830171,482.230137 C615.625765,482.190841 615.432142,482.120805 615.241293,482.042959 C614.619962,481.858169 614.025274,481.608765 613.429591,481.362594 C613.233194,481.281416 613.04313,481.186459 612.850136,481.09782 C612.088363,480.764551 611.351088,480.388704 610.648256,479.953017 C610.397787,479.826823 610.159828,479.682274 609.937206,479.515192 C609.551478,479.29041 609.187159,479.037673 608.843097,478.758474 C608.816244,478.755539 608.779027,478.71291 608.765679,478.763696 C608.753326,478.810702 608.759084,478.862334 608.759084,478.911926 C608.759032,488.917195 608.759189,498.922463 608.759346,508.927732 C608.759346,509.051986 608.761073,509.17634 608.759189,509.300594 C608.758089,509.369636 608.793213,509.36879 608.843987,509.346357 C609.261331,509.067406 609.678571,508.788455 610.095863,508.509554 C610.411449,508.2794 610.727087,508.049196 611.042673,507.819042 C611.250534,507.6538 611.458343,507.488509 611.666203,507.323267 C612.149345,506.898624 612.632486,506.47398 613.115628,506.049336 L613.780091,505.383097 C613.780248,505.383296 613.780353,505.383495 613.78051,505.383645 C613.802652,505.319776 613.860126,505.282619 613.905248,505.236111 C613.936183,505.172392 613.990308,505.128719 614.047468,505.087682 C614.047468,505.087632 614.04752,505.087632 614.04752,505.087632 C614.091385,505.036996 614.135302,504.986359 614.179167,504.935771 C614.522967,504.540077 614.847452,504.130256 615.164661,503.715213 C615.294162,503.525598 615.423662,503.335933 615.553163,503.146318 C615.565569,503.048228 615.645342,503.055441 615.716321,503.055341 C616.526879,503.053849 617.337437,503.053302 618.147942,503.052904 C618.184374,503.052854 618.2352,503.035295 618.243314,503.08633 L618.243314,503.08633 Z M623.602834,491.73207 C623.775519,491.763955 623.864505,491.707349 623.843463,491.529771 C623.836972,491.475205 623.8376,491.419892 623.834931,491.364977 L623.834931,490.581697 L623.834931,489.723655 C623.837653,489.469824 623.839799,489.215943 623.843672,488.962111 C623.844614,488.899686 623.847284,488.838404 623.791589,488.792393 C623.772379,488.65635 623.658477,488.717482 623.591109,488.717234 C622.694863,488.7141 621.798617,488.716935 620.902424,488.720367 C620.834167,488.720666 620.756487,488.697039 620.701577,488.76215 C620.639654,488.810151 620.665041,488.877053 620.664413,488.935699 C620.6619,489.18958 620.664046,489.44351 620.664256,489.697391 C620.664884,490.310506 620.668705,490.92367 620.66368,491.536685 C620.662424,491.688049 620.715239,491.745103 620.87934,491.740029 C621.237325,491.729036 621.595834,491.733811 621.954186,491.73217 C622.241925,491.73222 622.529611,491.732269 622.81735,491.732319 C623.079178,491.73222 623.341006,491.73217 623.602834,491.73207 L623.602834,491.73207 Z M620.847671,498.223246 C620.847567,498.161566 620.852383,498.099041 620.819981,498.041739 C620.799357,497.928328 620.716339,497.892614 620.608456,497.891171 C620.490995,497.889579 620.373481,497.890624 620.255967,497.890773 C619.28335,497.892066 618.310734,497.892813 617.338065,497.8952 C617.115129,497.895797 617.047604,497.960909 617.04729,498.173504 C617.046871,498.415248 617.050954,498.656992 617.053048,498.898786 C617.053048,498.898736 617.0531,498.898736 617.0531,498.898736 C617.053205,498.937137 617.053362,498.975488 617.053519,499.013838 C617.053414,499.262447 617.053414,499.511055 617.05331,499.759614 C617.05331,499.93361 617.053257,500.107556 617.053205,500.281502 L617.053257,500.281502 L617.053414,500.802645 C617.05331,500.914514 617.053257,501.026432 617.053153,501.138351 C617.048127,501.228184 617.022793,501.320305 617.085554,501.402628 C617.085554,501.402628 617.085554,501.402628 617.085606,501.402677 C617.09686,501.414765 617.108114,501.426852 617.119421,501.438989 C617.189563,501.51569 617.284882,501.501215 617.375282,501.501315 C618.421652,501.502708 619.468022,501.503802 620.514393,501.503454 C620.577573,501.503454 620.645935,501.521808 620.70252,501.475947 C620.76905,501.448838 620.819719,501.409691 620.821918,501.333785 C620.866777,501.286581 620.851859,501.228632 620.851807,501.174314 C620.850917,500.190625 620.849294,499.206935 620.847671,498.223246 L620.847671,498.223246 Z M612.302244,502.176209 C612.302191,501.648998 612.308996,501.121687 612.301668,500.594526 C612.299312,500.423962 612.368146,500.359646 612.541668,500.360872 C613.096522,500.36477 613.65148,500.364521 614.206334,500.362382 C614.343582,500.361885 614.440995,500.399987 614.441362,500.545829 C614.44288,501.116315 614.441362,501.686851 614.439687,502.257387 C614.439687,502.26639 614.424193,502.275344 614.415818,502.284347 C614.376873,502.375573 614.306784,502.403329 614.203455,502.402549 C613.643629,502.398205 613.083802,502.400593 612.523976,502.399896 C612.453677,502.399847 612.377306,502.41074 612.336111,502.333889 C612.284761,502.289221 612.302244,502.230029 612.302244,502.176209 L612.302244,502.176209 Z M617.871562,484.504869 C618.290267,484.504869 618.709024,484.504918 619.12773,484.504968 L619.792821,484.492135 C619.905519,484.376983 620.012669,484.256409 620.14709,484.162249 C620.434672,483.963233 620.456029,483.682889 620.442,483.374591 C620.423156,482.959597 620.440849,482.54321 620.436033,482.12747 C620.434096,481.957354 620.497904,481.880852 620.688805,481.882515 C621.452881,481.889258 622.217061,481.88498 622.981136,481.886472 C623.202711,481.88692 623.239719,481.922485 623.240086,482.137568 C623.241604,482.85121 623.241237,483.564902 623.24019,484.278544 C623.239876,484.502929 623.20135,484.538295 622.968312,484.538345 C622.432773,484.538593 621.896921,484.548194 621.361801,484.534017 C621.090917,484.526854 620.845839,484.542821 620.670537,484.768698 C620.613586,484.828885 620.556583,484.889122 620.499632,484.949359 L620.499632,484.949359 C620.498009,486.06566 620.49691,487.18196 620.493978,488.29826 C620.49356,488.440273 620.504081,488.592283 620.312081,488.646053 L620.312028,488.646053 C620.251518,488.699426 620.176141,488.680425 620.106732,488.680425 C618.892545,488.680226 617.678357,488.678783 616.464118,488.676993 C616.169679,488.676545 616.092994,488.603823 616.091738,488.325171 C616.086555,487.177782 616.081583,486.030393 616.07818,484.883004 C616.077971,484.816798 616.056091,484.746314 616.102521,484.684535 L616.144553,484.613803 C616.153609,484.572268 616.173709,484.542672 616.224745,484.546154 C616.264266,484.510639 616.309544,484.496313 616.365448,484.496761 C616.867434,484.50069 617.369524,484.502431 617.871562,484.504869 L617.871562,484.504869 Z M617.957198,490.832693 C617.957093,492.027485 617.955627,493.222278 617.9539,494.417071 C617.953795,494.471538 617.966463,494.529835 617.917991,494.574901 L617.917939,494.574901 C617.906423,494.638421 617.872556,494.681248 617.800844,494.689008 C617.667365,494.766654 617.520538,494.722136 617.380254,494.725966 C617.151822,494.732233 616.923024,494.724424 616.694382,494.722583 C615.942136,494.723479 615.189891,494.726413 614.437593,494.723081 C614.324738,494.722583 614.236171,494.747106 614.157915,494.824852 C614.000305,494.981239 613.839764,495.13509 613.677077,495.286752 C613.615415,495.344353 613.598351,495.409912 613.599188,495.488604 C613.601177,495.681203 613.597618,495.873852 613.596257,496.066451 C613.623895,496.50547 613.629182,496.944937 613.623162,497.384504 C613.622324,497.44494 613.641012,497.509106 613.596937,497.564319 C613.594582,497.706331 613.492928,497.739161 613.372588,497.739509 C612.518427,497.741897 611.664267,497.742096 610.810158,497.742693 C610.743314,497.742693 610.679035,497.735182 610.641033,497.67201 L610.641033,497.67196 C610.630773,497.658032 610.620566,497.644155 610.610306,497.630227 C610.554088,497.57964 610.575392,497.513782 610.575288,497.453992 C610.574398,496.683595 610.579214,495.913198 610.572304,495.1429 C610.570734,494.97527 610.631192,494.886283 610.805866,494.869868 C611.300314,494.868525 611.79717,494.838282 612.288634,494.874395 C612.737804,494.907373 613.075427,494.793366 613.359554,494.456018 C613.48471,494.307341 613.564693,494.181693 613.561657,493.984767 C613.549042,493.160549 613.555742,492.336082 613.55124,491.511665 C613.550874,491.44914 613.604266,491.353835 613.477801,491.333043 C613.477801,491.332994 613.477801,491.332994 613.477748,491.332994 C613.419122,491.373483 613.351598,491.356571 613.288051,491.356671 C612.485555,491.358213 611.683111,491.358461 610.880667,491.358561 C610.62334,491.358561 610.574921,491.312699 610.57445,491.06414 C610.57288,490.295484 610.57199,489.526827 610.572723,488.758171 C610.572775,488.692363 610.551,488.620785 610.605752,488.562338 C610.62847,488.514338 610.667781,488.491208 610.7229,488.491855 C610.7229,488.491805 610.722952,488.491805 610.722952,488.491805 C610.761739,488.461462 610.808431,488.465193 610.853971,488.465193 C611.684576,488.465243 612.515182,488.463701 613.34584,488.466835 C613.57333,488.46768 613.635829,488.552241 613.55972,488.732703 C613.56328,488.763692 613.566839,488.794632 613.570399,488.825621 C613.593535,488.830147 613.602591,488.843329 613.597199,488.865314 L613.597199,488.865364 C613.597251,489.051945 613.597356,489.238476 613.597461,489.425056 L613.597461,489.425056 C613.597408,489.512104 613.597356,489.599102 613.597304,489.68615 C613.597251,489.68615 613.597251,489.68615 613.597251,489.686199 C613.597408,489.810603 613.597565,489.935007 613.59767,490.05941 C613.597408,490.158645 613.597094,490.257929 613.596833,490.357164 C613.59924,490.406656 613.601177,490.456099 613.604161,490.505543 C613.607877,490.567222 613.613897,490.627061 613.70482,490.574932 C613.776741,490.533696 613.856672,490.545087 613.934194,490.544988 C615.148067,490.543694 616.361889,490.54265 617.575762,490.543346 C617.651243,490.543396 617.733581,490.521161 617.799902,490.579459 L617.799902,490.579508 C617.832408,490.581448 617.858947,490.592043 617.870829,490.623778 C617.970546,490.666855 617.957198,490.7544 617.957198,490.832693 L617.957198,490.832693 Z M627.398348,493.842854 C627.398924,494.4307 627.397458,495.018546 627.395102,495.606392 C627.39505,495.622558 627.377201,495.638674 627.367621,495.65474 C627.363696,495.692395 627.335063,495.696275 627.304023,495.696871 C626.863594,495.745618 626.421439,495.717713 625.980644,495.712341 C625.755405,495.709605 625.581673,495.753428 625.435055,495.923245 C625.363814,496.005816 625.328482,496.079882 625.328743,496.18598 C625.330733,496.916286 625.326754,497.646691 625.324661,498.377047 C625.349577,498.462503 625.303042,498.543283 625.319007,498.636101 C625.340364,498.759659 625.231958,498.831585 625.091674,498.829684 C624.883604,498.82686 624.675534,498.824373 624.467516,498.821736 C624.36246,498.821836 624.257405,498.821935 624.152349,498.822035 L623.642721,498.822035 C623.499087,498.822035 623.355401,498.822085 623.211662,498.822085 C623.106973,498.822035 623.002284,498.821935 622.897594,498.821886 C622.831902,498.821935 622.766261,498.821935 622.700621,498.821985 C622.543796,498.821886 622.386972,498.821786 622.230147,498.821637 C622.216537,498.820941 622.202928,498.820244 622.189318,498.819498 C622.113471,498.818056 622.055525,498.791593 622.031342,498.717727 L622.031342,498.717727 C621.997161,498.674452 622.002029,498.623715 622.002081,498.574421 C622.002657,497.697925 622.002343,496.821479 622.005222,495.945032 C622.00585,495.739997 622.059713,495.693489 622.268882,495.693141 C622.399639,495.692942 622.530449,495.692743 622.661206,495.692544 C622.792015,495.692594 622.922877,495.692693 623.053738,495.692743 C623.145289,495.692793 623.236893,495.692842 623.328443,495.692892 C623.420151,495.692992 623.511807,495.693091 623.603515,495.693191 C623.734272,495.693191 623.865029,495.693191 623.995786,495.693191 L624.153134,495.69334 C624.296977,495.69334 624.44082,495.69334 624.584611,495.69329 C624.758448,495.710501 624.870466,495.617235 624.976935,495.503974 C625.075657,495.398919 625.184743,495.30267 625.289328,495.20254 C625.288438,494.771231 625.286292,494.339921 625.287862,493.908662 C625.288124,493.826489 625.272473,493.726608 625.408674,493.718699 C625.513415,493.701936 625.618314,493.703876 625.723213,493.717057 C625.893229,493.716958 626.063244,493.716858 626.233312,493.716759 C626.565334,493.714073 626.897357,493.712083 627.229327,493.708253 C627.328625,493.707109 627.398243,493.739391 627.398348,493.842854 L627.398348,493.842854 Z M628.772815,489.177576 C627.85694,489.183461 626.941012,489.183262 626.025137,489.177841 C625.85978,489.176846 625.806965,489.23753 625.807587,489.386656 C625.811571,490.250717 625.812461,491.114777 625.808378,491.978788 C625.807587,492.137514 625.863706,492.199741 626.037386,492.196408 C626.49514,492.187604 626.953209,492.193374 627.411172,492.193473 C627.849507,492.193523 628.287841,492.193722 628.726176,492.193473 C628.989208,492.193324 628.995698,492.190091 628.99596,491.949043 C628.997112,491.097418 628.992401,490.245792 628.998543,489.394216 C628.999677,489.232059 628.944662,489.176498 628.772815,489.177576 L628.772815,489.177576 Z M655.786287,496.055956 C655.694317,495.094899 655.049535,494.515509 654.053154,494.505611 C653.321428,494.498348 652.589544,494.507202 651.857765,494.501559 C651.722297,494.500537 651.679165,494.535654 651.68084,494.667669 C651.688012,495.238752 651.683929,495.809984 651.68419,496.381166 C651.684452,496.964784 651.688326,497.548402 651.681311,498.13192 C651.679846,498.255329 651.716592,498.294725 651.845255,498.291044 C652.112893,498.283483 652.381003,498.290944 652.648903,498.288059 C653.19669,498.28214 653.747042,498.321485 654.290694,498.228867 C654.959398,498.114909 655.472847,497.811634 655.691491,497.161015 C655.813035,496.799344 655.821986,496.42862 655.786287,496.055956 L655.786287,496.055956 Z M656.759113,495.66832 C656.851501,496.200754 656.845429,496.734282 656.710066,497.26015 C656.450646,498.267814 655.750483,498.835913 654.703851,499.048061 C654.421818,499.105263 654.135649,499.129786 653.846707,499.12904 C653.192503,499.127249 652.538194,499.133666 651.884147,499.124265 C651.716958,499.121877 651.679532,499.17137 651.680579,499.323231 C651.687383,500.361288 651.679479,501.399494 651.688901,502.437501 C651.690419,502.605827 651.63127,502.678151 651.466384,502.691183 C651.459893,502.69173 651.45356,502.693869 651.447121,502.694764 C650.700529,502.798525 650.611909,502.604285 650.617249,502.049815 C650.629968,500.725894 650.621384,499.401773 650.621436,498.077702 C650.621541,496.697722 650.624682,495.317691 650.617301,493.937761 C650.616411,493.77814 650.671844,493.7089 650.829506,493.697012 C650.920429,493.690147 651.011195,493.674429 651.102065,493.674329 C652.142259,493.672738 653.182557,493.664083 654.222594,493.676468 C655.021164,493.685969 655.727033,493.921247 656.24781,494.533516 C656.53,494.865192 656.68693,495.252132 656.759113,495.66832 L656.759113,495.66832 Z M675.014271,499.490711 C674.583056,498.464443 674.158436,497.435638 673.731198,496.407877 C673.551708,495.975971 673.370805,495.544662 673.172471,495.069879 C672.563127,496.579685 671.972731,498.046763 671.376682,499.511752 C671.321092,499.648342 671.348677,499.677441 671.49786,499.676844 C672.629447,499.672118 673.76114,499.670228 674.892675,499.677662 C675.082791,499.678933 675.070751,499.625113 675.014271,499.490711 L675.014271,499.490711 Z M677.274253,502.35115 C677.346175,502.515745 677.279331,502.599062 677.14135,502.663477 C676.768656,502.837374 676.355447,502.685711 676.203229,502.324438 C675.972493,501.776983 675.736733,501.231467 675.511651,500.681972 C675.463965,500.565527 675.40403,500.523694 675.269713,500.524142 C673.88996,500.529315 672.510154,500.529265 671.130452,500.52449 C671.002784,500.524042 670.951172,500.566571 670.909191,500.674908 C670.690338,501.239873 670.46578,501.802898 670.237452,502.36448 C670.09811,502.7072 669.477145,502.856076 669.169882,502.630299 C669.075452,502.56091 669.136277,502.497241 669.161612,502.43377 C669.483584,501.627161 669.807231,500.821248 670.130878,500.015236 C670.917828,498.055318 671.714462,496.098833 672.48461,494.132996 C672.651956,493.705816 672.899965,493.696116 673.226334,493.673384 C673.564952,493.674727 673.734339,493.795997 673.875408,494.137224 C674.807039,496.390219 675.738879,498.643164 676.670353,500.896209 C676.871042,501.381487 677.063828,501.8698 677.274253,502.35115 L677.274253,502.35115 Z M646.65575,499.483001 C646.25233,498.525973 645.857912,497.565463 645.459465,496.606496 C645.251237,496.105498 645.040916,495.605297 644.825309,495.089825 C644.799712,495.134195 644.780659,495.159911 644.769143,495.188363 C644.185866,496.631963 643.605259,498.076508 643.017689,499.518516 C642.952416,499.678684 643.029205,499.675202 643.152686,499.674954 C644.277993,499.672516 645.403299,499.669034 646.528552,499.677271 C646.726834,499.678684 646.716575,499.627351 646.65575,499.483001 L646.65575,499.483001 Z M648.881132,502.265047 C649.000373,502.553648 648.91322,502.683025 648.580255,502.713865 C648.541468,502.717447 648.501947,502.714363 648.462741,502.714363 C648.118261,502.717098 647.970544,502.617217 647.841514,502.309168 C647.612088,501.761414 647.376327,501.216047 647.15046,500.66695 C647.104449,500.555081 647.038651,500.524142 646.917002,500.52454 C645.543739,500.528519 644.170477,500.529613 642.797266,500.523694 C642.652585,500.523047 642.596001,500.571744 642.549047,500.693661 C642.340244,501.235695 642.120292,501.773849 641.904841,502.313595 C641.751628,502.697252 641.193529,502.864532 640.830152,502.641292 C640.719391,502.573246 640.778279,502.504006 640.806388,502.433671 C641.182485,501.493854 641.559576,500.554385 641.937086,499.615115 C642.680328,497.765623 643.423937,495.916331 644.167441,494.06694 C644.28307,493.779384 644.450259,493.680647 644.833213,493.673384 C645.170784,493.667017 645.365139,493.773265 645.482549,494.051967 C645.773742,494.743276 646.058288,495.437171 646.344875,496.13022 C647.190503,498.175096 648.036027,500.220022 648.881132,502.265047 L648.881132,502.265047 Z M660.130059,498.265327 L660.129378,498.265327 C660.129378,496.886043 660.129902,495.506759 660.128959,494.127525 C660.128698,493.80326 659.997417,493.679851 659.654978,493.673832 C659.517312,493.671395 659.381477,493.681293 659.246271,493.710442 C659.115985,493.738596 659.057149,493.790178 659.057514,493.93592 C659.063379,496.66335 659.061703,499.39083 659.061756,502.118309 C659.061756,502.62627 659.240984,502.774998 659.773958,502.708841 C659.82557,502.702474 659.875977,502.68795 659.927275,502.678897 C660.078185,502.652186 660.13477,502.576976 660.134044,502.421733 C660.127284,501.036281 660.130059,499.650779 660.130059,498.265327 L660.130059,498.265327 Z M684.60518,501.758877 C683.237884,501.767134 681.870431,501.759374 680.503031,501.768079 C680.314956,501.769273 680.268056,501.714408 680.282817,501.549962 C680.296636,501.395664 680.2858,501.239376 680.2858,501.083983 C680.285696,498.76518 680.285696,496.446377 680.285382,494.127575 C680.285329,493.846933 680.14871,493.701588 679.855632,493.677911 C679.712207,493.666321 679.569725,493.682139 679.426144,493.700593 C679.264137,493.721385 679.216922,493.785154 679.217749,493.943133 C679.225245,495.329381 679.222156,496.715728 679.222366,498.102026 C679.222575,499.475888 679.221842,500.84975 679.223046,502.223662 C679.22336,502.592645 679.356682,502.719088 679.74084,502.719188 C681.252136,502.719548 682.763484,502.719983 684.274832,502.718193 C684.795243,502.717596 685.008705,502.44735 684.886218,501.964409 C684.848373,501.815284 684.779697,501.757832 684.60518,501.758877 L684.60518,501.758877 Z M669.455108,494.216065 C669.470183,494.110314 669.462908,494.005509 669.445896,493.900455 C669.419461,493.737103 669.342044,493.667366 669.148054,493.668008 C666.897913,493.675573 664.647824,493.673235 662.397683,493.673882 C662.325814,493.673882 662.253055,493.671693 662.182232,493.680995 C661.9125,493.71651 661.761643,493.876827 661.761904,494.13613 C661.762009,494.23437 661.784517,494.332858 661.800116,494.430799 C661.824195,494.582063 661.903968,494.639714 662.078537,494.637923 C663.01378,494.628124 663.949232,494.637674 664.884579,494.628671 C665.059515,494.62698 665.099821,494.671598 665.099454,494.835099 C665.093644,497.24657 665.104636,499.658141 665.089718,502.069612 C665.085792,502.710881 665.316946,502.765596 665.900904,502.699042 C665.907447,502.698246 665.913781,502.696356 665.920271,502.69571 C666.074636,502.679693 666.133262,502.611597 666.132267,502.451528 C666.124416,501.183665 666.12787,499.915753 666.12808,498.64784 C666.128289,497.37371 666.131377,496.099579 666.124311,494.825499 C666.123473,494.670056 666.16493,494.627527 666.329031,494.62897 C667.205438,494.636729 668.082002,494.633496 668.958566,494.632501 C669.264626,494.632153 669.413861,494.504815 669.455108,494.216065 L669.455108,494.216065 Z M639.982954,501.140738 C640.024463,501.389148 639.925374,501.584881 639.740231,501.757584 C638.760443,502.671585 637.556358,502.923526 636.237534,502.831156 C635.356678,502.769427 634.563812,502.497937 633.922119,501.899297 C633.322406,501.339854 633.010274,500.636856 632.830523,499.872278 C632.701702,499.324375 632.653336,498.768314 632.662706,498.253141 C632.654016,497.425739 632.742898,496.657182 633.022261,495.917077 C633.580517,494.438161 634.730059,493.622051 636.381534,493.549379 C637.254173,493.510978 638.104878,493.603846 638.874659,494.048088 C639.20977,494.241483 639.474216,494.509739 639.719084,494.791824 C639.943067,495.049883 639.874077,495.407674 639.600209,495.575651 C639.504261,495.634496 639.43658,495.642902 639.354399,495.543269 C638.414026,494.40374 636.431419,494.31316 635.467282,494.725419 C634.661854,495.069829 634.208183,495.690902 633.959755,496.464931 C633.662646,497.39087 633.659087,498.337005 633.789268,499.287666 C633.83999,499.658539 633.936252,500.020011 634.091663,500.364571 C634.464305,501.190977 635.104062,501.71595 636.047156,501.855624 C637.117762,502.014151 638.133511,501.874178 639.035044,501.255144 C639.161299,501.168444 639.273683,501.062147 639.385282,500.957988 C639.474844,500.874322 639.54865,500.779614 639.700554,500.836469 C639.852511,500.893274 639.956729,500.983953 639.982954,501.140738 L639.982954,501.140738 Z" id="SIGNUMCAPITAL"></path>
        </g>
    </g>
</svg>