<?xml version="1.0" encoding="UTF-8"?>
<svg width="187px" height="148px" viewBox="0 0 187 148" version="1.1" xmlns="http://www.w3.org/2000/svg" xmlns:xlink="http://www.w3.org/1999/xlink">
    <title>Group 2</title>
    <g id="Page-1" stroke="none" stroke-width="1" fill="none" fill-rule="evenodd">
        <g id="Wallet-Connect-Copy" transform="translate(-544.000000, -614.000000)">
            <g id="编组-9" transform="translate(343.500000, 614.500000)">
                <g id="Group-2" transform="translate(201.250000, 0.000000)">
                    <g id="Group" transform="translate(31.750000, 0.000000)">
                        <rect id="Rectrangle" stroke="#041735" fill="#3B4C65" stroke-linecap="round" x="0" y="0" width="122" height="147" rx="8"></rect>
                        <rect id="Rectrangle" stroke="#041735" stroke-linecap="round" x="8.5" y="8.5" width="105" height="21" rx="10.5"></rect>
                        <rect id="Rectangle" stroke="#041735" fill-opacity="0.27" fill="#FFFFFF" stroke-linecap="round" x="8.5" y="8.5" width="54.6516393" height="21" rx="10.5"></rect>
                        <g id="QR-Code" transform="translate(16.163035, 15.755696)" fill="#FFFFFF" fill-rule="nonzero" opacity="0.600000024">
                            <path d="M5.24962025,7.89265823 L4.13772152,6.68962025 C3.8643038,6.76860759 3.5635443,6.80810127 3.23544304,6.80810127 C2.64607595,6.80810127 2.10379747,6.66987342 1.60860759,6.39341772 C1.11341772,6.11696203 0.721518987,5.73113924 0.432911392,5.23594937 C0.144303797,4.74075949 0,4.18329114 0,3.5635443 C0,2.94379747 0.144303797,2.3878481 0.432911392,1.8956962 C0.721518987,1.4035443 1.11341772,1.01924051 1.60860759,0.74278481 C2.10379747,0.466329114 2.64607595,0.328101266 3.23544304,0.328101266 C3.83088608,0.328101266 4.37620253,0.466329114 4.87139241,0.74278481 C5.36658228,1.01924051 5.75696203,1.4035443 6.04253165,1.8956962 C6.32810127,2.3878481 6.47088608,2.94379747 6.47088608,3.5635443 C6.47088608,4.14683544 6.34481013,4.67392405 6.09265823,5.14481013 C5.84050633,5.6156962 5.49265823,5.99392405 5.04911392,6.27949367 L6.57113924,7.89265823 L5.24962025,7.89265823 Z M1.06632911,3.5635443 C1.06632911,4.03139241 1.15898734,4.44303797 1.3443038,4.79848101 C1.52962025,5.15392405 1.78632911,5.42734177 2.11443038,5.61873418 C2.44253165,5.81012658 2.81620253,5.90582278 3.23544304,5.90582278 C3.65468354,5.90582278 4.02835443,5.81012658 4.3564557,5.61873418 C4.68455696,5.42734177 4.94126582,5.15392405 5.12658228,4.79848101 C5.31189873,4.44303797 5.40455696,4.03139241 5.40455696,3.5635443 C5.40455696,3.0956962 5.31189873,2.68556962 5.12658228,2.33316456 C4.94126582,1.98075949 4.68455696,1.71037975 4.3564557,1.52202532 C4.02835443,1.33367089 3.65468354,1.23949367 3.23544304,1.23949367 C2.81620253,1.23949367 2.44253165,1.33367089 2.11443038,1.52202532 C1.78632911,1.71037975 1.52962025,1.98075949 1.3443038,2.33316456 C1.15898734,2.68556962 1.06632911,3.0956962 1.06632911,3.5635443 Z" id="Shape"></path>
                            <path d="M10.8091139,6.7443038 L9.35088608,4.21063291 L8.55797468,4.21063291 L8.55797468,6.7443038 L7.51898734,6.7443038 L7.51898734,0.410126582 L9.70632911,0.410126582 C10.1924051,0.410126582 10.6040506,0.495189873 10.9412658,0.665316456 C11.278481,0.835443038 11.5306329,1.06329114 11.6977215,1.34886076 C11.8648101,1.63443038 11.9483544,1.95341772 11.9483544,2.30582278 C11.9483544,2.71898734 11.8283544,3.09417722 11.5883544,3.43139241 C11.3483544,3.76860759 10.9792405,3.99797468 10.4810127,4.11949367 L12.0486076,6.7443038 L10.8091139,6.7443038 Z M8.55797468,3.38126582 L9.70632911,3.38126582 C10.0951899,3.38126582 10.3883544,3.28405063 10.5858228,3.08962025 C10.7832911,2.89518987 10.8820253,2.63392405 10.8820253,2.30582278 C10.8820253,1.97772152 10.7848101,1.72101266 10.5903797,1.5356962 C10.3959494,1.35037975 10.1012658,1.25772152 9.70632911,1.25772152 L8.55797468,1.25772152 L8.55797468,3.38126582 Z" id="Shape"></path>
                            <path d="M15.3022785,3.5635443 C15.3022785,2.94379747 15.4465823,2.3878481 15.7351899,1.8956962 C16.0237975,1.4035443 16.4156962,1.01924051 16.9108861,0.74278481 C17.4060759,0.466329114 17.9483544,0.328101266 18.5377215,0.328101266 C19.2121519,0.328101266 19.8121519,0.493670886 20.3377215,0.824810127 C20.8632911,1.15594937 21.244557,1.62531646 21.481519,2.23291139 L20.2329114,2.23291139 C20.0688608,1.89873418 19.8410127,1.64962025 19.5493671,1.48556962 C19.2577215,1.32151899 18.9205063,1.23949367 18.5377215,1.23949367 C18.118481,1.23949367 17.7448101,1.33367089 17.4167089,1.52202532 C17.0886076,1.71037975 16.8318987,1.98075949 16.6465823,2.33316456 C16.4612658,2.68556962 16.3686076,3.0956962 16.3686076,3.5635443 C16.3686076,4.03139241 16.4612658,4.44151899 16.6465823,4.79392405 C16.8318987,5.14632911 17.0886076,5.41822785 17.4167089,5.60962025 C17.7448101,5.80101266 18.118481,5.89670886 18.5377215,5.89670886 C18.9205063,5.89670886 19.2577215,5.81468354 19.5493671,5.65063291 C19.8410127,5.48658228 20.0688608,5.23746835 20.2329114,4.90329114 L21.481519,4.90329114 C21.244557,5.51088608 20.8632911,5.97873418 20.3377215,6.30683544 C19.8121519,6.63493671 19.2121519,6.79898734 18.5377215,6.79898734 C17.9422785,6.79898734 17.398481,6.66075949 16.9063291,6.3843038 C16.4141772,6.1078481 16.0237975,5.7235443 15.7351899,5.23139241 C15.4465823,4.73924051 15.3022785,4.18329114 15.3022785,3.5635443 Z" id="Path"></path>
                            <path d="M24.8718987,6.82632911 C24.3979747,6.82632911 23.9696203,6.71848101 23.5868354,6.50278481 C23.2040506,6.28708861 22.9032911,5.98329114 22.684557,5.59139241 C22.4658228,5.19949367 22.3564557,4.74531646 22.3564557,4.22886076 C22.3564557,3.71848101 22.4688608,3.26582278 22.6936709,2.87088608 C22.918481,2.47594937 23.2253165,2.1721519 23.6141772,1.95949367 C24.003038,1.74683544 24.4374684,1.64050633 24.9174684,1.64050633 C25.3974684,1.64050633 25.8318987,1.74683544 26.2207595,1.95949367 C26.6096203,2.1721519 26.9164557,2.47594937 27.1412658,2.87088608 C27.3660759,3.26582278 27.478481,3.71848101 27.478481,4.22886076 C27.478481,4.73924051 27.363038,5.19189873 27.1321519,5.58683544 C26.9012658,5.98177215 26.5868354,6.28708861 26.1888608,6.50278481 C25.7908861,6.71848101 25.3518987,6.82632911 24.8718987,6.82632911 Z M24.8718987,5.92405063 C25.1392405,5.92405063 25.3898734,5.86025316 25.6237975,5.73265823 C25.8577215,5.60506329 26.0475949,5.41367089 26.1934177,5.15848101 C26.3392405,4.90329114 26.4121519,4.59341772 26.4121519,4.22886076 C26.4121519,3.8643038 26.3422785,3.55594937 26.2025316,3.30379747 C26.0627848,3.05164557 25.8774684,2.86177215 25.6465823,2.73417722 C25.4156962,2.60658228 25.1665823,2.54278481 24.8992405,2.54278481 C24.6318987,2.54278481 24.3843038,2.60658228 24.1564557,2.73417722 C23.9286076,2.86177215 23.7478481,3.05164557 23.6141772,3.30379747 C23.4805063,3.55594937 23.4136709,3.8643038 23.4136709,4.22886076 C23.4136709,4.76962025 23.5518987,5.18734177 23.8283544,5.48202532 C24.1048101,5.77670886 24.4526582,5.92405063 24.8718987,5.92405063 Z" id="Shape"></path>
                            <path d="M28.1620253,4.21063291 C28.1620253,3.70632911 28.2668354,3.25974684 28.4764557,2.87088608 C28.6860759,2.48202532 28.9716456,2.17974684 29.3331646,1.96405063 C29.6946835,1.74835443 30.0972152,1.64050633 30.5407595,1.64050633 C30.8688608,1.64050633 31.1924051,1.71189873 31.5113924,1.85468354 C31.8303797,1.99746835 32.0840506,2.18734177 32.2724051,2.4243038 L32.2724051,0 L33.3205063,0 L33.3205063,6.7443038 L32.2724051,6.7443038 L32.2724051,5.9878481 C32.1022785,6.23088608 31.8668354,6.43139241 31.5660759,6.58936709 C31.2653165,6.74734177 30.9205063,6.82632911 30.5316456,6.82632911 C30.0941772,6.82632911 29.6946835,6.71544304 29.3331646,6.49367089 C28.9716456,6.27189873 28.6860759,5.96202532 28.4764557,5.56405063 C28.2668354,5.16607595 28.1620253,4.71493671 28.1620253,4.21063291 Z M32.2724051,4.22886076 C32.2724051,3.88253165 32.2010127,3.58177215 32.0582278,3.32658228 C31.915443,3.07139241 31.7286076,2.87696203 31.4977215,2.74329114 C31.2668354,2.60962025 31.0177215,2.54278481 30.7503797,2.54278481 C30.483038,2.54278481 30.2339241,2.60810127 30.003038,2.73873418 C29.7721519,2.86936709 29.5853165,3.06075949 29.4425316,3.31291139 C29.2997468,3.56506329 29.2283544,3.8643038 29.2283544,4.21063291 C29.2283544,4.55696203 29.2997468,4.86075949 29.4425316,5.12202532 C29.5853165,5.38329114 29.7736709,5.58227848 30.0075949,5.71898734 C30.241519,5.8556962 30.4891139,5.92405063 30.7503797,5.92405063 C31.0177215,5.92405063 31.2668354,5.85721519 31.4977215,5.7235443 C31.7286076,5.58987342 31.915443,5.39392405 32.0582278,5.1356962 C32.2010127,4.87746835 32.2724051,4.57518987 32.2724051,4.22886076 Z" id="Shape"></path>
                            <path d="M39.2901266,4.11037975 C39.2901266,4.29873418 39.2779747,4.46886076 39.2536709,4.62075949 L35.4167089,4.62075949 C35.4470886,5.02177215 35.5959494,5.34379747 35.8632911,5.58683544 C36.1306329,5.82987342 36.4587342,5.95139241 36.8475949,5.95139241 C37.4065823,5.95139241 37.801519,5.71746835 38.0324051,5.24962025 L39.1534177,5.24962025 C39.001519,5.71139241 38.7265823,6.08962025 38.3286076,6.3843038 C37.9306329,6.67898734 37.436962,6.82632911 36.8475949,6.82632911 C36.3675949,6.82632911 35.9377215,6.71848101 35.5579747,6.50278481 C35.1782278,6.28708861 34.8805063,5.98329114 34.6648101,5.59139241 C34.4491139,5.19949367 34.3412658,4.74531646 34.3412658,4.22886076 C34.3412658,3.71240506 34.4460759,3.25822785 34.6556962,2.86632911 C34.8653165,2.47443038 35.16,2.1721519 35.5397468,1.95949367 C35.9194937,1.74683544 36.355443,1.64050633 36.8475949,1.64050633 C37.321519,1.64050633 37.7437975,1.74379747 38.1144304,1.95037975 C38.4850633,2.15696203 38.7736709,2.44708861 38.9802532,2.82075949 C39.1868354,3.19443038 39.2901266,3.6243038 39.2901266,4.11037975 Z M38.2055696,3.78227848 C38.1994937,3.39949367 38.0627848,3.09265823 37.795443,2.86177215 C37.5281013,2.63088608 37.196962,2.51544304 36.8020253,2.51544304 C36.4435443,2.51544304 36.1367089,2.62936709 35.881519,2.85721519 C35.6263291,3.08506329 35.4744304,3.39341772 35.4258228,3.78227848 L38.2055696,3.78227848 Z" id="Shape"></path>
                        </g>
                        <g id="Desktop" transform="translate(70.183544, 15.755696)" fill="#FFFFFF" fill-rule="nonzero" opacity="0.300000012">
                            <path d="M2.06886076,0.410126582 C2.74329114,0.410126582 3.33417722,0.539240506 3.84151899,0.797468354 C4.34886076,1.0556962 4.74075949,1.42632911 5.01721519,1.90936709 C5.29367089,2.39240506 5.43189873,2.95594937 5.43189873,3.6 C5.43189873,4.24405063 5.29367089,4.80303797 5.01721519,5.27696203 C4.74075949,5.75088608 4.34886076,6.11392405 3.84151899,6.36607595 C3.33417722,6.61822785 2.74329114,6.7443038 2.06886076,6.7443038 L0,6.7443038 L0,0.410126582 L2.06886076,0.410126582 Z M2.06886076,5.89670886 C2.81012658,5.89670886 3.37822785,5.69620253 3.77316456,5.29518987 C4.16810127,4.89417722 4.36556962,4.32911392 4.36556962,3.6 C4.36556962,2.86481013 4.16810127,2.29063291 3.77316456,1.87746835 C3.37822785,1.4643038 2.81012658,1.25772152 2.06886076,1.25772152 L1.03898734,1.25772152 L1.03898734,5.89670886 L2.06886076,5.89670886 Z" id="Shape"></path>
                            <path d="M11.0643038,4.11037975 C11.0643038,4.29873418 11.0521519,4.46886076 11.0278481,4.62075949 L7.19088608,4.62075949 C7.22126582,5.02177215 7.37012658,5.34379747 7.63746835,5.58683544 C7.90481013,5.82987342 8.23291139,5.95139241 8.62177215,5.95139241 C9.18075949,5.95139241 9.5756962,5.71746835 9.80658228,5.24962025 L10.9275949,5.24962025 C10.7756962,5.71139241 10.5007595,6.08962025 10.1027848,6.3843038 C9.70481013,6.67898734 9.21113924,6.82632911 8.62177215,6.82632911 C8.14177215,6.82632911 7.71189873,6.71848101 7.3321519,6.50278481 C6.95240506,6.28708861 6.65468354,5.98329114 6.43898734,5.59139241 C6.22329114,5.19949367 6.11544304,4.74531646 6.11544304,4.22886076 C6.11544304,3.71240506 6.22025316,3.25822785 6.42987342,2.86632911 C6.63949367,2.47443038 6.93417722,2.1721519 7.31392405,1.95949367 C7.69367089,1.74683544 8.12962025,1.64050633 8.62177215,1.64050633 C9.0956962,1.64050633 9.51797468,1.74379747 9.88860759,1.95037975 C10.2592405,2.15696203 10.5478481,2.44708861 10.7544304,2.82075949 C10.9610127,3.19443038 11.0643038,3.6243038 11.0643038,4.11037975 Z M9.97974684,3.78227848 C9.97367089,3.39949367 9.83696203,3.09265823 9.56962025,2.86177215 C9.30227848,2.63088608 8.97113924,2.51544304 8.57620253,2.51544304 C8.21772152,2.51544304 7.91088608,2.62936709 7.6556962,2.85721519 C7.40050633,3.08506329 7.24860759,3.39341772 7.2,3.78227848 L9.97974684,3.78227848 Z" id="Shape"></path>
                            <path d="M13.9078481,6.82632911 C13.5129114,6.82632911 13.1589873,6.75493671 12.8460759,6.6121519 C12.5331646,6.46936709 12.2855696,6.27493671 12.1032911,6.02886076 C11.9210127,5.78278481 11.8237975,5.5078481 11.8116456,5.20405063 L12.8870886,5.20405063 C12.9053165,5.41670886 13.0070886,5.59443038 13.1924051,5.73721519 C13.3777215,5.88 13.6101266,5.95139241 13.8896203,5.95139241 C14.1812658,5.95139241 14.4075949,5.89518987 14.5686076,5.78278481 C14.7296203,5.67037975 14.8101266,5.52607595 14.8101266,5.34987342 C14.8101266,5.16151899 14.7205063,5.02177215 14.5412658,4.93063291 C14.3620253,4.83949367 14.0779747,4.73924051 13.6891139,4.62987342 C13.3124051,4.52658228 13.0055696,4.42632911 12.7686076,4.32911392 C12.5316456,4.23189873 12.3265823,4.08303797 12.1534177,3.88253165 C11.9802532,3.68202532 11.8936709,3.41772152 11.8936709,3.08962025 C11.8936709,2.82227848 11.9726582,2.57772152 12.1306329,2.35594937 C12.2886076,2.13417722 12.5149367,1.95949367 12.8096203,1.83189873 C13.1043038,1.7043038 13.443038,1.64050633 13.8258228,1.64050633 C14.396962,1.64050633 14.8572152,1.78481013 15.2065823,2.07341772 C15.5559494,2.36202532 15.7427848,2.75544304 15.7670886,3.25367089 L14.7281013,3.25367089 C14.7098734,3.02886076 14.6187342,2.84962025 14.4546835,2.71594937 C14.2906329,2.58227848 14.0688608,2.51544304 13.7893671,2.51544304 C13.5159494,2.51544304 13.3063291,2.56708861 13.1605063,2.67037975 C13.0146835,2.77367089 12.9417722,2.91037975 12.9417722,3.08050633 C12.9417722,3.21417722 12.9903797,3.32658228 13.0875949,3.41772152 C13.1848101,3.50886076 13.3032911,3.58025316 13.443038,3.63189873 C13.5827848,3.6835443 13.7893671,3.74886076 14.0627848,3.8278481 C14.4273418,3.92506329 14.7265823,4.02379747 14.9605063,4.12405063 C15.1944304,4.2243038 15.3964557,4.37164557 15.5665823,4.56607595 C15.7367089,4.76050633 15.8248101,5.01873418 15.8308861,5.34075949 C15.8308861,5.62632911 15.7518987,5.88151899 15.5939241,6.10632911 C15.4359494,6.33113924 15.2126582,6.50734177 14.9240506,6.63493671 C14.635443,6.76253165 14.2967089,6.82632911 13.9078481,6.82632911 Z" id="Path"></path>
                            <polygon id="Path" points="18.9387342 4.23797468 21.2536709 6.7443038 19.8501266 6.7443038 17.9908861 4.5843038 17.9908861 6.7443038 16.9518987 6.7443038 16.9518987 0 17.9908861 0 17.9908861 3.91898734 19.8136709 1.72253165 21.2536709 1.72253165"></polygon>
                            <path d="M23.2131646,2.57012658 L23.2131646,5.34987342 C23.2131646,5.53822785 23.2572152,5.67341772 23.3453165,5.75544304 C23.4334177,5.83746835 23.5837975,5.87848101 23.7964557,5.87848101 L24.4344304,5.87848101 L24.4344304,6.7443038 L23.6141772,6.7443038 C23.1463291,6.7443038 22.7878481,6.63493671 22.5387342,6.41620253 C22.2896203,6.19746835 22.1650633,5.84202532 22.1650633,5.34987342 L22.1650633,2.57012658 L21.5726582,2.57012658 L21.5726582,1.72253165 L22.1650633,1.72253165 L22.1650633,0.473924051 L23.2131646,0.473924051 L23.2131646,1.72253165 L24.4344304,1.72253165 L24.4344304,2.57012658 L23.2131646,2.57012658 Z" id="Path"></path>
                            <path d="M27.5696203,6.82632911 C27.0956962,6.82632911 26.6673418,6.71848101 26.284557,6.50278481 C25.9017722,6.28708861 25.6010127,5.98329114 25.3822785,5.59139241 C25.1635443,5.19949367 25.0541772,4.74531646 25.0541772,4.22886076 C25.0541772,3.71848101 25.1665823,3.26582278 25.3913924,2.87088608 C25.6162025,2.47594937 25.923038,2.1721519 26.3118987,1.95949367 C26.7007595,1.74683544 27.1351899,1.64050633 27.6151899,1.64050633 C28.0951899,1.64050633 28.5296203,1.74683544 28.918481,1.95949367 C29.3073418,2.1721519 29.6141772,2.47594937 29.8389873,2.87088608 C30.0637975,3.26582278 30.1762025,3.71848101 30.1762025,4.22886076 C30.1762025,4.73924051 30.0607595,5.19189873 29.8298734,5.58683544 C29.5989873,5.98177215 29.284557,6.28708861 28.8865823,6.50278481 C28.4886076,6.71848101 28.0496203,6.82632911 27.5696203,6.82632911 Z M27.5696203,5.92405063 C27.836962,5.92405063 28.0875949,5.86025316 28.321519,5.73265823 C28.555443,5.60506329 28.7453165,5.41367089 28.8911392,5.15848101 C29.036962,4.90329114 29.1098734,4.59341772 29.1098734,4.22886076 C29.1098734,3.8643038 29.04,3.55594937 28.9002532,3.30379747 C28.7605063,3.05164557 28.5751899,2.86177215 28.3443038,2.73417722 C28.1134177,2.60658228 27.8643038,2.54278481 27.596962,2.54278481 C27.3296203,2.54278481 27.0820253,2.60658228 26.8541772,2.73417722 C26.6263291,2.86177215 26.4455696,3.05164557 26.3118987,3.30379747 C26.1782278,3.55594937 26.1113924,3.8643038 26.1113924,4.22886076 C26.1113924,4.76962025 26.2496203,5.18734177 26.5260759,5.48202532 C26.8025316,5.77670886 27.1503797,5.92405063 27.5696203,5.92405063 Z" id="Shape"></path>
                            <path d="M32.2450633,2.46075949 C32.4212658,2.22987342 32.6612658,2.03544304 32.9650633,1.87746835 C33.2688608,1.71949367 33.6121519,1.64050633 33.9949367,1.64050633 C34.4324051,1.64050633 34.8318987,1.74835443 35.1934177,1.96405063 C35.5549367,2.17974684 35.8389873,2.48202532 36.0455696,2.87088608 C36.2521519,3.25974684 36.355443,3.70632911 36.355443,4.21063291 C36.355443,4.71493671 36.2521519,5.16607595 36.0455696,5.56405063 C35.8389873,5.96202532 35.5549367,6.27189873 35.1934177,6.49367089 C34.8318987,6.71544304 34.4324051,6.82632911 33.9949367,6.82632911 C33.6121519,6.82632911 33.2718987,6.74886076 32.9741772,6.59392405 C32.6764557,6.43898734 32.4334177,6.24607595 32.2450633,6.01518987 L32.2450633,9.1321519 L31.2060759,9.1321519 L31.2060759,1.72253165 L32.2450633,1.72253165 L32.2450633,2.46075949 Z M35.2982278,4.21063291 C35.2982278,3.8643038 35.2268354,3.56506329 35.0840506,3.31291139 C34.9412658,3.06075949 34.7529114,2.86936709 34.5189873,2.73873418 C34.2850633,2.60810127 34.0344304,2.54278481 33.7670886,2.54278481 C33.5058228,2.54278481 33.2582278,2.60962025 33.0243038,2.74329114 C32.7903797,2.87696203 32.6020253,3.07139241 32.4592405,3.32658228 C32.3164557,3.58177215 32.2450633,3.88253165 32.2450633,4.22886076 C32.2450633,4.57518987 32.3164557,4.87746835 32.4592405,5.1356962 C32.6020253,5.39392405 32.7903797,5.58987342 33.0243038,5.7235443 C33.2582278,5.85721519 33.5058228,5.92405063 33.7670886,5.92405063 C34.0344304,5.92405063 34.2850633,5.8556962 34.5189873,5.71898734 C34.7529114,5.58227848 34.9412658,5.38329114 35.0840506,5.12202532 C35.2268354,4.86075949 35.2982278,4.55696203 35.2982278,4.21063291 Z" id="Shape"></path>
                        </g>
                        <g transform="translate(24.880000, 47.022857)" fill="#FFFFFF" fill-rule="nonzero" id="QR">
                            <path d="M0,0 L3.44,0 L3.44,3.44 L0,3.44 Z M3.44,3.44 L3.44,0 L10.32,0 L10.32,3.44 L3.44,3.44 Z M10.32,0 L13.76,0 L13.76,3.44 L10.32,3.44 Z M13.76,0 L17.2,0 L17.2,3.44 L13.76,3.44 Z M17.2,3.44 L17.2,0 L24.08,0 L24.08,3.44 L17.2,3.44 Z M27.52,0 L30.96,0 L30.96,3.44 L27.52,3.44 Z M34.4,0 L37.84,0 L37.84,3.44 L34.4,3.44 Z M37.84,0 L41.28,0 L41.28,3.44 L37.84,3.44 Z M41.28,0 L44.72,0 L44.72,3.44 L41.28,3.44 Z M48.16,0 L51.6,0 L51.6,3.44 L48.16,3.44 Z M51.6,0 L55.04,0 L55.04,3.44 L51.6,3.44 Z M55.04,3.44 L55.04,0 L61.92,0 L61.92,3.44 L55.04,3.44 Z M61.92,0 L65.36,0 L65.36,3.44 L61.92,3.44 Z M65.36,3.44 L65.36,0 L72.24,0 L72.24,3.44 L65.36,3.44 Z M0,3.44 L3.44,3.44 L3.44,6.88 L0,6.88 Z M20.64,6.88 L20.64,3.44 L24.08,3.44 L24.079,6.879 L24.08,10.32 L24.08,13.76 L20.64,13.76 L20.64,6.88 Z M41.28,3.44 L44.72,3.44 L44.72,6.88 L41.28,6.88 Z M51.6,10.32 L48.16,10.32 L48.16,3.44 L51.6,3.44 L51.6,10.32 Z M72.24,3.44 L72.239,6.879 L72.24,10.32 L68.8,10.32 L68.8,6.88 L68.8,3.44 L72.24,3.44 Z M3.44,13.76 L0,13.76 L0,6.88 L3.44,6.88 L3.44,13.76 Z M6.88,6.88 L10.32,6.88 L10.32,13.76 L6.88,13.76 L6.88,6.88 Z M10.32,6.88 L17.2,6.88 L17.2,10.32 L13.76,10.32 L17.2,10.32 L17.2,17.2 L13.76,17.2 L10.32,17.2 L10.32,6.88 Z M34.4,10.32 L34.4,6.88 L41.28,6.88 L41.28,10.32 L34.4,10.32 Z M55.04,6.88 L58.48,6.88 L58.48,10.32 L55.04,10.32 Z M58.48,10.32 L58.48,6.88 L65.36,6.88 L65.36,10.32 L58.48,10.32 Z M27.52,10.32 L30.96,10.32 L30.96,13.76 L27.52,13.76 Z M34.4,27.52 L30.96,27.52 L30.96,24.08 L34.4,24.08 L34.4,20.64 L30.96,20.64 L30.96,13.76 L34.4,13.76 L34.4,10.32 L37.84,10.32 L37.84,13.76 L41.28,13.76 L41.28,17.2 L44.72,17.2 L44.72,24.08 L41.28,24.08 L41.28,20.64 L37.84,20.64 L37.84,24.08 L34.4,24.08 L34.4,27.52 Z M48.16,10.32 L51.6,10.32 L51.6,24.08 L48.16,24.08 L48.16,10.32 Z M55.04,17.2 L55.04,10.32 L65.36,10.32 L65.36,17.2 L55.04,17.2 Z M68.8,10.32 L72.24,10.32 L72.24,24.08 L65.36,24.08 L65.36,20.64 L68.8,20.64 L68.8,10.32 Z M0,13.76 L3.44,13.76 L3.44,17.2 L0,17.2 Z M6.88,13.76 L10.32,13.76 L10.32,17.2 L6.88,17.2 Z M20.64,13.76 L24.08,13.76 L24.08,17.2 L20.64,17.2 Z M0,17.2 L3.44,17.2 L3.44,20.64 L0,20.64 Z M20.64,17.2 L24.08,17.2 L24.08,24.08 L20.64,24.08 L20.64,17.2 Z M0,20.64 L3.44,20.64 L3.44,24.08 L0,24.08 Z M3.44,20.64 L6.88,20.64 L6.88,24.08 L3.44,24.08 Z M6.88,20.64 L10.32,20.64 L10.32,24.08 L6.88,24.08 Z M13.76,24.08 L10.32,24.08 L10.32,20.64 L13.76,20.64 L17.2,20.64 L20.64,20.64 L20.64,24.08 L13.76,24.08 Z M27.52,20.64 L30.96,20.64 L30.96,24.08 L27.52,24.08 Z M51.6,20.64 L55.04,20.64 L55.04,24.08 L51.6,24.08 Z M55.04,24.08 L55.04,20.64 L65.36,20.64 L65.36,24.08 L55.04,24.08 Z M6.88,27.52 L10.32,27.52 L10.32,30.96 L6.88,30.96 Z M10.32,37.84 L10.32,34.4 L13.76,34.4 L13.76,27.52 L20.64,27.52 L20.64,30.96 L17.2,30.96 L17.2,37.84 L20.64,37.84 L20.64,41.28 L17.2,41.28 L17.2,44.72 L13.76,44.72 L13.76,37.84 L10.32,37.84 Z M20.64,27.52 L24.08,27.52 L24.08,30.96 L20.64,30.96 Z M27.52,27.52 L30.96,27.52 L30.96,30.96 L27.52,30.96 Z M34.4,34.4 L30.96,34.4 L30.96,30.96 L34.4,30.96 L34.4,27.52 L37.84,27.52 L37.84,30.96 L34.4,30.96 L34.4,34.4 Z M51.6,30.96 L51.6,34.4 L48.16,34.4 L48.16,30.96 L51.6,30.96 Z M48.16,27.52 L48.16,30.96 L44.72,30.96 L44.72,27.52 L48.16,27.52 Z M58.48,27.52 L61.92,27.52 L61.92,34.4 L58.48,34.4 L58.48,27.52 Z M68.8,27.52 L72.24,27.52 L72.24,34.4 L68.8,34.4 L68.8,27.52 Z M6.88,30.96 L10.32,30.96 L10.32,34.4 L6.88,34.4 Z M41.28,30.96 L44.72,30.96 L44.72,34.4 L41.28,34.4 Z M51.6,30.96 L55.04,30.96 L55.04,34.4 L51.6,34.4 Z M3.44,41.28 L0,41.28 L0,34.4 L3.44,34.4 L3.44,41.28 Z M3.44,34.4 L6.88,34.4 L6.88,37.84 L3.44,37.84 Z M6.88,34.4 L10.32,34.4 L10.32,41.28 L6.88,41.28 L6.88,34.4 Z M24.08,44.72 L20.64,44.72 L20.64,41.28 L24.08,41.28 L24.08,37.84 L20.64,37.84 L20.64,34.4 L24.08,34.4 L27.52,34.4 L30.96,34.4 L30.96,37.84 L27.52,37.84 L27.52,41.28 L24.08,41.28 L24.08,44.72 Z M44.72,44.72 L44.72,48.16 L41.28,48.16 L41.28,44.72 L44.72,44.72 Z M37.84,41.28 L37.84,44.72 L34.4,44.72 L34.4,48.16 L30.96,48.16 L30.96,44.72 L34.4,44.72 L34.4,41.28 L37.84,41.28 Z M41.28,34.4 L41.28,37.84 L44.72,37.84 L44.72,41.28 L37.84,41.28 L37.84,34.4 L41.28,34.4 Z M34.4,37.84 L34.4,41.28 L30.96,41.28 L30.96,37.84 L34.4,37.84 Z M51.6,34.4 L55.04,34.4 L55.04,44.72 L51.6,44.72 L51.6,34.4 Z M65.36,41.28 L65.36,44.72 L61.92,44.72 L61.92,41.28 L65.36,41.28 Z M61.92,37.84 L61.92,41.28 L55.04,41.28 L55.04,37.84 L61.92,37.84 Z M65.36,34.4 L65.36,37.84 L61.92,37.84 L61.92,34.4 L65.36,34.4 Z M65.36,34.4 L68.8,34.4 L68.8,37.84 L72.24,37.84 L72.24,44.72 L65.36,44.72 L65.36,34.4 Z M0,41.28 L3.44,41.28 L3.44,44.72 L0,44.72 Z M44.72,44.72 L44.72,41.28 L51.6,41.28 L51.6,44.72 L44.72,44.72 Z M27.52,44.72 L30.96,44.72 L30.96,48.16 L27.52,48.16 Z M61.92,44.72 L65.36,44.72 L65.36,48.16 L61.92,48.16 Z M65.36,44.72 L68.8,44.72 L68.8,51.6 L65.36,51.6 L65.36,44.72 Z M3.44,55.04 L0,55.04 L0,48.16 L3.44,48.16 L3.44,55.04 Z M3.44,48.16 L6.88,48.16 L6.88,51.6 L3.44,51.6 Z M6.88,48.16 L10.32,48.16 L10.32,51.6 L6.88,51.6 Z M10.32,51.6 L10.32,48.16 L13.76,48.16 L17.2,48.16 L20.64,48.16 L20.64,51.6 L10.32,51.6 Z M20.64,48.16 L24.08,48.16 L24.08,55.04 L20.64,55.04 L20.64,48.16 Z M55.04,48.16 L58.48,48.16 L58.48,51.6 L55.04,51.6 Z M27.52,51.6 L30.96,51.6 L30.96,55.04 L27.52,55.04 Z M48.16,51.6 L51.6,51.6 L51.6,55.04 L48.16,55.04 Z M61.92,51.6 L65.36,51.6 L65.36,55.04 L61.92,55.04 Z M65.36,51.6 L68.8,51.6 L68.8,55.04 L65.36,55.04 Z M0,55.04 L3.44,55.04 L3.44,58.48 L0,58.48 Z M6.88,55.04 L10.32,55.04 L10.32,58.48 L6.88,58.48 Z M17.2,65.36 L13.76,65.36 L10.32,65.36 L10.32,55.04 L13.76,55.04 L17.2,55.04 L17.2,65.36 Z M20.64,55.04 L24.08,55.04 L24.08,58.48 L20.64,58.48 Z M27.52,55.04 L30.96,55.04 L30.96,58.48 L27.52,58.48 Z M41.28,61.92 L41.28,58.48 L44.72,58.48 L44.72,65.36 L37.84,65.36 L37.84,61.92 L41.28,61.92 Z M41.28,55.04 L41.28,58.48 L37.84,58.48 L37.84,55.04 L41.28,55.04 Z M44.72,55.04 L51.6,55.04 L51.6,65.36 L44.72,65.36 L44.72,55.04 Z M58.48,58.48 L61.92,58.48 L61.92,61.92 L65.36,61.92 L65.36,65.36 L58.48,65.36 L58.48,58.48 Z M58.48,55.04 L58.48,58.48 L55.04,58.48 L55.04,55.04 L58.48,55.04 Z M65.36,55.04 L65.36,58.48 L61.92,58.48 L61.92,55.04 L65.36,55.04 Z M72.24,61.92 L72.24,65.36 L68.8,65.36 L68.8,61.92 L72.24,61.92 Z M68.8,58.48 L68.8,61.92 L65.36,61.92 L65.36,58.48 L68.8,58.48 Z M72.24,55.04 L72.24,58.48 L68.8,58.48 L68.8,55.04 L72.24,55.04 Z M0,58.48 L3.44,58.48 L3.44,61.92 L0,61.92 Z M6.88,58.48 L10.32,58.48 L10.32,61.92 L6.88,61.92 Z M20.64,58.48 L24.08,58.48 L24.08,61.92 L20.64,61.92 Z M30.96,58.48 L34.4,58.48 L34.4,61.92 L30.96,61.92 Z M51.6,58.48 L55.04,58.48 L55.04,65.36 L51.6,65.36 L51.6,58.48 Z M0,61.92 L3.44,61.92 L3.44,65.36 L0,65.36 Z M6.88,61.92 L10.32,61.92 L10.32,65.36 L6.88,65.36 Z M20.64,61.92 L24.08,61.92 L24.08,68.8 L20.64,68.8 L20.64,61.92 Z M27.52,61.92 L30.96,61.92 L30.96,65.36 L27.52,65.36 Z M3.44,72.24 L0,72.24 L0,65.36 L3.44,65.36 L3.44,72.24 Z M51.6,65.36 L55.04,65.36 L55.04,72.24 L51.6,72.24 L51.6,65.36 Z M58.48,72.24 L58.48,68.8 L55.04,68.8 L55.04,65.36 L61.92,65.36 L61.92,68.8 L65.36,68.8 L65.36,72.24 L58.48,72.24 Z M3.44,68.8 L6.88,68.8 L6.88,72.24 L3.44,72.24 Z M6.88,68.8 L10.32,68.8 L10.32,72.24 L6.88,72.24 Z M13.76,72.24 L10.32,72.24 L10.32,68.8 L13.76,68.8 L17.2,68.8 L20.64,68.8 L20.64,72.24 L13.76,72.24 Z M20.64,68.8 L24.08,68.8 L24.08,72.24 L20.64,72.24 Z M30.96,68.8 L34.4,68.8 L34.4,72.24 L30.96,72.24 Z M37.84,68.8 L41.28,68.8 L41.28,72.24 L37.84,72.24 Z M68.8,68.8 L72.24,68.8 L72.24,72.24 L68.8,72.24 Z"></path>
                        </g>
                    </g>
                    <g id="Group" transform="translate(0.000000, 68.500000)">
                        <path d="M177.5,0.5 C179.571068,0.5 181.446068,1.33946609 182.803301,2.69669914 C184.160534,4.05393219 185,5.92893219 185,8 L185,32 C185,34.0710678 184.160534,35.9460678 182.803301,37.3033009 C181.446068,38.6605339 179.571068,39.5 177.5,39.5 L8,39.5 C5.92893219,39.5 4.05393219,38.6605339 2.69669914,37.3033009 C1.33946609,35.9460678 0.5,34.0710678 0.5,32 L0.5,8 C0.5,5.92893219 1.33946609,4.05393219 2.69669914,2.69669914 C4.05393219,1.33946609 5.92893219,0.5 8,0.5 Z" id="Path" stroke="#041735" fill="#818D9E"></path>
                        <g id="Copy-to-clipboard" transform="translate(19.351024, 12.992195)" fill="#041735" fill-rule="nonzero">
                            <path d="M0,6.83868293 C0,5.73409756 0.257195122,4.74321951 0.771585366,3.86604878 C1.28597561,2.98887805 1.98446341,2.30392683 2.86704878,1.81119512 C3.74963415,1.31846341 4.71614634,1.07209756 5.76658537,1.07209756 C6.96863415,1.07209756 8.03802439,1.36719512 8.9747561,1.95739024 C9.9114878,2.54758537 10.5910244,3.38414634 11.0133659,4.46707317 L8.78795122,4.46707317 C8.49556098,3.87146341 8.08946341,3.42746341 7.56965854,3.13507317 C7.04985366,2.84268293 6.44882927,2.6964878 5.76658537,2.6964878 C5.01936585,2.6964878 4.35336585,2.86434146 3.76858537,3.20004878 C3.18380488,3.5357561 2.72626829,4.01765854 2.39597561,4.6457561 C2.06568293,5.27385366 1.90053659,6.00482927 1.90053659,6.83868293 C1.90053659,7.67253659 2.06568293,8.4035122 2.39597561,9.03160976 C2.72626829,9.65970732 3.18380488,10.1443171 3.76858537,10.485439 C4.35336585,10.826561 5.01936585,10.997122 5.76658537,10.997122 C6.44882927,10.997122 7.04985366,10.8509268 7.56965854,10.5585366 C8.08946341,10.2661463 8.49556098,9.82214634 8.78795122,9.22653659 L11.0133659,9.22653659 C10.5910244,10.3094634 9.9114878,11.1433171 8.9747561,11.7280976 C8.03802439,12.312878 6.96863415,12.6052683 5.76658537,12.6052683 C4.70531707,12.6052683 3.73609756,12.3589024 2.85892683,11.8661707 C1.9817561,11.373439 1.28597561,10.6884878 0.771585366,9.81131707 C0.257195122,8.93414634 0,7.94326829 0,6.83868293 Z" id="Path"></path>
                            <path d="M17.0560976,12.654 C16.2114146,12.654 15.4479512,12.4617805 14.7657073,12.0773415 C14.0834634,11.6929024 13.5474146,11.151439 13.157561,10.4529512 C12.7677073,9.75446341 12.5727805,8.94497561 12.5727805,8.0244878 C12.5727805,7.11482927 12.773122,6.30804878 13.1738049,5.60414634 C13.5744878,4.9002439 14.1213659,4.35878049 14.814439,3.9797561 C15.5075122,3.60073171 16.2818049,3.41121951 17.1373171,3.41121951 C17.9928293,3.41121951 18.767122,3.60073171 19.4601951,3.9797561 C20.1532683,4.35878049 20.7001463,4.9002439 21.1008293,5.60414634 C21.5015122,6.30804878 21.7018537,7.11482927 21.7018537,8.0244878 C21.7018537,8.93414634 21.4960976,9.74092683 21.0845854,10.4448293 C20.6730732,11.1487317 20.1126585,11.6929024 19.4033415,12.0773415 C18.6940244,12.4617805 17.9116098,12.654 17.0560976,12.654 Z M17.0560976,11.0458537 C17.5325854,11.0458537 17.9792927,10.9321463 18.3962195,10.7047317 C18.8131463,10.4773171 19.151561,10.1361951 19.4114634,9.68136585 C19.6713659,9.22653659 19.8013171,8.6742439 19.8013171,8.0244878 C19.8013171,7.37473171 19.6767805,6.82514634 19.4277073,6.37573171 C19.1786341,5.92631707 18.8483415,5.58790244 18.4368293,5.3604878 C18.0253171,5.13307317 17.5813171,5.01936585 17.1048293,5.01936585 C16.6283415,5.01936585 16.1870488,5.13307317 15.7809512,5.3604878 C15.3748537,5.58790244 15.0526829,5.92631707 14.814439,6.37573171 C14.5761951,6.82514634 14.4570732,7.37473171 14.4570732,8.0244878 C14.4570732,8.98829268 14.703439,9.73280488 15.1961707,10.2580244 C15.6889024,10.7832439 16.308878,11.0458537 17.0560976,11.0458537 Z" id="Shape"></path>
                            <path d="M25.3892195,4.87317073 C25.7032683,4.46165854 26.1310244,4.11512195 26.6724878,3.83356098 C27.2139512,3.552 27.8258049,3.41121951 28.5080488,3.41121951 C29.2877561,3.41121951 29.9997805,3.60343902 30.644122,3.98787805 C31.2884634,4.37231707 31.7947317,4.91107317 32.1629268,5.60414634 C32.531122,6.29721951 32.7152195,7.09317073 32.7152195,7.992 C32.7152195,8.89082927 32.531122,9.69490244 32.1629268,10.4042195 C31.7947317,11.1135366 31.2884634,11.6658293 30.644122,12.0610976 C29.9997805,12.4563659 29.2877561,12.654 28.5080488,12.654 C27.8258049,12.654 27.2193659,12.5159268 26.6887317,12.2397805 C26.1580976,11.9636341 25.7249268,11.6198049 25.3892195,11.2082927 L25.3892195,16.7637073 L23.5374146,16.7637073 L23.5374146,3.55741463 L25.3892195,3.55741463 L25.3892195,4.87317073 Z M30.8309268,7.992 C30.8309268,7.37473171 30.7036829,6.84139024 30.4491951,6.39197561 C30.1947073,5.94256098 29.859,5.60143902 29.4420732,5.36860976 C29.0251463,5.13578049 28.578439,5.01936585 28.1019512,5.01936585 C27.6362927,5.01936585 27.195,5.1384878 26.7780732,5.37673171 C26.3611463,5.61497561 26.025439,5.9615122 25.7709512,6.41634146 C25.5164634,6.87117073 25.3892195,7.40721951 25.3892195,8.0244878 C25.3892195,8.6417561 25.5164634,9.1805122 25.7709512,9.6407561 C26.025439,10.101 26.3611463,10.4502439 26.7780732,10.6884878 C27.195,10.9267317 27.6362927,11.0458537 28.1019512,11.0458537 C28.578439,11.0458537 29.0251463,10.9240244 29.4420732,10.6803659 C29.859,10.4367073 30.1947073,10.0820488 30.4491951,9.61639024 C30.7036829,9.15073171 30.8309268,8.60926829 30.8309268,7.992 Z" id="Shape"></path>
                            <polygon id="Path" points="42.6077561 3.55741463 37.1173171 16.7149756 35.2005366 16.7149756 37.0198537 12.3616098 33.4949268 3.55741463 35.5579024 3.55741463 38.0757073 10.3798537 40.6909756 3.55741463"></polygon>
                            <path d="M50.3885854,5.06809756 L50.3885854,10.0224878 C50.3885854,10.3581951 50.4670976,10.5991463 50.624122,10.7453415 C50.7811463,10.8915366 51.0491707,10.9646341 51.4281951,10.9646341 L52.5652683,10.9646341 L52.5652683,12.5078049 L51.1033171,12.5078049 C50.2694634,12.5078049 49.6305366,12.312878 49.1865366,11.9230244 C48.7425366,11.5331707 48.5205366,10.8996585 48.5205366,10.0224878 L48.5205366,5.06809756 L47.4646829,5.06809756 L47.4646829,3.55741463 L48.5205366,3.55741463 L48.5205366,1.332 L50.3885854,1.332 L50.3885854,3.55741463 L52.5652683,3.55741463 L52.5652683,5.06809756 L50.3885854,5.06809756 Z" id="Path"></path>
                            <path d="M58.1531707,12.654 C57.3084878,12.654 56.5450244,12.4617805 55.8627805,12.0773415 C55.1805366,11.6929024 54.6444878,11.151439 54.2546341,10.4529512 C53.8647805,9.75446341 53.6698537,8.94497561 53.6698537,8.0244878 C53.6698537,7.11482927 53.8701951,6.30804878 54.270878,5.60414634 C54.671561,4.9002439 55.218439,4.35878049 55.9115122,3.9797561 C56.6045854,3.60073171 57.378878,3.41121951 58.2343902,3.41121951 C59.0899024,3.41121951 59.8641951,3.60073171 60.5572683,3.9797561 C61.2503415,4.35878049 61.7972195,4.9002439 62.1979024,5.60414634 C62.5985854,6.30804878 62.7989268,7.11482927 62.7989268,8.0244878 C62.7989268,8.93414634 62.5931707,9.74092683 62.1816585,10.4448293 C61.7701463,11.1487317 61.2097317,11.6929024 60.5004146,12.0773415 C59.7910976,12.4617805 59.0086829,12.654 58.1531707,12.654 Z M58.1531707,11.0458537 C58.6296585,11.0458537 59.0763659,10.9321463 59.4932927,10.7047317 C59.9102195,10.4773171 60.2486341,10.1361951 60.5085366,9.68136585 C60.768439,9.22653659 60.8983902,8.6742439 60.8983902,8.0244878 C60.8983902,7.37473171 60.7738537,6.82514634 60.5247805,6.37573171 C60.2757073,5.92631707 59.9454146,5.58790244 59.5339024,5.3604878 C59.1223902,5.13307317 58.6783902,5.01936585 58.2019024,5.01936585 C57.7254146,5.01936585 57.284122,5.13307317 56.8780244,5.3604878 C56.4719268,5.58790244 56.1497561,5.92631707 55.9115122,6.37573171 C55.6732683,6.82514634 55.5541463,7.37473171 55.5541463,8.0244878 C55.5541463,8.98829268 55.8005122,9.73280488 56.2932439,10.2580244 C56.7859756,10.7832439 57.4059512,11.0458537 58.1531707,11.0458537 Z" id="Shape"></path>
                            <path d="M68.2406341,8.0244878 C68.2406341,7.104 68.427439,6.2945122 68.8010488,5.59602439 C69.1746585,4.89753659 69.6917561,4.35878049 70.3523415,3.9797561 C71.0129268,3.60073171 71.7709756,3.41121951 72.6264878,3.41121951 C73.7094146,3.41121951 74.6055366,3.66841463 75.3148537,4.18280488 C76.0241707,4.69719512 76.5033659,5.43087805 76.752439,6.38385366 L74.754439,6.38385366 C74.592,5.93985366 74.3320976,5.59331707 73.9747317,5.3442439 C73.6173659,5.09517073 73.1679512,4.97063415 72.6264878,4.97063415 C71.868439,4.97063415 71.2647073,5.23865854 70.8152927,5.77470732 C70.365878,6.3107561 70.1411707,7.06068293 70.1411707,8.0244878 C70.1411707,8.98829268 70.365878,9.74092683 70.8152927,10.2823902 C71.2647073,10.8238537 71.868439,11.0945854 72.6264878,11.0945854 C73.6985854,11.0945854 74.4079024,10.6235122 74.754439,9.68136585 L76.752439,9.68136585 C76.4925366,10.5910244 76.0052195,11.313878 75.2904878,11.8499268 C74.5757561,12.3859756 73.6877561,12.654 72.6264878,12.654 C71.7709756,12.654 71.0129268,12.4617805 70.3523415,12.0773415 C69.6917561,11.6929024 69.1746585,11.151439 68.8010488,10.4529512 C68.427439,9.75446341 68.2406341,8.94497561 68.2406341,8.0244878 Z" id="Path"></path>
                            <polygon id="Path" points="80.4560488 0.487317073 80.4560488 12.5078049 78.6042439 12.5078049 78.6042439 0.487317073"></polygon>
                            <path d="M83.8347805,2.37160976 C83.4990732,2.37160976 83.2175122,2.25790244 82.9900976,2.0304878 C82.7626829,1.80307317 82.6489756,1.5215122 82.6489756,1.18580488 C82.6489756,0.850097561 82.7626829,0.568536585 82.9900976,0.341121951 C83.2175122,0.113707317 83.4990732,0 83.8347805,0 C84.1596585,0 84.4358049,0.113707317 84.6632195,0.341121951 C84.8906341,0.568536585 85.0043415,0.850097561 85.0043415,1.18580488 C85.0043415,1.5215122 84.8906341,1.80307317 84.6632195,2.0304878 C84.4358049,2.25790244 84.1596585,2.37160976 83.8347805,2.37160976 Z M84.744439,3.55741463 L84.744439,12.5078049 L82.8926341,12.5078049 L82.8926341,3.55741463 L84.744439,3.55741463 Z" id="Shape"></path>
                            <path d="M89.0328293,4.87317073 C89.346878,4.46165854 89.7746341,4.11512195 90.3160976,3.83356098 C90.857561,3.552 91.4694146,3.41121951 92.1516585,3.41121951 C92.9313659,3.41121951 93.6433902,3.60343902 94.2877317,3.98787805 C94.9320732,4.37231707 95.4383415,4.91107317 95.8065366,5.60414634 C96.1747317,6.29721951 96.3588293,7.09317073 96.3588293,7.992 C96.3588293,8.89082927 96.1747317,9.69490244 95.8065366,10.4042195 C95.4383415,11.1135366 94.9320732,11.6658293 94.2877317,12.0610976 C93.6433902,12.4563659 92.9313659,12.654 92.1516585,12.654 C91.4694146,12.654 90.8629756,12.5159268 90.3323415,12.2397805 C89.8017073,11.9636341 89.3685366,11.6198049 89.0328293,11.2082927 L89.0328293,16.7637073 L87.1810244,16.7637073 L87.1810244,3.55741463 L89.0328293,3.55741463 L89.0328293,4.87317073 Z M94.4745366,7.992 C94.4745366,7.37473171 94.3472927,6.84139024 94.0928049,6.39197561 C93.8383171,5.94256098 93.5026098,5.60143902 93.0856829,5.36860976 C92.6687561,5.13578049 92.2220488,5.01936585 91.745561,5.01936585 C91.2799024,5.01936585 90.8386098,5.1384878 90.4216829,5.37673171 C90.0047561,5.61497561 89.6690488,5.9615122 89.414561,6.41634146 C89.1600732,6.87117073 89.0328293,7.40721951 89.0328293,8.0244878 C89.0328293,8.6417561 89.1600732,9.1805122 89.414561,9.6407561 C89.6690488,10.101 90.0047561,10.4502439 90.4216829,10.6884878 C90.8386098,10.9267317 91.2799024,11.0458537 91.745561,11.0458537 C92.2220488,11.0458537 92.6687561,10.9240244 93.0856829,10.6803659 C93.5026098,10.4367073 93.8383171,10.0820488 94.0928049,9.61639024 C94.3472927,9.15073171 94.4745366,8.60926829 94.4745366,7.992 Z" id="Shape"></path>
                            <path d="M100.046195,4.88941463 C100.360244,4.4562439 100.790707,4.10158537 101.337585,3.82543902 C101.884463,3.54929268 102.49361,3.41121951 103.165024,3.41121951 C103.955561,3.41121951 104.670293,3.60073171 105.30922,3.9797561 C105.948146,4.35878049 106.451707,4.89753659 106.819902,5.59602439 C107.188098,6.2945122 107.372195,7.09317073 107.372195,7.992 C107.372195,8.89082927 107.188098,9.69490244 106.819902,10.4042195 C106.451707,11.1135366 105.945439,11.6658293 105.301098,12.0610976 C104.656756,12.4563659 103.944732,12.654 103.165024,12.654 C102.471951,12.654 101.85739,12.5186341 101.321341,12.2479024 C100.785293,11.9771707 100.360244,11.6306341 100.046195,11.2082927 L100.046195,12.5078049 L98.1943902,12.5078049 L98.1943902,0.487317073 L100.046195,0.487317073 L100.046195,4.88941463 Z M105.487902,7.992 C105.487902,7.37473171 105.360659,6.84139024 105.106171,6.39197561 C104.851683,5.94256098 104.515976,5.60143902 104.099049,5.36860976 C103.682122,5.13578049 103.235415,5.01936585 102.758927,5.01936585 C102.293268,5.01936585 101.851976,5.1384878 101.435049,5.37673171 C101.018122,5.61497561 100.682415,5.9615122 100.427927,6.41634146 C100.173439,6.87117073 100.046195,7.40721951 100.046195,8.0244878 C100.046195,8.6417561 100.173439,9.1805122 100.427927,9.6407561 C100.682415,10.101 101.018122,10.4502439 101.435049,10.6884878 C101.851976,10.9267317 102.293268,11.0458537 102.758927,11.0458537 C103.235415,11.0458537 103.682122,10.9240244 104.099049,10.6803659 C104.515976,10.4367073 104.851683,10.0820488 105.106171,9.61639024 C105.360659,9.15073171 105.487902,8.60926829 105.487902,7.992 Z" id="Shape"></path>
                            <path d="M113.090049,12.654 C112.245366,12.654 111.481902,12.4617805 110.799659,12.0773415 C110.117415,11.6929024 109.581366,11.151439 109.191512,10.4529512 C108.801659,9.75446341 108.606732,8.94497561 108.606732,8.0244878 C108.606732,7.11482927 108.807073,6.30804878 109.207756,5.60414634 C109.608439,4.9002439 110.155317,4.35878049 110.84839,3.9797561 C111.541463,3.60073171 112.315756,3.41121951 113.171268,3.41121951 C114.02678,3.41121951 114.801073,3.60073171 115.494146,3.9797561 C116.18722,4.35878049 116.734098,4.9002439 117.13478,5.60414634 C117.535463,6.30804878 117.735805,7.11482927 117.735805,8.0244878 C117.735805,8.93414634 117.530049,9.74092683 117.118537,10.4448293 C116.707024,11.1487317 116.14661,11.6929024 115.437293,12.0773415 C114.727976,12.4617805 113.945561,12.654 113.090049,12.654 Z M113.090049,11.0458537 C113.566537,11.0458537 114.013244,10.9321463 114.430171,10.7047317 C114.847098,10.4773171 115.185512,10.1361951 115.445415,9.68136585 C115.705317,9.22653659 115.835268,8.6742439 115.835268,8.0244878 C115.835268,7.37473171 115.710732,6.82514634 115.461659,6.37573171 C115.212585,5.92631707 114.882293,5.58790244 114.47078,5.3604878 C114.059268,5.13307317 113.615268,5.01936585 113.13878,5.01936585 C112.662293,5.01936585 112.221,5.13307317 111.814902,5.3604878 C111.408805,5.58790244 111.086634,5.92631707 110.84839,6.37573171 C110.610146,6.82514634 110.491024,7.37473171 110.491024,8.0244878 C110.491024,8.98829268 110.73739,9.73280488 111.230122,10.2580244 C111.722854,10.7832439 112.342829,11.0458537 113.090049,11.0458537 Z" id="Shape"></path>
                            <path d="M118.954098,7.992 C118.954098,7.09317073 119.140902,6.29721951 119.514512,5.60414634 C119.888122,4.91107317 120.397098,4.37231707 121.041439,3.98787805 C121.68578,3.60343902 122.397805,3.41121951 123.177512,3.41121951 C123.881415,3.41121951 124.495976,3.54929268 125.021195,3.82543902 C125.546415,4.10158537 125.966049,4.44541463 126.280098,4.85692683 L126.280098,3.55741463 L128.148146,3.55741463 L128.148146,12.5078049 L126.280098,12.5078049 L126.280098,11.1758049 C125.966049,11.5981463 125.538293,11.9500976 124.996829,12.2316585 C124.455366,12.5132195 123.838098,12.654 123.145024,12.654 C122.376146,12.654 121.672244,12.4563659 121.033317,12.0610976 C120.39439,11.6658293 119.888122,11.1135366 119.514512,10.4042195 C119.140902,9.69490244 118.954098,8.89082927 118.954098,7.992 Z M126.280098,8.0244878 C126.280098,7.40721951 126.152854,6.87117073 125.898366,6.41634146 C125.643878,5.9615122 125.310878,5.61497561 124.899366,5.37673171 C124.487854,5.1384878 124.043854,5.01936585 123.567366,5.01936585 C123.090878,5.01936585 122.646878,5.13578049 122.235366,5.36860976 C121.823854,5.60143902 121.490854,5.94256098 121.236366,6.39197561 C120.981878,6.84139024 120.854634,7.37473171 120.854634,7.992 C120.854634,8.60926829 120.981878,9.15073171 121.236366,9.61639024 C121.490854,10.0820488 121.826561,10.4367073 122.243488,10.6803659 C122.660415,10.9240244 123.101707,11.0458537 123.567366,11.0458537 C124.043854,11.0458537 124.487854,10.9267317 124.899366,10.6884878 C125.310878,10.4502439 125.643878,10.101 125.898366,9.6407561 C126.152854,9.1805122 126.280098,8.6417561 126.280098,8.0244878 Z" id="Shape"></path>
                            <path d="M132.436537,4.85692683 C132.707268,4.40209756 133.067341,4.04743902 133.516756,3.79295122 C133.966171,3.53846341 134.499512,3.41121951 135.11678,3.41121951 L135.11678,5.328 L134.645707,5.328 C133.920146,5.328 133.370561,5.51209756 132.996951,5.88029268 C132.623341,6.2484878 132.436537,6.88741463 132.436537,7.79707317 L132.436537,12.5078049 L130.584732,12.5078049 L130.584732,3.55741463 L132.436537,3.55741463 L132.436537,4.85692683 Z" id="Path"></path>
                            <path d="M136.205122,7.992 C136.205122,7.09317073 136.391927,6.29721951 136.765537,5.60414634 C137.139146,4.91107317 137.648122,4.37231707 138.292463,3.98787805 C138.936805,3.60343902 139.654244,3.41121951 140.44478,3.41121951 C141.029561,3.41121951 141.60622,3.53846341 142.174756,3.79295122 C142.743293,4.04743902 143.195415,4.38585366 143.531122,4.80819512 L143.531122,0.487317073 L145.399171,0.487317073 L145.399171,12.5078049 L143.531122,12.5078049 L143.531122,11.159561 C143.227902,11.5927317 142.808268,11.9500976 142.27222,12.2316585 C141.736171,12.5132195 141.12161,12.654 140.428537,12.654 C139.648829,12.654 138.936805,12.4563659 138.292463,12.0610976 C137.648122,11.6658293 137.139146,11.1135366 136.765537,10.4042195 C136.391927,9.69490244 136.205122,8.89082927 136.205122,7.992 Z M143.531122,8.0244878 C143.531122,7.40721951 143.403878,6.87117073 143.14939,6.41634146 C142.894902,5.9615122 142.561902,5.61497561 142.15039,5.37673171 C141.738878,5.1384878 141.294878,5.01936585 140.81839,5.01936585 C140.341902,5.01936585 139.897902,5.13578049 139.48639,5.36860976 C139.074878,5.60143902 138.741878,5.94256098 138.48739,6.39197561 C138.232902,6.84139024 138.105659,7.37473171 138.105659,7.992 C138.105659,8.60926829 138.232902,9.15073171 138.48739,9.61639024 C138.741878,10.0820488 139.077585,10.4367073 139.494512,10.6803659 C139.911439,10.9240244 140.352732,11.0458537 140.81839,11.0458537 C141.294878,11.0458537 141.738878,10.9267317 142.15039,10.6884878 C142.561902,10.4502439 142.894902,10.101 143.14939,9.6407561 C143.403878,9.1805122 143.531122,8.6417561 143.531122,8.0244878 Z" id="Shape"></path>
                        </g>
                    </g>
                </g>
            </g>
        </g>
    </g>
</svg>