<?xml version="1.0" encoding="UTF-8"?>
<svg width="39px" height="42px" viewBox="0 0 39 42" version="1.1" xmlns="http://www.w3.org/2000/svg" xmlns:xlink="http://www.w3.org/1999/xlink">
    <defs>
        <linearGradient x1="22.4671317%" y1="-1.38777878e-14%" x2="76.8632187%" y2="100%" id="linearGradient-1">
            <stop stop-color="#7BE0FF" offset="0%"></stop>
            <stop stop-color="#3575FF" offset="100%"></stop>
        </linearGradient>
    </defs>
    <g id="Page-1" stroke="none" stroke-width="1" fill="none" fill-rule="evenodd">
        <g id="Uniswap--Copy-3" transform="translate(-2074.000000, -130.000000)" fill="url(#linearGradient-1)">
            <g transform="translate(1911.000000, 71.000000)">
                <path d="M186.052559,60.0717968 L197.105118,66.4529946 C199.580326,67.882057 201.105118,70.5230731 201.105118,73.3811978 L201.105118,86.1435935 C201.105118,89.0017183 199.580326,91.6427344 197.105118,93.0717968 L186.052559,99.4529946 C183.57735,100.882057 180.527767,100.882057 178.052559,99.4529946 L167,93.0717968 C164.524791,91.6427344 163,89.0017183 163,86.1435935 L163,73.3811978 C163,70.5230731 164.524791,67.882057 167,66.4529946 L178.052559,60.0717968 C180.527767,58.6427344 183.57735,58.6427344 186.052559,60.0717968 Z M178.470588,74 L174.352941,74 C172.501163,74 171,75.5011629 171,77.3529412 L171,85.5882353 C171,87.4400136 172.501163,88.9411765 174.352941,88.9411765 L189.647059,88.9411765 C191.498837,88.9411765 193,87.4400136 193,85.5882353 L193,77.3529412 C193,75.5011629 191.498837,74 189.647059,74 L185.529412,74 L185.529412,76 L189.647059,76 C190.394268,76 191,76.6057324 191,77.3529412 L191,85.5882353 C191,86.3354441 190.394268,86.9411765 189.647059,86.9411765 L174.352941,86.9411765 C173.605732,86.9411765 173,86.3354441 173,85.5882353 L173,77.3529412 C173,76.6057324 173.605732,76 174.352941,76 L178.470588,76 L178.470588,74 Z M181.124533,67.9210678 L178.813063,70.6382078 C178.395493,71.1294666 178.395493,71.8943865 178.814114,72.3832606 L178.909287,72.4832084 C179.371898,72.9163113 180.080475,72.882909 180.506355,72.3818745 L180.856,71.969 L180.822325,81.3554521 C180.822322,82.0374629 181.315478,82.6176471 181.968658,82.6176471 L182.089172,82.6109653 C182.681555,82.5447333 183.114994,81.9949497 183.114994,81.3572518 L183.148,71.958 L183.508372,72.3818745 C183.964671,72.9186972 184.745496,72.9186972 185.201795,72.3818745 C185.617135,71.8932386 185.617135,71.1269983 185.201795,70.6383624 L182.892095,67.9210678 C182.414884,67.3596441 181.601743,67.3596441 181.124533,67.9210678 Z" id="Combined-Shape"></path>
            </g>
        </g>
    </g>
</svg>