<?xml version="1.0" encoding="UTF-8"?>
<svg width="44px" height="44px" viewBox="0 0 44 44" version="1.1" xmlns="http://www.w3.org/2000/svg" xmlns:xlink="http://www.w3.org/1999/xlink">
    <g id="Page-1" stroke="none" stroke-width="1" fill="none" fill-rule="evenodd">
        <g transform="translate(-1959.000000, -452.000000)" fill="#79DFC4">
            <g transform="translate(1761.000000, 148.000000)">
                <path d="M220,304 C232.150264,304 242,313.849736 242,326 C242,338.150264 232.150264,348 220,348 C207.849736,348 198,338.150264 198,326 C198,313.849736 207.849736,304 220,304 Z M232.633486,319.850878 C231.642155,318.859547 230.03489,318.859547 229.043559,319.850878 L218.858,330.035 L213.479066,324.656035 C212.530837,323.707805 211.019068,323.666578 210.021835,324.532353 L209.889139,324.656035 C208.897808,325.647366 208.897808,327.254631 209.889139,328.245962 L217.068993,335.425815 C218.060324,336.417146 219.667589,336.417146 220.65892,335.425815 C220.703571,335.381163 220.746212,335.335262 220.786841,335.288224 L232.633486,323.440805 C233.624817,322.449474 233.624817,320.842209 232.633486,319.850878 Z" id="Success"></path>
            </g>
        </g>
    </g>
</svg>