<?xml version="1.0" encoding="UTF-8"?>
<svg width="48px" height="48px" viewBox="0 0 48 48" version="1.1" xmlns="http://www.w3.org/2000/svg" xmlns:xlink="http://www.w3.org/1999/xlink">
    <g id="Page-2" stroke="none" stroke-width="1" fill="none" fill-rule="evenodd">
        <g id="Icon" transform="translate(-1195.000000, -892.000000)">
            <g id="Voting-success" transform="translate(1195.000000, 892.000000)">
                <rect id="Rectangle" x="0" y="0" width="48" height="48"></rect>
                <g id="Group" transform="translate(6.000000, 2.000000)">
                    <g>
                        <g transform="translate(0.000000, 6.025041)" id="Oval">
                            <path d="M18.8674794,2.13594107 C9.62690593,2.13594107 2.13594106,9.62690598 2.13594106,18.8674795 C2.13594106,28.108053 9.62690593,35.5990179 18.8674794,35.5990179 C28.1080528,35.5990179 35.5990177,28.108053 35.5990177,18.8674795 C35.5990177,9.62690598 28.1080528,2.13594107 18.8674794,2.13594107 Z" fill="#142B7D"></path>
                            <path d="M18.8674794,0 C8.44725826,0 0,8.4472583 0,18.8674795 C0,29.2877007 8.44725826,37.734959 18.8674794,37.734959 C29.2877005,37.734959 37.7349588,29.2877007 37.7349588,18.8674795 C37.7349588,8.4472583 29.2877005,0 18.8674794,0 Z M18.8674794,4.27188215 C26.9284052,4.27188215 33.4630767,10.8065537 33.4630767,18.8674795 C33.4630767,26.9284053 26.9284052,33.4630768 18.8674794,33.4630768 C10.8065536,33.4630768 4.27188213,26.9284053 4.27188213,18.8674795 C4.27188213,10.8065537 10.8065536,4.27188215 18.8674794,4.27188215 Z" fill="#3677FF"></path>
                        </g>
                        <path d="M18.3699004,0 C19.7320208,0 20.8362376,1.10421677 20.8362376,2.46633719 L20.8362376,7.27786239 C20.8362376,8.6399828 19.7320208,9.74419958 18.3699004,9.74419958 C17.00778,9.74419958 15.9035632,8.6399828 15.9035632,7.27786239 L15.9035632,2.46633719 C15.9035632,1.10421677 17.00778,0 18.3699004,0 Z" id="Path" fill="#3677FF" fill-rule="nonzero"></path>
                        <path d="M25.3893272,0.00902269243 C26.5039699,0.00902269243 27.4075663,0.912619088 27.4075663,2.02726173 C27.4075663,3.14190437 26.5039699,4.04550077 25.3893272,4.04550077 L11.6876681,4.04550077 C10.5730255,4.04550077 9.66942909,3.14190437 9.66942909,2.02726173 C9.66942909,0.912619088 10.5730255,0.00902269243 11.6876681,0.00902269243 L25.3893272,0.00902269243 Z" id="Path" fill="#3677FF" fill-rule="nonzero"></path>
                    </g>
                    <path d="M13.4572553,24.5901306 L17.8453762,29.018717 L17.8453762,29.018717 L26.3861334,20.5236068 C27.020293,19.8928365 28.0435416,19.8885189 28.6830017,20.513915 C29.3128616,21.1299221 29.3240916,22.1398969 28.7080844,22.7697569 C28.7039506,22.7739837 28.6997933,22.7781874 28.6956128,22.782368 L18.9790676,32.4989131 C18.4063914,33.0715893 17.4778998,33.0715893 16.9052236,32.4989131 L11.2527396,26.8464292 C10.6332895,26.226979 10.6274868,25.2244561 11.2397249,24.5978769 C11.84012,23.983418 12.8249538,23.9720171 13.4394127,24.5724122 C13.4454079,24.5782702 13.4513556,24.5841765 13.4572553,24.5901306 Z" id="Path" fill="#45BEFF"></path>
                </g>
            </g>
        </g>
    </g>
</svg>