<?xml version="1.0" encoding="UTF-8"?>
<svg width="262px" height="128px" viewBox="0 0 262 128" version="1.1" xmlns="http://www.w3.org/2000/svg" xmlns:xlink="http://www.w3.org/1999/xlink">
    <title>Super manager Copy</title>
    <defs>
        <linearGradient x1="5.30363779%" y1="38.181695%" x2="53.8137006%" y2="60.4893261%" id="linearGradient-1">
            <stop stop-color="#1D2E49" offset="0%"></stop>
            <stop stop-color="#1D2F4A" offset="100%"></stop>
        </linearGradient>
    </defs>
    <g id="Page-1" stroke="none" stroke-width="1" fill="none" fill-rule="evenodd">
        <g id="Wallet-Connect-Copy-3" transform="translate(-863.000000, -353.000000)">
            <g id="Group" transform="translate(408.000000, 221.000000)">
                <g id="Super-manager-Copy" transform="translate(457.000000, 132.000000)">
                    <path d="M150.496517,109.132368 L150.49973,109.287263 C150.49973,112.569314 155.347067,112.619807 155.496216,109.438742 L155.49973,109.287263 C155.49973,107.622656 156.606455,106.351673 157.880132,106.276172 L158,106.272621 C161.282051,106.272621 161.332544,101.425283 158.151479,101.276135 L157.880147,101.269068 C156.646414,101.195907 155.569073,100.00051 155.502944,98.4123473 L155.49973,98.2574526 C155.49973,94.9754013 150.652393,94.9249082 150.503244,98.1059733 L150.49973,98.2574526 C150.49973,99.922401 149.393169,101.193558 148.119835,101.269069 L148,101.272621 C144.717949,101.272621 144.667456,106.119958 147.848521,106.269107 L148,106.272621 C149.283006,106.272621 150.428285,107.492985 150.496517,109.132368 Z" id="Fill-" fill="#041735" fill-rule="nonzero"></path>
                    <g id="Group" transform="translate(0.000000, 3.000000)">
                        <g id="Fill-">
                            <path d="M66.1799022,106.916077 C60.0187282,108.374527 53.8655415,105.059547 51.5237763,99.3480388 C51.2686831,98.7159431 51.0520286,98.0511354 50.8922834,97.3651907 C49.6812148,92.1644923 51.7898519,86.9642971 55.8299087,84.0232402 C56.2996595,83.6865587 56.7908761,83.3755434 57.3055553,83.0982467 C58.2460554,82.595489 59.2744153,82.203952 60.3646765,81.9457791 C62.0549808,81.5456867 63.7362993,81.5059291 65.3422381,81.7716508 C70.2583977,82.5929727 74.4502124,86.3020057 75.661281,91.5027042 C77.267719,98.3998952 73.021491,105.296583 66.1799022,106.916077 M41.7508624,58.1138578 C41.5911172,57.4279132 41.4917756,56.7349229 41.4413561,56.0545141 C41.0185304,49.8966134 45.0640784,44.159942 51.2247532,42.7019951 C58.0668412,41.0825014 64.9154188,45.3612259 66.51986,52.250868 C67.7309286,57.4515664 65.6148034,62.6537747 61.5747466,65.5948315 C60.2538532,66.5530403 58.7307823,67.2716969 57.040478,67.6717894 C55.9502168,67.9299622 54.8564612,68.0411829 53.7921586,68.0130003 C53.2090885,67.9948829 52.6320088,67.9370079 52.0624172,67.8459177 C47.1462577,67.0250991 42.9624302,63.314053 41.7508624,58.1138578 M34.6322155,93.2515359 C33.6842274,93.7558034 32.6628563,94.1458306 31.5730943,94.4035002 C24.7310063,96.0229938 17.8899167,91.7422564 16.2854755,84.8526143 C14.6790375,77.9554232 18.9157806,71.0526963 25.7573694,69.4337059 C26.8476306,69.175533 27.9338982,69.0663254 29.0056889,69.0929982 C33.97726,69.2233428 38.4875669,72.3123584 40.4149929,77.0087894 C40.6705853,77.6408851 40.8872398,78.3056928 41.046985,78.9916375 C41.2067302,79.6780854 41.3115631,80.3610105 41.3549938,81.0439355 C41.7094285,86.1122764 39.0247102,90.8962748 34.6322155,93.2515359 M257.879673,34.6563626 L255.06616,22.5760873 C254.497068,20.1312457 252.069938,18.6149205 249.645305,19.1891412 L235.620173,22.0959764 L231.342995,3.73148178 C230.802357,1.40993911 228.497533,-0.0303936689 226.194705,0.514637918 L213.77002,3.45569479 C211.467193,4.00072638 210.038472,6.32478535 210.579109,8.64582475 L213.438549,20.9233784 C213.747556,22.2499742 212.931358,23.5775765 211.615457,23.889095 C210.300055,24.2001103 208.983155,23.3777819 208.674148,22.0511861 L204.387983,3.64592742 C203.795928,1.10546625 201.27395,-0.470243721 198.753969,0.12612048 L187.11553,2.88097081 C184.595549,3.47733501 183.032042,6.02031249 183.624098,8.56077366 L189.328001,33.0529733 L175.753151,36.0614671 C173.207711,31.6589405 170.093677,29.1184794 167.385496,29.7596338 C164.677814,30.400285 163.009974,34.07258 162.674509,39.1570251 L149.732649,42.2203744 C147.187708,37.8178478 144.073175,35.2773866 141.364994,35.918541 C138.657313,36.5591922 136.989473,40.2314872 136.654008,45.3159324 L102.748082,53.3414344 C100.203141,48.9384045 97.0886079,46.3984466 94.3809262,47.0390978 C91.6667549,47.681762 89.9979164,51.3686516 89.6674435,56.4707109 C89.5321592,56.5200304 89.399371,56.5738794 89.2715748,56.6347739 C87.3681105,54.2900813 85.0508062,52.3399452 82.4619351,50.8648874 C82.3471182,50.1039569 82.2098371,49.3420198 82.0326197,48.5795795 C78.4143902,33.0439146 62.9914872,23.4084809 47.5810642,27.0556128 C35.0395658,30.024349 26.3723886,40.8786808 25.5277356,53.1975018 C24.3900501,53.3187877 23.2553597,53.5170725 22.1136805,53.7873236 C6.70375675,57.4349588 -2.8525026,72.9907541 0.765227717,88.5259158 C4.38345724,104.061581 19.8063603,113.697014 35.2167832,110.049882 C36.3579632,109.779631 37.4622021,109.447982 38.534492,109.04638 C44.7291126,119.698904 57.2820927,125.530692 69.8235911,122.561956 C85.234014,118.914824 94.791771,103.366074 91.1735415,87.8309124 C90.9963241,87.0689754 90.7826649,86.325659 90.5500359,85.5929111 C92.2173767,83.1108282 93.4314405,80.3247757 94.1008729,77.370634 C94.2421476,77.3676145 94.3849199,77.357046 94.5276922,77.3399351 C97.0761278,81.7610824 100.198149,84.3141251 102.91232,83.6714609 C105.620002,83.0308097 107.287842,79.3585147 107.623307,74.2735663 L141.529233,66.2485675 C144.074174,70.6510941 147.188707,73.1915553 149.896388,72.5509041 C152.604569,71.9097497 154.27191,68.2374547 154.607375,63.1530095 L167.549734,60.0896602 C170.094675,64.4926901 173.209208,67.032648 175.91689,66.3919968 C178.625071,65.7508424 180.292412,62.0785474 180.627877,56.9941022 L254.520031,40.1217763 C256.944664,39.5475556 258.448765,37.100701 257.879673,34.6563626" fill-opacity="0.12" fill="#FFFFFF"></path>
                            <path d="M205.848892,3.30571505 L210.135039,21.7108972 C210.256151,22.2308422 210.765097,22.5487969 211.269907,22.4294392 C211.779423,22.3088194 212.099737,21.7877657 211.977647,21.2636221 L209.118217,8.98610919 C208.390644,5.86252993 210.31531,2.73191292 213.424502,1.99603138 L225.849231,-0.945035788 C228.962625,-1.6819117 232.075436,0.263169743 232.803895,3.39123113 L236.748667,20.33 L249.299625,17.7295161 C252.477269,16.9769615 255.654712,18.9132767 256.484161,22.062852 L256.527061,22.2358413 L259.3406,34.3162286 C260.096496,37.5629157 258.096659,40.8162229 254.853943,41.5841385 L182.028,58.2126667 L182.026218,58.2331345 C181.476214,63.3514284 179.568372,66.9549758 176.43442,67.8079067 L176.262262,67.8516948 C173.079842,68.6046715 169.767571,66.3208066 166.993715,62.0527193 L166.832,61.8 L156.008,64.3626667 L156.005716,64.3920417 C155.455712,69.5103357 153.54787,73.1138831 150.413918,73.9668139 L150.24176,74.0106021 C147.059487,74.7635441 143.747318,72.4796117 140.973301,68.2116513 L140.811333,67.9593333 L109.024,75.4826667 L109.02165,75.5126182 C108.471628,80.6310636 106.563501,84.234961 103.430064,85.0873439 L103.257935,85.1311013 C100.416537,85.8038904 97.4721048,84.0559837 94.8992895,80.6363317 L94.772,80.4653333 L94.6688605,80.7600198 C94.0510866,82.4713069 93.2536447,84.115231 92.2904989,85.6633782 L92.1893333,85.8226667 L92.2284592,85.9528649 C92.344805,86.3501274 92.4494124,86.7345283 92.543633,87.1133832 L92.6344414,87.4906603 C96.4396035,103.828432 86.3858058,120.183669 70.1691123,124.021618 C57.7131513,126.970107 44.9408696,121.671552 38.0659939,111.143459 L37.8833333,110.86 L37.5960228,110.953213 C37.0994704,111.108291 36.5943172,111.251203 36.0798451,111.382337 L35.5622402,111.50956 C19.3411631,115.348547 3.11037085,105.208251 -0.695682554,88.8661233 C-4.50057882,72.5272387 5.55308942,56.1658798 21.7681584,52.3276612 C22.4626662,52.1632616 23.1509229,52.0251283 23.8351364,51.9132741 L24.14,51.866 L24.1799426,51.5212763 C25.6723236,39.1443202 34.5937928,28.7621146 46.8475438,25.6904971 L47.2356073,25.5959349 C63.4566844,21.7569482 79.6874766,31.8972439 83.4936716,48.2399808 C83.6108745,48.7442214 83.7147706,49.2609594 83.809473,49.8043177 L83.8306667,49.9306667 L83.9515603,50.0040241 C85.5529372,50.9891419 87.0409089,52.1455141 88.3876965,53.4518941 L88.502,53.5646667 L88.5422039,53.3455955 C89.3193737,49.2191306 91.1223626,46.3694762 93.8630417,45.6232901 L94.0355543,45.5793998 C97.2179746,44.8264231 100.530245,47.1102881 103.304101,51.3783753 L103.465333,51.6293333 L135.252667,44.106 L135.255668,44.0769521 C135.805702,38.9588588 137.713865,35.3550261 140.847297,34.5026468 L141.019426,34.4588896 C144.202114,33.705397 147.514396,35.9891093 150.288544,40.2572357 L150.449333,40.5093333 L161.273333,37.9473333 L161.276169,37.9180449 C161.826204,32.7999516 163.734367,29.1961188 166.867799,28.3437396 L167.039928,28.2999823 C170.222498,27.5465175 173.534232,29.8299189 176.308833,34.0981721 L176.478667,34.364 L187.522667,31.916 L182.163245,8.90122624 C181.39785,5.6169798 183.372072,2.32608566 186.596119,1.46509108 L186.770023,1.42130477 L198.408529,-1.33356143 C201.738997,-2.12173095 205.06885,-0.0413806958 205.848892,3.30571505 Z M199.099476,1.58578652 L187.46097,4.34065271 C185.747392,4.74617824 184.679962,6.48254721 185.085004,8.22054831 L191.132797,34.1893858 L175.004694,37.7637381 L174.454578,36.8122724 C172.129698,32.7912218 169.534225,30.792392 167.730868,31.2193318 C165.923269,31.6470189 164.477876,34.6085087 164.171255,39.2557784 L164.098304,40.3614596 L148.992405,43.9370388 L148.434013,42.9710693 C146.109775,38.9503409 143.513869,36.9512647 141.710366,37.378239 C139.937528,37.7977014 138.5131,40.6544496 138.169701,45.1484503 L138.077802,46.5203688 L102.00778,55.0581104 L101.449408,54.092065 C99.12545,50.0713603 96.5294857,48.0721525 94.7265414,48.4987382 C92.9137345,48.9279765 91.4664643,51.9027591 91.1643067,56.5676664 L91.101025,57.5446515 L90.1812107,57.8799813 C90.078834,57.9173041 89.9916954,57.9532225 89.9168141,57.9889033 L88.8510785,58.4967237 L88.1070153,57.5801846 C86.3341225,55.3963302 84.1651978,53.5617459 81.719358,52.168183 L81.0872673,51.8080374 L80.9787248,51.0886891 C80.8599897,50.3017913 80.728246,49.5932529 80.5717174,48.9198211 C77.1413386,34.1907348 62.5264382,25.0599784 47.9265854,28.5152755 C36.2461264,31.2801925 27.8399146,41.4036608 27.024222,53.30011 L26.9381351,54.5556423 L25.6867459,54.6890499 C24.6256736,54.8021682 23.5538146,54.9878764 22.4591932,55.2469883 C7.85724325,58.7033705 -1.20508848,73.4514265 2.22613005,88.1856741 C5.65650882,102.91476 20.2714092,112.045517 34.871118,108.590254 C35.9656276,108.331055 37.0082429,108.016251 38.0083886,107.641668 L39.1944874,107.197442 L39.8311844,108.292332 C45.8108381,118.57519 57.800999,123.866408 69.4781342,121.102278 C84.0818927,117.646056 93.1440159,102.904048 89.7125391,88.170724 C89.5568969,87.5015486 89.363128,86.8114974 89.1203554,86.0467986 L88.9014037,85.357132 L89.3048898,84.7564834 C90.8809577,82.4102738 92.0140042,79.7926013 92.6379638,77.039127 L92.8970004,75.8960227 L94.0688196,75.8709765 C94.1579038,75.8690725 94.2517219,75.8622753 94.3491986,75.850593 L95.3326223,75.7327323 L95.8272537,76.5908424 C98.1553022,80.6296516 100.758821,82.639893 102.566948,82.2117629 C104.33981,81.7922947 105.764217,78.9354819 106.107613,74.4410819 L106.199506,73.0691153 L142.269486,64.531919 L142.827869,65.4978726 C145.152017,69.5184458 147.748027,71.5178025 149.55082,71.0912526 C151.324102,70.6714328 152.748265,67.8149065 153.091681,63.3205152 L153.183581,61.948565 L168.29004,58.3729913 L168.848408,59.3390297 C171.172366,63.3597343 173.768331,65.3589421 175.571321,64.9323454 C177.344604,64.5125256 178.768767,61.6559993 179.112182,57.161608 L179.20469,55.7804622 L254.174351,38.6621512 C255.792667,38.278889 256.801035,36.6384893 256.418746,34.9964967 L253.605217,22.9161549 C253.234801,21.3248337 251.696449,20.3248464 250.091484,20.6277959 L234.491301,23.8618237 L229.882086,4.07169625 C229.529241,2.55655297 228.032286,1.62116086 226.540223,1.97430132 L214.115495,4.9153685 C212.619172,5.26951714 211.686276,6.78694413 212.040011,8.30558102 L214.89944,20.5830894 C215.395358,22.7121082 214.083367,24.8463161 211.960602,25.3488466 C209.83457,25.8515281 207.710055,24.5242765 207.213238,22.3913985 L202.92713,3.98638 C202.522982,2.25221304 200.808803,1.18126701 199.099476,1.58578652 Z M65.5894111,80.2921558 C71.2134946,81.2317475 75.7985768,85.4784917 77.1221789,91.1624436 C78.9152189,98.8608046 74.1747177,106.565051 66.5254235,108.375739 C59.7053053,109.990172 52.7812286,106.368964 50.1327789,99.9093999 C49.8404419,99.1850177 49.6042235,98.4476163 49.4313708,97.7053884 C48.1079189,92.0220816 50.3315962,86.1705046 54.9560843,82.8040475 C55.4897425,82.421562 56.0347669,82.0790598 56.5984056,81.7753939 C57.6630832,81.2062554 58.8140861,80.7714757 60.0191754,80.4861117 C61.8692218,80.0482085 63.7499786,79.9877979 65.5894111,80.2921558 Z M60.7103166,83.4054136 C59.7566294,83.6312459 58.8486958,83.9742086 58.0170269,84.4187799 C57.5729419,84.6580423 57.1359249,84.9326709 56.7127225,85.2359396 C53.0649436,87.8914284 51.3048523,92.5230851 52.3531905,97.0249695 C52.490006,97.6124541 52.6790286,98.2025247 52.9116501,98.7789991 C55.0004487,103.873528 60.4597507,106.728676 65.8343765,105.456415 L66.0440395,105.40468 C71.9578057,103.885724 75.6029965,97.8650414 74.2003684,91.8429018 C73.1533499,87.3466846 69.5317995,83.9923722 65.0973745,83.2515298 C63.6505133,83.0121293 62.1710988,83.0596487 60.7103166,83.4054136 Z M28.63968,67.5892176 L29.0450023,67.5935135 C34.6328593,67.7400159 39.6581534,71.2138691 41.8056089,76.446484 C42.0982992,77.1703253 42.3348117,77.9082103 42.5079472,78.6516528 C42.688511,79.4275612 42.803811,80.1914646 42.8513394,80.9392944 C43.2387523,86.4792161 40.3722658,91.7556388 35.5746901,94.4453681 L35.322,94.5826667 L34.9760234,94.7611402 C34.1286635,95.1814174 33.2403638,95.5167675 32.3166307,95.7630728 L31.9185917,95.8631685 C24.2684805,97.6739179 16.6174377,92.8916079 14.8245776,85.1928748 C13.0309565,77.4920192 17.7650245,69.7835841 25.4117293,67.9740714 C26.3470398,67.7525907 27.2896067,67.6271114 28.2345654,67.5965213 L28.63968,67.5892176 Z M26.102789,70.8933926 C20.0694691,72.3211146 16.3264294,78.4158685 17.7463846,84.5124017 C19.1636744,90.5983956 25.1989762,94.3707812 31.2279426,92.9437501 C32.0591597,92.7472123 32.8535269,92.4617229 33.6072508,92.0912189 L33.934,91.9233333 L34.1344752,91.8134469 C37.8363701,89.7244179 40.0800004,85.6707967 39.8723938,81.3821301 L39.8580179,81.139136 C39.8205933,80.5506541 39.7299446,79.9500744 39.5860779,79.3318587 C39.4491415,78.7438548 39.2600689,78.1539754 39.0273111,77.5782972 C37.3335043,73.4511109 33.3650263,70.7078067 28.9683711,70.592534 C28.0114532,70.5687199 27.0543495,70.668064 26.102789,70.8933926 Z M67.9807726,51.9106704 C69.3037809,57.5920722 67.0748719,63.4462476 62.455536,66.809002 C60.945377,67.9045089 59.23542,68.693697 57.3861182,69.1314239 C56.1804134,69.4169337 54.9572972,69.5443788 53.7455724,69.5122767 C53.1095459,69.4925138 52.4697914,69.4301259 51.8153916,69.3254373 C46.1939658,68.3868651 41.6146949,64.1400214 40.2899881,58.4542197 L40.208444,58.0810153 C40.0807229,57.4558704 39.9935258,56.8139923 39.9448797,56.157268 C39.4673407,49.2025406 44.0659448,42.8547225 50.8792558,41.2423268 C58.5305607,39.4312949 66.18818,44.2130861 67.9807726,51.9106704 Z M51.5701924,44.1616772 C46.1953562,45.4336524 42.5601691,50.4515896 42.9372546,55.9436652 C42.983879,56.5728578 43.0750294,57.1864758 43.2117695,57.7736366 C44.2599202,62.2724258 47.8762304,65.6262139 52.2992903,66.3647387 C52.8198512,66.4479878 53.332697,66.4979998 53.8318645,66.5135259 C54.7766349,66.5385433 55.740725,66.4380879 56.694977,66.212122 C58.1562192,65.8662481 59.5027573,65.244787 60.6919328,64.3821321 C64.3421159,61.7248932 66.1066741,57.0903241 65.0589509,52.5910805 C63.6420749,46.5068634 57.6006386,42.7342957 51.5701924,44.1616772 Z" fill="#041735" fill-rule="nonzero"></path>
                        </g>
                        <path d="M31.9054398,33.4105834 C31.9054398,33.4105834 77.671525,78.4264754 88.8482,77.5195993 C97.9621648,76.7803089 102.008711,60.9557723 107.804468,64.4237433 C112.02324,66.9475969 109.423885,73.0053487 109.423885,73.0053487 C109.423885,73.0053487 120.334485,70.8951756 130.052985,68.8921971 C131.362896,71.8302344 131.09083,75.3752044 126.578027,77.5799906 C120.96448,80.3222594 123.816432,88.3829897 113.297208,91.3587716 C97.6097268,95.5428829 68.6923453,103.981059 16.5445124,53.1436529" id="Fill-3" fill="url(#linearGradient-1)"></path>
                        <path d="M30.8360512,32.3587241 C31.4169771,31.768117 32.3666921,31.7602689 32.9572991,32.3411947 L34.0270857,33.3845297 C34.2958944,33.6454761 34.5864188,33.9267658 34.8977697,34.2273931 L36.5200502,35.7872541 C37.6436896,36.8633112 38.8496838,38.0095374 40.1267304,39.2131488 C45.599297,44.3710211 51.2545522,49.5286183 56.7863095,54.3400674 C58.4783812,55.811809 60.1357846,57.2306253 61.7532045,58.5905399 L62.5585579,59.2655611 C75.4707403,70.053843 85.0349666,76.3240756 88.726924,76.0245099 C91.5341628,75.7967973 93.8942569,73.9742362 97.1190717,70.0499708 L99.3315153,67.2971276 C99.5932559,66.973528 99.8183557,66.6975306 99.9570341,66.5322368 C100.972484,65.3218999 101.808684,64.4579957 102.650687,63.80139 C104.593677,62.2862181 106.59255,61.9505515 108.574549,63.1365076 C110.409907,64.2344991 111.397282,65.9401316 111.65059,67.9887092 C111.773467,68.9824556 111.721139,70.0000487 111.540965,71.011236 L111.529846,71.06725 L114.676171,70.4504397 C118.414309,69.7147612 122.15236,68.969955 125.688034,68.2530931 L128.812409,67.6159347 L130.931744,67.1795589 L131.422989,68.2813869 C133.260927,72.4037502 132.067628,76.4576302 127.458495,78.816719 L127.236429,78.927769 C125.888784,79.5861058 125.175635,80.5053028 124.177835,82.6937098 L123.526864,84.1663964 C123.350141,84.5631209 123.19497,84.8988937 123.036559,85.2235109 C121.165118,89.0584852 118.582155,91.4225785 113.683769,92.8081059 L111.45016,93.4020931 C111.058613,93.5048794 110.694787,93.5992048 110.335913,93.6908289 C98.141414,96.8042026 88.0076848,97.2223638 74.9628717,93.4836051 C57.396256,88.4488577 37.8466242,76.0052988 15.4974333,54.2177224 C14.904241,53.6394365 14.892157,52.689766 15.4704429,52.0965737 C16.0487287,51.5033815 16.9983993,51.4912975 17.5915915,52.0695834 C39.6099342,73.5346255 58.745931,85.7149011 75.7894199,90.5997157 C88.0656872,94.1182024 97.5769078,93.7876525 109.054327,90.920328 L109.859358,90.7160024 L112.888897,89.9154137 C116.801486,88.8085817 118.735448,87.0947281 120.236418,84.1175945 L120.340454,83.9078296 C120.425188,83.734193 120.509906,83.5547584 120.599461,83.3596629 L120.907467,82.6722362 L121.220827,81.9572951 C122.558999,78.9142337 123.601467,77.4213007 125.728993,76.3277253 L125.919567,76.2322405 C128.691649,74.8779054 129.635352,72.9809675 129.111859,70.7510735 L129.079846,70.62325 L125.096602,71.4335679 C122.308854,71.9965601 119.412691,72.5738693 116.503021,73.1481118 L109.708716,74.4780577 L106.929004,75.01567 L108.045429,72.4138594 C108.05628,72.3885714 108.079281,72.3310656 108.111274,72.2447867 L108.136905,72.1747364 C108.216824,71.9535356 108.297689,71.7014269 108.373463,71.4254206 C108.663126,70.3703312 108.790292,69.303294 108.673264,68.3568567 C108.527142,67.1751178 108.021377,66.3014395 107.034273,65.7109109 C106.23772,65.2342819 105.541883,65.3511323 104.495509,66.1671097 C103.938949,66.6011235 103.334141,67.2071711 102.602353,68.0528602 L102.255301,68.4604404 C102.017985,68.7433024 101.497188,69.3888801 100.983039,70.0294928 L99.6589314,71.6828774 C95.8387184,76.3844963 92.9151895,78.6946273 88.9695114,79.0146857 C84.1237439,79.4078716 74.5961916,73.1973825 61.0468624,61.9113106 L60.6350463,61.5677564 C58.7479805,59.9910904 56.806063,58.333272 54.8174878,56.6036357 C49.2524964,51.76328 43.5687049,46.5796577 38.0691092,41.3963105 L36.6562435,40.0607407 C35.7351618,39.187434 34.8565294,38.3491702 34.0250967,37.5513283 L31.9371622,35.5367889 L30.8535805,34.479972 C30.2629735,33.8990461 30.2551254,32.9493311 30.8360512,32.3587241 Z" id="Fill-3" fill="#041735" fill-rule="nonzero"></path>
                        <path d="M239.31698,45.335199 C239.31698,45.335199 238.089185,91.3590232 220.909085,91.3590232 C205.359883,91.3590232 184.819142,63.9021134 179.323407,60.8226598 C174.386281,58.0567377 157.316117,58.4110334 153,42.9931316 C151.165925,36.4406743 157.316117,25.7000795 162.805255,24.9141435 C165.140279,24.5798144 167.37703,25.2185437 168.558543,27.209779 C171.179319,31.6266413 174.849542,33.518238 181.027689,36.6897884 C181.027689,36.6897884 178.925042,26.759947 183.241159,25.7000795 C189.57356,24.1450032 188.387451,35.6852796 193.22923,41.0686618 C198.689521,46.9890233 208.369561,55.1883616 208.369561,55.1883616" id="Fill-5" fill="#1D2E49"></path>
                        <path d="M162.592653,23.4292865 C165.660777,22.9899919 168.39462,23.9940036 169.848548,26.4443457 C171.608971,29.4112336 173.35052,30.8984276 178.58059,33.7151874 L179.128187,34.0078237 L179.120781,33.9271402 C179.048631,33.1298787 179.010745,32.3372465 179.015897,31.5652418 L179.024223,31.1046423 C179.132393,27.4711534 180.21158,24.8994612 182.883426,24.2433615 C185.130555,23.6915241 186.949419,24.3809908 188.261468,26.1140701 C189.13923,27.2735021 189.712986,28.662077 190.498888,31.1955872 L191.190521,33.4638741 C191.27057,33.7220349 191.344199,33.9552434 191.417976,34.1839482 L191.623947,34.8070536 C192.446281,37.2319759 193.257644,38.8571622 194.331867,40.0517101 C195.348556,41.1540621 196.561725,42.3881455 197.941781,43.7307473 L198.290255,44.0686451 C198.840916,44.6008672 199.414086,45.1468128 200.0075,45.7047544 C201.792716,47.3832578 203.691438,49.106025 205.604557,50.7980742 L206.425058,51.5211389 C206.862939,51.9056412 207.282903,52.2721912 207.681519,52.6181988 L209.339062,54.04378 C209.971197,54.5792209 210.049583,55.5257281 209.514143,56.157863 C208.978702,56.789998 208.032195,56.8683841 207.40006,56.3329432 L206.584359,55.635122 C205.938791,55.0797083 205.219774,54.455213 204.445591,53.7754041 C202.233047,51.8325729 200.020193,49.8344789 197.952509,47.8903929 C197.500133,47.465058 197.059042,47.0463056 196.63015,46.6348173 L196.205359,46.2257756 C194.642082,44.7148475 193.271201,43.3266638 192.113952,42.071735 C190.587065,40.3740497 189.577016,38.2488385 188.562853,35.1049651 L188.387252,34.5519181 L187.718636,32.3604028 C186.331235,27.8305562 185.472774,26.6966197 183.598872,27.1568022 C182.678346,27.3828471 182.094964,28.7730394 182.022894,31.1939139 C181.987606,32.3792494 182.080423,33.6711016 182.257539,34.9532262 L182.322798,35.3994317 C182.344972,35.5429007 182.367483,35.680908 182.390078,35.8128674 L182.495151,36.379053 L183.14852,39.4646179 L180.342655,38.0242277 C172.100236,33.792984 169.729354,32.1224884 167.268538,27.9752123 C166.498069,26.6767198 164.977759,26.1183815 163.017857,26.3990006 C158.368893,27.0646401 152.876182,36.9858704 154.444468,42.5887645 C156.246725,49.026735 160.416501,52.9057601 166.877923,55.4147068 C168.25694,55.9501741 169.698618,56.4111627 171.397608,56.878682 L172.082105,57.0632964 C173.113281,57.3341105 175.759722,58.0033811 176.390525,58.1751308 L176.958301,58.3335133 C178.322635,58.7242568 179.28329,59.0808311 180.056646,59.5140878 C181.264119,60.1906772 182.803027,61.5742761 185.638241,64.4341815 L190.943683,69.8526915 L191.786774,70.7060715 C193.302521,72.2349826 194.66253,73.5762723 196.012413,74.8666047 C200.956869,79.5929317 205.336426,83.2047918 209.461831,85.7752748 C213.763168,88.4553783 217.596018,89.8590232 220.909085,89.8590232 C227.408323,89.8590232 232.161311,81.7565297 235.088577,68.0341708 C236.148315,63.0663645 236.888146,57.7309197 237.36259,52.3936074 C237.495527,50.8981138 237.599578,49.488411 237.678377,48.1876603 L237.759537,46.7102849 C237.771801,46.4594706 237.782431,46.2245438 237.791539,46.0062097 L237.817514,45.2951972 C237.839606,44.4670647 238.52885,43.8136401 239.356982,43.8357325 C240.185115,43.8578249 240.838539,44.5470684 240.816991,45.3752009 L240.797851,45.9107037 C240.781094,46.3390372 240.758292,46.8348949 240.728539,47.3926828 L240.67295,48.3680343 C240.59249,49.6963945 240.486351,51.1344159 240.350807,52.6592357 C239.866389,58.1087571 239.11048,63.5601461 238.022563,68.6600514 C234.813677,83.7025826 229.442435,92.8590232 220.909085,92.8590232 C216.944505,92.8590232 212.610413,91.2718163 207.87534,88.3214574 C203.544376,85.622894 199.019834,81.8914631 193.939467,77.0352207 C192.444119,75.6058409 190.940313,74.118627 189.236368,72.3938681 L183.945832,66.9895601 C181.073807,64.0777208 179.50843,62.6457661 178.590274,62.1312909 C178.0205,61.8120871 177.161985,61.5034055 175.853128,61.1387934 L175.602401,61.069757 C174.979223,60.9000834 172.150447,60.1852311 171.191368,59.9309433 L171.089234,59.9037036 C169.087107,59.365899 167.41069,58.8398025 165.792023,58.2112801 C158.520094,55.3876163 153.641601,50.8492913 151.555519,43.3974511 C149.524123,36.1400417 156.041936,24.3672195 162.592653,23.4292865 Z" id="Fill-5" fill="#041735" fill-rule="nonzero"></path>
                    </g>
                    <path d="M182.499446,118.311693 C182.499446,112.497016 178.246792,107.78372 172.999918,107.78372 C178.246792,107.78372 182.499446,103.06942 182.499446,97.2547425 C182.499446,103.06942 186.753126,107.78372 192,107.78372 C186.753126,107.78372 182.499446,112.497016 182.499446,118.311693 Z" id="Fill-" fill-opacity="0.12" fill="#FFFFFF"></path>
                    <path d="M179.497053,118.104767 L179.499446,118.311693 C179.499446,122.311693 185.499446,122.311693 185.499446,118.311693 C185.499446,114.158454 188.385451,110.892344 191.827448,110.786374 L192,110.78372 C195.946667,110.78372 195.999289,104.942653 192.157867,104.786891 L191.827461,104.781065 C188.443075,104.676838 185.59581,101.516262 185.501841,97.4616683 L185.499446,97.2547425 C185.499446,93.3080759 179.65838,93.2554537 179.502618,97.0968759 L179.499446,97.2547425 C179.499446,101.408545 176.613876,104.675082 173.172442,104.781065 L172.999918,104.78372 C169.053251,104.78372 169.000629,110.624786 172.842051,110.780548 L172.999918,110.78372 C176.459499,110.78372 179.401523,113.98145 179.497053,118.104767 Z M182.499446,97.2547425 C182.499446,103.06942 186.753126,107.78372 192,107.78372 C186.753126,107.78372 182.499446,112.497016 182.499446,118.311693 C182.499446,112.497016 178.246792,107.78372 172.999918,107.78372 C178.246792,107.78372 182.499446,103.06942 182.499446,97.2547425 Z" id="Fill-" fill="#041735" fill-rule="nonzero"></path>
                    <path d="M88.4994464,24.0569507 C88.4994464,18.2422731 84.2467923,13.5289773 78.999918,13.5289773 C84.2467923,13.5289773 88.4994464,8.81467764 88.4994464,3 C88.4994464,8.81467764 92.7531257,13.5289773 98,13.5289773 C92.7531257,13.5289773 88.4994464,18.2422731 88.4994464,24.0569507 Z" id="Fill-1" fill-opacity="0.12" fill="#FFFFFF"></path>
                    <path d="M85.4970528,23.8500241 L85.4994464,24.0569507 C85.4994464,28.0569507 91.4994464,28.0569507 91.4994464,24.0569507 C91.4994464,19.9037118 94.3854513,16.6376012 97.8274476,16.5316318 L98,16.5289773 C101.946667,16.5289773 101.999289,10.6879106 98.1578667,10.5321488 L97.8274605,10.5263222 C94.4430752,10.4220959 91.5958096,7.26151954 91.5018408,3.20692574 L91.4994464,3 C91.4994464,-0.946666667 85.6583797,-0.999288889 85.502618,2.84213333 L85.4994464,3 C85.4994464,7.1538027 82.6138759,10.4203392 79.1724421,10.5263224 L78.999918,10.5289773 C75.0532513,10.5289773 75.0006291,16.3700439 78.8420513,16.5258057 L78.999918,16.5289773 C82.4594993,16.5289773 85.4015227,19.7267076 85.4970528,23.8500241 Z M88.4994464,3 C88.4994464,8.81467764 92.7531257,13.5289773 98,13.5289773 C92.7531257,13.5289773 88.4994464,18.2422731 88.4994464,24.0569507 C88.4994464,18.2422731 84.2467923,13.5289773 78.999918,13.5289773 C84.2467923,13.5289773 88.4994464,8.81467764 88.4994464,3 Z" id="Fill-1" fill="#041735" fill-rule="nonzero"></path>
                </g>
            </g>
        </g>
    </g>
</svg>