<?xml version="1.0" encoding="UTF-8"?>
<svg width="42px" height="42px" viewBox="0 0 42 42" version="1.1" xmlns="http://www.w3.org/2000/svg" xmlns:xlink="http://www.w3.org/1999/xlink">
    <title>quanxianyuechi</title>
    <g id="第五期UI优化" stroke="none" stroke-width="1" fill="none" fill-rule="evenodd">
        <g id="v5-Venture-Management" transform="translate(-1047.000000, -616.000000)" fill="#63678A">
            <g id="Group-18" transform="translate(1012.183066, 578.000000)">
                <path d="M73.4868524,60.701628 C69.8539219,57.0660098 64.4046838,56.4198263 60.1259733,58.7627621 L48.5007974,47.1291876 L54.1921636,41.433394 L51.8913476,39.1311682 L44.5852475,43.2108088 L39.3782005,38 L34.8169336,42.5645622 L55.5647064,63.3273243 C53.2638272,67.609126 53.9096073,73.0623009 57.5021726,76.6978561 C61.9020418,81.1007146 69.0869202,81.1007146 73.4868524,76.6978561 C77.9269607,72.2947451 77.9269607,65.1448809 73.4868524,60.701628 Z M69.3513156,72.5343819 C67.3968983,74.4885394 64.2367091,74.4885394 62.2825517,72.5343819 C60.3283943,70.5799647 60.3283943,67.4197755 62.2825517,65.4656181 C64.2367091,63.5114606 67.3968983,63.5114606 69.3513156,65.4656181 C71.305473,67.4197755 71.305473,70.5799647 69.3513156,72.5343819 Z" id="quanxianyuechi"></path>
            </g>
        </g>
    </g>
</svg>