<?xml version="1.0" encoding="UTF-8"?>
<svg width="72px" height="72px" viewBox="0 0 72 72" version="1.1" xmlns="http://www.w3.org/2000/svg" xmlns:xlink="http://www.w3.org/1999/xlink">
    <title>swap</title>
    <g id="Page-2" stroke="none" stroke-width="1" fill="none" fill-rule="evenodd">
        <g id="Icon" transform="translate(-115.000000, -102.000000)">
            <g id="swap" transform="translate(115.000000, 102.000000)">
                <rect id="rectangle" x="0" y="0" width="72" height="72"></rect>
                <path d="M39.999,47 L39.9991238,47.9816923 L40.0093546,48.348739 C40.1994848,51.7504478 43.0159602,54.4545631 46.4719938,54.4545631 L52.3351969,54.4544835 L52.3552001,54.7310754 C52.5082549,56.2069215 53.1546696,57.4624991 54.0883405,58.4110751 C53.4810892,58.7848724 52.7656675,59 52,59 L12,59 C9.790861,59 8,57.209139 8,55 L8,51 C8,48.790861 9.790861,47 12,47 L39.999,47 Z M59.4526777,34.2369714 L59.6057612,34.368388 L68.8568951,43.6141464 C69.3895525,44.1468038 69.4379758,44.981552 69.0021653,45.5691349 L68.8568951,45.7374456 L59.6111367,54.9885795 C58.8421324,55.7474653 57.4922085,55.2302325 57.3360549,54.2390769 L57.3211988,54.0478773 L57.3211988,49.4518753 L46.47287,49.4518753 C45.7238919,49.4518753 45.1104204,48.8963011 45.0133764,48.1784962 L45,47.9790045 L45,41.377963 C45,40.6289849 45.5555735,40.0155127 46.2733783,39.9184686 L46.47287,39.9050922 L57.3158234,39.9050922 L57.3158234,35.319841 C57.3158234,34.2928156 58.6062268,33.6181513 59.4526777,34.2369714 Z M52,30 C52.8633117,30 53.662745,30.273496 54.3163831,30.7385714 C53.2569956,31.7178307 52.5150076,33.0611345 52.3497392,34.647524 L52.3311969,34.9064835 L46.4719938,34.90778 C42.899837,34.90778 39.9991238,37.8011888 39.9991238,41.3806508 L39.999,42 L12,42 C9.790861,42 8,40.209139 8,38 L8,34 C8,31.790861 9.790861,30 12,30 L52,30 Z M60,13 C62.209139,13 64,14.790861 64,17 L64,21 C64,23.209139 62.209139,25 60,25 L20,25 C17.790861,25 16,23.209139 16,21 L16,17 C16,14.790861 17.790861,13 20,13 L60,13 Z" id="path" fill="#fff"></path>
            </g>
        </g>
    </g>
</svg>