<?xml version="1.0" encoding="UTF-8"?>
<svg width="57px" height="43px" viewBox="0 0 57 43" version="1.1" xmlns="http://www.w3.org/2000/svg" xmlns:xlink="http://www.w3.org/1999/xlink">
    <title>Swap</title>
    <defs>
        <polygon id="path-1" points="0 0 57 0 57 43 0 43"></polygon>
    </defs>
    <g id="第五期UI优化" stroke="none" stroke-width="1" fill="none" fill-rule="evenodd">
        <g id="v5-Venture-Management" transform="translate(-604.000000, -392.000000)">
            <g id="Swap" transform="translate(604.000000, 392.000000)">
                <mask id="mask-2" fill="white">
                    <use xlink:href="#path-1"></use>
                </mask>
                <g id="Clip-2"></g>
                <path d="M52.8900755,9.72686034 C52.8900755,9.80205728 52.8550413,9.8775609 52.779968,9.95275785 L52.779968,10.0634679 L47.4200371,15.4496789 C47.12011,15.6003795 46.900078,15.6708536 46.7501144,15.6708536 C46.6001509,15.6708536 46.3800578,15.6003795 46.0801307,15.4446495 C45.6350008,14.9975773 45.6350008,14.5452302 46.0801307,14.098158 L49.9849817,10.2843359 L13.7150399,10.2843359 C11.2600198,10.2843359 9.1600417,11.1636372 7.41003956,12.9174556 C5.66003743,14.6760582 4.78503636,16.7863568 4.78503636,19.2534421 L4.78503636,20.1528614 C4.78503636,20.7556636 4.48510923,21.0520352 3.89001573,21.0520352 C3.29492224,21.0520352 3,20.7606931 3,20.1576455 L3,19.2635011 C3,16.2739012 4.0399793,13.7313736 6.12494278,11.6361021 C8.20990626,9.54592153 10.7399997,8.49580173 13.7150399,8.49580173 L49.9849817,8.49580173 L46.0801307,4.68204093 C45.6350008,4.23490739 45.6350008,3.78256036 46.0801307,3.33548816 C46.5250165,2.88817061 46.9751513,2.88817061 47.4200371,3.33548816 L52.7749631,8.71673109 C52.8500364,8.86743165 52.8850707,8.98317116 52.8850707,9.05333861 C52.9649658,9.2795428 52.9649658,9.50568564 52.8900755,9.72686034 Z M51.2149636,21.9514545 C51.2149636,21.3536817 51.5151349,21.0520352 52.1099843,21.0520352 C52.7000729,21.0570647 53,21.3536817 53,21.9514545 L53,22.8508737 C53,25.8404736 51.9600207,28.388092 49.8750572,30.4782726 C47.7900937,32.5684533 45.2600003,33.6185731 42.2850211,33.6185731 L6.01501833,33.6185731 L9.92011343,37.4323952 C10.3649992,37.8794674 10.3649992,38.3315691 9.92011343,38.7788866 C9.61994216,38.9295872 9.40009326,39 9.24988556,39 C9.099922,39 8.88013413,38.9295872 8.57996287,38.7738572 L3.22509793,33.3923689 C3.14996356,33.2416683 3.10992445,33.131265 3.10992445,33.0557614 C3.03503422,32.8298638 3.03503422,32.6086892 3.10992445,32.3825463 C3.10992445,32.3123175 3.14996356,32.2318457 3.22003201,32.1563421 L3.22003201,32.0458774 L8.57996287,26.6646958 C9.0250928,26.2173783 9.47498349,26.2173783 9.92011343,26.6646958 C10.3649992,27.1117681 10.3649992,27.5641151 9.92011343,28.0111873 L6.01501833,31.8247641 L42.2850211,31.8247641 C44.7399802,31.8247641 46.8399583,30.9454628 48.5899604,29.1868602 C50.3399626,27.4332871 51.2149636,25.3179591 51.2149636,22.8508737 L51.2149636,21.9514545 Z" id="Fill-1" stroke="#63678A" stroke-width="3" fill="#63678A" mask="url(#mask-2)"></path>
            </g>
        </g>
    </g>
</svg>