<?xml version="1.0" encoding="UTF-8"?>
<svg width="48px" height="48px" viewBox="0 0 48 48" version="1.1" xmlns="http://www.w3.org/2000/svg" xmlns:xlink="http://www.w3.org/1999/xlink">
    <g id="info" stroke="none" stroke-width="1" fill="none" fill-rule="evenodd">
        <g id="Icon" transform="translate(-940.000000, -378.000000)">
            <g id="icon-Remarks" transform="translate(940.000000, 378.000000)">
                <g>
                    <rect id="Rectangle" x="0" y="0" width="48" height="48"></rect>
                </g>
                <rect id="Rectangle-Copy-9" x="0" y="0" width="48" height="48"></rect>
                <g id="group">
                    <rect id="Rectangle" x="0" y="0" width="48" height="48"></rect>
                    <g transform="translate(11.000000, 11.000000)">
                        <circle id="Oval" stroke="#FFFFFF" stroke-width="3" stroke-linejoin="round" cx="13" cy="13" r="13"></circle>
                        <path d="M14.0365744,9.31182796 C13.4315477,9.31182796 12.7379409,9.52396157 11.9479616,9.93742964 C11.1659,10.3469217 10.3201476,11.0166645 9.40974984,11.9434545 L9,12.3605821 L10.3830711,13.3492149 L11.3539305,12.486582 L11.827418,12.0910397 L12.0357556,11.9346772 C12.0634563,11.9156434 12.0876724,11.9000972 12.1084436,11.888 L11.5349885,13.6480811 C11.4755792,13.8344751 11.41803,14.0167687 11.3623404,14.1949722 L10.9113321,15.6886412 L10.6664137,16.5625239 L10.4660734,17.3394562 L10.3102901,18.0199236 L10.1990426,18.6044121 C10.1397181,18.962186 10.11007,19.2562977 10.11007,19.4873949 C10.11007,19.9319639 10.246168,20.3067334 10.5273091,20.5862124 C10.8058496,20.8636082 11.1788425,21 11.6128155,21 C12.0623774,21 12.5918149,20.8288646 13.209536,20.5007621 C13.6104585,20.2890731 14.1475874,19.9111143 14.8265244,19.3643974 L15.5529381,18.7613356 L16.3780485,18.0463374 L15.1140362,16.9099503 L14.5304925,17.414459 L14.0035105,17.8498053 L13.5663303,18.1894485 L13.2326034,18.4286308 L13.1664436,18.47 L13.1932964,18.3019324 L13.270092,17.9196543 L13.3850403,17.4393186 L13.5379754,16.8621639 L13.8382405,15.8176049 L14.3700004,14.0975516 L14.8775535,12.5020988 L15.2152312,11.3684869 L15.3233803,10.9571166 C15.3804639,10.7204056 15.4078884,10.5560337 15.4078884,10.4476063 C15.4078884,10.097567 15.2595832,9.79228569 14.9834245,9.58472047 C14.7421416,9.39785198 14.4190892,9.31182796 14.0365744,9.31182796 Z M13.8172441,5.19980546 C13.3035395,5.47325999 12.9807293,5.98879139 12.9807293,6.55376344 C12.9807293,7.11873549 13.3035395,7.63426689 13.8172228,7.90771008 C14.3177823,8.17413626 14.9295824,8.17413626 15.4299729,7.90767605 C15.9436154,7.63428638 16.2664436,7.11875313 16.2664436,6.55376344 C16.2664436,5.98877375 15.9436154,5.4732405 15.4298877,5.19980546 C14.9295824,4.93339062 14.3177823,4.93339062 13.8172441,5.19980546 Z" id="path" fill="#FFFFFF" fill-rule="nonzero"></path>
                    </g>
                </g>
            </g>
        </g>
    </g>
</svg>