<?xml version="1.0" encoding="UTF-8"?>
<svg width="20px" height="22px" viewBox="0 0 20 22" version="1.1" xmlns="http://www.w3.org/2000/svg" xmlns:xlink="http://www.w3.org/1999/xlink">
    <title>DAO Token</title>
    <g id="Page-1" stroke="none" stroke-width="1" fill="none" fill-rule="evenodd">
        <g id="Tokens" transform="translate(-467.000000, -336.000000)">
            <g id="编组-10" transform="translate(340.000000, 226.000000)">
                <g id="DAO-Token" transform="translate(130.000000, 113.000000)">
                    <path d="M7.08626552,-2.26255858 C7.38101043,-1.76423836 7.72235633,-1.26944334 8.11321664,-0.780901656 C9.97859831,1.55066458 12.2304263,2.81319839 14.5098758,3.25059655 C14.8334841,3.31269299 15.162731,3.35913409 15.4967772,3.38904088 C15.5151084,3.74465875 15.5243138,4.10770318 15.5243138,4.47820014 C15.5243138,7.64802891 14.8504903,10.2723443 13.5527138,12.3673973 C12.2277661,14.5063138 10.2502723,16.1136662 7.59662068,17.1624943 C4.02404155,16.1136662 2.04654776,14.5063138 0.721600016,12.3673973 C-0.576176527,10.2723443 -1.25,7.64802891 -1.25,4.47820014 C-1.25,4.10789665 -1.24080419,3.74503791 -1.22247451,3.3899476 C-0.888811942,3.35937788 -0.559314703,3.3127207 -0.235561948,3.25059655 C2.13034579,2.79660811 4.47550265,1.46174666 6.13777402,-0.750822115 C6.50312066,-1.23711729 6.81856023,-1.7432912 7.08626552,-2.26255858 Z" id="形状结合" stroke="#1D2E49" stroke-width="2.5" fill="#FDCE27" fill-rule="nonzero" stroke-linejoin="round"></path>
                    <polygon id="路径" fill="#1D2E49" points="6.64554928 8.7377284 4.78191607 7.67331694 3.96508717 8.35392415 6.64554928 11.017075 10.6671903 7.02234876 9.611593 6.45838184"></polygon>
                </g>
            </g>
        </g>
    </g>
</svg>