<?xml version="1.0" encoding="UTF-8"?>
<svg width="72px" height="72px" viewBox="0 0 72 72" version="1.1" xmlns="http://www.w3.org/2000/svg" xmlns:xlink="http://www.w3.org/1999/xlink">
    <title>Transfer</title>
    <g id="Page-2" stroke="none" stroke-width="1" fill="none" fill-rule="evenodd">
        <g id="Icon" transform="translate(-267.000000, -102.000000)">
            <g id="Transfer" transform="translate(267.000000, 102.000000)">
                <rect id="Rang" x="0" y="0" width="72" height="72"></rect>
                <g id="group" transform="translate(10.000000, 10.000000)">
                    <path d="M33.1277704,-2.07168062e-16 L46.8722296,2.07168062e-16 C48.6552671,-1.2037061e-16 49.3018396,0.185651222 49.9536914,0.534265408 C50.6055433,0.882879593 51.1171204,1.39445674 51.4657346,2.04630859 C51.8143488,2.69816044 52,3.34473292 52,5.1277704 L52,16.8722296 C52,18.6552671 51.8143488,19.3018396 51.4657346,19.9536914 C51.1171204,20.6055433 50.6055433,21.1171204 49.9536914,21.4657346 C49.3018396,21.8143488 48.6552671,22 46.8722296,22 L33.1277704,22 C31.3447329,22 30.6981604,21.8143488 30.0463086,21.4657346 C29.3944567,21.1171204 28.8828796,20.6055433 28.5342654,19.9536914 C28.1856512,19.3018396 28,18.6552671 28,16.8722296 L28,5.1277704 C28,3.34473292 28.1856512,2.69816044 28.5342654,2.04630859 C28.8828796,1.39445674 29.3944567,0.882879593 30.0463086,0.534265408 C30.6981604,0.185651222 31.3447329,1.2037061e-16 33.1277704,-2.07168062e-16 Z" id="path" fill="#45BEFF"></path>
                    <path d="M5.1277704,30 L18.8722296,30 C20.6552671,30 21.3018396,30.1856512 21.9536914,30.5342654 C22.6055433,30.8828796 23.1171204,31.3944567 23.4657346,32.0463086 C23.8143488,32.6981604 24,33.3447329 24,35.1277704 L24,46.8722296 C24,48.6552671 23.8143488,49.3018396 23.4657346,49.9536914 C23.1171204,50.6055433 22.6055433,51.1171204 21.9536914,51.4657346 C21.3018396,51.8143488 20.6552671,52 18.8722296,52 L5.1277704,52 C3.34473292,52 2.69816044,51.8143488 2.04630859,51.4657346 C1.39445674,51.1171204 0.882879593,50.6055433 0.534265408,49.9536914 C0.185651222,49.3018396 -1.83201302e-16,48.6552671 3.15305029e-16,46.8722296 L1.38112041e-16,35.1277704 C-8.02470732e-17,33.3447329 0.185651222,32.6981604 0.534265408,32.0463086 C0.882879593,31.3944567 1.39445674,30.8828796 2.04630859,30.5342654 C2.69816044,30.1856512 3.34473292,30 5.1277704,30 Z" id="path" fill="#45BEFF"></path>
                    <g transform="translate(0.000000, 4.000000)">
                        <path d="M2.13504161,10 L17.8649584,10 C18.4172431,10 18.8649584,10.4477153 18.8649584,11 C18.8649584,11.2339365 18.7829422,11.4604694 18.6331797,11.6401844 L11.5364426,20.1562689 C10.8293144,21.0048227 9.568185,21.1194709 8.7196312,20.4123427 C8.62670507,20.3349042 8.54099588,20.2491951 8.46355744,20.1562689 L1.36682033,11.6401844 C1.01325625,11.2159075 1.07058032,10.5853428 1.49485721,10.2317787 C1.67457221,10.0820162 1.90110511,10 2.13504161,10 Z" id="rang" fill="#45BEFF"></path>
                        <path d="M9.99948954,12.00737 C10.2672596,4.00245667 14.2672596,0 21.9994895,0" id="path" stroke="#45BEFF" stroke-width="6"></path>
                    </g>
                    <g transform="translate(40.999745, 37.000000) rotate(-180.000000) translate(-40.999745, -37.000000) translate(30.000000, 26.000000)">
                        <path d="M2.13504161,10 L17.8649584,10 C18.4172431,10 18.8649584,10.4477153 18.8649584,11 C18.8649584,11.2339365 18.7829422,11.4604694 18.6331797,11.6401844 L11.5364426,20.1562689 C10.8293144,21.0048227 9.568185,21.1194709 8.7196312,20.4123427 C8.62670507,20.3349042 8.54099588,20.2491951 8.46355744,20.1562689 L1.36682033,11.6401844 C1.01325625,11.2159075 1.07058032,10.5853428 1.49485721,10.2317787 C1.67457221,10.0820162 1.90110511,10 2.13504161,10 Z" id="path-" fill="#45BEFF"></path>
                        <path d="M9.99948954,12.00737 C10.2672596,4.00245667 14.2672596,0 21.9994895,0" id="path" stroke="#45BEFF" stroke-width="6"></path>
                    </g>
                </g>
            </g>
        </g>
    </g>
</svg>