<?xml version="1.0" encoding="UTF-8"?>
<svg width="48px" height="48px" viewBox="0 0 48 48" version="1.1" xmlns="http://www.w3.org/2000/svg" xmlns:xlink="http://www.w3.org/1999/xlink">
    <title>Twittter</title>
    <g id="Page1" stroke="none" stroke-width="1" fill="none" fill-rule="evenodd">
        <g id="Icon" transform="translate(-1708.000000, -634.000000)">
            <g id="Twittter" transform="translate(1708.000000, 634.000000)">
                <rect id="Rectangle-Copy-9" x="0" y="0" width="48" height="48"></rect>
                <path d="M43.9666667,11.2401233 C42.4666667,11.959991 40.8666667,12.4227631 39.25,12.6112998 C40.95,11.4972189 42.2333333,9.73182908 42.85,7.65792456 C41.2333333,8.70344667 39.4666667,9.45759377 37.6333333,9.83466732 C35.3333333,7.14373335 31.7666667,6.26960831 28.65,7.64078485 C25.5333333,9.0119614 23.4833333,12.3370645 23.4666667,16.0563809 C23.4833333,16.7591089 23.5666667,17.4446971 23.7166667,18.1302854 C17.1166667,17.7532119 10.9666667,14.2738514 6.81666667,8.56632902 C4.58333333,12.7312778 5.68333333,18.096006 9.31666667,20.78694 C8.01666667,20.7355209 6.75,20.3413076 5.61666667,19.6385796 L5.61666667,19.7414179 C5.61666667,24.060624 8.36666667,27.7970801 12.1833333,28.6540654 C11.4833333,28.8597419 10.75,28.9625801 10.0333333,28.9625801 C9.51666667,28.9625801 9,28.9283007 8.48333333,28.8597419 C9.56666667,32.5619186 12.6333333,35.0814555 16.15,35.167154 C13.25,37.6695512 9.66666667,39.023588 5.96666667,39.0064483 C5.3,39.0064483 4.65,38.9721689 4,38.9036101 C7.75,41.5774043 12.1166667,43 16.5833333,43 C31.65,43 39.9,29.1682566 39.9,17.1704618 L39.9,15.9535427 C41.5,14.6509249 42.8833333,13.0569322 44,11.257263 L43.9666667,11.2401233 Z" id="Path-" fill="#FFFFFF" opacity="0.319999993"></path>
            </g>
        </g>
    </g>
</svg>