<?xml version="1.0" encoding="UTF-8"?>
<svg width="17px" height="15px" viewBox="0 0 17 15" version="1.1" xmlns="http://www.w3.org/2000/svg" xmlns:xlink="http://www.w3.org/1999/xlink">
    <g stroke="none" stroke-width="1" fill="none" fill-rule="evenodd">
        <g transform="translate(-367.000000, -411.000000)" fill="#FFFFFF" fill-rule="nonzero">
            <g id="Group-24-Copy" transform="translate(81.000000, 117.000000)">
                <g transform="translate(254.000000, 279.000000)">
                    <path d="M48.4926549,16.7179582 C47.8736645,17.0096249 47.2134081,17.1971249 46.546274,17.2735138 C47.2477965,16.8221249 47.7773771,16.1068471 48.031851,15.2665694 C47.3647169,15.6901805 46.6356838,15.995736 45.87914,16.1485138 C44.9300214,15.058236 43.4581998,14.7040694 42.1720753,15.2596249 C40.8859509,15.8151805 40.0399973,17.1624027 40.0331197,18.6693471 C40.0399973,18.9540694 40.0743857,19.2318471 40.1362847,19.5096249 C37.412727,19.3568471 34.8748665,17.9471249 33.1623264,15.6346249 C32.2407185,17.3221249 32.6946448,19.495736 34.193977,20.5860138 C33.6575187,20.5651805 33.1348157,20.4054582 32.6671341,20.120736 L32.6671341,20.1624027 C32.6671341,21.9124027 33.8019498,23.4262916 35.3769364,23.7735138 C35.0880743,23.8568471 34.7854567,23.8985138 34.4897169,23.8985138 C34.2765091,23.8985138 34.0633013,23.8846249 33.8500935,23.8568471 C34.2971421,25.3568471 35.5626335,26.3776805 37.0138221,26.4124027 C35.8171074,27.4262916 34.3384081,27.9749027 32.8115652,27.9679582 C32.5364583,27.9679582 32.2682292,27.9540694 32,27.9262916 C33.547476,29.0096249 35.3494257,29.5860138 37.1926416,29.5860138 C43.4100561,29.5860138 46.8145032,23.9818471 46.8145032,19.120736 L46.8145032,18.6276805 C47.4747596,18.0999027 48.0456063,17.4540694 48.5064103,16.7249027 L48.4926549,16.7179582 Z" id="路径"></path>
                </g>
            </g>
        </g>
    </g>
</svg>