<?xml version="1.0" encoding="UTF-8"?>
<svg width="24px" height="24px" viewBox="0 0 24 24" version="1.1" xmlns="http://www.w3.org/2000/svg" xmlns:xlink="http://www.w3.org/1999/xlink">
    <title>Twitter</title>
    <g id="Page-1" stroke="none" stroke-width="1" fill="none" fill-rule="evenodd">
        <g id="Create-DAO--NFT-Copy-2" transform="translate(-1526.000000, -618.000000)">
            <g id="Group-6-Copy-2" transform="translate(1311.000000, 500.000000)">
                <g id="Twittter" transform="translate(215.000000, 118.000000)">
                    <rect id="Rectangle-Copy-9" x="0" y="0" width="24" height="24"></rect>
                    <path d="M21.9833333,5.62006164 C21.2333333,5.97999548 20.4333333,6.21138153 19.625,6.30564991 C20.475,5.74860944 21.1166667,4.86591454 21.425,3.82896228 C20.6166667,4.35172334 19.7333333,4.72879689 18.8166667,4.91733366 C17.6666667,3.57186668 15.8833333,3.13480415 14.325,3.82039243 C12.7666667,4.5059807 11.7416667,6.16853226 11.7333333,8.02819045 C11.7416667,8.37955444 11.7833333,8.72234857 11.8583333,9.06514271 C8.55833333,8.87660593 5.48333333,7.13692569 3.40833333,4.28316451 C2.29166667,6.36563889 2.84166667,9.048003 4.65833333,10.39347 C4.00833333,10.3677604 3.375,10.1706538 2.80833333,9.81928981 L2.80833333,9.87070893 C2.80833333,12.030312 4.18333333,13.89854 6.09166667,14.3270327 C5.74166667,14.4298709 5.375,14.4812901 5.01666667,14.4812901 C4.75833333,14.4812901 4.5,14.4641504 4.24166667,14.4298709 C4.78333333,16.2809593 6.31666667,17.5407277 8.075,17.583577 C6.625,18.8347756 4.83333333,19.511794 2.98333333,19.5032242 C2.65,19.5032242 2.325,19.4860844 2,19.451805 C3.875,20.7887022 6.05833333,21.5 8.29166667,21.5 C15.825,21.5 19.95,14.5841283 19.95,8.58523092 L19.95,7.97677133 C20.75,7.32546247 21.4416667,6.5284661 22,5.62863149 L21.9833333,5.62006164 Z" id="Path-" fill="#FFFFFF"></path>
                </g>
            </g>
        </g>
    </g>
</svg>