<?xml version="1.0" encoding="UTF-8"?>
<svg width="118px" height="26px" viewBox="0 0 118 26" version="1.1" xmlns="http://www.w3.org/2000/svg" xmlns:xlink="http://www.w3.org/1999/xlink">
    <g id="Page-1" stroke="none" stroke-width="1" fill="none" fill-rule="evenodd">
        <g id="Vote" transform="translate(-132.000000, -426.000000)" fill="#FF2C7B">
            <g transform="translate(53.000000, 27.000000)">
                <g transform="translate(1.000000, 32.000000)">
                    <g transform="translate(38.000000, 0.000000)" >
                        <g transform="translate(0.000000, 333.000000)">
                            <path d="M40.4572434,34.5763791 C43.4047866,38.1762077 46.6410612,42.6985857 47.1645635,43.4301108 C47.1924656,43.4691728 47.2125011,43.4973367 47.2246698,43.5141125 C47.5036908,43.9021613 47.7340368,44.190657 47.9089473,44.4097226 C48.2973641,44.8960999 48.4125371,45.0403478 48.1808391,45.1729627 C47.9940056,45.2798629 47.8010264,45.3151289 47.6086617,45.3151289 C47.3910991,45.3151289 47.1458802,45.2098206 46.9674051,45.0393682 C46.8411696,44.9188759 45.9778025,43.6570134 44.8019811,41.8213433 C43.9023535,40.4167024 43.1494885,39.2514541 43.1290844,39.2319843 C43.0815156,39.1867997 43.082376,39.1883916 44.7102852,42.1193902 C45.7324607,43.9598359 46.431734,45.3200269 46.431734,45.4069675 C46.431734,45.5840323 46.3837965,45.6770955 46.1667255,45.920529 C45.8049816,46.3267005 45.6433461,46.7829548 45.5265752,47.7271781 C45.3957918,48.7856487 45.0277791,49.5334599 44.0080619,50.8130778 C43.4111783,51.562236 43.3134595,51.6995041 43.1628865,52.0014694 C42.973103,52.3816813 42.9209863,52.5946244 42.8998447,53.0747566 C42.8774738,53.5824405 42.9209863,53.9103655 43.0751239,54.3956407 C43.2100865,54.8205474 43.3508261,55.1012061 43.7109722,55.6624013 C44.0217057,56.1465744 44.2005495,56.5064593 44.2005495,56.6472785 C44.2005495,56.7593216 44.2218141,56.7594441 44.7032789,56.6500949 C45.8556233,56.3881712 46.7912654,55.9277536 47.317472,55.3633748 C47.6432013,55.0140207 47.7196555,54.8211596 47.7221138,54.3424968 C47.7238347,54.0293884 47.7127722,53.9638768 47.6286971,53.7837507 C47.4917679,53.4904794 47.2426157,53.246801 46.6933008,52.8689157 C45.9733775,52.3737219 45.6659628,51.9751423 45.5810273,51.4269271 C45.5113335,50.9771628 45.5920898,50.6597686 45.99034,49.8199963 C46.4026027,48.9507133 46.5047465,48.5802976 46.5738257,47.7040348 C46.6184445,47.1379416 46.6801487,46.9147125 46.8417842,46.735566 C47.010426,46.5487051 47.1622281,46.4853977 47.5792846,46.4279679 C48.2595058,46.3345374 48.6925414,46.1573502 49.0486312,45.8273434 C49.357398,45.5410519 49.4865835,45.2650462 49.506496,44.8496908 L49.5214918,44.5349905 L49.3489168,44.3324558 C48.7240081,43.5992163 40.0387119,34 40.000239,34 C39.9920036,34 40.1976433,34.2593522 40.4572434,34.5763791 Z M44.5514768,53.6491765 C44.692831,53.3972938 44.617606,53.0736546 44.3812371,52.9154473 C44.1578974,52.7660565 43.8110264,52.8364661 43.8110264,53.0311639 C43.8110264,53.0905529 43.8437222,53.1337782 43.9172264,53.1719831 C44.0412494,53.2361477 44.0502223,53.3082716 43.9527494,53.4557032 C43.8539243,53.605094 43.8619139,53.736362 43.9751202,53.8255066 C44.1576516,53.9693871 44.4160225,53.8902835 44.5513539,53.6491765 L44.5514768,53.6491765 Z M48.8045186,39.9174677 C48.5257434,39.873875 48.5139434,39.868732 48.6452185,39.8485275 C48.8965832,39.809588 49.490271,39.8626094 49.8994608,39.9604482 C50.8546467,40.1889426 51.7237909,40.7742607 52.6515664,41.8136288 L52.8980144,42.0897569 L53.2506625,42.032817 C54.7361112,41.7925672 56.2472495,41.9834691 57.5112023,42.5709912 C57.8589337,42.7326272 58.4071423,43.0544297 58.4756069,43.1370844 C58.4973632,43.1634115 58.537557,43.3330068 58.5645986,43.5141125 C58.658507,44.1402069 58.6115528,44.6202167 58.4211548,44.9787547 C58.3176589,45.1738199 58.3118818,45.2356579 58.3814527,45.4026817 C58.4370111,45.5359089 58.5920091,45.6344823 58.7455321,45.6342374 C59.0595843,45.6338701 59.3976053,45.1228801 59.5543241,44.4120492 L59.61652,44.1296761 L59.7398055,44.270128 C60.4158475,45.04096 60.9469707,46.092206 61.0381749,46.8403845 L61.0618978,47.0354497 L60.9483228,46.85814 C60.7526394,46.5529909 60.5562184,46.3451907 60.304485,46.1776771 C59.8509222,45.8755893 59.3711782,45.7728525 58.1009567,45.7055042 C56.953652,45.6446458 56.3044058,45.5460724 55.660568,45.3347211 C54.5650111,44.975326 54.0128692,44.4966632 52.7115498,42.7787914 C52.1335953,42.0157962 51.7763993,41.5934611 51.4209241,41.2535358 C50.613607,40.4811119 49.8201795,40.0759199 48.8045186,39.9174677 L48.8045186,39.9174677 Z M58.7343466,41.6211351 C58.7632321,41.1097778 58.8321884,40.7725464 58.9707155,40.4645809 C59.0255364,40.3426192 59.0769156,40.2429437 59.0847822,40.2429437 C59.0927718,40.2429437 59.068926,40.3328231 59.0318051,40.4427845 C58.9311363,40.7416886 58.9145426,41.1505541 58.9839905,41.6261556 C59.0719989,42.2298414 59.1221489,42.316782 59.7560305,42.9688361 C60.0533661,43.2745974 60.3992538,43.6601971 60.5246288,43.825874 L60.7526394,44.1268597 L60.5246288,43.9117125 C60.2458537,43.6485643 59.60472,43.1353701 59.4631199,43.0621441 C59.3681053,43.0129186 59.3539699,43.0137758 59.2954615,43.07243 C59.2415011,43.1264312 59.2300698,43.2077389 59.2225719,43.5916243 C59.2108948,44.1901671 59.1298927,44.5744199 58.9342092,44.9584277 C58.8283779,45.1662279 58.8116613,45.1219004 58.9074134,44.8874059 C58.9789509,44.7123003 58.986203,44.6352783 58.9857113,44.0559603 C58.9846051,42.8918141 58.8471842,42.6120125 58.0417109,42.132615 C57.837792,42.0111431 57.5014918,41.835915 57.294623,41.7432192 C57.087877,41.6506459 56.9235374,41.5699504 56.9294374,41.5639503 C56.9522999,41.5410519 57.7378607,41.7717504 58.0540025,41.8942019 C58.5242819,42.0761648 58.6018424,42.099798 58.6589987,42.0778791 C58.6972258,42.063185 58.7157862,41.950897 58.7343466,41.6211351 Z M48.505708,40.7273618 C48.4298684,41.6261556 48.7800581,42.8283843 49.3460897,43.6125635 C49.7849024,44.2204127 50.4651236,44.6928305 50.9673614,44.7383824 C51.2960407,44.7682606 51.3948657,44.6646666 51.2461365,44.4460907 C51.0396364,44.142656 50.7855675,43.6753811 50.7183321,43.4752954 C50.6765404,43.3510072 50.5859507,42.9838976 50.5167486,42.6595237 C50.2806256,41.55195 50.0484359,41.1205535 49.5125189,40.7929958 C49.3170813,40.6736056 48.8999019,40.5173575 48.6580018,40.4729076 L48.5291851,40.4492745 L48.505708,40.7273618 Z M58.0478567,49.448601 C55.4025657,48.3769057 54.4708569,47.4466418 54.4708569,45.8770587 C54.4708569,45.6459928 54.4788465,45.4570501 54.488434,45.4570501 C54.4981444,45.4570501 54.6004112,45.5333374 54.71583,45.626523 C55.2522386,46.059389 55.8529326,46.2442907 57.5158731,46.4883365 C58.4942903,46.6320945 59.0449572,46.7480561 59.5529721,46.9176514 C61.1674833,47.4564379 62.1664276,48.5498071 62.4046402,50.0391845 C62.4738423,50.471928 62.4332798,51.2834139 62.3210568,51.711137 C62.2324339,52.0489806 61.9620171,52.6578093 61.8903566,52.6811976 C61.8704441,52.6876875 61.8509003,52.6110329 61.8458608,52.5067042 C61.8186962,51.9474683 61.5378314,51.403049 61.0661999,50.9951632 C60.5299142,50.5314394 59.8093764,50.1623707 58.0478567,49.448601 L58.0478567,49.448601 Z M56.0629973,49.3306802 C56.1001182,49.4419886 56.1576432,49.6953407 56.1907078,49.8938346 C56.4026163,51.1626768 55.7407097,52.1878406 54.4531569,52.5850732 C54.3168423,52.627074 53.779942,52.7328721 53.2600042,52.8199351 C52.2074682,52.9962652 51.7378034,53.1211657 51.2659261,53.3499051 C50.9312238,53.5121533 50.5259674,53.755097 50.5500591,53.77922 C50.5578028,53.7870569 50.634257,53.7686892 50.7198071,53.7384436 C51.3149699,53.5281945 51.9772452,53.4193351 52.9834416,53.366681 C53.382798,53.3458642 53.8369753,53.3125574 53.9928338,53.2928427 C54.8892655,53.1792077 55.5106095,52.9051613 55.9937952,52.4103349 C56.2626141,52.1349415 56.4228975,51.8784057 56.552083,51.516684 C56.6339455,51.2872099 56.6450081,51.2019837 56.6456584,50.7954448 C56.6463601,50.3811915 56.6364039,50.305394 56.547658,50.0505725 C56.4315017,49.7165248 56.2944495,49.4658667 56.1208911,49.2698218 L55.995516,49.1282679 L56.0629973,49.3306802 Z M57.4034043,52.0608584 C57.0518624,51.3005572 56.9712291,50.566583 57.1637167,49.8820792 C57.1843667,49.8088532 57.2174313,49.7489745 57.2374667,49.7489745 C57.2573792,49.7489745 57.3402251,49.7941591 57.4217189,49.8492622 C57.5836002,49.9589788 57.9084691,50.143758 58.7738029,50.6185024 C59.8537493,51.2109227 60.4694392,51.6696259 60.8880936,52.1938407 C61.2547542,52.6527888 61.4816585,53.1755342 61.5908085,53.8130166 C61.6527586,54.174126 61.6164981,55.0430417 61.5244335,55.4066001 C61.2341042,56.5531133 60.5592913,57.4536215 59.5968533,57.9791832 C59.4558678,58.0560828 59.3292636,58.1192677 59.3154969,58.1196354 C59.3018532,58.11988 59.3532324,57.9884896 59.4296866,57.8274659 C59.7534492,57.1463907 59.7903243,56.4839282 59.5455971,55.7466479 C59.3956386,55.2951693 59.0900677,54.7442601 58.4730257,53.813139 C57.7556836,52.730668 57.5797898,52.4425396 57.4034043,52.0608584 L57.4034043,52.0608584 Z M50.7831092,54.5544603 C49.6707128,54.7363007 48.4491663,55.328721 47.4675533,56.162738 L47.1753802,56.4110696 L47.4322762,56.4514786 C48.7724373,56.6619727 49.1334437,56.8487112 50.063063,57.8124043 C50.5979966,58.3668646 50.7786842,58.4902957 51.2225365,58.604298 C51.874241,58.7716892 52.5167267,58.4640911 52.7371164,57.8790179 C52.8355727,57.617584 52.8224206,57.1847181 52.7094602,56.9673667 C52.4407642,56.4497643 51.6579075,56.2824956 51.2794469,56.6616053 C50.9640426,56.9774077 51.0559843,57.4531317 51.4480887,57.5349293 C51.5378179,57.5537868 51.5353596,57.5497459 51.4252262,57.4996633 C51.2536344,57.4215392 51.179024,57.3132921 51.1781635,57.1410029 C51.175951,56.7370354 51.6354138,56.5102553 52.0626723,56.7042185 C52.3756183,56.8463846 52.4998871,57.0320211 52.4998871,57.3574971 C52.4998871,57.858691 52.0759473,58.2363314 51.5826825,58.1746158 C51.3189032,58.1415539 50.9963697,57.9718362 50.8235488,57.7751791 C50.3884236,57.2801078 50.5579257,56.4988673 51.1653802,56.1991061 C51.6279159,55.970979 52.2427453,56.0271842 52.7194164,56.3412723 C53.2671334,56.7022592 53.5000606,57.0321435 53.971815,58.1148595 C54.1254609,58.4673973 54.323111,58.8642625 54.4109965,58.996755 C54.8579217,59.6698708 55.393347,60 56.0382911,60 C56.3940121,60 56.6616018,59.9346109 56.9982707,59.7655054 C57.2484063,59.6397477 57.603021,59.4008449 57.5774544,59.3752526 C57.5702023,59.3680279 57.4664606,59.4004776 57.3468626,59.4473765 C56.6426726,59.7237495 55.9268056,59.7047695 55.5111012,59.3985183 C55.2492886,59.2057797 55.0381176,58.8217719 54.9295822,58.3415172 C54.9107759,58.2583726 54.8488259,57.8912631 54.7917925,57.525623 C54.6472424,56.5989102 54.5084694,56.1823303 54.1848297,55.7042797 C53.853692,55.2152085 53.2171063,54.8047511 52.5054184,54.6214413 C52.0614432,54.5070716 51.2627303,54.4759689 50.7831092,54.5544603 L50.7831092,54.5544603 Z M49.2250167,47.3894569 C49.3210147,47.0323884 49.6313794,46.6918509 49.9507171,46.593155 C50.1537755,46.5304598 50.5734132,46.5705014 50.7708175,46.6714015 C51.1530885,46.8670789 51.4308803,47.3126799 51.3706511,47.6343599 C51.297024,48.026572 50.6649862,48.3404151 49.9378108,48.3455581 C49.5663565,48.3481296 49.4293043,48.2979244 49.2874584,48.1073899 C49.1995729,47.9893467 49.1663854,47.6072981 49.2250167,47.3894569 Z M50.6730987,46.811241 C50.8638655,46.9284271 50.9127863,47.101696 50.8008092,47.2619849 C50.7234946,47.3724362 50.4844215,47.4773771 50.3096339,47.4773771 C50.0470838,47.4773771 49.7606878,47.2897814 49.7606878,47.117982 C49.7606878,46.7727913 50.3100027,46.588012 50.6730987,46.811241 L50.6730987,46.811241 Z M107.669587,47.7996694 C107.07639,45.8340782 108.054685,44.2035144 110.142057,43.6796669 C110.740661,43.5292965 113.451344,43.5971346 113.915723,43.774077 C114.086332,43.8389763 114.160573,44.0879202 114.162171,44.5995224 C114.163278,45.0023878 114.207405,45.4918264 114.260013,45.6868916 C114.339909,45.9828568 114.2932,46.0410212 113.979886,46.0362456 C113.69644,46.0318374 113.525094,45.8664054 113.285775,45.3658238 C112.903627,44.5662156 112.440845,44.3120064 111.362497,44.3090675 C109.98583,44.3050266 108.978527,45.2284332 109.142498,46.3440887 C109.249312,47.0701035 109.977471,47.7844854 111.611526,48.7665463 C113.1663,49.7007286 114.073794,50.4689892 114.435292,51.1572889 C115.402155,52.9974897 114.576524,54.9667544 112.422408,55.9589788 C111.316649,56.4682545 109.463433,56.5209086 108.160516,56.0800833 L107.326157,55.7977102 L107.326157,54.4696014 C107.326157,53.2667605 107.35492,53.1412478 107.63013,53.1412478 C107.860353,53.1412478 107.959793,53.2928427 108.040549,53.7677095 C108.241641,54.9485092 109.142375,55.6653401 110.425257,55.6653401 C111.681957,55.6653401 112.560443,54.9813261 112.896989,53.7410151 C113.04031,53.212637 113.015604,53.0178167 112.731298,52.4349477 C112.390572,51.7361171 111.803891,51.2723933 109.811288,50.1272271 C108.705652,49.4917039 107.923778,48.6420131 107.669587,47.7996694 Z M68.609108,44.464336 C68.3372162,44.464336 68.2311391,44.3758036 68.2311391,44.1487785 C68.2311391,43.8482826 68.3372162,43.8333435 70.4677319,43.8333435 C72.4452163,43.8333435 72.6983018,43.8629768 72.6529455,44.0890222 C72.6245518,44.2298414 72.3513079,44.4249066 72.0453681,44.5228678 L71.489047,44.7009123 L71.4416012,48.7239331 C71.4097657,51.4083145 71.4545074,52.9568359 71.5758262,53.377824 C71.9365868,54.6298904 73.0370603,55.3499051 74.5897445,55.3499051 C75.6706742,55.3499051 76.3020974,55.0981449 77.095402,54.3504561 C77.94869,53.5466846 78.0847588,52.7829548 78.0820546,48.8135676 C78.0794734,44.8981816 78.0110087,44.5750321 77.1669395,44.4938468 C76.7828248,44.456744 76.6541309,44.3677218 76.6541309,44.13886 C76.6541309,43.853548 76.7808581,43.8333435 78.561184,43.8333435 C80.3622829,43.8333435 80.4682371,43.8508541 80.4682371,44.1487785 C80.4682371,44.3432315 80.3614225,44.4653156 80.1900765,44.4666626 C79.4540511,44.4731525 79.4405303,44.5429499 79.3414594,48.8362211 C79.238701,53.2946795 79.1427031,53.8225678 78.2357005,54.9147125 C77.9741337,55.2297802 77.3503313,55.6872589 76.8495685,55.9314272 C76.0335244,56.329272 75.7739242,56.3749464 74.3496881,56.3724726 C73.0368145,56.369681 72.6223393,56.3064961 71.965841,56.0088165 C71.0075822,55.5742362 70.3843944,55.0118166 69.9249316,54.1666565 C69.6042419,53.5766852 69.5768314,53.2574542 69.5025897,49.2602706 C69.4175314,44.6848711 69.3763542,44.464336 68.609108,44.464336 L68.609108,44.464336 Z M83.4803116,44.464336 C83.1169697,44.464336 83.0110155,44.3930692 83.0110155,44.1487785 C83.0110155,43.8530582 83.1125447,43.8340782 84.639908,43.8463234 L86.2689234,43.8591808 L87.0483384,44.7533215 C87.4767032,45.2450866 88.873529,46.7834446 90.1519859,48.171677 C91.4305657,49.5600318 92.8984373,51.1750444 93.4138272,51.7607298 C93.9293399,52.3465377 94.4144923,52.8256903 94.4920527,52.8256903 C94.5717028,52.8256903 94.6114049,51.1711259 94.5830111,49.0255311 L94.5328611,45.2253719 L94.0869192,44.8449152 C93.8417003,44.6355232 93.4664355,44.464336 93.2526833,44.464336 C92.9683769,44.464336 92.8642664,44.37862 92.8642664,44.1443703 C92.8642664,43.8362824 92.9453915,43.8259964 95.0493572,43.8683647 C96.8384102,43.9042429 97.2345708,43.9540807 97.2345708,44.1424111 C97.2345708,44.2766179 97.0133207,44.4174371 96.7033247,44.4803772 C96.4112745,44.5397661 96.0893556,44.6704218 95.9881952,44.7707096 C95.8576576,44.9002633 95.7911596,46.5749097 95.7588325,50.5458887 L95.7132304,56.1386151 L95.2526614,56.1386151 C94.8561321,56.1386151 94.3841318,55.6941162 91.8606513,52.9439784 C90.2483526,51.1867997 88.3663745,49.0985122 87.6785325,48.3033123 C86.9905676,47.50799 86.3741402,46.8512827 86.3086255,46.844058 C86.1241275,46.8234862 86.1687463,53.9288557 86.3574235,54.6033184 C86.5045548,55.1288802 86.6057153,55.2193718 87.2307469,55.385416 C87.7340909,55.5190106 87.937641,55.6545644 87.937641,55.8558746 C87.937641,56.1143697 87.745768,56.1386151 85.7127252,56.1386151 C83.6431762,56.1386151 83.4878095,56.1180432 83.4878095,55.8428948 C83.4878095,55.6414621 83.6375221,55.5174187 83.9573514,55.4538664 C84.927779,55.2612502 84.9921874,54.9554889 85.0466395,50.2815159 C85.0771228,47.6637482 85.0323811,45.832119 84.9282707,45.448601 C84.7453706,44.7742607 84.2895953,44.464336 83.4803116,44.464336 L83.4803116,44.464336 Z M100.144379,44.464336 C99.8038992,44.464336 99.697945,44.3893957 99.697945,44.1487785 C99.697945,43.847303 99.8038992,43.8333435 102.081792,43.8333435 C104.359562,43.8333435 104.465639,43.847303 104.465639,44.1487785 C104.465639,44.3802118 104.359562,44.464336 104.068249,44.464336 C103.849826,44.464336 103.52508,44.6091961 103.346728,44.7861385 C103.031938,45.0987571 103.023826,45.254148 103.068691,50.0841242 C103.112326,54.7991183 103.131009,55.0719402 103.423182,55.2839038 C103.59293,55.4069675 103.896781,55.5076226 104.09861,55.5076226 C104.359562,55.5076226 104.465639,55.5986041 104.465639,55.8231801 C104.465639,56.1246556 104.359562,56.1386151 102.081792,56.1386151 C99.8581055,56.1386151 99.697945,56.1187779 99.697945,55.8433846 C99.697945,55.6212576 99.8539263,55.5231739 100.327524,55.4479887 C101.26796,55.2987204 101.316021,54.9930815 101.25739,49.5392151 C101.210558,45.1716157 101.1904,44.8992837 100.89921,44.6880549 C100.729462,44.5649911 100.389843,44.464336 100.144379,44.464336 L100.144379,44.464336 Z M116.772923,44.464336 C116.555483,44.464336 116.39016,44.3443336 116.338658,44.1487785 C116.258516,43.8437519 116.333987,43.8333435 118.624663,43.8333435 C120.88756,43.8333435 120.993514,43.847303 120.993514,44.1487785 C120.993514,44.3912325 120.88756,44.464336 120.536141,44.464336 C119.535722,44.464336 119.558216,44.6448295 121.072427,48.7705872 C121.842992,50.8707525 122.591432,52.865732 122.735244,53.2038205 L122.996688,53.8186494 L124.210491,50.600747 C125.639398,46.8129554 125.825002,46.1124105 125.582365,45.4216617 C125.413231,44.9401825 124.755627,44.464336 124.259412,44.464336 C124.119164,44.464336 124.013087,44.3286598 124.013087,44.1487785 C124.013087,43.8468132 124.119164,43.8333435 126.476461,43.8333435 C128.833758,43.8333435 128.939712,43.8468132 128.939712,44.1487785 C128.939712,44.3733546 128.833758,44.464336 128.572806,44.464336 C127.90463,44.464336 127.609999,44.8180983 127.705997,45.5051736 C127.804822,46.2126982 130.538121,53.8155881 130.652803,53.7018306 C130.839267,53.5168065 133.866338,45.3322721 133.866338,45.0131635 C133.866338,44.6309925 133.596904,44.464336 132.979248,44.464336 C132.700964,44.464336 132.594887,44.3773955 132.594887,44.1487785 C132.594887,43.8508541 132.700964,43.8333435 134.502063,43.8333435 C136.119647,43.8333435 136.409116,43.8705688 136.409116,44.0782465 C136.409116,44.2129431 136.210974,44.3917223 135.968706,44.4753566 C135.423939,44.6639319 135.287132,44.8790792 134.603715,46.622176 C134.303675,47.3876202 133.364469,49.7832609 132.516466,51.9455091 C131.97497,53.3257036 131.434095,54.7061401 130.893842,56.0868181 C130.849224,56.2021674 130.586428,56.296455 130.309619,56.296455 L129.806644,56.296455 L128.665116,53.3383947 C128.113944,51.9113958 127.564506,50.483733 127.016803,49.0554093 C126.539149,47.8065267 126.499078,47.7522807 126.319373,48.1087369 C126.214525,48.3170269 125.460308,50.2478418 124.643035,52.3995592 L123.157463,56.3118839 L122.602986,56.2647401 L122.048509,56.2175963 L119.933726,50.7082594 C118.752251,47.6301965 117.66579,45.0366742 117.471581,44.831568 C117.280323,44.6295231 116.966025,44.464336 116.772923,44.464336 L116.772923,44.464336 Z M148.549847,44.5311945 C148.523297,44.4713157 148.52342,44.2559236 148.52342,44.2559236 C148.52342,44.2559236 148.517397,44.1782894 148.550093,44.1367783 C148.582666,44.0955122 148.59422,44.0944101 148.711114,44.0833895 L148.71222,44.083267 C149.141323,44.0426131 150.002232,43.9741627 150.72068,43.9429376 C150.78644,43.9401212 150.859576,43.936815 150.939103,43.9331415 L150.942299,43.9331415 C151.733022,43.8972632 153.147917,43.8495071 154.120434,43.8978755 C155.98631,43.9908161 157.313442,44.8892426 157.765652,46.3740893 C158.217986,47.8588134 157.97879,49.2525562 157.362362,50.1397171 C156.745812,51.0268781 155.709255,51.7907304 153.986209,51.7410151 C152.563816,51.6999939 152.183143,51.4346415 151.879047,51.222678 C151.814762,51.1778608 151.753918,51.1353701 151.68742,51.0980224 L151.68742,52.9914896 C151.702416,54.2828629 151.713232,54.9030797 151.813655,55.1326762 C151.948864,55.4417437 152.254558,55.6321558 152.850212,55.7781179 C152.850212,55.7781179 153.119646,55.841058 153.189217,55.9081614 C153.258664,55.9752648 153.258664,56.1242883 153.258664,56.1242883 C153.258664,56.1242883 153.272923,56.263638 153.217119,56.3346599 C153.161192,56.4056817 153.053394,56.3914774 153.053394,56.3914774 L150.415601,56.3702933 L148.825181,56.3661299 C148.825181,56.3661299 148.65826,56.3979673 148.595695,56.3311088 C148.533131,56.2641278 148.538908,56.1246556 148.538908,56.1246556 C148.538908,56.1246556 148.552675,55.9744076 148.625687,55.9071818 C148.6987,55.8398335 148.970223,55.7646483 148.970223,55.7646483 C149.583577,55.5930937 149.849569,55.4116206 149.988588,55.0697361 C150.100565,54.7940978 150.101302,54.2829854 150.100196,50.1119207 C150.09909,46.1563705 150.093313,45.4184779 150.002232,45.2062695 C149.867515,44.8921815 149.530108,44.8089145 149.04975,44.6903814 L149.049504,44.6903814 C148.954366,44.6668708 148.853452,44.6420131 148.747498,44.6137268 C148.747498,44.6137268 148.57652,44.5911957 148.549847,44.5311945 L148.549847,44.5311945 Z M156.230422,47.758893 C156.230422,48.4075185 156.218991,49.4230086 155.525864,50.0721239 C154.832736,50.7212392 153.467992,50.8989163 152.541568,50.7181779 C152.249518,50.661238 152.082597,50.5734403 151.953903,50.5057246 L151.940997,50.4989898 L151.703891,50.3745791 L151.690124,48.0956346 C151.68152,46.6677279 151.696516,45.737464 151.730318,45.6044817 C151.76117,44.8514051 152.875902,44.7578522 153.420669,44.7857711 C155.751047,44.7857711 156.162449,46.7418111 156.230422,47.758893 L156.230422,47.758893 Z M141.232,43.9216311 C141.232,43.9216311 141.118179,43.9652238 140.945604,44.030368 L140.323399,44.3505786 L139.875245,45.464887 C139.62892,46.0778791 139.178061,47.2029633 138.873597,47.9652238 C138.4408,49.0504662 138.005346,50.1346548 137.567238,51.21778 C137.453908,51.4978265 137.111585,52.3505786 136.806506,53.112839 C136.50155,53.874977 136.196716,54.6003796 136.129112,54.7247903 C136.117804,54.7454846 136.105881,54.7677708 136.093343,54.7912815 C135.922858,55.1106349 135.626505,55.6653401 135.103249,55.7492194 C135.103249,55.7492194 134.815624,55.7773832 134.709055,55.8822017 C134.602486,55.9871426 134.612811,56.0728586 134.612811,56.0728586 L134.612811,56.2049838 C134.612811,56.2049838 134.622521,56.2690259 134.682874,56.3008633 C134.743226,56.3328231 134.824965,56.3346599 134.824965,56.3346599 L136.738902,56.312986 L138.717124,56.312986 C138.717124,56.312986 138.857003,56.329272 138.910963,56.2846997 C138.964924,56.2401273 138.979797,56.1740036 138.979797,56.1740036 L138.979797,56.0348987 C138.979797,56.0348987 138.952263,55.8840384 138.873965,55.8251393 C138.795667,55.7663626 138.502019,55.726076 138.502019,55.726076 C137.710067,55.6223596 137.573752,55.0256536 137.671471,54.4890712 C137.719531,54.2254332 138.037763,53.2502296 138.396188,52.2684136 L138.520211,51.9291006 L140.592956,51.9133044 C141.733009,51.9046103 142.717326,51.910488 142.780259,51.9264067 C142.870234,51.9490602 142.996224,52.2038817 143.36608,53.1114921 C143.926458,54.4866222 143.971199,54.6541358 143.847176,54.9114064 C143.839555,54.9270801 143.831566,54.9443458 143.822839,54.9629584 C143.706437,55.2117798 143.480393,55.6952183 142.910797,55.7444438 C142.910797,55.7444438 142.608667,55.7548521 142.533442,55.844854 C142.45834,55.9349783 142.474565,56.0385722 142.474565,56.0385722 L142.474565,56.1762077 C142.474565,56.1762077 142.494723,56.2569032 142.533442,56.288863 C142.572284,56.3208229 142.637921,56.3127411 142.637921,56.3127411 L144.519408,56.2992714 L147.164207,56.299149 C147.164207,56.299149 147.267949,56.3101696 147.29622,56.2704953 C147.324368,56.2306986 147.330268,56.1839221 147.330268,56.1839221 L147.330268,56.0011021 C147.330268,56.0011021 147.318713,55.9038756 147.267826,55.8502418 C147.217061,55.7967305 146.874001,55.740158 146.874001,55.740158 C146.435926,55.6697484 146.217748,55.3094961 146.055252,55.0412049 C146.013829,54.9727545 145.975971,54.9103043 145.939096,54.8602216 C145.863748,54.7579747 145.594806,54.1976367 145.384127,53.6587277 C145.173571,53.1198188 144.698375,51.9024062 144.328272,50.9535297 C143.958047,50.0046532 143.441428,48.6809527 143.18023,48.0121227 C142.7612,46.9383529 142.342504,45.8644534 141.924144,44.7904243 L141.924021,44.7899345 C141.692323,44.1944529 141.598906,43.9542031 141.573217,43.9217535 C141.490002,43.8160779 141.232,43.9217535 141.232,43.9217535 L141.232,43.9216311 Z M141.108837,47.5450928 C140.998623,47.2769959 140.889799,47.0083338 140.782371,46.7391171 C140.607829,46.3008633 140.541577,46.1999633 140.487493,46.2904549 C140.47176,46.3169044 140.361872,46.6164207 140.243381,46.9561011 C139.47638,49.1553297 139.129018,50.1455948 139.059324,50.3322109 C139.015565,50.4495194 138.979797,50.570379 138.979797,50.6008694 C138.979797,50.6358905 139.603722,50.6563399 140.672606,50.6563399 C141.603577,50.6563399 142.365292,50.6448295 142.365292,50.6307476 C142.365292,50.6166656 142.282323,50.4067838 142.180794,50.164085 C142.079265,49.9213862 141.830727,49.3156187 141.628529,48.8178534 C141.426331,48.3200882 141.192421,47.7473826 141.108837,47.5450928 L141.108837,47.5450928 Z" id="Uniswap"></path>
                        </g>
                    </g>
                </g>
            </g>
        </g>
    </g>
</svg>