<?xml version="1.0" encoding="UTF-8"?>
<svg width="20px" height="20px" viewBox="0 0 20 20" version="1.1" xmlns="http://www.w3.org/2000/svg" xmlns:xlink="http://www.w3.org/1999/xlink">
    <defs>
        <linearGradient x1="-2.72351586e-14%" y1="20.5688477%" x2="186.855062%" y2="141.962891%" id="linearGradient-1">
            <stop stop-color="#61E1FF" offset="0%"></stop>
            <stop stop-color="#326CFF" offset="100%"></stop>
        </linearGradient>
    </defs>
    <g id="Page-1" stroke="none" stroke-width="1" fill="none" fill-rule="evenodd">
        <g id="Contracts" transform="translate(-631.000000, -237.000000)">
            <g id="Upgrade" transform="translate(631.000000, 237.000000)">
                <path d="M10,20 C15.523,20 20,15.523 20,10 C20,4.477 15.523,0 10,0 C4.477,0 0,4.477 0,10 C0,15.523 4.477,20 10,20 Z" id="Path" fill="url(#linearGradient-1)"></path>
                <path d="M13.53,8.97 L10.53,5.97 C10.3889,5.83052 10.1984,5.7523 10,5.7523 C9.8016,5.7523 9.6111,5.83052 9.47,5.97 L6.47,8.97 C6.18,9.26 6.18,9.74 6.47,10.03 C6.76,10.32 7.24,10.32 7.53,10.03 L9.25,8.31 L9.25,13.5 C9.25,13.91 9.59,14.25 10,14.25 C10.41,14.25 10.75,13.91 10.75,13.5 L10.75,8.31 L12.47,10.03 C12.62,10.18 12.81,10.25 13,10.25 C13.19,10.25 13.38,10.18 13.53,10.03 C13.82,9.74 13.82,9.26 13.53,8.97 L13.53,8.97 Z" id="Path" fill="#051735" fill-rule="nonzero"></path>
            </g>
        </g>
    </g>
</svg>