<?xml version="1.0" encoding="UTF-8"?>
<svg width="77px" height="92px" viewBox="0 0 77 92" version="1.1" xmlns="http://www.w3.org/2000/svg" xmlns:xlink="http://www.w3.org/1999/xlink">
    <defs>
        <path d="M1.84527904,10.634061 L33.286945,10.634061 C34.1703303,10.6245768 34.8808916,9.90469561 34.8788643,9.0212617 C34.9083216,8.31278258 34.4633371,7.67104016 33.7895048,7.45022244 L18.1849518,0.140785709 C17.7733435,-0.0469285698 17.3005606,-0.0469285698 16.8889523,0.140785709 L1.17711936,7.51358235 C0.372791179,7.90118013 0.0205447204,8.85664068 0.38079969,9.67358146 C0.639919265,10.2519074 1.21159793,10.6268431 1.84527904,10.634061 Z" id="path-1"></path>
        <filter x="-98.2%" y="-244.5%" width="296.3%" height="739.5%" filterUnits="objectBoundingBox" id="filter-2">
            <feOffset dx="0" dy="8" in="SourceAlpha" result="shadowOffsetOuter1"></feOffset>
            <feGaussianBlur stdDeviation="10" in="shadowOffsetOuter1" result="shadowBlurOuter1"></feGaussianBlur>
            <feComposite in="shadowBlurOuter1" in2="SourceAlpha" operator="out" result="shadowBlurOuter1"></feComposite>
            <feColorMatrix values="0 0 0 0 0.278431373   0 0 0 0 0.419607843   0 0 0 0 0.976470588  0 0 0 0.04 0" type="matrix" in="shadowBlurOuter1"></feColorMatrix>
        </filter>
    </defs>
    <g id="Page-1" stroke="none" stroke-width="1" fill="none" fill-rule="evenodd">
        <g id="Create-DAO-Choose-type" transform="translate(-1148.000000, -238.000000)">
            <g id="Group-3" transform="translate(986.000000, 200.000000)">
                <g id="Group-10" transform="translate(162.000000, 38.000000)">
                    <g id="Group-4">
                        <path d="M43,17.5980762 L67.341978,31.6519238 C70.1265877,33.2596189 71.841978,36.2307621 71.841978,39.4461524 L71.841978,67.5538476 C71.841978,70.7692379 70.1265877,73.7403811 67.341978,75.3480762 L43,89.4019238 C40.2153903,91.0096189 36.7846097,91.0096189 34,89.4019238 L9.65802195,75.3480762 C6.87341226,73.7403811 5.15802195,70.7692379 5.15802195,67.5538476 L5.15802195,39.4461524 C5.15802195,36.2307621 6.87341226,33.2596189 9.65802195,31.6519238 L34,17.5980762 C36.7846097,15.9903811 40.2153903,15.9903811 43,17.5980762 Z" id="Polygon" fill="#326CFF" opacity="0.280000001"></path>
                        <circle id="Oval" fill="#45BEFF" cx="25" cy="22" r="4"></circle>
                        <circle id="Oval-Copy-3" fill-opacity="0.6" fill="#45BEFF" cx="43" cy="14" r="2"></circle>
                        <circle id="Oval-Copy-4" fill="#45BEFF" cx="66.5" cy="11.5" r="2.5"></circle>
                        <circle id="Oval-Copy-6" fill="#45BEFF" cx="30" cy="1" r="1"></circle>
                        <circle id="Oval-Copy-5" fill="#45BEFF" cx="16.5" cy="12.5" r="1.5"></circle>
                    </g>
                    <g id="Group" transform="translate(21.000000, 36.720318)">
                        <path d="M33.5865106,33.7196815 L2.21900458,33.7196815 C1.76988044,33.8058154 1.43935185,34.2721531 1.43935185,34.8196815 C1.43935185,35.3672099 1.76988044,35.8335476 2.21900458,35.9196815 L33.6160306,35.9196815 C34.091706,35.8521862 34.4332907,35.3357161 34.3813902,34.7624711 L34.3813902,34.7321322 C34.3505375,34.2094829 34.017537,33.7857187 33.5857906,33.7196815 L33.5865106,33.7196815 Z" id="Path" fill="#338AFF" fill-rule="nonzero"></path>
                        <g id="Path">
                            <use fill="black" fill-opacity="1" filter="url(#filter-2)" xlink:href="#path-1"></use>
                            <use fill-opacity="0.45" fill="#45BEFF" fill-rule="evenodd" xlink:href="#path-1"></use>
                        </g>
                        <path d="M3.5545583,27.0399737 C3.12912069,27.0126361 2.71042487,27.1566162 2.39177811,27.4398277 C2.07313136,27.7230392 1.88101372,28.1219468 1.85823904,28.547653 C1.77698923,29.4311492 2.42152547,30.2156345 3.30399838,30.3073322 L31.8203056,30.3073322 C32.6479112,30.2088755 33.2711529,29.5070944 33.2711529,28.673653 C33.2711529,27.8402115 32.6479112,27.1384304 31.8203056,27.0399737 L31.4221459,27.0399737 L31.4221459,16.0959786 L31.5272658,16.0959786 C32.3919913,16.088932 33.0912585,15.3896647 33.098305,14.5249392 C33.094288,13.8641364 32.6751659,13.2772502 32.0514255,13.0590199 C32.0305455,13.0590199 32.0305455,13.0381399 32.0096655,13.0381399 L31.9643056,13.0381399 C31.8507063,12.9951256 31.7300908,12.9736395 31.6086258,12.9747369 L3.4314383,12.9747369 C2.56377731,12.9747369 1.86039913,13.6781583 1.86039913,14.5458192 C1.86039913,15.4134802 2.56377731,16.1168585 3.4314383,16.1168585 L3.95631814,16.1168585 L3.95631814,27.0608537 L3.5581583,27.0608537 L3.5545583,27.0399737 Z M15.6692729,25.5999743 L15.6692729,17.5359779 L19.6825511,17.5359779 L19.7034311,25.5999743 L15.6692729,25.5999743 Z M27.5586276,25.5999743 L23.5467894,25.5999743 L23.5467894,17.5359779 L27.5399076,17.5359779 L27.5586276,25.5999743 Z M11.8280746,17.5150979 L11.8489545,25.5790943 L7.81695642,25.5790943 L7.81695642,17.5150979 L11.8280746,17.5150979 Z" id="Shape" fill="#45BEFF" fill-rule="nonzero"></path>
                    </g>
                </g>
            </g>
        </g>
    </g>
</svg>