<?xml version="1.0" encoding="UTF-8"?>
<svg width="32px" height="32px" viewBox="0 0 32 32" version="1.1" xmlns="http://www.w3.org/2000/svg" xmlns:xlink="http://www.w3.org/1999/xlink">
    <title>icon/vote</title>
    <defs>
        <polygon id="path-1" points="0 0 24 0 24 24 0 24 0 12.3815599"></polygon>
    </defs>
    <g id="第五期UI优化" stroke="none" stroke-width="1" fill="none" fill-rule="evenodd">
        <g id="v5-Venture-Management-info" transform="translate(-300.000000, -485.000000)">
            <g id="Navigation/home" transform="translate(270.000000, 326.000000)">
                <g id="icon/vote" transform="translate(30.000000, 159.000000)">
                    <rect id="矩形备份-9" x="0" y="0" width="32" height="32" rx="7"></rect>
                    <g id="changyongicon-" transform="translate(4.000000, 4.000000)">
                        <mask id="mask-2" fill="white">
                            <use xlink:href="#path-1"></use>
                        </mask>
                        <g id="Clip-2"></g>
                        <path d="M11.7787617,15.28 C11.6445612,15.28 11.5140291,15.2366277 11.4067777,15.156503 L6.44804431,11.4523532 C6.17408656,11.2477548 6.11859041,10.8607325 6.32404964,10.588019 C6.52947256,10.3153056 6.91790927,10.2599236 7.19186703,10.464522 L11.6610139,13.8045113 L19.3471215,3.79091007 C19.4764914,3.6007088 19.7012363,3.49797552 19.9302305,3.5239844 C20.1593337,3.54984859 20.355132,3.70033115 20.4382673,3.91455175 C20.5214025,4.12873617 20.4784003,4.3712446 20.3264759,4.54404632 C19.4108335,5.73661576 18.7241017,6.63104283 18.2662805,7.22732755 C16.9334147,8.96330541 14.934116,11.5672722 12.2683844,15.0392279 C12.1513268,15.1905425 11.9705648,15.2795659 11.7787617,15.28 Z" id="Fill-1" stroke="#63678A" fill="#63678A" mask="url(#mask-2)"></path>
                        <path d="M11.6776072,22 L11.0751026,22 C5.74082186,21.6674981 1.68632511,17.0772015 2.01910424,11.7475062 C2.35174215,6.41770515 6.94586642,2.36658645 12.2801471,2.69908832 C12.6128909,2.71891286 12.8663764,3.00471067 12.8465001,3.33717726 C12.8265178,3.66967913 12.5404816,3.92295342 12.2077378,3.90309361 C8.78278886,3.67948557 5.56126376,5.54285061 4.04967123,8.62182639 C2.53818461,11.7008022 3.03534095,15.3867544 5.3087668,17.9560421 C7.58201613,20.5253299 11.1823926,21.4701699 14.4259829,20.3485317 C17.6695733,19.2270346 19.9152499,16.2609034 20.113025,12.8371854 C20.1301123,12.6220786 20.2609857,12.4324756 20.4560071,12.3398788 C20.6509932,12.2471409 20.8807542,12.265625 21.0585118,12.3879939 C21.2362693,12.5104686 21.3352981,12.7184145 21.3180696,12.933486 C20.994399,18.0201367 16.7788083,21.9848318 11.6776072,22 Z" id="Fill-3" stroke="#63678A" fill="#63678A" mask="url(#mask-2)"></path>
                    </g>
                </g>
            </g>
        </g>
    </g>
</svg>