<svg height="20" viewBox="0 0 32 20" width="32" xmlns="http://www.w3.org/2000/svg"><path d="m9.77473092 15.5199321-1.77219615-1.9520783c-.16994918-.1868687-.17290441-.4711523-.00453731-.6594867 2.85164604-3.27224474 6.19224054-4.9083671 10.02178354-4.9083671 3.8218106 0 7.2141374 1.62952177 10.1769805 4.8885653.1789027.199648.1676741.5048314-.0264208.6897554l-2.0530027 1.983479c-.2004259.1899647-.5169384.1833098-.7080527-.0160139-.0044252-.0046152-.0087614-.0093149-.0106563-.0161826-2.1288658-2.3778939-4.5884818-3.5668408-7.378848-3.5668408-2.7874939 0-5.2915516 1.1865005-7.512173 3.5595016-.1864777.2036874-.5028779.2144273-.70465185.0259017-.00972506-.0090865-.01908343-.0185577-.02822523-.0282336zm-7.72109663 3.2685632 2.09988449-2.1780173c.1902637-.197343.50394745-.2046951.70324767-.0164825l6.05732075 5.7203348c.1926707.1819519.4938382.1819753.6865373.0000533l6.0744347-5.7347101c.1932809-.1824714.4955465-.1818214.688041.0014794l6.0171237 5.7297419c.1927769.1835697.4955788.1839152.6887741.000786l6.0438824-5.728978c.1939117-.1838082.4980697-.1826847.6906182.002551l2.0467079 1.968977c.1990046.1914466.2051314.5079698.0136848.7069743-.0035887.0037304-.0072351.0074048-.0109379.011022l-8.7839121 8.5806839c-.1924383.187986-.4991222.190012-.6940274.0045848l-6.0120779-5.7197187c-.1924505-.183092-.4944745-.1837413-.6877106-.0014787l-6.0664118 5.7219157c-.1960354.1849031-.5033392.1811866-.6948457-.0084033l-8.76131978-8.6736371-.10895345-.1321808c-.06208506-.0753207-.05780935-.1852278.00993962-.2554976z" fill="#fff" fill-rule="evenodd" transform="translate(-2 -8)"/></svg>