<?xml version="1.0" encoding="UTF-8"?>
<svg width="65px" height="41px" viewBox="0 0 65 41" version="1.1" xmlns="http://www.w3.org/2000/svg" xmlns:xlink="http://www.w3.org/1999/xlink">
    <title>形状结合</title>
    <g id="第五期UI优化" stroke="none" stroke-width="1" fill="none" fill-rule="evenodd">
        <g id="v5-Venture-Management" transform="translate(-1250.000000, -391.000000)" fill="#3B99FC">
            <path d="M1265.81441,406.241199 L1262.22542,402.354347 C1261.87809,401.975506 1261.8731,401.395077 1262.21732,401.013399 C1267.98951,394.50778 1274.7504,391.254971 1282.5,391.254971 C1290.23002,391.254971 1297.09247,394.491368 1303.08733,400.964164 C1303.46265,401.363663 1303.44418,401.990778 1303.04836,402.369978 L1298.89069,406.319353 C1298.49264,406.702216 1297.85968,406.686107 1297.47921,406.285774 C1297.47512,406.281462 1297.47106,406.277114 1297.4667,406.27304 C1293.15004,401.521258 1288.16114,399.145367 1282.5,399.145367 C1276.84758,399.145367 1271.77066,401.51394 1267.26921,406.251086 C1266.88996,406.652574 1266.25698,406.667671 1265.85725,406.28657 C1265.84219,406.272208 1265.82757,406.257379 1265.81441,406.241199 Z M1250.16555,412.736648 L1254.43275,408.38505 C1254.812,407.998303 1255.43023,407.983817 1255.82717,408.352379 L1268.12458,419.770492 C1268.50821,420.12669 1269.10163,420.126736 1269.48531,419.770597 L1281.81676,408.324455 C1282.20161,407.967232 1282.7972,407.968511 1283.18051,408.327384 L1295.39576,419.763752 C1295.77964,420.123156 1296.3763,420.123836 1296.761,419.765309 L1309.03066,408.33038 C1309.4168,407.970513 1310.01614,407.972725 1310.39961,408.335432 L1314.54979,412.260906 C1314.95103,412.640417 1314.96864,413.273337 1314.58913,413.674573 C1314.57814,413.686195 1314.56687,413.697552 1314.55533,413.708634 L1296.76126,430.798905 C1296.37793,431.167067 1295.77359,431.171056 1295.38544,430.807987 L1283.18018,419.39139 C1282.79696,419.032931 1282.20185,419.031653 1281.81709,419.388462 L1269.50154,430.809432 C1269.11117,431.171454 1268.50559,431.164135 1268.12407,430.792785 L1250.36639,413.508246 L1250.36639,413.508246 L1250.14574,413.245056 C1250.02055,413.095731 1250.02912,412.875777 1250.16555,412.736648 Z" id="形状结合"></path>
        </g>
    </g>
</svg>