<?xml version="1.0" encoding="UTF-8"?>
<svg width="32px" height="32px" viewBox="0 0 32 32" version="1.1" xmlns="http://www.w3.org/2000/svg" xmlns:xlink="http://www.w3.org/1999/xlink">
    <g id="Page-1" stroke="none" stroke-width="1" fill="none" fill-rule="evenodd">
        <g transform="translate(-1830.000000, -830.000000)" fill="#328AFF">
            <g id="Group-2-Copy-6" transform="translate(1510.000000, 775.000000)">
                <path d="M336,55 C344.836556,55 352,62.163444 352,71 C352,79.836556 344.836556,87 336,87 C327.163444,87 320,79.836556 320,71 C320,62.163444 327.163444,55 336,55 Z M335.748962,74.7489621 C334.644393,74.7489621 333.748962,75.6443926 333.748962,76.7489621 C333.748962,77.8535316 334.644393,78.7489621 335.748962,78.7489621 C336.853532,78.7489621 337.748962,77.8535316 337.748962,76.7489621 C337.748962,75.6443926 336.853532,74.7489621 335.748962,74.7489621 Z M335.748962,60.7489621 C334.644393,60.7489621 333.748962,61.6443926 333.748962,62.7489621 L333.748962,70.7489621 C333.748962,71.8535316 334.644393,72.7489621 335.748962,72.7489621 C336.853532,72.7489621 337.748962,71.8535316 337.748962,70.7489621 L337.748962,62.7489621 C337.748962,61.6443926 336.853532,60.7489621 335.748962,60.7489621 Z" id="Warning"></path>
            </g>
        </g>
    </g>
</svg>